<svg height="322.529725" viewBox="0 0 124.90757 129.97853" width="310.048942" xmlns="http://www.w3.org/2000/svg" xmlns:xlink="http://www.w3.org/1999/xlink"><clipPath id="a"><path d="m35.684 445.008h36.761v39.767h-36.761z" transform="matrix(1 0 0 -1 -32.006501 491.83871)"/></clipPath><clipPath id="b"><path d="m35.684 445.008h36.761v39.767h-36.761z" transform="translate(-54.276401 -444.88431)"/></clipPath><clipPath id="c"><path d="m35.684 445.008h36.761v39.767h-36.761z" transform="translate(-54.308002 -445.66341)"/></clipPath><clipPath id="d"><path d="m35.684 445.008h36.761v39.767h-36.761z" transform="translate(-59.018701 -475.88121)"/></clipPath><clipPath id="e"><path d="m35.684 445.008h36.761v39.767h-36.761z" transform="translate(-47.021501 -459.93021)"/></clipPath><clipPath id="f"><path d="m35.684 445.008h36.761v39.767h-36.761z" transform="translate(-54.181801 -459.93021)"/></clipPath><clipPath id="g"><path d="m35.684 445.008h36.761v39.767h-36.761z" transform="translate(-54.181801 -460.49801)"/></clipPath><clipPath id="h"><path d="m35.684 445.008h36.761v39.767h-36.761z" transform="translate(-54.402601 -459.96181)"/></clipPath><clipPath id="i"><path d="m35.684 445.008h36.761v39.767h-36.761z" transform="translate(-54.402601 -460.52951)"/></clipPath><clipPath id="j"><path d="m35.684 445.008h36.761v39.767h-36.761z" transform="translate(-53.220701 -473.63101)"/></clipPath><clipPath id="k"><path d="m35.684 445.008h36.761v39.767h-36.761z" transform="translate(-56.369801 -473.57051)"/></clipPath><clipPath id="l"><path d="m35.684 445.008h36.761v39.767h-36.761z" transform="translate(-51.918601 -473.66131)"/></clipPath><clipPath id="m"><path d="m35.684 445.008h36.761v39.767h-36.761z" transform="translate(-50.646802 -471.63251)"/></clipPath><clipPath id="n"><path d="m35.684 445.008h36.761v39.767h-36.761z" transform="translate(-48.587701 -472.96491)"/></clipPath><clipPath id="o"><path d="m35.684 445.008h36.761v39.767h-36.761z" transform="translate(-61.578401 -471.66281)"/></clipPath><clipPath id="p"><path d="m35.684 445.008h36.761v39.767h-36.761z" transform="translate(-44.711701 -471.69311)"/></clipPath><clipPath id="q"><path d="m35.684 445.008h36.761v39.767h-36.761z" transform="translate(-43.682101 -470.78461)"/></clipPath><clipPath id="r"><path d="m35.684 445.008h36.761v39.767h-36.761z" transform="translate(-65.545102 -470.87551)"/></clipPath><clipPath id="s"><path d="m35.684 445.008h36.761v39.767h-36.761z" transform="translate(-54.399901 -458.45021)"/></clipPath><clipPath id="t"><path d="m35.684 445.008h36.761v39.767h-36.761z" transform="translate(-56.156201 -458.48051)"/></clipPath><clipPath id="u"><path d="m35.684 445.008h36.761v39.767h-36.761z" transform="translate(-51.614002 -456.75451)"/></clipPath><clipPath id="v"><path d="m35.684 445.008h36.761v39.767h-36.761z" transform="translate(-52.159102 -456.75451)"/></clipPath><clipPath id="w"><path d="m35.684 445.008h36.761v39.767h-36.761z" transform="translate(-55.005601 -456.75451)"/></clipPath><clipPath id="x"><path d="m35.684 445.008h36.761v39.767h-36.761z" transform="translate(-51.190201 -454.66501)"/></clipPath><clipPath id="y"><path d="m35.684 445.008h36.761v39.767h-36.761z" transform="translate(-53.067701 -456.11861)"/></clipPath><clipPath id="z"><path d="m35.684 445.008h36.761v39.767h-36.761z" transform="translate(-57.034501 -454.72561)"/></clipPath><clipPath id="A"><path d="m35.684 445.008h36.761v39.767h-36.761z" transform="translate(-54.157601 -456.20941)"/></clipPath><clipPath id="B"><path d="m35.684 445.008h36.761v39.767h-36.761z" transform="translate(-57.609901 -456.11861)"/></clipPath><clipPath id="C"><path d="m35.684 445.008h36.761v39.767h-36.761z" transform="translate(-52.157602 -450.07651)"/></clipPath><clipPath id="D"><path d="m35.684 445.008h36.761v39.767h-36.761z" transform="translate(-53.338501 -449.59201)"/></clipPath><clipPath id="E"><path d="m35.684 445.008h36.761v39.767h-36.761z" transform="translate(-54.216502 -449.95541)"/></clipPath><clipPath id="F"><path d="m35.684 445.008h36.761v39.767h-36.761z" transform="translate(-56.366602 -449.65261)"/></clipPath><clipPath id="G"><path d="m35.684 445.008h36.761v39.767h-36.761z" transform="translate(-58.156201 -450.53041)"/></clipPath><clipPath id="H"><path d="m35.684 445.008h36.761v39.767h-36.761z" transform="translate(-48.914101 -454.00021)"/></clipPath><clipPath id="I"><path d="m35.684 445.008h36.761v39.767h-36.761z" transform="translate(-49.513401 -454.44171)"/></clipPath><clipPath id="J"><path d="m35.684 445.008h36.761v39.767h-36.761z" transform="translate(-46.232901 -456.96521)"/></clipPath><clipPath id="K"><path d="m35.684 445.008h36.761v39.767h-36.761z" transform="translate(-46.737601 -457.02831)"/></clipPath><clipPath id="L"><path d="m35.684 445.008h36.761v39.767h-36.761z" transform="translate(-44.718901 -460.93961)"/></clipPath><clipPath id="M"><path d="m35.684 445.008h36.761v39.767h-36.761z" transform="translate(-44.466501 -460.46641)"/></clipPath><clipPath id="N"><path d="m35.684 445.008h36.761v39.767h-36.761z" transform="translate(-43.394101 -462.39061)"/></clipPath><clipPath id="O"><path d="m35.684 445.008h36.761v39.767h-36.761z" transform="translate(-43.173301 -463.90461)"/></clipPath><clipPath id="P"><path d="m35.684 445.008h36.761v39.767h-36.761z" transform="translate(-42.290101 -465.22941)"/></clipPath><clipPath id="Q"><path d="m35.684 445.008h36.761v39.767h-36.761z" transform="translate(-41.880001 -467.24821)"/></clipPath><clipPath id="R"><path d="m35.684 445.008h36.761v39.767h-36.761z" transform="translate(-41.627701 -469.39311)"/></clipPath><clipPath id="S"><path d="m35.684 445.008h36.761v39.767h-36.761z" transform="translate(-42.763201 -466.71191)"/></clipPath><clipPath id="T"><path d="m35.684 445.008h36.761v39.767h-36.761z" transform="translate(-42.644401 -467.59511)"/></clipPath><clipPath id="U"><path d="m35.684 445.008h36.761v39.767h-36.761z" transform="translate(-43.824901 -462.27791)"/></clipPath><clipPath id="V"><path d="m35.684 445.008h36.761v39.767h-36.761z" transform="translate(-43.780001 -463.12281)"/></clipPath><clipPath id="W"><path d="m35.684 445.008h36.761v39.767h-36.761z" transform="translate(-45.451801 -460.56111)"/></clipPath><clipPath id="X"><path d="m35.684 445.008h36.761v39.767h-36.761z" transform="translate(-45.607801 -459.92811)"/></clipPath><clipPath id="Y"><path d="m35.684 445.008h36.761v39.767h-36.761z" transform="translate(-47.221601 -456.87621)"/></clipPath><clipPath id="Z"><path d="m35.684 445.008h36.761v39.767h-36.761z" transform="translate(-50.617402 -450.53041)"/></clipPath><clipPath id="aa"><path d="m35.684 445.008h36.761v39.767h-36.761z" transform="translate(-59.859502 -454.00021)"/></clipPath><clipPath id="ab"><path d="m35.684 445.008h36.761v39.767h-36.761z" transform="translate(-59.260201 -454.44171)"/></clipPath><clipPath id="ac"><path d="m35.684 445.008h36.761v39.767h-36.761z" transform="translate(-62.540602 -456.96521)"/></clipPath><clipPath id="ad"><path d="m35.684 445.008h36.761v39.767h-36.761z" transform="translate(-62.036002 -457.02831)"/></clipPath><clipPath id="ae"><path d="m35.684 445.008h36.761v39.767h-36.761z" transform="translate(-64.054702 -460.93961)"/></clipPath><clipPath id="af"><path d="m35.684 445.008h36.761v39.767h-36.761z" transform="translate(-64.307102 -460.46641)"/></clipPath><clipPath id="ag"><path d="m35.684 445.008h36.761v39.767h-36.761z" transform="translate(-65.379502 -462.39061)"/></clipPath><clipPath id="ah"><path d="m35.684 445.008h36.761v39.767h-36.761z" transform="translate(-65.600302 -463.90461)"/></clipPath><clipPath id="ai"><path d="m35.684 445.008h36.761v39.767h-36.761z" transform="translate(-66.483502 -465.22941)"/></clipPath><clipPath id="aj"><path d="m35.684 445.008h36.761v39.767h-36.761z" transform="translate(-66.893602 -467.24821)"/></clipPath><clipPath id="ak"><path d="m35.684 445.008h36.761v39.767h-36.761z" transform="translate(-67.145902 -469.39311)"/></clipPath><clipPath id="al"><path d="m35.684 445.008h36.761v39.767h-36.761z" transform="translate(-66.010402 -466.71191)"/></clipPath><clipPath id="am"><path d="m35.684 445.008h36.761v39.767h-36.761z" transform="translate(-66.129202 -467.59511)"/></clipPath><clipPath id="an"><path d="m35.684 445.008h36.761v39.767h-36.761z" transform="translate(-64.948802 -462.27791)"/></clipPath><clipPath id="ao"><path d="m35.684 445.008h36.761v39.767h-36.761z" transform="translate(-64.993601 -463.12281)"/></clipPath><clipPath id="ap"><path d="m35.684 445.008h36.761v39.767h-36.761z" transform="translate(-63.321802 -460.56111)"/></clipPath><clipPath id="aq"><path d="m35.684 445.008h36.761v39.767h-36.761z" transform="translate(-63.165802 -459.92811)"/></clipPath><clipPath id="ar"><path d="m35.684 445.008h36.761v39.767h-36.761z" transform="translate(-61.552001 -456.87621)"/></clipPath><clipPath id="as"><path d="m35.684 445.008h36.761v39.767h-36.761z" transform="translate(-58.098301 -465.29781)"/></clipPath><clipPath id="at"><path d="m35.684 445.008h36.761v39.767h-36.761z" transform="translate(-52.594102 -465.05061)"/></clipPath><clipPath id="au"><path d="m35.684 445.008h36.761v39.767h-36.761z" transform="translate(-54.991301 -464.90351)"/></clipPath><clipPath id="av"><path d="m35.684 445.008h36.761v39.767h-36.761z" transform="translate(-55.348901 -462.06461)"/></clipPath><clipPath id="aw"><path d="m35.684 445.008h36.761v39.767h-36.761z" transform="translate(-53.561401 -461.81231)"/></clipPath><clipPath id="ax"><path d="m35.684 445.008h36.761v39.767h-36.761z" transform="translate(-53.645602 -462.06461)"/></clipPath><clipPath id="ay"><path d="m35.684 445.008h36.761v39.767h-36.761z" transform="translate(-50.890801 -465.17681)"/></clipPath><clipPath id="az"><path d="m35.684 445.008h36.761v39.767h-36.761z" transform="translate(-51.858101 -465.95491)"/></clipPath><clipPath id="aA"><path d="m35.684 445.008h36.761v39.767h-36.761z" transform="translate(-53.456302 -468.18391)"/></clipPath><clipPath id="aB"><path d="m35.684 445.008h36.761v39.767h-36.761z" transform="translate(-55.811401 -467.36381)"/></clipPath><path clip-path="url(#a)" d="m.80892969-.39726094.12890625.3984375h.17578126l-.43359376-1.27734376h-.19921875l-.43359375 1.27734376h.17578125l.12890625-.3984375zm-.421875-.12890625.12890625-.375c.0234375-.0820313.0351563-.15234371.0585938-.23437501.0234375.082031.046875.15234376.0703125.23437501l.12890625.375zm.90527341.52734375h.1640625v-1.34765626h-.1640625zm.366211-.57421875v.1171875h.46875v-.1171875zm1.0283203.57421875.1757812-.66796875c.046875-.1640625.082031-.29296875.1054688-.42187501.023437.14062501.046875.25781251.082031.42187501l.1640627.66796875h.1757813l.3632812-1.27734376h-.1757812l-.1640625.64453126c-.035156.15234375-.082031.3046875-.1054688.4453125-.023437-.140625-.058594-.29296875-.09375-.4453125l-.1523437-.64453126h-.1757813l-.1640625.64453126c-.046875.1640625-.082031.31640625-.1054687.4453125h-.011719c-.023437-.12890625-.046875-.28125-.09375-.4453125l-.1523435-.64453126h-.1757813l.328125 1.27734376zm1.7958984-.5625c0-.1875-.070312-.375-.3515625-.375-.1171875 0-.2226562.0351563-.3046875.0820313l.035156.10546875c.070312-.0351563.1640625-.0585938.2460937-.0585938.1875-.0117188.2109375.12890625.2109375.19921875v.0234375c-.3515625 0-.5507812.1171875-.5507812.33984375 0 .140625.09375.26953125.28125.26953125.1289062 0 .2226562-.0703125.28125-.140625l.011719.1171875h.1523438c-.011719-.05859375-.011719-.140625-.011719-.22265625zm-.1640625.2578125c0 .0117188 0 .0351563-.011719.046875-.023437.0820313-.09375.15234375-.2226563.15234375-.082031 0-.1523437-.046875-.1523437-.15234375 0-.1875.2109375-.2109375.3867187-.2109375zm.3632813.2578125c.070312.046875.1640625.0703125.2695312.0703125.2109375 0 .3398438-.1171875.3398438-.28125 0-.140625-.082031-.2109375-.2460938-.26953125-.1171875-.046875-.1757812-.0820313-.1757812-.1640625 0-.0703125.058594-.1171875.1523437-.1171875.09375 0 .1523438.0234375.1875.046875l.046875-.1171875c-.046875-.0351563-.1289062-.0585938-.2226562-.0585938-.1992188 0-.3164063.1171875-.3164063.26953125 0 .10546875.070312.19921875.234375.2578125.1289063.046875.1757813.09375.1757813.1640625 0 .0820313-.058594.140625-.1757813.140625-.082031 0-.1757812-.0351563-.2226562-.0585938zm.8173828.046875h.1640625v-1.34765626h-.1640625zm.7910156-.05859375c.070312.046875.1992187.08203125.328125.08203125.2929687 0 .4453125-.17578125.4453125-.375 0-.1875-.1054688-.29296875-.328125-.375-.1757813-.0703125-.2578125-.12890625-.2578125-.24609375 0-.0820312.070312-.18750001.2460937-.18750001.1171875 0 .1992188.035156.234375.058594l.046875-.140625c-.046875-.023437-.1523437-.058594-.28125-.058594-.2460937 0-.4101562.1523438-.4101562.35156251 0 .17578125.1289062.28125.3398437.36328125.1757813.0585938.234375.12890625.234375.24609375 0 .12890625-.09375.22265625-.2578125.22265625-.1171875 0-.2226562-.0351563-.2929687-.0820313zm1.8574219-.1171875c-.070312.0351563-.1757813.0585938-.2695313.0585938-.3164062 0-.4921875-.19921875-.4921875-.515625 0-.33984375.1992188-.52734371.4921875-.52734371.1054688 0 .1992188.023437.2578125.046875l.046875-.1289063c-.046875-.023437-.1523437-.058594-.3046875-.058594-.3984375 0-.6679687.2695313-.6679687.66796881 0 .421875.2695312.65625.6328125.65625.1523437 0 .2695312-.03515625.328125-.05859375zm.6328125.17578125h.1640625v-1.34765626h-.1640625zm.8320312-.9375c-.2578125 0-.4570312.17578125-.4570312.48046875 0 .29296875.1992187.48046875.4453125.48046875.2226562 0 .4570311-.15234375.4570311-.4921875 0-.28125-.1757811-.46875-.4453124-.46875zm0 .12890625c.1992188 0 .2695313.1875.2695313.3515625 0 .19921875-.1171875.3515625-.28125.3515625s-.2695313-.15234375-.2695313-.3515625c0-.17578125.082031-.3515625.28125-.3515625zm1.4384764.140625c0-.10546875 0-.1875.01172-.24609375h-.152344l-.01172.12890625c-.03516-.0703125-.128906-.15234375-.28125-.15234375-.222656 0-.421875.17578125-.421875.48046875 0 .2578125.164063.45703125.398438.45703125.140625 0 .234375-.0703125.28125-.15234375h.01172v.09375c0 .234375-.128907.328125-.292969.328125-.117188 0-.210938-.0351563-.269531-.0820313l-.04687.12890625c.07031.0585938.199218.0820313.304687.0820313.117188 0 .246094-.0351563.339844-.1171875.08203-.0820313.128906-.19921875.128906-.421875zm-.164062.28125c0 .0234375-.01172.0585938-.01172.0820313-.03516.10546875-.128906.17578125-.234375.17578125-.175781 0-.269531-.15234375-.269531-.328125 0-.22265625.105468-.3515625.269531-.3515625.117187 0 .199219.0820313.234375.17578125 0 .0234375.01172.046875.01172.0820313zm.823242-.55078125c-.257813 0-.457031.17578125-.457031.48046875 0 .29296875.199218.48046875.445312.48046875.222656 0 .457031-.15234375.457031-.4921875 0-.28125-.175781-.46875-.445312-.46875zm0 .12890625c.199219 0 .269531.1875.269531.3515625 0 .19921875-.117187.3515625-.28125.3515625-.164062 0-.269531-.15234375-.269531-.3515625 0-.17578125.08203-.3515625.28125-.3515625zm.972656.234375v.1171875h.46875v-.1171875zm1.063477-.70312501v.75000001c0 .3984375.199218.55078125.457031.55078125.28125 0 .492187-.1640625.492187-.55078125v-.75000001h-.175781v.76171876c0 .28125-.117187.3984375-.304687.3984375-.175782 0-.304688-.1171875-.304688-.3984375v-.76171876zm1.828125.87890626.128906.3984375h.175781l-.433594-1.27734376h-.199218l-.433594 1.27734376h.175781l.128906-.3984375zm-.421875-.12890625.128906-.375c.02344-.0820313.03516-.15234371.05859-.23437501.02344.082031.04687.15234376.07031.23437501l.128906.375zm1.579101-.2109375h-.503906v-.39843751h.527344v-.140625h-.691407v1.27734376h.726563v-.140625h-.5625v-.45703125h.503906zm0 0" transform="matrix(3.52777764514 0 0 3.52777764514 -16.22059786001 -35.22981126388)"/><path clip-path="url(#b)" d="m0 0s18.169 6.372 17.727 30.47c0 0-7.066.063-6.561 6.498h-22.269c.505-6.435-6.561-6.498-6.561-6.498-.442-24.098 17.727-30.47 17.727-30.47z" fill="#060808" transform="matrix(3.52777764514 0 0 -3.52777764514 62.34265948355 130.41488435759)"/><path clip-path="url(#c)" d="m0 0c-2.199.894-17.076 7.734-16.988 29.025 1.163.13 3.506.602 5.074 2.313.997 1.088 1.506 2.476 1.52 4.136h20.788c.013-1.66.523-3.048 1.52-4.136 1.568-1.711 3.911-2.183 5.074-2.313.088-21.291-14.789-28.131-16.988-29.025" fill="#fff100" transform="matrix(3.52777764514 0 0 -3.52777764514 62.45413902381 127.66639272555)"/><path clip-path="url(#d)" d="m0 0c.302.329.522 1.193.242 1.726-.28-.375-.51-1.168-.242-1.726m-9.326-.03c.2.639.048 1.456-.334 1.786-.228-.603-.082-1.475.334-1.786m6.086.424c.369.309.496 1.29.182 1.756-.31-.363-.403-1.215-.182-1.756m-2.968-.091c.294.567.215 1.608-.242 1.938-.3-.574-.197-1.592.242-1.938m9.842.333c-.021 1.477-1.724 2.358-3.028 1.453.421-.797.151-2.058-.394-2.513.919-1.51 3.448-.809 3.422 1.06m-16.594-.333c.135-1.07 1.478-1.991 2.695-1.393.171.084.703.468.696.636-.001.042-.294.375-.393.575-.257.52-.358 1.471-.031 1.999-1.541.937-3.167-.241-2.967-1.817m10.235 2.241c.451-.686.31-2.088-.243-2.544.336-.753 1.933-.98 2.605-.363-.386.852-.108 2.068.424 2.543-.476.83-2.024 1.081-2.786.364m-6.692-.364c.567-.502.814-1.709.424-2.574.654-.562 2.137-.358 2.513.303-.604.468-.787 1.974-.273 2.695-.728.637-2.301.391-2.664-.424m3.876.939c-.18-.083-.634-.345-.636-.485-.001-.051.234-.262.333-.454.328-.638.33-1.675-.061-2.241.543-.484 1.956-.493 2.362.122-.479.732-.229 1.998.242 2.543-.371.566-1.407.898-2.24.515m2.573-.212c.781.773 2.381.551 3.089-.121.265-.252.169-.373.485-.182 1.537.93 3.658-.288 3.452-2.301-.113-1.104-1.136-2.094-2.483-1.999-.788.056-1.247.417-1.696.969-.662-.564-1.872-.567-2.604-.121-.149.091-.445.505-.545.515-.083.008-.489-.304-.636-.363-.742-.3-1.656-.196-2.241.302-.505-.765-2.255-1.085-3.058-.363-.498-.544-1.121-.996-2.059-.939-1.904.117-2.868 2.553-1.484 3.937.641.641 2.054.974 2.937.242.419.481 1.124.976 2.029.939.511-.022.903-.219 1.272-.454.728 1.006 2.9.962 3.542-.061" fill="#060808" fill-rule="evenodd" transform="matrix(3.52777764514 0 0 -3.52777764514 79.07244071028 21.06471073523)"/><path clip-path="url(#e)" d="m0 0h6.624l-.063-.379h1.482l-.094.347h6.687l-.883 9.526h-.19l-.094.41-.41.19-.095.189s-3.028 1.23-5.646-.41c0 0-1.924 1.577-5.804.442l.032-.316h-.442l-.063-.505-.189.032z" fill="#060808" transform="matrix(3.52777764514 0 0 -3.52777764514 36.74898480599 77.33629335963)"/><path clip-path="url(#f)" d="m0 0s-3.785 2.176-6.656.505l.821 9.242h.189l-.631-8.769s2.586 1.766 6.277-.726z" fill="#fff" transform="matrix(3.52777764514 0 0 -3.52777764514 62.00893259192 77.33629335963)"/><path clip-path="url(#g)" d="m0 0s-2.776 2.145-6.056.789l.694 8.768s3.375 1.041 5.362-.599z" fill="#fff" transform="matrix(3.52777764514 0 0 -3.52777764514 62.00893259192 75.3332123432)"/><path clip-path="url(#h)" d="m0 0s3.785 2.176 6.656.505l-.821 9.242h-.189l.631-8.769s-2.586 1.766-6.277-.726z" fill="#fff" transform="matrix(3.52777764514 0 0 -3.52777764514 62.78786591544 77.22479794437)"/><path clip-path="url(#i)" d="m0 0s2.776 2.145 6.056.789l-.694 8.768s-3.375 1.041-5.362-.599z" fill="#fff" transform="matrix(3.52777764514 0 0 -3.52777764514 62.78786591544 75.2220873446)"/><path clip-path="url(#j)" d="m0 0c.084-.42-.029-.906.121-1.211.152-.101.396-.109.454-.303-.018-.113-.114-.149-.121-.273-.464-.051-.86.157-.938.636-.052.317-.105.922-.061 1.06.077.242.383.221.545.091" fill="#060808" fill-rule="evenodd" transform="matrix(3.52777764514 0 0 -3.52777764514 58.61838453047 29.00289855189)"/><path clip-path="url(#k)" d="m0 0c-.002-.462-.093-.836-.091-1.302.334-.232 1.056-.235 1.514-.242.182.172.13.576.212.848.174.095.37.054.485-.061.049-.316-.196-.568-.091-.787.089-.186.526-.202.848-.273.345-.076 1.26-.458 1.09.152-.088.317-.891.232-1.181.393-.067-.095-.021-.302-.121-.363-.164-.124-.355-.017-.454.091.04.283.105.541.151.817.586-.194 1.721-.124 2.029-.605.317-.496-.089-1.207-.727-1.151-.206.018-.516.111-.817.182-.441.103-.873.142-1.151.363-.56-.14-1.466.009-1.969.212-.564-.409-1.581-.114-1.332.848.176.146.328.106.515 0 .015-.157-.033-.376.03-.485.092-.135.273-.114.424-.06.128.407.077.993.151 1.453.17.14.337.115.485-.03" fill="#060808" fill-rule="evenodd" transform="matrix(3.52777764514 0 0 -3.52777764514 69.72770939051 29.2163379242)"/><path clip-path="url(#l)" d="m0 0c.166-.12.177-.361.03-.515-.259-.043-.618.013-.757-.151.276-.187.625.021.909-.03.435-.079.757-.803.272-1.121-.127-.084-1.139-.295-1.362-.242-.14.033-.126.137-.243.242.005.117.103.14.091.273.372.092.895.034 1.181.212-.191.21-.497.022-.727.03-.307.011-.629.169-.696.454-.17.726.594.837 1.302.848" fill="#060808" fill-rule="evenodd" transform="matrix(3.52777764514 0 0 -3.52777764514 54.02486602584 28.89600688657)"/><path clip-path="url(#m)" d="m0 0c-.156-.097-.241-.186-.454-.091-.163.372-.127.943-.303 1.302-.325.141-.644-.135-.454-.424.151.01.248.075.424.061.122-.125.172-.223.09-.424-.119-.052-.256-.087-.424-.091.021-.181.08-.324.091-.515-.113-.132-.288-.187-.484-.091.009.534-.402.923-.273 1.484.115.498 1.091.709 1.454.303.365-.408.125-.988.333-1.514" fill="#060808" fill-rule="evenodd" transform="matrix(3.52777764514 0 0 -3.52777764514 49.53823918653 36.0531711714)"/><path clip-path="url(#n)" d="m0 0c.021-.456.358-.938.273-1.393-.086-.456-.687-.689-1.212-.545-.353-.419-1.139-.593-1.483-.121-.254.347-.226.799-.455 1.151.079.206.256.327.545.242.157-.399.212-.899.485-1.181.236-.004.374.09.454.242-.085.389-.224.725-.333 1.09.088.201.224.316.515.242.186-.338.223-.826.393-1.18.914-.182.334.839.273 1.302.096.217.307.281.545.151" fill="#060808" fill-rule="evenodd" transform="matrix(3.52777764514 0 0 -3.52777764514 42.27419117388 31.35276893895)"/><path clip-path="url(#o)" d="m0 0c.161-.092.458-.046.394-.363.371.233-.203.695-.394.363m3.301-.454c.265.053.336-.088.424-.212-.329-.5-.345-1.488-1.212-1.393-.226.024-.572.219-.908.363-.485.209-.888.317-1.151.636-.436-.11-.753.153-1.12.212-.243.908.933-.142 1.09.424-.216-.245-.731.058-1.06.151.14.265.087.426.212.606.339.487 1.442.202 1.454-.484.003-.207-.209-.417-.182-.606.038-.265 1.025-.57 1.302-.696.142-.065.349-.183.484-.152.391.09.355.903.667 1.151" fill="#060808" fill-rule="evenodd" transform="matrix(3.52777764514 0 0 -3.52777764514 88.10249249235 35.94627950608)"/><path clip-path="url(#p)" d="m0 0c.22-.355.253-.897.606-1.12.218.081.317.03.454-.091.018-.129-.022-.201-.031-.303-1.009-.489-1.273.665-1.544 1.302.123.168.214.282.515.212" fill="#060808" fill-rule="evenodd" transform="matrix(3.52777764514 0 0 -3.52777764514 28.60052467948 35.83938784076)"/><path clip-path="url(#q)" d="m0 0c-.362.056-.537-.304-.333-.545.121.06.242.121.363.182.105-.026.168-.095.243-.152.072-.355-.229-.337-.394-.454.086-.116.141-.262.212-.394-.305-.608-.507-.098-.727.303-.183.333-.382.496-.333.939.224.352.604.707 1.12.605.572-.112.577-.981.909-1.362-.474-.88-.76.646-1.06.878" fill="#060808" fill-rule="evenodd" transform="matrix(3.52777764514 0 0 -3.52777764514 24.96832472524 39.04436509205)"/><path clip-path="url(#r)" d="m0 0c.28.048.349-.115.424-.273-.1-.166-.253-.411-.424-.726-.187-.345-.418-1.105-.818-.515.266.512.501 1.054.818 1.514" fill="#060808" fill-rule="evenodd" transform="matrix(3.52777764514 0 0 -3.52777764514 102.09613019105 38.72369009609)"/><path clip-path="url(#s)" d="m0 0c.019-.365-.039-.806.03-1.12.249-.053.689-.046.939 0 .069.284.011.695.03 1.029.135.069.274.129.424.031-.065-.539.253-.976-.091-1.363-.346-.39-1.611-.237-1.756.121-.099.244.01.493-.03.848-.496.032-1.28.089-1.726-.03.169-.266.899-.053 1.272-.121.118-.074.223-.16.303-.273.008-.206.007-.479-.122-.606-.179-.176-1.479-.225-2.029-.121-.61.116-.605.752-.514 1.514.112.087.259.113.393.031.099-.285-.054-.822.091-1.06.215-.102.587-.061.909-.061.333 0 .697-.068.878.091-.614.117-1.984-.131-1.605.818.233.582 1.927.206 2.604.272" fill="#060808" fill-rule="evenodd" transform="matrix(3.52777764514 0 0 -3.52777764514 62.77834091556 82.55739558552)"/><path clip-path="url(#t)" d="m0 0c.439-.044.852.08 1.151-.06.373-.176.47-1.144.121-1.454-.354-.315-.847-.044-1.363-.091-.092.144-.04.291.031.424h.999c.095.124.095.573 0 .697-.276.087-.754-.027-1.03.06-.095.148-.05.353.091.424" fill="#060808" fill-rule="evenodd" transform="matrix(3.52777764514 0 0 -3.52777764514 68.97417606667 82.4505039202)"/><path clip-path="url(#u)" d="m0 0h.424v-.303c-.127-.004-.135-.127-.303-.091-.022.029-.055.046-.091.061-.056.065-.02.222-.03.333" fill="#060808" fill-rule="evenodd" transform="matrix(3.52777764514 0 0 -3.52777764514 52.95030581021 88.53943946849)"/><path clip-path="url(#v)" d="m0 0h.424v-.303c-.138-.079-.301-.129-.424 0z" fill="#060808" fill-rule="evenodd" transform="matrix(3.52777764514 0 0 -3.52777764514 54.87329745265 88.53943946849)"/><path clip-path="url(#w)" d="m0 0h.424v-.303c-.126-.092-.308-.122-.424 0z" fill="#060808" fill-rule="evenodd" transform="matrix(3.52777764514 0 0 -3.52777764514 64.91511588864 88.53943946849)"/><path clip-path="url(#x)" d="m0 0c-.067.125-.067.239 0 .363.218.095.685-.059.818.122.048.12.048.424 0 .545-.073.108-.27.093-.455.091v-.667c-.147.014-.354-.031-.454.031v1.059c.562.087 1.265.055 1.393-.393.203-1.001-.396-1.36-1.302-1.151" fill="#060808" fill-rule="evenodd" transform="matrix(3.52777764514 0 0 -3.52777764514 51.45523272488 95.91073104229)"/><path clip-path="url(#y)" d="m0 0c-.022-.486-.078-1.296.394-1.029.259.146.029.723.151 1.059.139.093.224.093.363 0-.021-.489.197-1.058-.121-1.362-.268-.258-.911-.223-1.12.09-.186.279-.097.724-.121 1.212.129.148.307.176.454.03" fill="#060808" fill-rule="evenodd" transform="matrix(3.52777764514 0 0 -3.52777764514 58.07863453727 90.78276214856)"/><path clip-path="url(#z)" d="m0 0c-.157-.081-.28-.111-.424 0-.018.345.048.775-.06 1.03-.149.057-.412.048-.455-.091.029-.133.319-.004.394-.091.063-.125.063-.208 0-.333-.082-.06-.265-.018-.394-.031v-.484c-.157-.081-.28-.111-.424 0 .065.376-.109.854.031 1.181.203.477 1.193.478 1.332-.151.076-.345-.054-.577 0-1.03" fill="#060808" fill-rule="evenodd" transform="matrix(3.52777764514 0 0 -3.52777764514 72.0726241318 95.69694771165)"/><path clip-path="url(#A)" d="m0 0c.612-.05 1.256.177 1.363-.333.025-.119-.061-.261-.061-.424 0-.217.093-.35.061-.485-.122-.516-.748-.278-1.272-.332-.105.12-.105.303 0 .423.258.035.658-.072.818.061.004.125-.211.031-.303.06-.223.233-.052.508.303.485.012.205-.372.013-.455.121-.066-.166-.013-.451-.03-.666h-.424c-.006.264.001.834 0 1.09" fill="#060808" fill-rule="evenodd" transform="matrix(3.52777764514 0 0 -3.52777764514 61.92355948883 90.46243111093)"/><path clip-path="url(#B)" d="m0 0v-1.393c-.153-.105-.329-.102-.454.03.054.526-.226 1.752.454 1.363" fill="#060808" fill-rule="evenodd" transform="matrix(3.52777764514 0 0 -3.52777764514 74.10250743956 90.78276214856)"/><path clip-path="url(#C)" d="m0 0v-1.726c-.156-.103-.292-.092-.454 0v1.726c.165.094.289.094.454 0" fill="#060808" fill-rule="evenodd" transform="matrix(3.52777764514 0 0 -3.52777764514 54.86800578605 112.09793917169)"/><path clip-path="url(#D)" d="m0 0c-.116.214-.509.165-.515-.061-.006-.24.463-.146.485-.423.008-.112-.094-.172-.152-.273-.436.07-.611.113-.726.303-.412.68.635 1.465 1.241.848.26-.264.285-1.19.061-1.484-.261-.341-1.319-.297-1.333.121-.001.052.099.212.182.242.245.089.249-.3.636-.151.261.101.141.434.121.878" fill="#060808" fill-rule="evenodd" transform="matrix(3.52777764514 0 0 -3.52777764514 59.0339576294 113.80714748349)"/><path clip-path="url(#E)" d="m0 0c-.216-.256-.192-1.016-.091-1.302.213-.6 1.395-.534 1.454.182.044.536-.245.716-.818.757-.051-.091-.12-.163-.151-.273.071-.27.48-.109.484-.394.004-.242-.371-.307-.514-.06v.757c.268.319.538-.126.848-.03.403.552-.854.788-1.212.363" fill="#060808" fill-rule="evenodd" transform="matrix(3.52777764514 0 0 -3.52777764514 62.13134736121 112.52516187464)"/><path clip-path="url(#F)" d="m0 0c-.049-.234-.049-.644 0-.878.09-.085.364-.085.454 0 .063.229.016.57.031.848-.122.122-.342.147-.485.03m-.03.484c.437.104.849-.025.969-.363.126-.357.089-1.057-.061-1.272-.31-.445-1.159-.265-1.332.121-.263.586-.062 1.399.424 1.514" fill="#231f20" fill-rule="evenodd" transform="matrix(3.52777764514 0 0 -3.52777764514 69.71642226565 113.59336415285)"/><g fill="#009345"><path clip-path="url(#G)" d="m0 0s-1.009.978-3.375 1.577-4.984.82-6.309 2.965c0 0 1.483-1.482 4.543-2.145 3.059-.662 4.352-1.009 5.677-1.892z" transform="matrix(3.52777764514 0 0 -3.52777764514 76.02973241528 110.49668085853)"/><path clip-path="url(#H)" d="m0 0s-.662-.662-2.019.442c-1.356 1.104-1.104 2.208-2.744 2.081 0 0 1.609.884 3.186-.347 1.577-1.23 1.482-1.766 1.482-1.766s-1.545 1.577-3.091 1.893c0 0 2.24-1.073 3.186-2.303" transform="matrix(3.52777764514 0 0 -3.52777764514 43.42565782604 98.25599767941)"/><path clip-path="url(#I)" d="m0 0s.536.82-.347 1.829c-.883 1.01-1.609 1.42-1.609 2.461 0 0-1.293-2.587 1.704-4.164 0 0-1.231 1.388-1.577 2.776 0 0 1.293-2.523 1.829-2.902" transform="matrix(3.52777764514 0 0 -3.52777764514 45.53985590357 96.69850144903)"/><path clip-path="url(#J)" d="m0 0s-1.483-.189-1.861.599c-.379.789-1.419 3.312-2.429 3.123 0 0 2.05.347 3.281-1.104 1.23-1.451 1.072-2.397 1.072-2.397s-1.199 2.271-2.776 2.839c0 0 1.199-.726 2.713-3.06" transform="matrix(3.52777764514 0 0 -3.52777764514 33.96698104937 87.79614551952)"/><path clip-path="url(#K)" d="m0 0s-.915.915-1.009 2.05c-.095 1.136-.095 1.83-.537 2.082 0 0 1.514-.221 1.83-2.334.031-1.199-.063-1.766-.063-1.766s-.158 2.239-.915 3.091c0 0 .883-2.334.694-3.123" transform="matrix(3.52777764514 0 0 -3.52777764514 35.74744958944 87.57355156399)"/><path clip-path="url(#L)" d="m0 0s.694.347.473 1.23-.883 2.177-.347 2.902c0 0-1.924-1.135-.441-3.88 0 0-.505 1.798-.064 2.618 0 0-.346-1.64.379-2.87" transform="matrix(3.52777764514 0 0 -3.52777764514 28.62592467916 73.77534569616)"/><path clip-path="url(#M)" d="m0 0s-1.23-.126-1.893.789c-.662.914-.946 1.829-.946 1.829s.82-.82 1.356-.946c.537-.126 1.357-.726 1.515-1.514 0 0-1.451.567-2.019 1.451 0 0 1.072-1.483 1.987-1.609" transform="matrix(3.52777764514 0 0 -3.52777764514 27.73551446121 75.44468130013)"/><path clip-path="url(#N)" d="m0 0s-1.199 0-1.703.978c-.505.978-.631 1.735-1.483 1.861 0 0 2.24.473 3.154-2.145 0 0-.914 1.041-1.861 1.703 0 0 1.578-1.482 1.893-2.397" transform="matrix(3.52777764514 0 0 -3.52777764514 23.95232473804 68.65653138565)"/><path clip-path="url(#O)" d="m0 0s-.852.978-.505 2.176c.347 1.199.379 1.231.095 1.672-.284.442 1.167-1.009.978-2.082-.189-1.072-.316-1.829-.316-1.829s.19 1.987-.22 2.492c0 0 .157-1.672-.032-2.429" transform="matrix(3.52777764514 0 0 -3.52777764514 23.17339141452 63.31549353627)"/><path clip-path="url(#P)" d="m0 0s-1.104-.126-1.514.725c-.41.852-1.073 1.893-1.672 1.893 0 0 2.366.662 3.218-2.239 0 0-.978 1.356-1.861 1.671 0 0 1.797-1.356 1.829-2.05" transform="matrix(3.52777764514 0 0 -3.52777764514 20.05765812044 58.64189359515)"/><path clip-path="url(#Q)" d="m0 0s-.883.284-1.167.82-.442 2.05-1.073 2.24c0 0 2.019.031 2.335-2.524 0 0-.537 1.01-1.199 1.609 0 0 1.072-1.483 1.104-2.145" transform="matrix(3.52777764514 0 0 -3.52777764514 18.610916472 51.51999826821)"/><path clip-path="url(#R)" d="m0 0s.631.631.315 1.325c-.315.694-.347 1.419-.22 1.861 0 0-1.294-.599-.41-2.871 0 0-.127 1.325.126 1.925 0 0-.095-1.546.189-2.24" transform="matrix(3.52777764514 0 0 -3.52777764514 17.72085814988 43.95328544687)"/><path clip-path="url(#S)" d="m0 0c0-.174-.141-.315-.315-.315-.175 0-.316.141-.316.315s.141.315.316.315c.174 0 .315-.141.315-.315" transform="matrix(3.52777764514 0 0 -3.52777764514 21.72664976608 53.41195428604)"/><path clip-path="url(#T)" d="m0 0c0-.196-.159-.354-.354-.354-.196 0-.355.158-.355.354s.159.354.355.354c.195 0 .354-.158.354-.354" transform="matrix(3.52777764514 0 0 -3.52777764514 21.30754977136 50.29622099196)"/><path clip-path="url(#U)" d="m0 0c0-.125-.101-.226-.226-.226s-.226.101-.226.226.101.226.226.226.226-.101.226-.226" transform="matrix(3.52777764514 0 0 -3.52777764514 25.47209138556 69.05412075564)"/><path clip-path="url(#V)" d="m0 0c0-.196-.159-.354-.354-.354-.196 0-.355.158-.355.354s.159.354.355.354c.195 0 .354-.158.354-.354" transform="matrix(3.52777764514 0 0 -3.52777764514 25.31369328339 66.07351016819)"/><path clip-path="url(#W)" d="m0 0c0-.196-.159-.354-.354-.354-.196 0-.355.158-.355.354s.159.354.355.354c.195 0 .354-.158.354-.354" transform="matrix(3.52777764514 0 0 -3.52777764514 31.21143297992 75.11061838767)"/><path clip-path="url(#X)" d="m0 0c0-.151-.123-.274-.274-.274s-.274.123-.274.274.123.274.274.274.274-.123.274-.274" transform="matrix(3.52777764514 0 0 -3.52777764514 31.76176630632 77.34370169287)"/><path clip-path="url(#Y)" d="m0 0c0-.164-.133-.297-.296-.297-.164 0-.297.133-.297.297s.133.297.297.297c.163 0 .296-.133.296-.297" transform="matrix(3.52777764514 0 0 -3.52777764514 37.45489313043 88.11012655723)"/><path clip-path="url(#Z)" d="m0 0s1.009.978 3.375 1.577 4.984.82 6.309 2.965c0 0-1.483-1.482-4.543-2.145-3.059-.662-4.352-1.009-5.677-1.892z" transform="matrix(3.52777764514 0 0 -3.52777764514 49.43452252117 110.49668085853)"/><path clip-path="url(#aa)" d="m0 0s.662-.662 2.019.442c1.356 1.104 1.104 2.208 2.744 2.081 0 0-1.609.884-3.186-.347-1.577-1.23-1.482-1.766-1.482-1.766s1.545 1.577 3.091 1.893c0 0-2.24-1.073-3.186-2.303" transform="matrix(3.52777764514 0 0 -3.52777764514 82.03859711041 98.25599767941)"/><path clip-path="url(#ab)" d="m0 0s-.536.82.347 1.829c.883 1.01 1.609 1.42 1.609 2.461 0 0 1.293-2.587-1.704-4.164 0 0 1.231 1.388 1.577 2.776 0 0-1.293-2.523-1.829-2.902" transform="matrix(3.52777764514 0 0 -3.52777764514 79.92439903288 96.69850144903)"/><path clip-path="url(#ac)" d="m0 0s1.483-.189 1.861.599c.379.789 1.419 3.312 2.429 3.123 0 0-2.05.347-3.281-1.104-1.23-1.451-1.072-2.397-1.072-2.397s1.199 2.271 2.776 2.839c0 0-1.199-.726-2.713-3.06" transform="matrix(3.52777764514 0 0 -3.52777764514 91.49692199125 87.79614551952)"/><path clip-path="url(#ad)" d="m0 0s.915.915 1.009 2.05c.095 1.136.095 1.83.537 2.082 0 0-1.514-.221-1.83-2.334-.031-1.199.063-1.766.063-1.766s.158 2.239.915 3.091c0 0-.883-2.334-.694-3.123" transform="matrix(3.52777764514 0 0 -3.52777764514 89.71680534701 87.57355156399)"/><path clip-path="url(#ae)" d="m0 0s-.694.347-.473 1.23.883 2.177.347 2.902c0 0 1.924-1.135.441-3.88 0 0 .505 1.798.064 2.618 0 0 .346-1.64-.379-2.87" transform="matrix(3.52777764514 0 0 -3.52777764514 96.83833025729 73.77534569616)"/><path clip-path="url(#af)" d="m0 0s1.23-.126 1.893.789c.662.914.946 1.829.946 1.829s-.82-.82-1.356-.946c-.537-.126-1.357-.726-1.515-1.514 0 0 1.451.567 2.019 1.451 0 0-1.072-1.483-1.987-1.609" transform="matrix(3.52777764514 0 0 -3.52777764514 97.72874047524 75.44468130013)"/><path clip-path="url(#ag)" d="m0 0s1.199 0 1.703.978c.505.978.631 1.735 1.483 1.861 0 0-2.24.473-3.154-2.145 0 0 .914 1.041 1.861 1.703 0 0-1.578-1.482-1.893-2.397" transform="matrix(3.52777764514 0 0 -3.52777764514 101.51193019841 68.65653138565)"/><path clip-path="url(#ah)" d="m0 0s.852.978.505 2.176c-.347 1.199-.379 1.231-.095 1.672.284.442-1.167-1.009-.978-2.082.189-1.072.316-1.829.316-1.829s-.19 1.987.22 2.492c0 0-.157-1.672.032-2.429" transform="matrix(3.52777764514 0 0 -3.52777764514 102.29086352193 63.31549353627)"/><path clip-path="url(#ai)" d="m0 0s1.104-.126 1.514.725c.41.852 1.073 1.893 1.672 1.893 0 0-2.366.662-3.218-2.239 0 0 .978 1.356 1.861 1.671 0 0-1.797-1.356-1.829-2.05" transform="matrix(3.52777764514 0 0 -3.52777764514 105.40659681601 58.64189359515)"/><path clip-path="url(#aj)" d="m0 0s.883.284 1.167.82.442 2.05 1.073 2.24c0 0-2.019.031-2.335-2.524 0 0 .537 1.01 1.199 1.609 0 0-1.072-1.483-1.104-2.145" transform="matrix(3.52777764514 0 0 -3.52777764514 106.85333846445 51.51999826821)"/><path clip-path="url(#ak)" d="m0 0s-.631.631-.315 1.325c.315.694.347 1.419.22 1.861 0 0 1.294-.599.41-2.871 0 0 .127 1.325-.126 1.925 0 0 .095-1.546-.189-2.24" transform="matrix(3.52777764514 0 0 -3.52777764514 107.74339678657 43.95328544687)"/><path clip-path="url(#al)" d="m0 0c0-.174.141-.315.315-.315.175 0 .316.141.316.315s-.141.315-.316.315c-.174 0-.315-.141-.315-.315" transform="matrix(3.52777764514 0 0 -3.52777764514 103.73760517037 53.41195428604)"/><path clip-path="url(#am)" d="m0 0c0-.196.159-.354.354-.354.196 0 .355.158.355.354s-.159.354-.355.354c-.195 0-.354-.158-.354-.354" transform="matrix(3.52777764514 0 0 -3.52777764514 104.15670516509 50.29622099196)"/><path clip-path="url(#an)" d="m0 0c0-.125.101-.226.226-.226s.226.101.226.226-.101.226-.226.226-.226-.101-.226-.226" transform="matrix(3.52777764514 0 0 -3.52777764514 99.99251544672 69.05412075564)"/><path clip-path="url(#ao)" d="m0 0c0-.196.159-.354.354-.354.196 0 .355.158.355.354s-.159.354-.355.354c-.195 0-.354-.158-.354-.354" transform="matrix(3.52777764514 0 0 -3.52777764514 100.15055900723 66.07351016819)"/><path clip-path="url(#ap)" d="m0 0c0-.196.159-.354.354-.354.196 0 .355.158.355.354s-.159.354-.355.354c-.195 0-.354-.158-.354-.354" transform="matrix(3.52777764514 0 0 -3.52777764514 94.25282195653 75.11061838767)"/><path clip-path="url(#aq)" d="m0 0c0-.151.123-.274.274-.274s.274.123.274.274-.123.274-.274.274-.274-.123-.274-.274" transform="matrix(3.52777764514 0 0 -3.52777764514 93.70248863013 77.34370169287)"/><path clip-path="url(#ar)" d="m0 0c0-.164.133-.297.297-.297.163 0 .296.133.296.297s-.133.297-.296.297c-.164 0-.297-.133-.297-.297" transform="matrix(3.52777764514 0 0 -3.52777764514 88.00935916019 88.11012655723)"/></g><path clip-path="url(#as)" d="m0 0c0-2.076-1.683-3.759-3.759-3.759s-3.759 1.683-3.759 3.759 1.683 3.759 3.759 3.759 3.759-1.683 3.759-3.759" fill="#060808" transform="matrix(3.52777764514 0 0 -3.52777764514 75.82547408452 58.40059359819)"/><path clip-path="url(#at)" d="m0 0s1.052.61 1.157.61 1.03-.526 1.051-.715-.063-1.199-.168-1.472c-.105-.274-.968-.463-1.094-.463s-.988.463-1.156.799c-.169.337.126 1.22.21 1.241" fill="#fff" transform="matrix(3.52777764514 0 0 -3.52777764514 56.40788076665 59.27266025387)"/><path clip-path="url(#au)" d="m0 0s.883.736 1.052.736c.168 0 1.009-.442 1.114-.652s.105-.862-.105-1.178c-.211-.315-.967-.904-1.178-.883-.21.021-1.051.547-1.051.547z" fill="#fff" transform="matrix(3.52777764514 0 0 -3.52777764514 64.86466778511 59.791587539)"/><path clip-path="url(#av)" d="m0 0s.399.652.526.715c.126.063 1.156.757 1.219.841s.379.084.379.084-.442-1.577-2.124-1.64" fill="#fff" transform="matrix(3.52777764514 0 0 -3.52777764514 66.12620110255 69.80659574616)"/><path clip-path="url(#aw)" d="m0 0s.988.189 1.577.021c0 0-1.114-.4-1.577-.021" fill="#fff" transform="matrix(3.52777764514 0 0 -3.52777764514 59.82029928616 70.69665406828)"/><path clip-path="url(#ax)" d="m0 0-.189.715s-1.052.841-1.22.925-.673-.252-.673-.252l.021-.547s.694-.82 1.493-.946z" fill="#fff" transform="matrix(3.52777764514 0 0 -3.52777764514 60.11733905325 69.80659574616)"/><path clip-path="url(#ay)" d="m0 0s.652.694.694.778.442 1.304.526 1.472-.126.358-.211.379c-.084.021-.546-.379-.883-1.115-.336-.736-.252-1.409-.126-1.514" fill="#fff" transform="matrix(3.52777764514 0 0 -3.52777764514 50.39901607152 58.82744588448)"/><path clip-path="url(#az)" d="m0 0s.547-.694.652-.694 1.093.526 1.177.568c.085.042.484.988.484 1.135 0 .148-.631 1.157-.925 1.136s-.799-.421-.862-.526-.526-.778-.526-1.619" fill="#fff" transform="matrix(3.52777764514 0 0 -3.52777764514 53.81143459103 56.08247321073)"/><path clip-path="url(#aA)" d="m0 0s.82-.946 1.009-.946c.19 0 1.052.063 1.136.168s.462.421.484.61c.021.189-.106.525-.358.61-.252.084-.883.294-1.493.252-.61-.042-.778-.694-.778-.694" fill="#fff" transform="matrix(3.52777764514 0 0 -3.52777764514 59.44953072833 48.21905664313)"/><path clip-path="url(#aB)" d="m0 0s.147-1.241.379-1.577c.231-.337 1.051-.568 1.198-.568s.505.694.379 1.157c-.127.462-.631 1.367-1.283 1.661 0 0-.442-.252-.673-.673" fill="#fff" transform="matrix(3.52777764514 0 0 -3.52777764514 67.75779918616 51.11219598168)"/></svg>