<?xml version="1.0" encoding="UTF-8" standalone="no"?>
<svg
   xmlns:dc="http://purl.org/dc/elements/1.1/"
   xmlns:cc="http://creativecommons.org/ns#"
   xmlns:rdf="http://www.w3.org/1999/02/22-rdf-syntax-ns#"
   xmlns:svg="http://www.w3.org/2000/svg"
   xmlns="http://www.w3.org/2000/svg"
   xmlns:sodipodi="http://sodipodi.sourceforge.net/DTD/sodipodi-0.dtd"
   xmlns:inkscape="http://www.inkscape.org/namespaces/inkscape"
   width="73.451157mm"
   height="95.25mm"
   viewBox="0 0 277.61067 360"
   version="1.1"
   id="svg61702"
   inkscape:version="1.0.1 (3bc2e813f5, 2020-09-07)"
   sodipodi:docname="Al Wahda FC logo.svg">
  <defs
     id="defs61696" />
  <sodipodi:namedview
     id="base"
     pagecolor="#ffffff"
     bordercolor="#666666"
     borderopacity="1.0"
     inkscape:pageopacity="0.0"
     inkscape:pageshadow="2"
     inkscape:zoom="0.35"
     inkscape:cx="202.37677"
     inkscape:cy="125.71429"
     inkscape:document-units="px"
     inkscape:current-layer="layer1"
     inkscape:document-rotation="0"
     showgrid="false"
     inkscape:window-width="1267"
     inkscape:window-height="728"
     inkscape:window-x="83"
     inkscape:window-y="0"
     inkscape:window-maximized="0" />
  <metadata
     id="metadata61699">
    <rdf:RDF>
      <cc:Work
         rdf:about="">
        <dc:format>image/svg+xml</dc:format>
        <dc:type
           rdf:resource="http://purl.org/dc/dcmitype/StillImage" />
        <dc:title></dc:title>
      </cc:Work>
    </rdf:RDF>
  </metadata>
  <g
     inkscape:label="Layer 1"
     inkscape:groupmode="layer"
     id="layer1"
     transform="translate(-172.62323,-394.28571)">
    <path
       style="fill:#c2b094;fill-opacity:1;fill-rule:nonzero;stroke:none;stroke-width:10.6869"
       d="m 445.8653,449.08332 c 0,0 -29.9734,-28.47051 -112.58806,-38.82343 0,12.06443 -9.76846,21.87467 -21.83299,21.87467 -12.10621,0 -21.91645,-9.81024 -21.91645,-21.87467 -82.61465,10.35292 -112.54627,38.82343 -112.54627,38.82343 -33.22949,225.9274 134.46272,305.2024 134.46272,305.2024 0,0 167.69232,-79.275 134.42105,-305.2024"
       id="path54098" />
    <path
       style="clip-rule:nonzero;fill:#ffffff;fill-opacity:1;fill-rule:nonzero;stroke:none;stroke-width:10.6869"
       d="m 324.55246,415.1858 c -3.2145,6.84634 -11.73056,10.64521 -19.74573,6.6793 -6.84633,-3.38133 -10.43639,-12.02274 -6.26187,-19.99613 3.00568,-5.80265 11.6471,-10.1442 19.70395,-5.84433 6.84633,3.67361 9.64331,11.98096 6.30365,19.16116"
       id="path54100" />
    <path
       style="clip-rule:nonzero;fill:#c2b094;fill-opacity:1;fill-rule:nonzero;stroke:none;stroke-width:10.6869"
       d="m 324.46889,413.09854 c 0.83465,-2.58825 1.00136,-5.2182 0.33344,-7.97338 -0.16672,0.2084 -0.33344,0.33344 -0.29176,0.37512 0.16672,2.17082 0.12507,4.29986 -0.33343,6.4289 -0.0855,0.33343 0.20839,0.7513 0.29175,1.16883 M 299.50508,402.2442 c -2.04558,2.12904 -2.71351,8.72477 -1.08547,10.18588 0.20839,-0.41786 0.37617,-0.83464 0.66793,-1.16883 0.79296,-0.87632 0.96075,-1.79508 0.87632,-2.964 -0.0428,-1.04304 0,-2.21251 0.33343,-3.25608 0.33344,-1.16893 0.0855,-2.0038 -0.79296,-2.79697 m 24.67164,2.62993 c 0,-0.50121 0.0428,-1.00136 -0.0855,-1.41933 -1.00137,-2.88043 -3.04748,-4.84255 -5.59394,-6.4288 -0.58458,-0.41786 -1.12715,-0.29282 -1.33587,0.2084 1.00136,1.7115 1.96201,3.29786 2.92223,4.88422 0.0855,0.16672 0.25006,0.29175 0.3751,0.37511 1.16894,0.75129 2.33776,1.50289 3.7154,2.37955 m -14.65265,-8.09863 c -0.96074,-1.16893 -1.50289,-1.33587 -2.92222,-0.79297 -2.25428,0.83464 -4.25808,2.04557 -5.76087,4.04937 -1.00136,1.33585 -1.00136,1.62804 0.12507,2.79687 1.62814,-0.58458 3.17272,-1.12704 4.71729,-1.71151 0.37619,-0.16672 0.75129,-0.41787 1.04411,-0.70961 0.95968,-1.16883 1.83676,-2.37944 2.79697,-3.63183 m 6.80445,24.54639 c 0.7096,-0.2084 1.33586,-0.29176 1.87864,-0.5429 2.25419,-1.00136 3.92402,-2.67172 5.13463,-4.84244 0.66793,-1.12714 0.54289,-2.25429 0.20839,-3.42322 -1.29418,0.41785 -2.50479,0.79296 -3.75719,1.16893 -0.20839,0.0855 -0.33343,0.25007 -0.45953,0.41785 -1.08536,1.37764 -2.12894,2.75519 -3.17262,4.13283 -0.2084,0.25008 -0.41785,0.58457 -0.41785,0.87633 0.16671,0.7096 0.37511,1.37764 0.58457,2.21251 M 300.4195,410.55089 c -0.70961,1.00136 -1.79508,2.0038 -1.41933,3.29787 0.83465,2.58826 2.04559,4.92601 4.88423,5.96969 2.33776,0.87633 2.04558,0.95969 3.84065,-1.04411 0.37512,-0.41785 0.33344,-0.7096 0.0855,-1.16882 -0.79296,-1.5029 -1.58636,-3.08926 -2.33775,-4.63383 -0.0855,-0.2084 -0.25008,-0.41785 -0.41787,-0.45953 -1.50289,-0.66794 -3.00568,-1.29408 -4.63382,-1.96202 m 18.91076,-7.43069 c -0.0428,-0.37617 0,-0.96075 -0.25007,-1.37765 -0.70961,-1.2106 -1.54457,-2.33775 -2.37955,-3.4649 -0.16672,-0.29176 -0.54289,-0.50121 -0.83464,-0.54289 -1.62814,-0.2084 -3.25618,-0.37512 -4.88433,-0.45955 -0.33344,-0.0428 -0.79297,0.12507 -1.04304,0.37619 -0.91801,1.00136 -1.79508,2.00379 -2.58827,3.08915 -0.20838,0.25008 -0.1667,0.83465 -0.0428,1.16893 0.70962,1.29408 1.41944,2.62993 2.21262,3.88233 0.16672,0.29175 0.58457,0.5429 0.91801,0.58458 1.87853,0.25006 3.75719,0.3751 5.6774,0.50121 0.29283,0.0428 0.70961,-0.16672 0.918,-0.41785 0.70961,-1.00136 1.41933,-2.04559 2.29597,-3.33966 m -0.58457,10.8956 c -0.0428,-0.45953 0.0428,-0.918 -0.12507,-1.29408 -0.54289,-1.4611 -1.16892,-2.92221 -1.75328,-4.42512 -0.2084,-0.50121 -0.50121,-0.7096 -1.0441,-0.75128 -1.79508,-0.12506 -3.59016,-0.33344 -5.38524,-0.41786 -0.33343,0 -0.87632,0.2084 -1.04304,0.50122 -1.04411,1.37764 -2.04558,2.7553 -3.00568,4.17462 -0.2084,0.33342 -0.25008,0.918 -0.0855,1.29408 0.66793,1.4611 1.41943,2.92221 2.25429,4.38333 0.0855,0.25007 0.50122,0.50121 0.79296,0.50121 1.66983,0.16671 3.38144,0.25007 5.09295,0.33343 0.29281,0 0.66793,-0.0855 0.83464,-0.29175 1.16883,-1.29408 2.25429,-2.62994 3.46491,-4.00758 m 5.80265,1.16882 c -3.21451,6.84634 -11.73056,10.68688 -19.74573,6.67931 -6.84634,-3.38133 -10.43638,-11.98096 -6.22008,-19.99613 2.96389,-5.80266 11.60532,-10.1442 19.66216,-5.84434 6.84633,3.67362 9.6433,11.98096 6.30365,19.16116"
       id="path54102" />
    <path
       style="fill:#911e4a;fill-opacity:1;fill-rule:nonzero;stroke:none;stroke-width:10.6869"
       d="M 418.89758,475.67528 H 203.94925 l 1.08536,-20.83109 h -0.62626 v -4.75898 l 3.9658,-0.0428 v -2.33776 c 0,0 0.50122,-1.58625 2.33776,-3.25608 0,0 2.33775,1.54457 2.33775,3.38133 v 2.29609 h 3.75708 v 5.34344 h -0.75128 l 0.96075,13.44208 85.16112,-6.80456 v -20.2049 l 5.80255,-1.12704 12.60721,1.00136 v 19.87088 l 87.7076,3.63183 v -13.81772 h 10.60342"
       id="path54106" />
    <path
       style="fill:#911e4a;fill-opacity:1;fill-rule:nonzero;stroke:none;stroke-width:10.6869"
       d="m 203.94925,485.23503 c 0,0 -25.84058,155.5861 107.495,234.06792 133.25211,-78.48182 107.45333,-234.06792 107.45333,-234.06792"
       id="path54108" />
    <path
       style="fill:#c2b094;fill-opacity:1;fill-rule:nonzero;stroke:none;stroke-width:10.6869"
       d="m 310.40068,654.97281 5.00948,-3.88233 c 0,0 1.33585,-10.77035 3.00568,-15.73805 l -4.34155,-4.00758 c 0,0 4.17452,-27.59386 10.97907,-43.45726 h 0.87632 c 0,0 -9.30923,33.43831 -8.85002,42.6223 l 2.54647,2.54646 c 0,0 5.21819,-9.35102 12.10621,-11.647 0,0 1.79508,6.67931 -0.70961,10.31114 -2.54647,3.63194 -4.00757,5.2182 -4.00757,5.2182 l -3.29787,0.83464 0.25007,-2.75519 1.7115,-0.25007 c 0,0 2.92223,-3.42312 3.38144,-4.25808 0.50122,-0.83465 0.25007,-4.4668 0.25007,-4.4668 0,0 -9.55973,6.76288 -10.01895,17.32451 l -1.00137,9.05875 -7.76465,5.71919 -7.72299,-5.71919 -0.95968,-9.05875 c -0.50121,-10.56163 -10.10253,-17.32451 -10.10253,-17.32451 0,0 -0.20839,3.63194 0.29282,4.4668 0.45954,0.83464 3.38132,4.25808 3.38132,4.25808 l 1.66983,0.25007 0.25008,2.75519 -3.25619,-0.83464 c 0,0 -1.4611,-1.58626 -4.00758,-5.2182 -2.54647,-3.63183 -0.7096,-10.31114 -0.7096,-10.31114 6.88801,2.29598 12.1062,11.647 12.1062,11.647 l 2.50469,-2.54646 c 0.50121,-9.18399 -8.80824,-42.6223 -8.80824,-42.6223 h 0.87632 c 6.80456,15.8634 10.97907,43.45726 10.97907,43.45726 l -4.34155,4.00758 c 1.66983,4.9677 3.00569,15.73805 3.00569,15.73805"
       id="path54110" />
    <path
       style="fill:#c2b094;fill-opacity:1;fill-rule:nonzero;stroke:none;stroke-width:10.6869"
       d="m 307.06102,649.71294 h 6.63752 l -3.13093,3.17262"
       id="path54112" />
    <path
       style="fill:#c2b094;fill-opacity:1;fill-rule:nonzero;stroke:none;stroke-width:10.6869"
       d="m 308.06292,641.98996 h 4.7172 v -3.0057 c 0,0 -0.83466,-2.79697 -2.21251,-4.25808 0,0 -2.50469,2.50479 -2.50469,4.50859"
       id="path54114" />
    <path
       style="fill:#c2b094;fill-opacity:1;fill-rule:nonzero;stroke:none;stroke-width:10.6869"
       d="m 235.34197,652.88556 h 65.74936 v -3.17262 h -65.74936 z m 0,0"
       id="path54116" />
    <path
       style="fill:#c2b094;fill-opacity:1;fill-rule:nonzero;stroke:none;stroke-width:10.6869"
       d="m 319.96041,652.88556 h 66.4173 v -3.17262 h -66.4173 z m 0,0"
       id="path54118" />
    <path
       style="fill:#c2b094;fill-opacity:1;fill-rule:nonzero;stroke:none;stroke-width:10.6869"
       d="m 341.00022,586.55173 c -1.21061,0 -4.34154,-1.16883 -4.34154,-1.16883 v -7.30555 c 0,-2.42122 -1.83687,-3.33965 -3.46491,-3.33965 -1.62804,0 -3.08915,1.16893 -3.08915,3.46489 v 6.05316 l -4.80076,-0.50121 v -7.6812 c 0,-2.25429 -1.71161,-3.00568 -3.17273,-3.00568 -1.54457,0 -3.04736,1.12715 -3.04736,3.04747 v 6.34534 h -4.80076 v -6.05316 c 0,-2.50469 -2.04557,-3.54837 -3.46491,-3.54837 -1.4611,0 -3.50668,1.04411 -3.50668,3.54837 v 6.05316 h -4.75898 v -6.34534 c 0,-1.92032 -1.54458,-3.04747 -3.04736,-3.04747 -1.5029,0 -3.21451,0.75128 -3.21451,3.00568 v 7.6812 l -4.80065,0.50121 v -6.05316 c 0,-2.29596 -1.41944,-3.46489 -3.08927,-3.46489 -1.62804,0 -3.42311,0.918 -3.42311,3.33965 v 7.30555 c 0,0 -3.13094,1.16883 -4.38333,1.16883 -1.16883,0 -1.12704,-0.66794 -1.12704,-0.66794 l 4.42501,-4.55025 v -7.80645 c 10.06063,-3.67362 24.79688,-3.25619 26.92592,-3.17262 2.12904,-0.0855 16.82351,-0.50121 26.92594,3.17262 v 7.80645 l 4.42501,4.55025 c 0,0 0.0428,0.66794 -1.16883,0.66794 m 4.55027,-0.33343 c -1.33586,-1.41933 -5.51048,-5.84433 -5.51048,-5.84433 v -11.39662 c 0,0 -1.83676,-2.29596 -3.38133,0 v 1.75329 c 0,0 -0.7513,0.91802 -1.46111,0 v -2.463 c 0,-2.04546 -3.46491,-1.87854 -3.46491,-0.33344 v 1.58638 c 0,0 -0.70961,1.0441 -1.12714,0 v -2.75519 c 0,-1.50291 -3.08915,-1.66983 -3.08915,0 v 2.00379 c 0,0.75129 -1.83687,0.75129 -1.83687,0.12506 v -3.00569 c 0,-1.50289 -3.04736,-1.41943 -3.04736,0 v 2.7134 c 0,0.66793 -1.54458,0.66793 -1.54458,0 v -3.38133 c 0,-1.08547 -2.92222,-1.37764 -2.92222,0 v 3.04737 c 0,0.96075 -1.50289,0.70961 -1.50289,0.0428 v -2.88044 c 0,-1.79508 -3.25609,-1.92032 -3.25609,-0.41785 v 3.04736 c 0,0.62625 -1.5029,1.08536 -1.5029,0 v -3.13094 c 0,-1.4611 -2.17072,-1.33586 -2.17072,0 v 3.13094 c 0,1.08536 -1.50289,0.62625 -1.50289,0 v -3.04736 c 0,-1.5029 -3.25619,-1.37766 -3.25619,0.41785 v 2.88044 c 0,0.66793 -1.50278,0.918 -1.50278,-0.0428 v -3.04737 c 0,-1.37764 -2.92223,-1.08547 -2.92223,0 v 3.38133 c 0,0.66793 -1.58636,0.66793 -1.58636,0 v -2.7134 c 0,-1.41943 -3.04736,-1.50289 -3.04736,0 v 3.00569 c 0,0.62626 -1.79508,0.62626 -1.79508,-0.12506 v -2.00379 c 0,-1.66983 -3.08916,-1.50291 -3.08916,0 v 2.75519 c -0.41785,1.0441 -1.12713,0 -1.12713,0 v -1.58638 c 0,-1.54457 -3.46491,-1.71149 -3.46491,0.33344 v 2.463 c -0.70961,0.91802 -1.46111,0 -1.46111,0 v -1.75329 c -1.54458,-2.29596 -3.38144,0 -3.38144,0 v 11.39662 c 0,0 -4.17452,4.425 -5.51037,5.84433 -1.33587,1.46111 0.29175,2.62993 0.29175,2.62993 h 5.51048 l 5.13473,-1.962 v -8.47438 c 0,-2.12904 2.67172,-1.71151 2.67172,0 v 8.14041 l 8.68309,-1.33585 v -8.26567 c 0,-1.33587 2.37944,-1.87855 2.37944,-0.0428 v 8.09863 l 8.97538,-0.58458 v -8.01516 c 0,-0.75129 2.17072,-1.00136 2.17072,0 v 8.01516 l 8.97538,0.58458 v -8.09863 c 0,-1.83687 2.37943,-1.29419 2.37943,0.0428 v 8.26567 l 8.68309,1.33585 v -8.14041 c 0,-1.71151 2.67174,-2.12904 2.67174,0 v 8.47438 l 5.13472,1.962 h 5.51048 c 0,0 1.62804,-1.16882 0.29175,-2.62993"
       id="path54120" />
    <path
       style="fill:#c2b094;fill-opacity:1;fill-rule:nonzero;stroke:none;stroke-width:10.6869"
       d="m 338.91297,590.51753 c 0,0 -4.04937,-1.66983 -11.81404,-2.83866 l -0.0428,2.5047 c 6.09484,0.87632 9.43449,1.92032 9.43449,1.92032 l 4.00759,58.27697 h 2.54647"
       id="path54122" />
    <path
       style="fill:#c2b094;fill-opacity:1;fill-rule:nonzero;stroke:none;stroke-width:10.6869"
       d="m 310.56761,586.55173 h -0.2084 c -5.05127,-0.0428 -9.39281,0.25008 -13.10811,0.66793 l 0.66794,2.463 c 3.33965,-0.33343 7.30545,-0.58456 11.77224,-0.58456 0.25008,0 0.45954,0 0.75129,0 0.25007,0 0.54289,0 0.79296,0 4.55027,0 8.55785,0.25007 11.93929,0.62624 l 0.7096,-2.50479 c -3.79886,-0.41785 -8.22398,-0.70961 -13.31692,-0.66793"
       id="path54124" />
    <path
       style="fill:#c2b094;fill-opacity:1;fill-rule:nonzero;stroke:none;stroke-width:10.6869"
       d="m 293.66064,587.67887 c -7.72299,1.21062 -11.73058,2.83866 -11.73058,2.83866 l -4.09104,59.86333 h 2.54647 l 3.96591,-58.27697 c 0,0 3.29786,-1.04304 9.30924,-1.87855"
       id="path54126" />
    <path
       style="fill:#c2b094;fill-opacity:1;fill-rule:nonzero;stroke:none;stroke-width:10.6869"
       d="m 322.54868,557.622 h -2.0038 v 2.0038 h -18.91087 v -2.0038 h -2.00379 v -2.62993 l 5.34344,-1.29419 v -5.21818 c 0,-3.0057 5.80266,-4.50848 5.80266,-4.50848 h 0.66793 c 0,0 5.76099,1.50278 5.76099,4.50848 v 5.21818 l 5.34344,1.29419 z m -2.33776,-5.9279 c 0,0 0.33342,-8.39082 -8.1822,-10.10242 v -8.1822 h -1.87855 v 8.1822 c -8.51616,1.7116 -8.22387,10.10242 -8.22387,10.10242 l -4.7173,1.4611 v 6.55406 h 2.37954 v 3.88233 h 0.7096 c 0,0 0.2084,-1.41932 1.62816,-1.41932 1.46111,0 1.37754,1.41932 1.37754,1.41932 h 1.08546 c 0,0 -0.0428,-1.83675 1.7533,-1.83675 1.75329,0 1.66982,1.50279 1.66982,1.50279 h 1.25239 c 0,-0.70961 0.33344,-1.50279 2.0038,-1.50279 1.71151,0 2.00379,0.79296 2.00379,1.50279 h 1.29408 c 0,0 -0.0428,-1.50279 1.71161,-1.50279 1.71149,0 1.66983,1.83675 1.66983,1.83675 h 1.08536 c 0,0 -0.0428,-1.41932 1.37764,-1.41932 1.50278,0 1.66982,1.41932 1.66982,1.41932 h 0.70962 v -3.88233 h 2.37953 v -6.55406"
       id="path54128" />
    <path
       style="fill:#c2b094;fill-opacity:1;fill-rule:nonzero;stroke:none;stroke-width:10.6869"
       d="m 246.23757,513.0376 -1.83675,-5.30165 -1.83687,5.30165 z m -3.42311,-9.89371 h 3.25619 l 5.96959,16.44787 h -3.54838 l -1.2106,-3.54848 h -5.7192 l -1.2524,3.54848 h -3.42311"
       id="path54130" />
    <path
       style="fill:#c2b094;fill-opacity:1;fill-rule:nonzero;stroke:none;stroke-width:10.6869"
       d="m 254.08581,503.22747 h 3.4648 v 13.27503 h 6.72108 v 3.08926 h -10.18588"
       id="path54132" />
    <path
       style="fill:#c2b094;fill-opacity:1;fill-rule:nonzero;stroke:none;stroke-width:10.6869"
       d="m 270.74229,503.22747 h 3.63182 l 2.79698,10.77035 3.04747,-10.81214 h 3.00569 l 3.04736,10.81214 2.75529,-10.77035 h 3.54838 l -4.71731,16.48944 h -3.17261 l -3.04747,-10.43639 -3.04748,10.43639 h -3.13083"
       id="path54134" />
    <path
       style="fill:#c2b094;fill-opacity:1;fill-rule:nonzero;stroke:none;stroke-width:10.6869"
       d="m 301.25837,513.0376 -1.79508,-5.30165 -1.79508,5.30165 z m -3.38144,-9.89371 h 3.29797 l 5.9278,16.44787 h -3.54836 l -1.21061,-3.54848 h -5.76088 l -1.16893,3.54848 h -3.4649"
       id="path54136" />
    <path
       style="fill:#c2b094;fill-opacity:1;fill-rule:nonzero;stroke:none;stroke-width:10.6869"
       d="m 309.19006,503.22747 h 3.42312 v 6.59573 h 5.4687 v -6.59573 h 3.42312 v 16.36429 h -3.42312 v -6.63762 h -5.4687 v 6.63762 h -3.42312"
       id="path54138" />
    <path
       style="fill:#c2b094;fill-opacity:1;fill-rule:nonzero;stroke:none;stroke-width:10.6869"
       d="m 328.26776,506.27483 v 10.26945 h 1.92033 c 2.62993,0 4.38333,-1.79506 4.38333,-5.05125 v -0.12507 c 0,-3.25608 -1.7534,-5.09294 -4.38333,-5.09294 z m -3.42311,-3.04736 h 5.34344 c 4.84244,0 7.93169,3.29787 7.93169,8.05684 v 0.2084 c 0,4.80076 -3.08925,8.09873 -7.93169,8.09873 h -5.34344"
       id="path54140" />
    <path
       style="fill:#c2b094;fill-opacity:1;fill-rule:nonzero;stroke:none;stroke-width:10.6869"
       d="m 348.01349,513.0376 -1.79508,-5.30165 -1.83685,5.30165 z m -3.38144,-9.89371 h 3.29798 l 5.9278,16.44787 h -3.54836 l -1.21062,-3.54848 h -5.76086 l -1.16894,3.54848 h -3.50659"
       id="path54142" />
    <path
       style="fill:#c2b094;fill-opacity:1;fill-rule:nonzero;stroke:none;stroke-width:10.6869"
       d="m 361.24685,503.22747 h 10.68688 v 3.13083 h -7.22197 v 3.67361 h 6.34533 v 3.08927 h -6.34533 v 6.47058 h -3.46491"
       id="path54144" />
    <path
       style="fill:#c2b094;fill-opacity:1;fill-rule:nonzero;stroke:none;stroke-width:10.6869"
       d="m 373.72881,511.53482 v -0.2084 c 0,-4.9678 3.13094,-8.34914 7.51416,-8.34914 2.46302,0 4.04938,0.91801 5.34344,2.21251 l -2.08725,2.58827 c -0.95968,-1.00138 -2.00379,-1.62816 -3.38144,-1.62816 -2.21249,0 -3.88232,2.04558 -3.88232,5.2182 v 0.0855 c 0,3.2144 1.7116,5.2182 3.92411,5.2182 1.33586,0 2.29597,-0.58457 3.42312,-1.71161 l 2.08736,2.42121 c -1.5029,1.5029 -3.08926,2.46302 -5.63572,2.46302 -4.34155,0 -7.30546,-3.29787 -7.30546,-8.30735"
       id="path54146" />
    <path
       style="fill:#c2b094;fill-opacity:1;fill-rule:nonzero;stroke:none;stroke-width:10.6869"
       d="m 275.79354,671.29542 -1.00136,-3.00568 -1.00136,3.00568 z m -1.87864,-5.55216 h 1.79508 l 3.29796,9.18399 h -1.9621 l -0.66794,-1.962 h -3.17261 l -0.66793,1.962 h -1.87854"
       id="path54148" />
    <path
       style="fill:#c2b094;fill-opacity:1;fill-rule:nonzero;stroke:none;stroke-width:10.6869"
       d="m 285.77072,671.12838 h -1.66983 v 2.12904 h 1.71161 c 0.83464,0 1.37754,-0.3751 1.37754,-1.08536 0,-0.62624 -0.45954,-1.0441 -1.41932,-1.0441 m 1.00136,-2.62994 c 0,-0.66793 -0.45954,-1.00136 -1.2524,-1.00136 h -1.41932 v 2.04558 h 1.33586 c 0.83464,0 1.33586,-0.33343 1.33586,-1.04411 z m -4.50859,-2.67172 h 3.38144 c 1.04411,0 1.87855,0.25007 2.42123,0.79296 0.37617,0.41787 0.62625,0.87634 0.62625,1.54459 v 0.0428 c 0,1.04304 -0.62625,1.62804 -1.2524,1.962 0.95968,0.37617 1.58636,1.00136 1.58636,2.21251 v 0.0428 c 0,1.66982 -1.29419,2.50469 -3.29797,2.50469 h -3.46491"
       id="path54150" />
    <path
       style="fill:#c2b094;fill-opacity:1;fill-rule:nonzero;stroke:none;stroke-width:10.6869"
       d="m 292.45002,671.37889 v -5.59395 h 1.87854 v 5.59395 c 0,1.29407 0.62625,1.962 1.58637,1.962 0.95968,0 1.58636,-0.62625 1.58636,-1.92021 v -5.63574 h 1.87853 v 5.55216 c 0,2.54658 -1.37764,3.7154 -3.46489,3.7154 -2.08727,0 -3.46491,-1.21061 -3.46491,-3.67361"
       id="path54152" />
    <path
       style="fill:#c2b094;fill-opacity:1;fill-rule:nonzero;stroke:none;stroke-width:10.6869"
       d="m 310.19196,667.49656 v 5.71918 h 1.04304 c 1.41933,0 2.42122,-1.00136 2.42122,-2.79696 v -0.0855 c 0,-1.79496 -1.00136,-2.83864 -2.42122,-2.83864 z m -1.87864,-1.71162 h 2.964 c 2.62994,0 4.29976,1.83687 4.29976,4.50859 v 0.12507 c 0,2.67172 -1.66982,4.50846 -4.29976,4.50846 h -2.964"
       id="path54154" />
    <path
       style="fill:#c2b094;fill-opacity:1;fill-rule:nonzero;stroke:none;stroke-width:10.6869"
       d="m 319.2507,665.82673 h 1.83686 v 3.63183 h 3.04737 v -3.63183 h 1.83685 v 9.10052 h -1.83685 v -3.71529 h -3.04737 v 3.71529 h -1.83686"
       id="path54156" />
    <path
       style="fill:#c2b094;fill-opacity:1;fill-rule:nonzero;stroke:none;stroke-width:10.6869"
       d="m 334.40438,671.29542 -0.95968,-3.00568 -1.0441,3.00568 z m -1.83676,-5.55216 h 1.79498 l 3.25618,9.18399 h -1.962 l -0.66793,-1.962 h -3.17272 l -0.66793,1.962 h -1.87855"
       id="path54158" />
    <path
       style="fill:#c2b094;fill-opacity:1;fill-rule:nonzero;stroke:none;stroke-width:10.6869"
       d="m 344.38156,671.12838 h -1.66983 v 2.12904 h 1.71162 c 0.83464,0 1.37764,-0.3751 1.37764,-1.08536 0,-0.62624 -0.45954,-1.0441 -1.41943,-1.0441 m 1.00136,-2.62994 c 0,-0.66793 -0.45953,-1.00136 -1.25229,-1.00136 h -1.41943 v 2.04558 h 1.29417 c 0.87634,0 1.37755,-0.33343 1.37755,-1.04411 z m -4.50848,-2.67172 h 3.38144 c 1.04304,0 1.87853,0.25007 2.42121,0.79296 0.37512,0.41787 0.62626,0.87634 0.62626,1.54459 v 0.0428 c 0,1.04304 -0.62626,1.62804 -1.29407,1.962 1.00136,0.37617 1.62804,1.00136 1.62804,2.21251 v 0.0428 c 0,1.66982 -1.29408,2.50469 -3.25619,2.50469 h -3.50659"
       id="path54160" />
    <path
       style="fill:#c2b094;fill-opacity:1;fill-rule:nonzero;stroke:none;stroke-width:10.6869"
       d="m 351.22789,674.92725 h 1.92034 v -9.10052 h -1.92034 z m 0,0"
       id="path54162" />
    <path
       style="fill:#c2b094;fill-opacity:1;fill-rule:nonzero;stroke:none;stroke-width:10.6869"
       d="m 302.21848,682.77549 -1.21062,0.33343 -0.1667,-1.08547 1.75328,-0.54289 h 0.87633 v 7.51426 h -1.2524"
       id="path54164" />
    <path
       style="fill:#c2b094;fill-opacity:1;fill-rule:nonzero;stroke:none;stroke-width:10.6869"
       d="m 308.6056,683.94432 v -0.0428 c 0,-0.83466 -0.45954,-1.41944 -1.29418,-1.41944 -0.75129,0 -1.25229,0.62625 -1.25229,1.41944 v 0.0428 c 0,0.83464 0.50121,1.37764 1.29408,1.37764 0.79296,0 1.25239,-0.58458 1.25239,-1.37764 m 0.0855,1.71161 c -0.37617,0.45953 -0.918,0.7096 -1.58636,0.7096 -1.25228,0 -2.29596,-0.83464 -2.29596,-2.37943 0,-1.50289 1.08536,-2.58825 2.50468,-2.58825 0.79296,0 1.29419,0.25007 1.7534,0.66792 0.5429,0.54289 0.87632,1.37765 0.87632,2.92223 v 0.0428 c 0,2.58825 -1.12714,4.09116 -2.92222,4.09116 -0.79296,0 -1.41932,-0.29283 -2.00379,-0.7513 l 0.62625,-1.00136 c 0.45954,0.37618 0.87632,0.62626 1.41943,0.62626 1.08536,0 1.58625,-1.12715 1.62804,-2.33776"
       id="path54166" />
    <path
       style="fill:#c2b094;fill-opacity:1;fill-rule:nonzero;stroke:none;stroke-width:10.6869"
       d="m 314.57518,683.52689 c 0,-0.62625 -0.50121,-1.08536 -1.12714,-1.08536 -0.66792,0 -1.16882,0.41785 -1.16882,1.08536 0,0.66792 0.50122,1.12715 1.16882,1.12715 0.62625,0 1.12714,-0.45955 1.12714,-1.12715 m 0.16672,3.38143 v -0.0428 c 0,-0.7096 -0.58457,-1.16894 -1.29418,-1.16894 -0.79296,0 -1.33586,0.45955 -1.33586,1.16894 v 0.0428 c 0,0.66793 0.50122,1.16882 1.33586,1.16882 0.79297,0 1.29418,-0.50121 1.29418,-1.16882 m -3.88233,0.0855 v -0.0428 c 0,-0.918 0.50121,-1.50278 1.25229,-1.83674 -0.58457,-0.33343 -1.04304,-0.83466 -1.04304,-1.66983 v -0.0428 c 0,-1.16883 1.04304,-2.00379 2.37943,-2.00379 1.33587,0 2.29608,0.83464 2.29608,2.00379 v 0.0428 c 0,0.83464 -0.41785,1.33585 -1.00136,1.66983 0.70961,0.33342 1.21061,0.918 1.21061,1.79508 v 0.0428 c 0,1.33585 -1.08536,2.17082 -2.5048,2.17082 -1.50278,0 -2.58814,-0.87633 -2.58814,-2.12904"
       id="path54168" />
    <path
       style="fill:#c2b094;fill-opacity:1;fill-rule:nonzero;stroke:none;stroke-width:10.6869"
       d="m 320.16913,686.32385 v -3.00568 l -2.08725,3.00568 z m 0,1.04304 h -3.29787 l -0.16672,-0.87632 3.54838,-5.00948 h 1.12714 v 4.84255 h 0.918 v 1.04304 h -0.918 v 1.62814 h -1.21061"
       id="path54170" />
  </g>
</svg>
