<svg xmlns:inkscape="http://www.inkscape.org/namespaces/inkscape" xmlns:sodipodi="http://sodipodi.sourceforge.net/DTD/sodipodi-0.dtd" xmlns="http://www.w3.org/2000/svg" xmlns:svg="http://www.w3.org/2000/svg" width="277.2634126602354" height="360.6678538669729" viewBox="0 0 97.668419 127" version="1.1" id="svg1" inkscape:version="1.4.2 (f4327f4, 2025-05-13)" sodipodi:docname="Austin FC logo.svg">
  <sodipodi:namedview id="namedview1" pagecolor="#ffffff" bordercolor="#000000" borderopacity="0.25" inkscape:showpageshadow="2" inkscape:pageopacity="0.0" inkscape:pagecheckerboard="0" inkscape:deskcolor="#d1d1d1" inkscape:document-units="mm" inkscape:zoom="0.71891835" inkscape:cx="139.09785" inkscape:cy="180.13172" inkscape:window-width="1920" inkscape:window-height="1009" inkscape:window-x="-8" inkscape:window-y="-8" inkscape:window-maximized="1" inkscape:current-layer="layer1"/>
  <defs id="defs1"/>
  <g inkscape:label="Layer 1" inkscape:groupmode="layer" id="layer1" transform="translate(-68.2625,-100.80625)">
    <g id="r2" stroke="none" stroke-width="0.751157" fill="none" fill-rule="evenodd" transform="matrix(0.69780219,0,0,0.69780219,68.262513,100.80622)">
      <g id="Desktop" transform="translate(-650,-50)" style="stroke-width:0.751157">
        <g id="hero" style="stroke-width:0.751157">
          <g id="logo" transform="translate(650,50)" style="stroke-width:0.751157">
            <path d="M 130.47354,3.0637688 H 9.4919235 3.058235 V 9.5082931 111.89977 c 0,17.90612 6.961366,34.74035 19.601721,47.40219 12.640547,12.66126 29.446476,19.63416 47.322678,19.63416 17.876393,0 34.682326,-6.9729 47.322676,-19.63416 12.64055,-12.66184 19.60191,-29.49607 19.60191,-47.40219 V 9.5082931 3.0637688 Z" id="Fill-1" fill="#000000" style="stroke-width:0.751157"/>
            <path d="m 116.54876,17.967117 v 10.110962 l -7.7394,-10.110962 h -3.5306 v 20.850877 h 3.52314 V 24.84231 l 7.74686,10.081459 v 3.894225 h 3.52295 V 17.967117 Z M 69.208866,27.13915 C 68.031872,26.799672 66.987227,26.532228 65.976434,26.272639 65.075041,26.042169 64.224139,25.824152 63.352773,25.572801 62.953238,25.466474 62.51985,25.173167 62.51985,24.670464 v -2.546467 c 0,-0.455575 0.370082,-0.812678 0.841912,-0.812678 h 4.472733 c 0.47183,0 0.841912,0.357103 0.841912,0.812678 v 1.745667 h 3.64459 v -2.543402 c 0,-1.851994 -1.504617,-3.359145 -3.353497,-3.359145 h -6.769727 c -1.863415,0 -3.323087,1.475349 -3.323087,3.359145 v 4.20305 c 0,2.062539 1.864945,2.870428 3.267814,3.298415 1.33459,0.397526 2.30082,0.649453 3.322896,0.915939 0.748579,0.194453 1.497732,0.388905 2.439864,0.649836 0.723907,0.181042 0.832732,0.624164 0.832732,0.87245 v 3.395162 c 0,0.455958 -0.369891,0.812678 -0.842295,0.812678 h -4.594946 c -0.472021,0 -0.842486,-0.35672 -0.842486,-0.812678 v -1.70601 h -3.644781 v 2.502979 c 0,1.852568 1.504617,3.360295 3.353688,3.360295 h 6.892514 c 1.862841,0 3.322513,-1.475925 3.322513,-3.360295 v -5.020518 c 0,-1.596427 -1.067595,-2.706627 -3.173333,-3.298415 z m 26.532869,11.678653 h 3.645164 V 17.966925 H 95.741735 Z M 76.87597,21.31151 h 5.259754 v 17.506676 h 3.644782 V 21.31151 h 5.260327 V 17.967308 H 76.87597 Z m -47.059317,0.812487 c 0,-0.455384 -0.369891,-0.812104 -0.841721,-0.812104 h -4.593989 c -0.472405,0 -0.841913,0.35672 -0.841913,0.812104 v 6.20505 h 6.277623 z m 3.644781,-0.79716 V 38.817994 H 29.816653 V 31.979776 H 23.53903 v 6.838218 H 19.893866 V 21.326837 c 0,-1.852377 1.504618,-3.35972 3.354071,-3.35972 h 6.890601 c 1.863416,0 3.322896,1.475541 3.322896,3.35972 z m 15.814454,-3.359529 h 3.644781 v 17.491158 c 0,1.852568 -1.504235,3.35972 -3.353688,3.35972 h -6.89041 c -1.863415,0 -3.322514,-1.475541 -3.322514,-3.35972 V 17.967308 h 3.644782 v 16.693998 c 0,0.455575 0.36989,0.812103 0.841912,0.812103 h 4.593798 c 0.471831,0 0.841339,-0.356528 0.841339,-0.812103 z" id="Fill-3" fill="#ffffff" style="stroke-width:0.751157"/>
            <path d="M 136.90717,3.0637688 H 130.47348 9.4918661 3.0581776 V 9.5082931 111.89977 c 0,17.90612 6.9613664,34.74035 19.6019124,47.40219 12.640547,12.66126 29.446476,19.63416 47.322678,19.63416 17.876202,0 34.682132,-6.9729 47.322682,-19.63416 12.64054,-12.66184 19.60172,-29.49607 19.60172,-47.40219 V 9.5082931 Z M 139.96575,3.8315789e-5 V 9.5082931 111.89977 c 0,9.45883 -1.85156,18.64044 -5.5038,27.28889 -3.52525,8.34862 -8.57003,15.84473 -14.99416,22.2789 -6.42393,6.43552 -13.90704,11.48823 -22.241634,15.01922 -8.633716,3.65858 -17.800082,5.51326 -27.24358,5.51326 -9.443497,0 -18.609289,-1.85468 -27.243579,-5.51326 -8.33459,-3.53099 -15.817705,-8.5837 -22.241639,-15.01922 C 14.073232,155.03339 9.0284508,147.53728 5.5032049,139.18866 1.8515382,130.54021 -1.9125683e-5,121.3586 -1.9125683e-5,111.89977 V 9.5082931 3.8315789e-5 H 9.4918661 130.47348 Z M 11.021347,111.89919 c 0,12.81721 4.099016,24.69223 11.050055,34.38325 25.358169,-0.009 41.23612,-8.20992 41.23612,-29.73018 0,-7.80243 -4.020028,-9.16916 -8.783279,-9.16916 -10.005601,0 -18.774344,8.85191 -26.774426,8.85191 -5.34735,0 -9.034973,-2.23496 -11.136885,-3.20492 l 2.016229,-4.39406 c 0,0 4.59418,2.72751 8.24929,2.72751 3.882705,0 7.795628,-2.5321 7.795628,-2.5321 0,0 -3.011912,-1.30389 -5.445273,-4.58621 -1.490273,-2.01004 -2.52612,-5.101937 -2.910546,-7.687678 h 4.860218 c 0.653525,3.04189 2.726749,8.790028 9.051038,8.797118 2.137869,-0.004 6.658798,-2.32462 9.181284,-2.32462 -3.571147,-4.396357 -5.236994,-11.674441 -5.236994,-11.674441 0,0 2.097322,-0.771489 4.543115,-1.724211 4.281284,15.585332 7.66653,8.622586 14.811311,15.111752 v -3.9e-4 c 0.0073,-20.010993 13.161339,-21.042071 13.161339,-34.098943 0,-6.04968 -2.863115,-9.396372 -4.379399,-11.032457 l 2.595547,-4.117414 c 0,0 3.323087,3.063922 5.242923,8.148427 2.323388,-3.403783 6.405383,-4.788707 7.442186,-4.788707 v 4.863998 c -2.355328,0 -5.751284,3.597661 -6.255055,8.72029 -0.419809,4.272211 -1.958279,7.376364 -1.958279,7.376364 0,0 1.89746,-0.749265 4.025957,-0.749265 4.764781,0 9.60989,2.113499 9.60989,2.113499 C 95.604489,70.954367 99.829352,66.928144 107.152,65.163318 v 4.858634 c -4.18087,1.213269 -7.261637,4.022966 -9.518659,12.743257 0,0 4.581559,1.871918 8.890769,1.871918 3.03295,0 5.77461,-0.648303 8.098,-3.834453 l 4.51041,1.764059 c 0,0 -2.12352,6.915808 -10.78095,6.915808 -12.557354,0 -16.430496,-5.550616 -25.509076,-5.550616 -5.917486,0 -14.441229,5.035078 -14.441229,22.473555 v 6.43303 c 0,0 -0.09964,17.73714 -0.09964,18.31015 0,19.69873 -3.932431,33.50352 -6.08541,39.29878 2.542186,0.33642 5.134099,0.51286 7.766558,0.51286 2.632459,0 5.224563,-0.17644 7.766748,-0.51286 -2.152978,-5.79526 -6.085218,-19.60005 -6.085218,-39.29878 0,-0.57301 -0.09984,-18.31015 -0.09984,-18.31015 0,-2.72483 0.0096,-4.54196 0.0096,-6.43303 0,-9.145791 3.027595,-12.867404 3.027595,-12.867404 1.88235,4.536398 1.817896,10.274384 1.817896,11.221164 7.157213,-6.517901 10.534427,0.4709 14.819345,-15.127842 1.187896,0.464962 4.543114,1.724211 4.543114,1.724211 0,0 -1.655901,7.278084 -5.227049,11.674441 2.522487,0 7.043416,2.32098 9.181284,2.32462 6.324292,-0.007 8.397322,-5.755228 9.051042,-8.797118 h 4.86022 c -0.38443,2.585741 -1.42047,5.677638 -2.91055,7.687678 -2.43336,3.28232 -5.44546,4.58621 -5.44546,4.58621 0,0 3.91311,2.5321 7.79582,2.5321 3.65511,0 8.24929,-2.72751 8.24929,-2.72751 l 2.01623,4.39406 c -2.10192,0.96996 -5.78973,3.20492 -11.13689,3.20492 -8.00008,0 -16.768827,-8.85191 -26.774428,-8.85191 -4.763252,0 -8.78347,1.36673 -8.78347,9.16916 0,21.52026 15.878142,29.72099 41.236308,29.73018 6.95104,-9.69102 11.05006,-21.56604 11.05006,-34.38325 V 48.835236 H 11.021347 Z m 0,-66.127684 H 128.94476 V 11.040158 H 11.021347 Z M 107.88088,157.10531 c -15.436719,-0.0866 -25.995243,-12.0348 -31.25385,-21.72448 0.983443,18.30652 12.057404,28.38128 16.057732,31.02372 5.544345,-2.32576 10.660078,-5.47724 15.196118,-9.29924 z M 63.338697,135.38083 c -5.258607,9.68968 -15.817131,21.63789 -31.254044,21.72448 4.536038,3.822 9.651776,6.97348 15.196312,9.29944 4.000327,-2.64284 15.074098,-12.71721 16.057732,-31.02392 z M 7.9625765,7.9764278 H 132.00296 V 111.89919 c 0,34.25585 -27.82213,62.12484 -62.020192,62.12484 -34.197869,0 -62.0201915,-27.86899 -62.0201915,-62.12484 z M 31.604981,89.482733 c 12.55735,0 16.430683,-5.550808 25.509071,-5.550808 2.76959,0 5.305082,1.009812 7.455765,2.769848 0.380792,-0.557495 1.885792,-2.711225 3.411066,-4.257459 -2.562459,-3.293434 -4.713908,-6.520773 -4.713908,-11.800497 0,-6.04968 2.863115,-9.396372 4.379399,-11.032457 l -2.595546,-4.117414 c 0,0 -3.323088,3.063922 -5.242732,8.148619 -2.32358,-3.403975 -6.405383,-4.788899 -7.442569,-4.788899 v 4.863998 c 2.355711,0 5.751667,3.597661 6.255055,8.72029 0.42,4.272211 1.95847,7.376364 1.95847,7.376364 0,0 -1.897459,-0.749265 -4.025765,-0.749265 -4.765164,0 -9.610082,2.113499 -9.610082,2.113499 C 44.352249,70.954367 40.127194,66.928144 32.804352,65.163318 v 4.858634 c 4.181257,1.213269 7.261831,4.022966 9.518853,12.743257 0,0 -4.581749,1.871918 -8.890574,1.871918 -3.033142,0 -5.774809,-0.648303 -8.098197,-3.834453 l -4.510218,1.764059 c 0,0 2.123333,6.916 10.780765,6.916 z m 20.694563,-13.753453 0.244617,0.11763 0.05566,-0.265912 c 0.403743,-1.926134 0.148606,-3.958021 -0.719126,-5.721505 -0.868688,-1.763484 -2.321284,-3.204541 -4.090792,-4.056876 l -0.244426,-0.117629 -0.05642,0.265337 c -0.404317,1.927092 -0.148415,3.959553 0.719126,5.72208 0.867541,1.764825 2.321284,3.205499 4.091366,4.056875 z m -23.118552,1.95583 c 1.321202,1.455042 3.115956,2.436884 5.05224,2.764484 l 0.267568,0.04521 -0.01989,-0.270701 c -0.143634,-1.962727 -0.950738,-3.844224 -2.271366,-5.298882 -1.32235,-1.454468 -3.11653,-2.43631 -5.052815,-2.765059 l -0.267759,-0.04521 0.01989,0.270701 c 0.144399,1.963301 0.950737,3.845947 2.272131,5.299457 z m 26.501502,9.919958 -0.238688,-0.127209 -0.06694,0.262655 c -0.02525,0.09828 -0.04074,0.19771 -0.06216,0.296564 -0.394754,1.821916 -0.209235,3.745369 0.544317,5.450613 0.625218,1.41596 1.620901,2.646472 2.862349,3.557046 0.33623,0.246371 0.689481,0.468794 1.058416,0.665929 l 0.239262,0.1274 0.06694,-0.262655 c 0.01874,-0.07529 0.03003,-0.151539 0.04724,-0.22683 0.414454,-1.841839 0.233334,-3.792496 -0.530355,-5.519964 -0.795246,-1.798351 -2.189317,-3.298989 -3.920383,-4.223549 z m -15.47612,7.735766 c -0.498606,-0.620333 -1.082513,-1.163267 -1.723989,-1.624781 -0.405847,-0.292158 -0.83541,-0.54849 -1.283716,-0.768615 -0.594617,-0.2912 -1.219836,-0.521478 -1.86877,-0.672442 l -0.263743,-0.06131 0.0038,0.271276 c 0.02467,1.968665 0.716257,3.896332 1.947568,5.427623 1.23112,1.531865 2.963142,2.620795 4.875902,3.064875 l 0.263743,0.0613 -0.0033,-0.27128 C 42.129199,98.799969 41.437612,96.872684 40.2063,95.340819 Z m -20.106639,8.844626 c 1.375519,1.40389 3.206038,2.31619 5.152841,2.57003 l 0.268908,0.0349 -0.03003,-0.26955 c -0.218415,-1.95602 -1.09571,-3.80514 -2.470464,-5.20808 -1.376284,-1.403313 -3.206038,-2.316186 -5.153416,-2.571178 l -0.268907,-0.03487 0.0306,0.269551 c 0.217842,1.956597 1.095328,3.806867 2.470465,5.209227 z m 49.867732,-28.046009 0.01071,-0.0136 0.0109,0.0136 0.167159,-0.213227 c 1.211994,-1.548533 1.878524,-3.484247 1.87795,-5.451188 -0.0011,-1.966558 -0.670355,-3.901697 -1.883306,-5.450421 l -0.167732,-0.21361 -0.005,0.0061 -0.0048,-0.0061 -0.167923,0.21361 c -1.21276,1.548724 -1.882159,3.483863 -1.883115,5.450421 -5.74e-4,1.966941 0.665956,3.902655 1.877759,5.451188 z m 17.389071,-0.558453 0.05585,0.265912 0.244618,-0.11763 c 1.770082,-0.851376 3.223825,-2.29205 4.091366,-4.056875 0.867541,-1.762527 1.123443,-3.794988 0.719125,-5.72208 l -0.05642,-0.265337 -0.244427,0.117629 c -1.769508,0.852335 -3.222295,2.293392 -4.090983,4.056876 -0.867541,1.763484 -1.122869,3.795371 -0.719126,5.721505 z m 18.099212,4.913809 0.26756,-0.04521 c 1.93629,-0.3276 3.73104,-1.309442 5.05224,-2.764484 1.32121,-1.45351 2.12774,-3.336156 2.27214,-5.299457 l 0.0197,-0.270701 -0.26757,0.04521 c -1.93629,0.328749 -3.73047,1.310591 -5.05282,2.765059 -1.32082,1.454658 -2.12773,3.336155 -2.27156,5.298882 z m -20.87607,7.245707 -0.06713,-0.262655 -0.238497,0.127209 c -1.731066,0.92456 -3.125137,2.425198 -3.920383,4.223549 -0.763688,1.727468 -0.945,3.678125 -0.530355,5.519964 0.01721,0.07529 0.0285,0.151539 0.04724,0.22683 l 0.06694,0.262655 0.239072,-0.1274 c 0.369125,-0.197135 0.722377,-0.419558 1.058606,-0.665929 1.241448,-0.910574 2.237131,-2.141086 2.86235,-3.557046 0.75336,-1.705244 0.939071,-3.628697 0.544317,-5.450613 -0.02142,-0.09885 -0.0371,-0.198284 -0.06216,-0.296564 z m 18.17801,5.206924 c -0.44812,0.220125 -0.87768,0.476457 -1.28372,0.768615 -0.64128,0.461514 -1.22519,1.004448 -1.723989,1.624781 -1.23112,1.531865 -1.922896,3.45915 -1.947568,5.426666 l -0.0033,0.27128 0.263935,-0.0613 c 1.912759,-0.44408 3.644782,-1.533015 4.875902,-3.06488 1.23131,-1.531291 1.92289,-3.458958 1.94757,-5.427623 l 0.004,-0.271276 -0.26393,0.06131 c -0.64875,0.150964 -1.27396,0.381242 -1.86877,0.672442 z m 11.7074,13.573372 -0.03,0.26955 0.26891,-0.0349 c 1.9468,-0.25384 3.77732,-1.16614 5.15284,-2.57003 1.37514,-1.40236 2.25262,-3.25263 2.47047,-5.209224 l 0.0306,-0.269551 -0.2691,0.03487 c -1.94738,0.254992 -3.77694,1.167865 -5.15323,2.571175 -1.37475,1.40294 -2.25224,3.25206 -2.47046,5.20808 z m -25.032268,14.95484 v 9.04847 c 0,1.52113 1.236476,2.75988 2.755629,2.75988 h 7.838659 v -3.08212 h -7.020463 c -0.157021,0 -0.275983,-0.10901 -0.275983,-0.25461 v -7.89573 c 0,-0.14464 0.118962,-0.25404 0.275983,-0.25404 h 7.020463 v -3.08212 h -7.838659 c -1.519153,0 -2.755629,1.23875 -2.755629,2.76027 z M 43.260363,133.284 h -3.297841 v -11.80835 c 0,-1.52152 1.235519,-2.76027 2.755054,-2.76027 h 7.838662 v 3.08212 h -7.020274 c -0.157213,0 -0.275601,0.1094 -0.275601,0.25404 v 3.54555 h 7.295875 v 3.30339 l -7.295875,-5.7e-4 z" id="Fill-5" fill="#00b140" style="stroke-width:0.751157"/>
          </g>
        </g>
      </g>
    </g>
  </g>
</svg>