<?xml version="1.0" encoding="UTF-8"?>
<svg xmlns="http://www.w3.org/2000/svg" xmlns:xlink="http://www.w3.org/1999/xlink" width="300" height="300" viewBox="0 0 567 567" version="1.1">
<g id="surface1">
<path style=" stroke:none;fill-rule:evenodd;fill:rgb(0%,0.784302%,0%);fill-opacity:1;" d="M 283.535156 -0.0195313 C 440.089844 -0.0195313 567.003906 126.890625 567.003906 283.445313 C 567.003906 440 440.089844 566.910156 283.535156 566.910156 C 126.984375 566.910156 0.0703125 440 0.0703125 283.445313 C 0.0703125 126.890625 126.984375 -0.0195313 283.535156 -0.0195313 Z M 283.535156 -0.0195313 "/>
<path style=" stroke:none;fill-rule:evenodd;fill:rgb(100%,100%,100%);fill-opacity:1;" d="M 283.535156 10.199219 C 434.445313 10.199219 556.78125 132.535156 556.78125 283.445313 C 556.78125 434.351563 434.445313 556.6875 283.535156 556.6875 C 132.628906 556.6875 10.292969 434.351563 10.292969 283.445313 C 10.292969 132.535156 132.628906 10.199219 283.535156 10.199219 Z M 283.535156 10.199219 "/>
<path style=" stroke:none;fill-rule:evenodd;fill:rgb(0%,0.784302%,0%);fill-opacity:1;" d="M 283.535156 76.269531 C 397.960938 76.269531 490.714844 169.023438 490.714844 283.445313 C 490.714844 397.863281 397.960938 490.621094 283.535156 490.621094 C 169.117188 490.621094 76.363281 397.863281 76.363281 283.445313 C 76.363281 169.023438 169.117188 76.269531 283.535156 76.269531 Z M 283.535156 76.269531 "/>
<path style=" stroke:none;fill-rule:evenodd;fill:rgb(100%,100%,100%);fill-opacity:1;" d="M 283.535156 81.378906 C 395.132813 81.378906 485.601563 171.847656 485.601563 283.445313 C 485.601563 395.042969 395.132813 485.507813 283.535156 485.507813 C 171.9375 485.507813 81.472656 395.042969 81.472656 283.445313 C 81.472656 171.847656 171.9375 81.378906 283.535156 81.378906 Z M 283.535156 81.378906 "/>
<path style=" stroke:none;fill-rule:evenodd;fill:rgb(0%,0.784302%,0%);fill-opacity:1;" d="M 119.003906 191.316406 L 241.664063 191.316406 C 251.3125 204.160156 266.675781 212.472656 283.976563 212.472656 C 301.273438 212.472656 316.636719 204.160156 326.289063 191.316406 L 448.070313 191.316406 C 452.835938 199.800781 456.960938 208.683594 460.382813 217.914063 L 106.691406 217.914063 C 110.113281 208.683594 114.242188 199.800781 119.003906 191.316406 Z M 119.003906 191.316406 "/>
<path style=" stroke:none;fill-rule:evenodd;fill:rgb(0%,0.784302%,0%);fill-opacity:1;" d="M 157.597656 143.132813 L 233.695313 143.132813 C 232.003906 148.308594 231.089844 153.839844 231.089844 159.582031 C 231.089844 163.050781 231.421875 166.445313 232.0625 169.730469 L 133.136719 169.730469 C 140.429688 160.101563 148.628906 151.191406 157.597656 143.132813 Z M 334.253906 143.132813 L 409.472656 143.132813 C 418.449219 151.191406 426.640625 160.101563 433.9375 169.730469 L 335.890625 169.730469 C 336.527344 166.445313 336.867188 163.050781 336.867188 159.582031 C 336.867188 153.839844 335.949219 148.308594 334.253906 143.132813 Z M 334.253906 143.132813 "/>
<path style=" stroke:none;fill-rule:evenodd;fill:rgb(0%,0.784302%,0%);fill-opacity:1;" d="M 381.445313 122.277344 L 321.464844 122.277344 C 311.886719 112.648438 298.628906 106.6875 283.976563 106.6875 C 269.324219 106.6875 256.066406 112.648438 246.484375 122.277344 L 185.628906 122.277344 C 214.171875 104.898438 247.683594 94.886719 283.535156 94.886719 C 319.386719 94.886719 352.90625 104.898438 381.445313 122.277344 Z M 381.445313 122.277344 "/>
<path style=" stroke:none;fill-rule:evenodd;fill:rgb(1.177979%,32.93457%,62.304688%);fill-opacity:1;" d="M 146.703125 228.691406 L 420.039063 228.691406 L 283.371094 309.769531 Z M 223.089844 345.53125 L 134.050781 398.355469 C 109.554688 366.539063 94.976563 326.695313 94.976563 283.445313 C 94.976563 278.839844 95.144531 274.273438 95.46875 269.753906 Z M 471.632813 270.1875 C 471.941406 274.566406 472.09375 278.988281 472.09375 283.445313 C 472.09375 326.753906 457.476563 366.652344 432.921875 398.488281 L 344.199219 345.859375 Z M 385.578125 442.019531 C 356.164063 460.992188 321.132813 472.003906 283.535156 472.003906 C 246.09375 472.003906 211.195313 461.085938 181.859375 442.257813 L 283.921875 381.652344 Z M 385.578125 442.019531 "/>
<path style=" stroke:none;fill-rule:evenodd;fill:rgb(0%,0.784302%,0%);fill-opacity:1;" d="M 257.796875 120.609375 C 258.613281 119.195313 260.203125 118.335938 261.828125 118.371094 L 262.046875 118.078125 C 263.003906 116.761719 264.671875 116.074219 266.273438 116.273438 L 266.503906 116.019531 C 267.59375 114.808594 269.324219 114.296875 270.898438 114.664063 L 271.15625 114.433594 C 272.367188 113.34375 274.140625 113.015625 275.671875 113.546875 L 275.949219 113.347656 C 277.269531 112.386719 279.066406 112.25 280.53125 112.9375 L 280.835938 112.765625 C 282.242188 111.949219 284.046875 112 285.429688 112.835938 L 285.746094 112.699219 C 287.234375 112.035156 289.023438 112.269531 290.3125 113.25 L 290.640625 113.144531 C 292.191406 112.640625 293.945313 113.0625 295.128906 114.167969 L 295.464844 114.097656 C 297.054688 113.757813 298.753906 114.363281 299.8125 115.585938 L 300.15625 115.554688 C 301.777344 115.382813 303.40625 116.160156 304.335938 117.488281 L 304.675781 117.488281 C 306.304688 117.488281 307.839844 118.433594 308.621094 119.851563 L 308.964844 119.886719 C 310.589844 120.058594 312.015625 121.15625 312.644531 122.648438 L 312.980469 122.722656 C 314.574219 123.058594 315.882813 124.304688 316.351563 125.851563 L 316.679688 125.960938 C 318.230469 126.464844 319.398438 127.835938 319.703125 129.425781 L 320.019531 129.566406 C 321.507813 130.230469 322.527344 131.714844 322.664063 133.328125 L 322.964844 133.503906 C 324.378906 134.316406 325.230469 135.902344 325.199219 137.519531 L 325.476563 137.726563 C 326.796875 138.683594 327.484375 140.347656 327.285156 141.953125 L 327.539063 142.1875 C 328.753906 143.277344 329.261719 145.007813 328.894531 146.582031 L 329.121094 146.839844 C 330.214844 148.050781 330.539063 149.824219 330.007813 151.351563 L 330.214844 151.632813 C 331.171875 152.953125 331.308594 154.75 330.621094 156.214844 L 330.796875 156.515625 C 331.605469 157.925781 331.558594 159.726563 330.722656 161.113281 L 330.859375 161.429688 C 331.523438 162.917969 331.285156 164.703125 330.308594 165.996094 L 330.414063 166.324219 C 330.921875 167.875 330.496094 169.625 329.390625 170.808594 L 329.460938 171.144531 C 329.796875 172.738281 329.195313 174.4375 327.972656 175.496094 L 328.003906 175.839844 C 328.175781 177.460938 327.398438 179.085938 326.070313 180.011719 L 326.066406 180.359375 C 326.066406 181.988281 325.128906 183.523438 323.710938 184.304688 L 323.671875 184.648438 C 323.503906 186.269531 322.398438 187.699219 320.910156 188.328125 L 320.839844 188.664063 C 320.496094 190.257813 319.253906 191.5625 317.710938 192.035156 L 317.597656 192.363281 C 317.09375 193.910156 315.722656 195.082031 314.132813 195.386719 L 313.992188 195.703125 C 313.328125 197.191406 311.839844 198.210938 310.230469 198.347656 L 310.054688 198.644531 C 309.238281 200.054688 307.65625 200.914063 306.039063 200.882813 L 305.835938 201.160156 C 304.878906 202.480469 303.210938 203.167969 301.601563 202.96875 L 301.371094 203.222656 C 300.28125 204.433594 298.550781 204.941406 296.976563 204.574219 L 296.71875 204.804688 C 295.507813 205.894531 293.734375 206.222656 292.210938 205.691406 L 291.925781 205.894531 C 290.605469 206.851563 288.808594 206.992188 287.34375 206.304688 L 287.046875 206.476563 C 285.632813 207.289063 283.835938 207.242188 282.445313 206.40625 L 282.128906 206.542969 C 280.640625 207.207031 278.855469 206.96875 277.5625 205.992188 L 277.234375 206.097656 C 275.683594 206.601563 273.933594 206.179688 272.753906 205.070313 L 272.414063 205.144531 C 270.816406 205.480469 269.121094 204.878906 268.0625 203.652344 L 267.71875 203.6875 C 266.097656 203.859375 264.472656 203.082031 263.546875 201.753906 L 263.199219 201.753906 C 261.570313 201.75 260.035156 200.808594 259.253906 199.390625 L 258.910156 199.355469 C 257.289063 199.183594 255.863281 198.085938 255.230469 196.59375 L 254.894531 196.519531 C 253.300781 196.179688 251.992188 194.9375 251.523438 193.390625 L 251.195313 193.28125 C 249.644531 192.777344 248.476563 191.40625 248.171875 189.816406 L 247.855469 189.675781 C 246.367188 189.011719 245.347656 187.527344 245.214844 185.914063 L 244.910156 185.738281 C 243.503906 184.921875 242.644531 183.339844 242.675781 181.722656 L 242.394531 181.515625 C 241.078125 180.558594 240.390625 178.894531 240.589844 177.285156 L 240.335938 177.054688 C 239.128906 175.964844 238.613281 174.234375 238.980469 172.660156 L 238.753906 172.402344 C 237.660156 171.191406 237.339844 169.417969 237.863281 167.890625 L 237.660156 167.609375 C 236.710938 166.289063 236.566406 164.492188 237.253906 163.027344 L 237.085938 162.726563 C 236.265625 161.316406 236.316406 159.515625 237.152344 158.128906 L 237.011719 157.8125 C 236.351563 156.324219 236.589844 154.539063 237.5625 153.246094 L 237.460938 152.917969 C 236.960938 151.367188 237.378906 149.617188 238.484375 148.433594 L 238.414063 148.09375 C 238.078125 146.503906 238.679688 144.804688 239.902344 143.746094 L 239.867188 143.398438 C 239.699219 141.78125 240.476563 140.15625 241.804688 139.230469 L 241.804688 138.882813 C 241.804688 137.253906 242.753906 135.71875 244.171875 134.9375 L 244.203125 134.59375 C 244.378906 132.972656 245.472656 131.542969 246.964844 130.914063 L 247.035156 130.574219 C 247.378906 128.984375 248.617188 127.675781 250.171875 127.207031 L 250.273438 126.878906 C 250.78125 125.328125 252.152344 124.160156 253.742188 123.855469 L 253.882813 123.539063 C 254.546875 122.054688 256.023438 121.039063 257.628906 120.894531 Z M 262.671875 118.457031 C 264.78125 118.835938 266.820313 120.304688 268.757813 121.042969 C 270.171875 121.582031 271.726563 121.421875 272.871094 120.453125 C 272.769531 120.410156 272.671875 120.363281 272.570313 120.3125 C 270.683594 119.355469 268.394531 117.335938 266.285156 117.011719 C 264.933594 116.804688 263.496094 117.359375 262.671875 118.457031 Z M 273.652344 120.722656 C 272.574219 121.820313 271.101563 122.234375 269.648438 122.023438 C 268.6875 123.214844 267.269531 123.773438 265.804688 123.710938 C 264.972656 125.003906 263.617188 125.710938 262.152344 125.804688 C 261.460938 127.175781 260.183594 128.023438 258.734375 128.265625 C 258.191406 129.703125 257.011719 130.679688 255.597656 131.074219 C 255.203125 132.558594 254.132813 133.652344 252.769531 134.191406 C 252.53125 135.710938 251.585938 136.910156 250.28125 137.589844 C 250.210938 139.125 249.386719 140.414063 248.164063 141.226563 C 248.246094 142.761719 247.566406 144.132813 246.4375 145.070313 C 246.679688 146.585938 246.148438 148.019531 245.121094 149.066406 C 245.523438 150.550781 245.140625 152.03125 244.230469 153.183594 C 244.785156 154.617188 244.5625 156.128906 243.773438 157.371094 C 244.476563 158.738281 244.414063 160.265625 243.757813 161.578125 C 244.601563 162.867188 244.695313 164.390625 244.183594 165.769531 C 245.15625 166.960938 245.410156 168.46875 245.046875 169.890625 C 246.136719 170.972656 246.546875 172.445313 246.335938 173.898438 C 247.527344 174.863281 248.089844 176.285156 248.03125 177.753906 C 249.320313 178.585938 250.027344 179.941406 250.121094 181.40625 C 251.492188 182.097656 252.339844 183.371094 252.585938 184.820313 C 254.019531 185.367188 254.996094 186.546875 255.390625 187.960938 C 256.878906 188.351563 257.96875 189.421875 258.507813 190.789063 C 260.027344 191.023438 261.226563 191.972656 261.90625 193.277344 C 263.441406 193.351563 264.730469 194.171875 265.546875 195.394531 C 267.078125 195.308594 268.449219 195.988281 269.386719 197.121094 C 270.902344 196.875 272.339844 197.410156 273.382813 198.4375 C 274.867188 198.035156 276.347656 198.414063 277.503906 199.328125 C 278.933594 198.769531 280.445313 198.996094 281.6875 199.785156 C 283.050781 199.082031 284.578125 199.144531 285.894531 199.796875 C 287.179688 198.957031 288.710938 198.863281 290.089844 199.375 C 291.273438 198.402344 292.78125 198.148438 294.210938 198.511719 C 295.289063 197.421875 296.761719 197.011719 298.214844 197.226563 C 299.179688 196.027344 300.597656 195.46875 302.070313 195.527344 C 302.902344 194.238281 304.253906 193.527344 305.722656 193.4375 C 306.414063 192.066406 307.6875 191.21875 309.136719 190.972656 C 309.683594 189.535156 310.863281 188.5625 312.277344 188.167969 C 312.671875 186.683594 313.738281 185.589844 315.105469 185.046875 C 315.339844 183.53125 316.289063 182.332031 317.59375 181.652344 C 317.671875 180.117188 318.488281 178.828125 319.714844 178.011719 C 319.628906 176.480469 320.304688 175.109375 321.4375 174.171875 C 321.191406 172.65625 321.726563 171.222656 322.753906 170.171875 C 322.351563 168.691406 322.730469 167.210938 323.644531 166.058594 C 323.089844 164.625 323.3125 163.113281 324.101563 161.871094 C 323.398438 160.507813 323.464844 158.976563 324.117188 157.660156 C 323.273438 156.375 323.175781 154.851563 323.691406 153.472656 C 322.71875 152.28125 322.464844 150.773438 322.835938 149.351563 C 321.738281 148.269531 321.328125 146.796875 321.546875 145.339844 C 320.34375 144.378906 319.785156 142.957031 319.84375 141.488281 C 318.554688 140.65625 317.84375 139.300781 317.753906 137.835938 C 316.382813 137.144531 315.535156 135.867188 315.289063 134.417969 C 313.855469 133.875 312.878906 132.695313 312.484375 131.277344 C 311.003906 130.886719 309.90625 129.820313 309.367188 128.449219 C 307.847656 128.21875 306.648438 127.265625 305.96875 125.964844 C 304.433594 125.890625 303.144531 125.070313 302.328125 123.84375 C 300.796875 123.933594 299.425781 123.25 298.488281 122.117188 C 296.972656 122.367188 295.539063 121.832031 294.488281 120.800781 C 293.007813 121.207031 291.527344 120.828125 290.378906 119.910156 C 288.941406 120.46875 287.429688 120.246094 286.1875 119.457031 C 284.824219 120.160156 283.296875 120.097656 281.976563 119.441406 C 280.691406 120.285156 279.171875 120.378906 277.789063 119.867188 C 276.597656 120.839844 275.085938 121.09375 273.652344 120.722656 Z M 277.035156 119.515625 C 276.9375 119.460938 276.839844 119.402344 276.742188 119.339844 C 274.964844 118.191406 272.898438 115.941406 270.839844 115.398438 C 269.519531 115.054688 268.046875 115.449219 267.101563 116.445313 C 269.171875 117.039063 271.046875 118.722656 272.902344 119.660156 C 274.242188 120.339844 275.796875 120.351563 277.035156 119.515625 Z M 281.265625 119.015625 C 281.171875 118.949219 281.085938 118.878906 280.992188 118.808594 C 279.34375 117.480469 277.527344 115.027344 275.53125 114.273438 C 274.257813 113.792969 272.746094 114.03125 271.710938 114.921875 C 273.699219 115.726563 275.390625 117.597656 277.140625 118.726563 C 278.398438 119.542969 279.945313 119.714844 281.265625 119.015625 Z M 285.523438 118.960938 C 285.4375 118.882813 285.355469 118.804688 285.273438 118.722656 C 283.773438 117.230469 282.222656 114.601563 280.316406 113.640625 C 279.097656 113.03125 277.574219 113.109375 276.445313 113.890625 C 278.34375 114.898438 279.828125 116.933594 281.453125 118.238281 C 282.621094 119.183594 284.136719 119.515625 285.523438 118.960938 Z M 289.765625 119.347656 C 289.6875 119.265625 289.613281 119.175781 289.539063 119.085938 C 288.203125 117.445313 286.9375 114.667969 285.144531 113.515625 C 283.996094 112.78125 282.46875 112.699219 281.265625 113.355469 C 283.050781 114.558594 284.3125 116.738281 285.789063 118.207031 C 286.855469 119.265625 288.328125 119.753906 289.765625 119.347656 Z M 293.945313 120.179688 C 293.878906 120.085938 293.808594 119.992188 293.746094 119.894531 C 292.589844 118.125 291.621094 115.230469 289.960938 113.894531 C 288.890625 113.042969 287.382813 112.804688 286.117188 113.332031 C 287.765625 114.714844 288.796875 117.011719 290.109375 118.628906 C 291.054688 119.792969 292.472656 120.433594 293.945313 120.179688 Z M 298.011719 121.441406 C 297.953125 121.339844 297.898438 121.242188 297.84375 121.136719 C 296.878906 119.253906 296.21875 116.277344 294.703125 114.773438 C 293.734375 113.816406 292.257813 113.417969 290.941406 113.8125 C 292.4375 115.359375 293.222656 117.753906 294.359375 119.496094 C 295.179688 120.753906 296.519531 121.539063 298.011719 121.441406 Z M 301.925781 123.121094 C 301.878906 123.015625 301.835938 122.910156 301.796875 122.800781 C 301.027344 120.828125 300.679688 117.796875 299.335938 116.144531 C 298.46875 115.089844 297.039063 114.542969 295.691406 114.792969 C 297.019531 116.488281 297.546875 118.953125 298.496094 120.804688 C 299.179688 122.144531 300.433594 123.0625 301.925781 123.121094 Z M 305.640625 125.199219 C 305.605469 125.089844 305.570313 124.980469 305.546875 124.871094 C 304.988281 122.828125 304.964844 119.777344 303.796875 117.992188 C 303.046875 116.855469 301.679688 116.160156 300.3125 116.269531 C 301.453125 118.09375 301.722656 120.597656 302.476563 122.539063 C 303.015625 123.941406 304.164063 124.988281 305.640625 125.199219 Z M 309.121094 127.65625 C 309.097656 127.546875 309.074219 127.433594 309.054688 127.316406 C 308.71875 125.230469 309.011719 122.191406 308.035156 120.296875 C 307.40625 119.085938 306.128906 118.25 304.753906 118.21875 C 305.699219 120.152344 305.703125 122.671875 306.253906 124.683594 C 306.640625 126.132813 307.671875 127.292969 309.121094 127.65625 Z M 312.324219 130.464844 C 312.3125 130.351563 312.300781 130.238281 312.296875 130.121094 C 312.179688 128.007813 312.785156 125.019531 312.011719 123.03125 C 311.515625 121.761719 310.328125 120.796875 308.96875 120.621094 C 309.710938 122.644531 309.449219 125.148438 309.777344 127.207031 C 310.015625 128.6875 310.921875 129.949219 312.324219 130.464844 Z M 315.214844 133.59375 C 315.214844 133.476563 315.21875 133.363281 315.222656 133.246094 C 315.328125 131.136719 316.246094 128.222656 315.683594 126.164063 C 315.324219 124.851563 314.242188 123.769531 312.90625 123.449219 C 313.429688 125.539063 312.910156 128.003906 313.023438 130.085938 C 313.105469 131.582031 313.878906 132.933594 315.214844 133.59375 Z M 317.765625 137.003906 C 317.777344 136.890625 317.789063 136.777344 317.808594 136.660156 C 318.132813 134.574219 319.347656 131.773438 319.007813 129.667969 C 318.785156 128.320313 317.824219 127.132813 316.53125 126.675781 C 316.835938 128.808594 316.054688 131.207031 315.953125 133.285156 C 315.878906 134.785156 316.503906 136.210938 317.765625 137.003906 Z M 319.945313 140.664063 C 319.964844 140.550781 319.992188 140.441406 320.023438 140.328125 C 320.566406 138.285156 322.066406 135.625 321.945313 133.496094 C 321.867188 132.136719 321.035156 130.851563 319.796875 130.265625 C 319.871094 132.414063 318.851563 134.71875 318.53125 136.777344 C 318.296875 138.261719 318.769531 139.742188 319.945313 140.664063 Z M 321.726563 144.53125 C 321.761719 144.421875 321.800781 144.3125 321.839844 144.207031 C 322.59375 142.230469 324.367188 139.742188 324.46875 137.613281 C 324.53125 136.25 323.839844 134.886719 322.671875 134.171875 C 322.519531 136.320313 321.261719 138.507813 320.726563 140.519531 C 320.34375 141.96875 320.65625 143.492188 321.726563 144.53125 Z M 323.097656 148.566406 C 323.144531 148.460938 323.191406 148.355469 323.246094 148.253906 C 324.199219 146.367188 326.222656 144.078125 326.546875 141.96875 C 326.753906 140.621094 326.203125 139.195313 325.113281 138.363281 C 324.742188 140.480469 323.265625 142.523438 322.523438 144.46875 C 321.988281 145.871094 322.140625 147.417969 323.097656 148.566406 Z M 324.039063 152.71875 C 324.097656 152.617188 324.15625 152.519531 324.21875 152.421875 C 325.367188 150.648438 327.613281 148.582031 328.15625 146.519531 C 328.503906 145.203125 328.109375 143.722656 327.109375 142.78125 C 326.519531 144.851563 324.839844 146.726563 323.894531 148.585938 C 323.214844 149.925781 323.210938 151.476563 324.039063 152.71875 Z M 324.546875 156.949219 C 324.609375 156.855469 324.675781 156.761719 324.753906 156.671875 C 326.078125 155.027344 328.527344 153.207031 329.285156 151.214844 C 329.765625 149.9375 329.527344 148.429688 328.632813 147.386719 C 327.828125 149.382813 325.964844 151.074219 324.835938 152.824219 C 324.015625 154.082031 323.84375 155.628906 324.546875 156.949219 Z M 324.597656 161.207031 C 324.671875 161.121094 324.753906 161.039063 324.839844 160.957031 C 326.324219 159.457031 328.953125 157.90625 329.914063 156 C 330.527344 154.78125 330.445313 153.253906 329.671875 152.125 C 328.660156 154.027344 326.628906 155.511719 325.316406 157.132813 C 324.378906 158.304688 324.046875 159.820313 324.597656 161.207031 Z M 324.214844 165.449219 C 324.296875 165.371094 324.378906 165.296875 324.46875 165.222656 C 326.109375 163.886719 328.886719 162.621094 330.039063 160.828125 C 330.777344 159.679688 330.859375 158.152344 330.199219 156.949219 C 329.003906 158.730469 326.820313 159.996094 325.351563 161.472656 C 324.289063 162.535156 323.800781 164.011719 324.214844 165.449219 Z M 323.378906 169.625 C 323.472656 169.558594 323.566406 169.492188 323.664063 169.429688 C 325.433594 168.273438 328.328125 167.300781 329.664063 165.640625 C 330.515625 164.574219 330.753906 163.0625 330.226563 161.796875 C 328.84375 163.449219 326.546875 164.476563 324.929688 165.792969 C 323.765625 166.738281 323.128906 168.15625 323.378906 169.625 Z M 322.117188 173.695313 C 322.214844 173.636719 322.316406 173.582031 322.421875 173.527344 C 324.300781 172.5625 327.28125 171.898438 328.78125 170.386719 C 329.742188 169.417969 330.136719 167.9375 329.746094 166.625 C 328.199219 168.121094 325.804688 168.90625 324.058594 170.042969 C 322.800781 170.863281 322.015625 172.203125 322.117188 173.695313 Z M 320.4375 177.609375 C 320.546875 177.5625 320.648438 177.515625 320.753906 177.472656 C 322.726563 176.710938 325.761719 176.363281 327.410156 175.015625 C 328.46875 174.152344 329.015625 172.722656 328.761719 171.375 C 327.066406 172.703125 324.601563 173.230469 322.753906 174.179688 C 321.414063 174.863281 320.492188 176.117188 320.4375 177.609375 Z M 318.355469 181.324219 C 318.464844 181.289063 318.574219 181.253906 318.6875 181.222656 C 320.726563 180.671875 323.78125 180.644531 325.5625 179.472656 C 326.703125 178.726563 327.398438 177.363281 327.289063 175.996094 C 325.464844 177.136719 322.960938 177.40625 321.015625 178.15625 C 319.617188 178.699219 318.566406 179.847656 318.355469 181.324219 Z M 315.898438 184.804688 C 316.011719 184.777344 316.128906 184.757813 316.238281 184.738281 C 318.324219 184.402344 321.367188 184.691406 323.261719 183.71875 C 324.472656 183.089844 325.304688 181.808594 325.339844 180.4375 C 323.40625 181.382813 320.886719 181.386719 318.878906 181.929688 C 317.425781 182.324219 316.265625 183.355469 315.898438 184.804688 Z M 313.09375 188.007813 C 313.210938 187.992188 313.320313 187.984375 313.4375 187.976563 C 315.546875 187.863281 318.539063 188.46875 320.527344 187.695313 C 321.796875 187.199219 322.757813 186.011719 322.9375 184.652344 C 320.914063 185.386719 318.40625 185.128906 316.351563 185.460938 C 314.867188 185.699219 313.605469 186.605469 313.09375 188.007813 Z M 309.964844 190.898438 C 310.078125 190.898438 310.195313 190.898438 310.3125 190.90625 C 312.421875 191.011719 315.339844 191.925781 317.390625 191.367188 C 318.710938 191.007813 319.789063 189.925781 320.105469 188.589844 C 318.019531 189.113281 315.550781 188.59375 313.472656 188.707031 C 311.972656 188.789063 310.621094 189.558594 309.964844 190.898438 Z M 306.554688 193.449219 C 306.671875 193.457031 306.78125 193.472656 306.894531 193.492188 C 308.984375 193.816406 311.785156 195.03125 313.890625 194.6875 C 315.234375 194.46875 316.425781 193.507813 316.878906 192.214844 C 314.753906 192.511719 312.351563 191.738281 310.269531 191.636719 C 308.769531 191.558594 307.347656 192.183594 306.554688 193.449219 Z M 302.894531 195.628906 C 303.003906 195.648438 303.117188 195.675781 303.230469 195.707031 C 305.273438 196.25 307.929688 197.75 310.058594 197.628906 C 311.421875 197.550781 312.703125 196.714844 313.296875 195.476563 C 311.140625 195.554688 308.839844 194.535156 306.78125 194.214844 C 305.296875 193.980469 303.816406 194.453125 302.894531 195.628906 Z M 299.023438 197.410156 C 299.132813 197.445313 299.242188 197.484375 299.351563 197.523438 C 301.328125 198.277344 303.8125 200.046875 305.945313 200.152344 C 307.304688 200.214844 308.671875 199.519531 309.382813 198.351563 C 307.238281 198.199219 305.050781 196.945313 303.039063 196.410156 C 301.589844 196.023438 300.066406 196.339844 299.023438 197.410156 Z M 294.992188 198.78125 C 295.097656 198.828125 295.203125 198.875 295.304688 198.925781 C 297.191406 199.882813 299.480469 201.90625 301.589844 202.230469 C 302.933594 202.433594 304.363281 201.886719 305.195313 200.796875 C 303.078125 200.425781 301.035156 198.949219 299.089844 198.207031 C 297.6875 197.671875 296.136719 197.824219 294.992188 198.78125 Z M 290.839844 199.722656 C 290.9375 199.777344 291.035156 199.839844 291.132813 199.902344 C 292.910156 201.046875 294.972656 203.296875 297.035156 203.839844 C 298.355469 204.1875 299.835938 203.789063 300.773438 202.792969 C 298.710938 202.203125 296.828125 200.519531 294.972656 199.578125 C 293.632813 198.898438 292.078125 198.890625 290.839844 199.722656 Z M 286.609375 200.222656 C 286.703125 200.289063 286.796875 200.359375 286.882813 200.433594 C 288.53125 201.761719 290.347656 204.210938 292.34375 204.96875 C 293.617188 205.449219 295.128906 205.210938 296.171875 204.316406 C 294.175781 203.511719 292.484375 201.644531 290.734375 200.515625 C 289.472656 199.699219 287.929688 199.527344 286.609375 200.222656 Z M 282.351563 200.28125 C 282.4375 200.355469 282.519531 200.433594 282.601563 200.515625 C 284.101563 202.007813 285.652344 204.636719 287.554688 205.597656 C 288.773438 206.210938 290.300781 206.128906 291.429688 205.351563 C 289.53125 204.34375 288.046875 202.308594 286.425781 201 C 285.253906 200.058594 283.734375 199.726563 282.351563 200.28125 Z M 278.109375 199.890625 C 278.1875 199.976563 278.261719 200.0625 278.339844 200.152344 C 279.671875 201.792969 280.9375 204.570313 282.730469 205.722656 C 283.878906 206.460938 285.40625 206.539063 286.609375 205.882813 C 284.824219 204.683594 283.558594 202.503906 282.089844 201.035156 C 281.019531 199.972656 279.546875 199.484375 278.109375 199.890625 Z M 273.929688 199.0625 C 274.003906 199.15625 274.066406 199.25 274.128906 199.34375 C 275.285156 201.117188 276.253906 204.011719 277.921875 205.34375 C 278.984375 206.199219 280.492188 206.4375 281.757813 205.910156 C 280.109375 204.527344 279.078125 202.226563 277.765625 200.613281 C 276.816406 199.449219 275.402344 198.808594 273.929688 199.0625 Z M 269.863281 197.800781 C 269.921875 197.898438 269.976563 198 270.03125 198.101563 C 270.992188 199.984375 271.65625 202.964844 273.171875 204.464844 C 274.140625 205.425781 275.617188 205.820313 276.933594 205.429688 C 275.4375 203.882813 274.652344 201.488281 273.515625 199.742188 C 272.695313 198.484375 271.351563 197.699219 269.863281 197.800781 Z M 265.949219 196.121094 C 265.996094 196.222656 266.046875 196.332031 266.085938 196.4375 C 266.84375 198.410156 267.195313 201.445313 268.546875 203.09375 C 269.40625 204.152344 270.839844 204.699219 272.183594 204.445313 C 270.855469 202.75 270.328125 200.285156 269.378906 198.433594 C 268.691406 197.097656 267.441406 196.175781 265.949219 196.121094 Z M 262.230469 194.039063 C 262.269531 194.148438 262.300781 194.257813 262.335938 194.371094 C 262.882813 196.410156 262.914063 199.464844 264.085938 201.246094 C 264.835938 202.386719 266.195313 203.082031 267.5625 202.96875 C 266.421875 201.148438 266.152344 198.640625 265.402344 196.699219 C 264.859375 195.296875 263.714844 194.25 262.230469 194.039063 Z M 258.753906 191.582031 C 258.777344 191.695313 258.800781 191.808594 258.820313 191.921875 C 259.152344 194.007813 258.863281 197.046875 259.839844 198.945313 C 260.464844 200.15625 261.753906 200.988281 263.117188 201.019531 C 262.175781 199.089844 262.171875 196.570313 261.628906 194.558594 C 261.234375 193.109375 260.199219 191.949219 258.753906 191.582031 Z M 255.550781 188.773438 C 255.5625 188.890625 255.574219 189.003906 255.578125 189.117188 C 255.695313 191.230469 255.089844 194.222656 255.863281 196.210938 C 256.355469 197.480469 257.546875 198.441406 258.90625 198.617188 C 258.171875 196.597656 258.425781 194.089844 258.097656 192.035156 C 257.859375 190.550781 256.953125 189.289063 255.550781 188.773438 Z M 252.65625 185.648438 C 252.660156 185.761719 252.65625 185.878906 252.652344 185.992188 C 252.546875 188.105469 251.628906 191.019531 252.191406 193.074219 C 252.550781 194.390625 253.632813 195.472656 254.964844 195.789063 C 254.445313 193.703125 254.964844 191.234375 254.851563 189.15625 C 254.769531 187.65625 254.003906 186.304688 252.65625 185.648438 Z M 250.109375 182.234375 C 250.097656 182.351563 250.089844 182.464844 250.066406 182.578125 C 249.738281 184.667969 248.527344 187.46875 248.867188 189.574219 C 249.089844 190.917969 250.050781 192.109375 251.34375 192.5625 C 251.046875 190.433594 251.816406 188.035156 251.921875 185.957031 C 251.996094 184.453125 251.371094 183.03125 250.109375 182.234375 Z M 247.929688 178.574219 C 247.90625 178.6875 247.882813 178.800781 247.851563 178.910156 C 247.308594 180.957031 245.808594 183.613281 245.929688 185.742188 C 246.007813 187.105469 246.839844 188.386719 248.078125 188.976563 C 248.003906 186.824219 249.023438 184.519531 249.34375 182.464844 C 249.578125 180.980469 249.105469 179.5 247.929688 178.574219 Z M 246.144531 174.707031 C 246.113281 174.816406 246.074219 174.925781 246.03125 175.035156 C 245.277344 177.011719 243.507813 179.496094 243.40625 181.628906 C 243.34375 182.992188 244.035156 184.351563 245.210938 185.066406 C 245.355469 182.921875 246.613281 180.734375 247.144531 178.722656 C 247.53125 177.269531 247.21875 175.75 246.144531 174.707031 Z M 244.777344 170.675781 C 244.730469 170.78125 244.683594 170.886719 244.628906 170.988281 C 243.671875 172.875 241.652344 175.164063 241.328125 177.269531 C 241.121094 178.621094 241.671875 180.046875 242.761719 180.878906 C 243.132813 178.757813 244.609375 176.71875 245.351563 174.773438 C 245.886719 173.367188 245.730469 171.820313 244.777344 170.675781 Z M 243.839844 166.523438 C 243.777344 166.621094 243.71875 166.71875 243.65625 166.816406 C 242.507813 168.59375 240.261719 170.65625 239.71875 172.71875 C 239.371094 174.039063 239.765625 175.515625 240.761719 176.457031 C 241.355469 174.390625 243.035156 172.511719 243.976563 170.65625 C 244.65625 169.316406 244.671875 167.761719 243.839844 166.523438 Z M 243.335938 162.292969 C 243.265625 162.386719 243.199219 162.476563 243.128906 162.566406 C 241.796875 164.214844 239.347656 166.03125 238.589844 168.027344 C 238.105469 169.300781 238.347656 170.8125 239.238281 171.851563 C 240.046875 169.859375 241.914063 168.167969 243.046875 166.417969 C 243.859375 165.15625 244.03125 163.613281 243.335938 162.292969 Z M 243.277344 158.03125 C 243.199219 158.117188 243.121094 158.203125 243.046875 158.285156 C 241.546875 159.785156 238.921875 161.335938 237.964844 163.238281 C 237.34375 164.460938 237.425781 165.984375 238.210938 167.113281 C 239.214844 165.214844 241.253906 163.726563 242.554688 162.109375 C 243.503906 160.9375 243.835938 159.417969 243.277344 158.03125 Z M 243.664063 153.792969 C 243.585938 153.867188 243.492188 153.945313 243.40625 154.015625 C 241.761719 155.351563 238.988281 156.621094 237.835938 158.414063 C 237.09375 159.5625 237.015625 161.089844 237.671875 162.292969 C 238.878906 160.507813 241.054688 159.242188 242.523438 157.769531 C 243.589844 156.703125 244.070313 155.226563 243.664063 153.792969 Z M 244.496094 149.613281 C 244.402344 149.683594 244.308594 149.746094 244.214844 149.8125 C 242.4375 150.96875 239.546875 151.9375 238.214844 153.601563 C 237.359375 154.667969 237.121094 156.175781 237.648438 157.441406 C 239.03125 155.792969 241.328125 154.761719 242.945313 153.449219 C 244.109375 152.5 244.753906 151.085938 244.496094 149.613281 Z M 245.757813 145.546875 C 245.65625 145.605469 245.558594 145.660156 245.460938 145.710938 C 243.570313 146.675781 240.59375 147.339844 239.09375 148.855469 C 238.128906 149.824219 237.738281 151.300781 238.128906 152.613281 C 239.675781 151.121094 242.070313 150.335938 243.8125 149.199219 C 245.074219 148.378906 245.855469 147.035156 245.757813 145.546875 Z M 247.4375 141.632813 C 247.335938 141.679688 247.226563 141.722656 247.121094 141.765625 C 245.144531 142.527344 242.113281 142.878906 240.464844 144.226563 C 239.40625 145.089844 238.859375 146.519531 239.113281 147.863281 C 240.808594 146.539063 243.269531 146.011719 245.121094 145.0625 C 246.464844 144.375 247.378906 143.125 247.4375 141.632813 Z M 249.515625 137.914063 C 249.410156 137.953125 249.300781 137.984375 249.1875 138.015625 C 247.144531 138.566406 244.09375 138.597656 242.308594 139.765625 C 241.171875 140.515625 240.476563 141.878906 240.589844 143.242188 C 242.410156 142.101563 244.914063 141.835938 246.855469 141.085938 C 248.257813 140.542969 249.304688 139.394531 249.515625 137.914063 Z M 251.976563 134.4375 C 251.863281 134.460938 251.753906 134.484375 251.636719 134.5 C 249.546875 134.835938 246.507813 134.546875 244.613281 135.523438 C 243.398438 136.148438 242.570313 137.429688 242.535156 138.800781 C 244.46875 137.859375 246.988281 137.851563 248.996094 137.308594 C 250.449219 136.917969 251.609375 135.882813 251.976563 134.4375 Z M 254.78125 131.234375 C 254.671875 131.246094 254.554688 131.257813 254.4375 131.261719 C 252.324219 131.378906 249.339844 130.773438 247.347656 131.546875 C 246.074219 132.039063 245.113281 133.230469 244.9375 134.589844 C 246.964844 133.851563 249.464844 134.109375 251.519531 133.78125 C 253.003906 133.542969 254.269531 132.636719 254.78125 131.234375 Z M 257.910156 128.339844 C 257.796875 128.34375 257.679688 128.339844 257.566406 128.335938 C 255.449219 128.226563 252.539063 127.3125 250.484375 127.875 C 249.164063 128.234375 248.089844 129.316406 247.769531 130.648438 C 249.855469 130.128906 252.320313 130.648438 254.398438 130.53125 C 255.902344 130.449219 257.253906 129.679688 257.910156 128.339844 Z M 261.320313 125.792969 C 261.210938 125.78125 261.09375 125.765625 260.980469 125.75 C 258.886719 125.421875 256.089844 124.210938 253.984375 124.550781 C 252.636719 124.773438 251.449219 125.734375 250.996094 127.027344 C 253.128906 126.726563 255.523438 127.5 257.601563 127.605469 C 259.101563 127.679688 260.527344 127.054688 261.320313 125.792969 Z M 264.980469 123.613281 C 264.871094 123.589844 264.757813 123.5625 264.644531 123.535156 C 262.601563 122.992188 259.941406 121.492188 257.8125 121.613281 C 256.449219 121.691406 255.171875 122.523438 254.585938 123.761719 C 256.730469 123.6875 259.035156 124.707031 261.09375 125.027344 C 262.578125 125.257813 264.058594 124.785156 264.980469 123.613281 Z M 268.839844 121.839844 C 268.722656 121.808594 268.609375 121.769531 268.503906 121.726563 C 266.523438 120.972656 264.035156 119.207031 261.90625 119.105469 C 260.546875 119.039063 259.191406 119.730469 258.476563 120.890625 C 260.628906 121.035156 262.816406 122.292969 264.835938 122.828125 C 266.28125 123.214844 267.796875 122.902344 268.839844 121.839844 Z M 268.839844 121.839844 "/>
<path style=" stroke:none;fill-rule:evenodd;fill:rgb(0%,0.784302%,0%);fill-opacity:1;" d="M 283.699219 128.5625 C 300.78125 128.5625 314.628906 142.410156 314.628906 159.492188 C 314.628906 176.574219 300.78125 190.421875 283.699219 190.421875 C 266.617188 190.421875 252.769531 176.574219 252.769531 159.492188 C 252.769531 142.410156 266.617188 128.5625 283.699219 128.5625 Z M 283.699219 128.5625 "/>
<path style=" stroke:none;fill-rule:evenodd;fill:rgb(89.0625%,0%,12.156677%);fill-opacity:1;" d="M 284.253906 129.886719 C 288.234375 129.960938 292.019531 130.816406 295.46875 132.3125 C 292.339844 134.253906 290.273438 137.019531 288.46875 140.957031 C 285.722656 146.949219 284.910156 154.324219 284.761719 160.882813 C 280.476563 162.984375 276.222656 164.675781 271.972656 165.542969 C 272.222656 157.6875 273.425781 147.0625 276.71875 139.964844 C 278.648438 135.800781 280.613281 132.40625 284.253906 129.886719 Z M 296.921875 132.988281 C 304.175781 136.613281 309.734375 143.132813 312.089844 151.035156 C 307.476563 144.316406 301.265625 139.761719 291.738281 137.742188 C 293.117188 135.710938 294.753906 134.171875 296.921875 132.988281 Z M 312.964844 154.9375 C 313.195313 156.421875 313.3125 157.945313 313.3125 159.492188 C 313.3125 163.238281 312.617188 166.824219 311.34375 170.121094 C 307.773438 158.914063 298.613281 151.660156 288.035156 145.972656 C 288.476563 144.421875 289.015625 142.921875 289.664063 141.503906 C 290.089844 140.574219 290.527344 139.71875 290.992188 138.925781 L 291.128906 138.957031 C 301.9375 141.160156 308.3125 146.664063 312.964844 154.9375 Z M 310.53125 172.03125 C 308.65625 176.042969 305.902344 179.566406 302.523438 182.355469 C 302.847656 180.003906 302.601563 177.648438 301.363281 175.394531 C 298.234375 169.722656 291.390625 164.367188 286.078125 160.808594 C 286.179688 156.453125 286.585938 151.699219 287.683594 147.277344 C 298.289063 153.019531 307.464844 160.382813 310.53125 172.03125 Z M 300.96875 183.550781 C 296.105469 187.046875 290.144531 189.109375 283.699219 189.109375 C 281.097656 189.109375 278.578125 188.769531 276.171875 188.140625 C 285.234375 188.292969 293.714844 185.023438 301.109375 178.394531 C 301.492188 180.09375 301.367188 181.835938 300.96875 183.550781 Z M 271.351563 186.417969 C 267.128906 184.476563 263.441406 181.570313 260.566406 177.984375 C 273.007813 181.882813 285.078125 177.167969 296.367188 171.136719 L 296.503906 171.066406 C 297.988281 172.667969 299.277344 174.339844 300.214844 176.03125 C 300.390625 176.355469 300.546875 176.683594 300.679688 177.011719 L 300.628906 177.0625 C 292.089844 184.894531 282.078125 188.046875 271.351563 186.417969 Z M 259.183594 176.109375 C 256.9375 172.804688 255.347656 169.023438 254.589844 164.949219 C 264.910156 169.8125 275.121094 167.09375 285.480469 161.992188 C 288.65625 164.125 292.433594 166.949219 295.554688 170.082031 C 284.132813 176.160156 271.8125 180.9375 259.183594 176.109375 Z M 254.339844 163.363281 C 254.171875 162.097656 254.085938 160.804688 254.085938 159.492188 C 254.085938 150.03125 258.523438 141.601563 265.433594 136.179688 C 259.117188 144.585938 258.300781 155.496094 261.847656 165.855469 C 259.351563 165.449219 256.847656 164.648438 254.339844 163.363281 Z M 269.714844 133.382813 C 273.421875 131.394531 277.605469 130.167969 282.046875 129.925781 C 279.101563 132.433594 277.289063 135.609375 275.523438 139.414063 C 272.113281 146.769531 270.890625 157.691406 270.648438 165.773438 L 270.648438 165.789063 C 268.203125 166.1875 265.757813 166.304688 263.308594 166.050781 C 259.101563 154.382813 260.597656 141.90625 269.714844 133.382813 Z M 269.714844 133.382813 "/>
<path style=" stroke:none;fill-rule:evenodd;fill:rgb(0%,0.784302%,0%);fill-opacity:1;" d="M 64.023438 240.574219 L 56.371094 242.0625 L 54.609375 254 L 61.503906 257.636719 L 60.472656 264.632813 L 29.679688 247.316406 L 30.617188 240.976563 L 65.089844 233.394531 Z M 43.609375 244.609375 C 42.597656 244.808594 41.617188 244.988281 40.671875 245.152344 C 39.726563 245.316406 38.933594 245.425781 38.289063 245.492188 C 38.886719 245.738281 39.613281 246.074219 40.472656 246.503906 C 41.332031 246.933594 42.214844 247.390625 43.128906 247.875 L 48.738281 250.847656 L 49.839844 243.386719 Z M 43.609375 244.609375 "/>
<path style=" stroke:none;fill-rule:evenodd;fill:rgb(0%,0.784302%,0%);fill-opacity:1;" d="M 57.546875 214.234375 L 70.058594 217.960938 L 68.171875 224.285156 L 55.796875 220.597656 L 32.988281 226.828125 L 35.15625 219.558594 L 43.988281 217.320313 C 44.550781 217.195313 45.175781 217.046875 45.867188 216.875 C 46.554688 216.703125 47.242188 216.546875 47.921875 216.40625 C 48.605469 216.265625 49.234375 216.132813 49.8125 216.007813 C 50.390625 215.886719 50.851563 215.796875 51.203125 215.734375 C 50.941406 215.492188 50.605469 215.164063 50.1875 214.746094 C 49.773438 214.324219 49.332031 213.871094 48.847656 213.386719 C 48.371094 212.898438 47.886719 212.402344 47.398438 211.898438 C 46.910156 211.390625 46.460938 210.910156 46.03125 210.457031 L 39.867188 203.75 L 42.007813 196.570313 Z M 57.546875 214.234375 "/>
<path style=" stroke:none;fill-rule:evenodd;fill:rgb(0%,0.784302%,0%);fill-opacity:1;" d="M 82.8125 185.058594 L 69.5625 185.449219 L 66.785156 191.488281 L 77.578125 196.449219 L 74.816406 202.445313 L 44.84375 188.660156 L 51.265625 174.699219 C 51.910156 173.300781 52.714844 172.0625 53.675781 170.984375 C 54.636719 169.90625 55.734375 169.078125 56.96875 168.503906 C 58.207031 167.929688 59.535156 167.644531 60.96875 167.644531 C 62.402344 167.648438 63.917969 168.019531 65.519531 168.753906 C 67.773438 169.789063 69.402344 171.117188 70.402344 172.738281 C 71.40625 174.355469 71.839844 176.292969 71.703125 178.546875 L 85.984375 178.167969 Z M 62.808594 174.976563 C 61.441406 174.347656 60.289063 174.277344 59.355469 174.761719 C 58.421875 175.25 57.648438 176.164063 57.03125 177.507813 L 53.425781 185.34375 L 61.132813 188.886719 L 64.738281 181.050781 C 66.050781 178.199219 65.40625 176.171875 62.808594 174.976563 Z M 62.808594 174.976563 "/>
<path style=" stroke:none;fill-rule:evenodd;fill:rgb(0%,0.784302%,0%);fill-opacity:1;" d="M 99.46875 132.125 C 103.355469 134.953125 105.671875 138.089844 106.40625 141.539063 C 107.144531 144.984375 106.277344 148.414063 103.800781 151.820313 C 102.636719 153.421875 101.304688 154.695313 99.800781 155.640625 C 98.296875 156.589844 96.6875 157.15625 94.976563 157.351563 C 93.261719 157.542969 91.46875 157.355469 89.589844 156.785156 C 87.714844 156.21875 85.792969 155.222656 83.839844 153.800781 L 68.851563 142.914063 L 72.730469 137.574219 L 87.636719 148.40625 C 89.796875 149.976563 91.851563 150.730469 93.800781 150.671875 C 95.746094 150.609375 97.339844 149.726563 98.582031 148.023438 C 99.8125 146.320313 100.179688 144.535156 99.667969 142.671875 C 99.160156 140.808594 97.828125 139.089844 95.664063 137.519531 L 80.679688 126.632813 L 84.558594 121.292969 Z M 99.46875 132.125 "/>
<path style=" stroke:none;fill-rule:evenodd;fill:rgb(0%,0.784302%,0%);fill-opacity:1;" d="M 130.296875 120.777344 L 108.988281 116.6875 C 108.253906 116.535156 107.476563 116.371094 106.652344 116.195313 C 105.835938 116.019531 105.1875 115.855469 104.71875 115.703125 C 104.941406 115.921875 105.277344 116.242188 105.722656 116.664063 C 106.171875 117.085938 106.640625 117.542969 107.144531 118.042969 C 107.644531 118.539063 108.148438 119.027344 108.648438 119.503906 C 109.148438 119.980469 109.570313 120.382813 109.902344 120.714844 L 120.203125 130.945313 L 115.621094 135.558594 L 92.214844 112.3125 L 96.660156 107.832031 L 117.269531 111.824219 C 118.003906 111.976563 118.78125 112.140625 119.605469 112.316406 C 120.425781 112.492188 121.070313 112.65625 121.539063 112.808594 C 121.316406 112.589844 120.980469 112.269531 120.535156 111.847656 C 120.089844 111.425781 119.617188 110.96875 119.113281 110.46875 C 118.613281 109.96875 118.113281 109.484375 117.609375 109.007813 C 117.109375 108.53125 116.691406 108.128906 116.355469 107.796875 L 106.460938 97.964844 L 111.039063 93.351563 L 134.449219 116.597656 Z M 130.296875 120.777344 "/>
<path style=" stroke:none;fill-rule:evenodd;fill:rgb(0%,0.784302%,0%);fill-opacity:1;" d="M 140.238281 112.066406 L 119.429688 86.464844 L 124.550781 82.304688 L 145.359375 107.90625 Z M 140.238281 112.066406 "/>
<path style=" stroke:none;fill-rule:evenodd;fill:rgb(0%,0.784302%,0%);fill-opacity:1;" d="M 147.277344 74.019531 L 162.089844 95.976563 L 156.617188 99.667969 L 141.804688 77.707031 L 133.953125 83.003906 L 130.316406 77.613281 L 151.492188 63.328125 L 155.128906 68.722656 Z M 147.277344 74.019531 "/>
<path style=" stroke:none;fill-rule:evenodd;fill:rgb(0%,0.784302%,0%);fill-opacity:1;" d="M 174.039063 88.667969 L 159.113281 59.246094 L 179.539063 48.882813 L 182.464844 54.644531 L 167.921875 62.019531 L 170.503906 67.105469 L 178.945313 62.820313 L 181.847656 68.535156 L 173.398438 72.824219 L 177.003906 79.925781 L 192.175781 72.226563 L 195.097656 77.984375 Z M 174.039063 88.667969 "/>
<path style=" stroke:none;fill-rule:evenodd;fill:rgb(0%,0.784302%,0%);fill-opacity:1;" d="M 219.984375 51.707031 C 220.90625 54.445313 221.246094 56.960938 221.003906 59.246094 C 220.761719 61.53125 220.101563 63.5625 219.023438 65.332031 C 217.945313 67.105469 216.546875 68.609375 214.824219 69.851563 C 213.105469 71.09375 211.246094 72.050781 209.253906 72.722656 L 199.921875 75.863281 L 189.394531 44.597656 L 199.175781 41.304688 C 201.410156 40.550781 203.566406 40.132813 205.640625 40.046875 C 207.71875 39.964844 209.660156 40.3125 211.464844 41.097656 C 213.269531 41.882813 214.898438 43.132813 216.355469 44.847656 C 217.8125 46.5625 219.019531 48.847656 219.984375 51.707031 Z M 213.550781 53.871094 C 212.476563 50.683594 210.945313 48.542969 208.949219 47.4375 C 206.953125 46.335938 204.304688 46.34375 200.996094 47.453125 L 197.691406 48.566406 L 204.128906 67.683594 L 207.210938 66.648438 C 208.847656 66.097656 210.191406 65.386719 211.242188 64.519531 C 212.296875 63.652344 213.0625 62.671875 213.558594 61.578125 C 214.050781 60.484375 214.296875 59.28125 214.285156 57.976563 C 214.277344 56.667969 214.03125 55.300781 213.550781 53.871094 Z M 213.550781 53.871094 "/>
<path style=" stroke:none;fill-rule:evenodd;fill:rgb(0%,0.784302%,0%);fill-opacity:1;" d="M 245.867188 36.269531 L 246.722656 42.429688 L 256.570313 41.0625 L 257.453125 47.414063 L 247.601563 48.777344 L 249.511719 62.550781 L 242.976563 63.457031 L 238.441406 30.777344 L 261.835938 27.535156 L 262.71875 33.929688 Z M 245.867188 36.269531 "/>
<path style=" stroke:none;fill-rule:evenodd;fill:rgb(0%,0.784302%,0%);fill-opacity:1;" d="M 297.285156 43.53125 C 297.296875 46.042969 296.980469 48.347656 296.34375 50.4375 C 295.710938 52.53125 294.777344 54.324219 293.558594 55.820313 C 292.339844 57.320313 290.839844 58.484375 289.070313 59.324219 C 287.296875 60.164063 285.277344 60.585938 283.015625 60.59375 C 280.753906 60.601563 278.734375 60.195313 276.960938 59.367188 C 275.179688 58.539063 273.671875 57.382813 272.441406 55.894531 C 271.214844 54.40625 270.269531 52.621094 269.621094 50.53125 C 268.96875 48.445313 268.636719 46.144531 268.628906 43.628906 C 268.621094 41.117188 268.933594 38.816406 269.570313 36.722656 C 270.210938 34.632813 271.136719 32.835938 272.359375 31.339844 C 273.578125 29.84375 275.074219 28.675781 276.847656 27.835938 C 278.617188 26.996094 280.636719 26.574219 282.898438 26.566406 C 285.160156 26.558594 287.179688 26.96875 288.960938 27.792969 C 290.738281 28.621094 292.242188 29.777344 293.472656 31.265625 C 294.703125 32.753906 295.644531 34.542969 296.296875 36.628906 C 296.945313 38.71875 297.277344 41.015625 297.285156 43.53125 Z M 290.496094 43.554688 C 290.492188 42.078125 290.347656 40.703125 290.058594 39.433594 C 289.773438 38.160156 289.320313 37.054688 288.703125 36.113281 C 288.089844 35.171875 287.300781 34.4375 286.339844 33.90625 C 285.378906 33.375 284.242188 33.113281 282.921875 33.117188 C 281.601563 33.121094 280.464844 33.394531 279.507813 33.929688 C 278.550781 34.46875 277.765625 35.210938 277.15625 36.15625 C 276.546875 37.097656 276.105469 38.207031 275.828125 39.480469 C 275.546875 40.753906 275.410156 42.128906 275.421875 43.605469 C 275.421875 45.082031 275.566406 46.457031 275.855469 47.730469 C 276.140625 49 276.59375 50.105469 277.214844 51.046875 C 277.824219 51.988281 278.613281 52.722656 279.574219 53.253906 C 280.535156 53.785156 281.675781 54.046875 282.992188 54.042969 C 284.3125 54.039063 285.449219 53.769531 286.40625 53.230469 C 287.363281 52.691406 288.148438 51.953125 288.757813 51.007813 C 289.367188 50.0625 289.808594 48.953125 290.089844 47.679688 C 290.367188 46.40625 290.503906 45.03125 290.496094 43.554688 Z M 290.496094 43.554688 "/>
<path style=" stroke:none;fill-rule:evenodd;fill:rgb(0%,0.784302%,0%);fill-opacity:1;" d="M 297.285156 43.503906 C 297.296875 46.015625 296.988281 48.320313 296.355469 50.414063 C 295.722656 52.507813 294.796875 54.300781 293.578125 55.800781 C 292.359375 57.300781 290.867188 58.46875 289.097656 59.3125 C 287.324219 60.152344 285.308594 60.582031 283.046875 60.59375 C 280.785156 60.605469 278.761719 60.199219 276.984375 59.375 C 275.203125 58.550781 273.699219 57.398438 272.464844 55.910156 C 271.230469 54.425781 270.285156 52.640625 269.632813 50.554688 C 268.976563 48.46875 268.644531 46.167969 268.628906 43.652344 C 268.617188 41.140625 268.925781 38.835938 269.558594 36.742188 C 270.191406 34.652344 271.117188 32.855469 272.339844 31.355469 C 273.554688 29.855469 275.046875 28.6875 276.816406 27.84375 C 278.589844 27.003906 280.605469 26.578125 282.867188 26.566406 C 285.128906 26.554688 287.152344 26.957031 288.929688 27.78125 C 290.714844 28.605469 292.21875 29.761719 293.449219 31.246094 C 294.683594 32.730469 295.628906 34.519531 296.28125 36.605469 C 296.9375 38.691406 297.269531 40.988281 297.285156 43.503906 Z M 290.496094 43.539063 C 290.488281 42.0625 290.339844 40.6875 290.050781 39.417969 C 289.761719 38.144531 289.308594 37.042969 288.691406 36.101563 C 288.074219 35.164063 287.285156 34.429688 286.324219 33.898438 C 285.363281 33.371094 284.222656 33.109375 282.902344 33.117188 C 281.585938 33.121094 280.445313 33.394531 279.488281 33.933594 C 278.535156 34.472656 277.753906 35.214844 277.144531 36.164063 C 276.535156 37.109375 276.09375 38.21875 275.820313 39.492188 C 275.546875 40.765625 275.410156 42.140625 275.421875 43.617188 C 275.425781 45.09375 275.574219 46.46875 275.863281 47.738281 C 276.152344 49.011719 276.605469 50.117188 277.222656 51.054688 C 277.839844 51.996094 278.628906 52.730469 279.589844 53.257813 C 280.550781 53.785156 281.691406 54.046875 283.011719 54.042969 C 284.335938 54.035156 285.46875 53.761719 286.425781 53.222656 C 287.378906 52.683594 288.160156 51.941406 288.769531 50.996094 C 289.378906 50.050781 289.820313 48.9375 290.09375 47.664063 C 290.371094 46.390625 290.503906 45.015625 290.496094 43.539063 Z M 290.496094 43.539063 "/>
<path style=" stroke:none;fill-rule:evenodd;fill:rgb(0%,0.784302%,0%);fill-opacity:1;" d="M 331.972656 47.726563 C 331.648438 50.21875 331.03125 52.457031 330.128906 54.449219 C 329.214844 56.4375 328.058594 58.09375 326.652344 59.414063 C 325.242188 60.738281 323.605469 61.695313 321.738281 62.292969 C 319.871094 62.890625 317.816406 63.042969 315.570313 62.75 C 313.328125 62.460938 311.378906 61.789063 309.726563 60.734375 C 308.074219 59.679688 306.734375 58.332031 305.714844 56.695313 C 304.691406 55.058594 303.992188 53.160156 303.628906 51.003906 C 303.253906 48.851563 303.230469 46.527344 303.554688 44.035156 C 303.878906 41.542969 304.496094 39.300781 305.402344 37.3125 C 306.308594 35.320313 307.46875 33.667969 308.878906 32.34375 C 310.285156 31.023438 311.921875 30.0625 313.789063 29.464844 C 315.65625 28.867188 317.714844 28.714844 319.953125 29.007813 C 322.199219 29.296875 324.148438 29.972656 325.800781 31.027344 C 327.453125 32.078125 328.796875 33.425781 329.8125 35.0625 C 330.839844 36.703125 331.535156 38.597656 331.902344 40.753906 C 332.273438 42.910156 332.296875 45.230469 331.972656 47.726563 Z M 325.242188 46.851563 C 325.429688 45.386719 325.46875 44.003906 325.351563 42.707031 C 325.234375 41.40625 324.933594 40.253906 324.449219 39.238281 C 323.964844 38.226563 323.277344 37.390625 322.398438 36.738281 C 321.515625 36.085938 320.421875 35.671875 319.109375 35.503906 C 317.800781 35.332031 316.636719 35.453125 315.617188 35.859375 C 314.601563 36.265625 313.726563 36.894531 312.996094 37.75 C 312.269531 38.605469 311.679688 39.648438 311.238281 40.875 C 310.796875 42.097656 310.476563 43.445313 310.285156 44.910156 C 310.09375 46.371094 310.058594 47.753906 310.175781 49.050781 C 310.296875 50.351563 310.59375 51.507813 311.078125 52.519531 C 311.566406 53.535156 312.253906 54.367188 313.128906 55.019531 C 314.011719 55.671875 315.105469 56.085938 316.414063 56.253906 C 317.722656 56.425781 318.886719 56.308594 319.90625 55.902344 C 320.925781 55.496094 321.800781 54.863281 322.53125 54.007813 C 323.257813 53.152344 323.84375 52.109375 324.289063 50.886719 C 324.734375 49.660156 325.050781 48.316406 325.242188 46.851563 Z M 325.242188 46.851563 "/>
<path style=" stroke:none;fill-rule:evenodd;fill:rgb(0%,0.784302%,0%);fill-opacity:1;" d="M 354.796875 43.492188 L 347.757813 69.03125 L 341.398438 67.277344 L 348.429688 41.742188 L 339.296875 39.226563 L 341.027344 32.953125 L 365.652344 39.738281 L 363.925781 46.007813 Z M 354.796875 43.492188 "/>
<path style=" stroke:none;fill-rule:evenodd;fill:rgb(0%,0.784302%,0%);fill-opacity:1;" d="M 389.742188 74.550781 C 389.046875 76.132813 388.171875 77.421875 387.121094 78.417969 C 386.0625 79.414063 384.890625 80.113281 383.59375 80.523438 C 382.300781 80.933594 380.898438 81.058594 379.390625 80.894531 C 377.886719 80.730469 376.328125 80.292969 374.714844 79.585938 L 360.992188 73.5625 L 374.253906 43.351563 L 388.105469 49.433594 C 391.039063 50.722656 393.070313 52.429688 394.199219 54.554688 C 395.324219 56.679688 395.320313 59.035156 394.183594 61.625 C 393.613281 62.917969 392.828125 63.945313 391.824219 64.707031 C 390.820313 65.46875 389.683594 65.929688 388.410156 66.089844 C 389.378906 67.167969 390.027344 68.429688 390.351563 69.878906 C 390.679688 71.324219 390.476563 72.882813 389.742188 74.550781 Z M 387.84375 59.410156 C 388.261719 58.457031 388.289063 57.613281 387.929688 56.871094 C 387.570313 56.128906 386.726563 55.46875 385.402344 54.886719 L 377.722656 51.515625 L 375.203125 57.253906 L 383.183594 60.761719 C 384.453125 61.316406 385.453125 61.4375 386.191406 61.125 C 386.925781 60.816406 387.480469 60.242188 387.84375 59.410156 Z M 383.492188 71.910156 C 384.628906 69.320313 383.757813 67.394531 380.878906 66.128906 L 372.851563 62.605469 L 369.425781 70.417969 L 377.449219 73.941406 C 378.921875 74.585938 380.160156 74.710938 381.171875 74.316406 C 382.1875 73.917969 382.964844 73.117188 383.492188 71.910156 Z M 383.492188 71.910156 "/>
<path style=" stroke:none;fill-rule:evenodd;fill:rgb(0%,0.784302%,0%);fill-opacity:1;" d="M 408.027344 97.871094 L 409.683594 90.253906 L 399.421875 83.914063 L 393.351563 88.808594 L 387.339844 85.09375 L 415.421875 63.660156 L 420.871094 67.03125 L 414.203125 101.6875 Z M 412.394531 77.527344 C 412.613281 76.515625 412.839844 75.546875 413.058594 74.613281 C 413.285156 73.679688 413.496094 72.90625 413.691406 72.289063 C 413.226563 72.742188 412.628906 73.277344 411.894531 73.894531 C 411.164063 74.511719 410.394531 75.144531 409.589844 75.792969 L 404.636719 79.769531 L 411.054688 83.734375 Z M 412.394531 77.527344 "/>
<path style=" stroke:none;fill-rule:evenodd;fill:rgb(0%,0.784302%,0%);fill-opacity:1;" d="M 417.433594 104.515625 L 438.464844 79.097656 L 443.546875 83.300781 L 426.664063 103.710938 L 439.410156 114.257813 L 435.265625 119.265625 Z M 417.433594 104.515625 "/>
<path style=" stroke:none;fill-rule:evenodd;fill:rgb(0%,0.784302%,0%);fill-opacity:1;" d="M 438.507813 122.097656 L 462.320313 99.261719 L 466.886719 104.023438 L 447.769531 122.355469 L 459.21875 134.296875 L 454.523438 138.796875 Z M 438.507813 122.097656 "/>
<path style=" stroke:none;fill-rule:evenodd;fill:rgb(0%,0.784302%,0%);fill-opacity:1;" d="M 495.15625 155.519531 C 495.769531 154.394531 496.070313 153.261719 496.066406 152.113281 C 496.058594 150.96875 495.636719 149.769531 494.800781 148.511719 C 494.128906 147.492188 493.300781 146.71875 492.328125 146.195313 C 491.359375 145.667969 490.304688 145.390625 489.171875 145.351563 C 488.03125 145.316406 486.839844 145.507813 485.589844 145.921875 C 484.335938 146.339844 483.066406 146.972656 481.785156 147.824219 C 480.554688 148.640625 479.503906 149.546875 478.636719 150.539063 C 477.765625 151.53125 477.128906 152.570313 476.714844 153.652344 C 476.304688 154.738281 476.144531 155.832031 476.242188 156.941406 C 476.339844 158.046875 476.71875 159.109375 477.398438 160.132813 C 478.234375 161.386719 479.191406 162.230469 480.269531 162.664063 C 481.351563 163.097656 482.753906 163.273438 484.464844 163.1875 L 484.796875 169.644531 C 482.210938 170.007813 479.816406 169.71875 477.628906 168.777344 C 475.4375 167.839844 473.507813 166.113281 471.839844 163.597656 C 470.636719 161.792969 469.886719 159.9375 469.578125 158.027344 C 469.273438 156.117188 469.382813 154.226563 469.90625 152.347656 C 470.433594 150.472656 471.378906 148.667969 472.734375 146.933594 C 474.089844 145.203125 475.855469 143.613281 478.027344 142.171875 C 480.121094 140.78125 482.238281 139.808594 484.378906 139.253906 C 486.519531 138.699219 488.566406 138.546875 490.523438 138.792969 C 492.480469 139.039063 494.300781 139.679688 495.984375 140.710938 C 497.671875 141.742188 499.109375 143.160156 500.3125 144.964844 C 501.164063 146.246094 501.785156 147.511719 502.179688 148.757813 C 502.574219 150.003906 502.777344 151.21875 502.789063 152.398438 C 502.800781 153.582031 502.636719 154.726563 502.300781 155.835938 C 501.964844 156.949219 501.496094 158.019531 500.902344 159.058594 Z M 495.15625 155.519531 "/>
<path style=" stroke:none;fill-rule:evenodd;fill:rgb(0%,0.784302%,0%);fill-opacity:1;" d="M 481.070313 177.875 L 510.878906 163.726563 L 513.703125 169.6875 L 489.777344 181.046875 L 496.871094 195.992188 L 490.996094 198.78125 Z M 481.070313 177.875 "/>
<path style=" stroke:none;fill-rule:evenodd;fill:rgb(0%,0.784302%,0%);fill-opacity:1;" d="M 514.546875 222.796875 C 509.972656 224.273438 506.074219 224.292969 502.855469 222.859375 C 499.632813 221.421875 497.378906 218.703125 496.085938 214.695313 C 495.472656 212.8125 495.230469 210.984375 495.351563 209.210938 C 495.472656 207.4375 495.964844 205.804688 496.8125 204.304688 C 497.671875 202.808594 498.878906 201.46875 500.441406 200.285156 C 502.007813 199.101563 503.941406 198.140625 506.246094 197.394531 L 523.871094 191.703125 L 525.898438 197.980469 L 508.363281 203.644531 C 505.820313 204.46875 504.003906 205.683594 502.902344 207.292969 C 501.804688 208.902344 501.578125 210.707031 502.226563 212.710938 C 502.878906 214.714844 504.101563 216.058594 505.90625 216.746094 C 507.714844 217.433594 509.890625 217.367188 512.429688 216.546875 L 530.054688 210.855469 L 532.085938 217.132813 Z M 514.546875 222.796875 "/>
<path style=" stroke:none;fill-rule:evenodd;fill:rgb(0%,0.784302%,0%);fill-opacity:1;" d="M 517.164063 258.539063 C 515.464844 258.832031 513.902344 258.816406 512.492188 258.484375 C 511.078125 258.15625 509.84375 257.5625 508.789063 256.710938 C 507.730469 255.855469 506.855469 254.757813 506.160156 253.410156 C 505.464844 252.0625 504.96875 250.523438 504.671875 248.789063 L 502.117188 234.019531 L 534.628906 228.40625 L 537.203125 243.3125 C 537.753906 246.46875 537.445313 249.105469 536.296875 251.214844 C 535.148438 253.328125 533.179688 254.625 530.390625 255.105469 C 529.003906 255.347656 527.710938 255.257813 526.519531 254.84375 C 525.335938 254.425781 524.320313 253.730469 523.480469 252.761719 C 523.117188 254.164063 522.421875 255.398438 521.398438 256.46875 C 520.371094 257.539063 518.960938 258.230469 517.164063 258.539063 Z M 528.742188 248.601563 C 529.765625 248.421875 530.484375 247.980469 530.902344 247.269531 C 531.324219 246.558594 531.410156 245.492188 531.164063 244.066406 L 529.738281 235.800781 L 523.558594 236.867188 L 525.046875 245.460938 C 525.277344 246.824219 525.730469 247.726563 526.394531 248.167969 C 527.0625 248.609375 527.84375 248.753906 528.742188 248.601563 Z M 515.914063 251.867188 C 518.703125 251.386719 519.828125 249.597656 519.296875 246.5 L 517.800781 237.863281 L 509.394531 239.316406 L 510.886719 247.953125 C 511.160156 249.53125 511.742188 250.636719 512.628906 251.261719 C 513.519531 251.890625 514.613281 252.09375 515.914063 251.867188 Z M 515.914063 251.867188 "/>
<path style=" stroke:none;fill-rule:evenodd;fill:rgb(0%,0.784302%,0%);fill-opacity:1;" d="M 112.496094 440.261719 L 92.6875 457.847656 L 88.308594 452.914063 L 108.117188 435.328125 L 101.828125 428.242188 L 106.691406 423.925781 L 123.648438 443.027344 L 118.785156 447.347656 Z M 112.496094 440.261719 "/>
<path style=" stroke:none;fill-rule:evenodd;fill:rgb(0%,0.784302%,0%);fill-opacity:1;" d="M 120.757813 484.542969 L 129.738281 473.992188 L 119.4375 465.226563 L 110.460938 475.777344 L 105.433594 471.5 L 126.816406 446.378906 L 131.839844 450.652344 L 123.652344 460.273438 L 133.953125 469.039063 L 142.140625 459.421875 L 147.164063 463.695313 L 125.785156 488.820313 Z M 120.757813 484.542969 "/>
<path style=" stroke:none;fill-rule:evenodd;fill:rgb(0%,0.784302%,0%);fill-opacity:1;" d="M 135.445313 495.894531 L 153.269531 468.132813 L 172.546875 480.503906 L 169.054688 485.9375 L 155.335938 477.128906 L 152.253906 481.929688 L 160.222656 487.046875 L 156.761719 492.441406 L 148.789063 487.320313 L 144.484375 494.023438 L 158.804688 503.214844 L 155.316406 508.648438 Z M 135.445313 495.894531 "/>
<path style=" stroke:none;fill-rule:evenodd;fill:rgb(0%,0.784302%,0%);fill-opacity:1;" d="M 193.925781 526.1875 L 199.113281 513.339844 L 186.574219 508.273438 L 181.382813 521.121094 L 175.265625 518.648438 L 187.628906 488.0625 L 193.742188 490.53125 L 189.011719 502.242188 L 201.550781 507.3125 L 206.28125 495.601563 L 212.402344 498.070313 L 200.046875 528.660156 Z M 193.925781 526.1875 "/>
<path style=" stroke:none;fill-rule:evenodd;fill:rgb(0%,0.784302%,0%);fill-opacity:1;" d="M 242.382813 522.605469 C 241.816406 525.054688 240.984375 527.226563 239.886719 529.117188 C 238.789063 531.007813 237.476563 532.542969 235.945313 533.722656 C 234.421875 534.898438 232.695313 535.695313 230.777344 536.105469 C 228.859375 536.519531 226.800781 536.46875 224.59375 535.960938 C 222.390625 535.453125 220.515625 534.59375 218.976563 533.382813 C 217.433594 532.171875 216.230469 530.703125 215.378906 528.972656 C 214.515625 527.242188 214.007813 525.285156 213.851563 523.105469 C 213.691406 520.925781 213.894531 518.609375 214.464844 516.160156 C 215.027344 513.710938 215.859375 511.542969 216.960938 509.648438 C 218.054688 507.757813 219.367188 506.222656 220.898438 505.046875 C 222.425781 503.867188 224.152344 503.070313 226.066406 502.660156 C 227.984375 502.25 230.046875 502.296875 232.253906 502.804688 C 234.453125 503.316406 236.328125 504.175781 237.871094 505.382813 C 239.414063 506.59375 240.613281 508.066406 241.472656 509.796875 C 242.328125 511.527344 242.839844 513.480469 242.996094 515.660156 C 243.152344 517.84375 242.949219 520.15625 242.382813 522.605469 Z M 235.769531 521.078125 C 236.101563 519.640625 236.273438 518.269531 236.285156 516.964844 C 236.296875 515.664063 236.109375 514.484375 235.722656 513.425781 C 235.339844 512.371094 234.738281 511.472656 233.925781 510.738281 C 233.113281 510.003906 232.0625 509.484375 230.777344 509.1875 C 229.488281 508.890625 228.320313 508.894531 227.265625 509.199219 C 226.214844 509.503906 225.28125 510.046875 224.472656 510.828125 C 223.664063 511.609375 222.976563 512.589844 222.414063 513.765625 C 221.855469 514.941406 221.40625 516.25 221.074219 517.6875 C 220.742188 519.125 220.570313 520.496094 220.558594 521.800781 C 220.550781 523.105469 220.738281 524.285156 221.121094 525.339844 C 221.507813 526.398438 222.105469 527.292969 222.921875 528.027344 C 223.734375 528.765625 224.78125 529.28125 226.070313 529.578125 C 227.355469 529.875 228.523438 529.871094 229.578125 529.566406 C 230.632813 529.261719 231.5625 528.71875 232.371094 527.9375 C 233.183594 527.15625 233.867188 526.179688 234.429688 525.003906 C 234.992188 523.828125 235.4375 522.519531 235.769531 521.078125 Z M 235.769531 521.078125 "/>
<path style=" stroke:none;fill-rule:evenodd;fill:rgb(0%,0.784302%,0%);fill-opacity:1;" d="M 269.988281 541.976563 L 259.488281 522.984375 C 259.136719 522.324219 258.765625 521.621094 258.371094 520.875 C 257.980469 520.132813 257.695313 519.53125 257.515625 519.074219 C 257.488281 519.386719 257.453125 519.847656 257.421875 520.460938 C 257.378906 521.074219 257.328125 521.730469 257.265625 522.433594 C 257.210938 523.140625 257.152344 523.835938 257.109375 524.527344 C 257.0625 525.214844 257.019531 525.796875 256.980469 526.265625 L 255.714844 540.726563 L 249.234375 540.160156 L 252.109375 507.292969 L 258.402344 507.84375 L 268.527344 526.234375 C 268.878906 526.898438 269.253906 527.597656 269.640625 528.34375 C 270.035156 529.085938 270.320313 529.6875 270.503906 530.144531 C 270.53125 529.832031 270.5625 529.371094 270.597656 528.757813 C 270.636719 528.148438 270.6875 527.488281 270.753906 526.785156 C 270.808594 526.082031 270.863281 525.382813 270.90625 524.691406 C 270.953125 524.003906 270.996094 523.421875 271.035156 522.953125 L 272.253906 509.054688 L 278.730469 509.621094 L 275.855469 542.488281 Z M 269.988281 541.976563 "/>
<path style=" stroke:none;fill-rule:evenodd;fill:rgb(0%,0.784302%,0%);fill-opacity:1;" d="M 287.976563 542.496094 L 285.847656 509.574219 L 308.703125 508.09375 L 309.121094 514.539063 L 292.847656 515.589844 L 293.214844 521.28125 L 302.671875 520.671875 L 303.085938 527.066406 L 293.628906 527.679688 L 294.144531 535.628906 L 311.121094 534.527344 L 311.539063 540.972656 Z M 287.976563 542.496094 "/>
<path style=" stroke:none;fill-rule:evenodd;fill:rgb(0%,0.784302%,0%);fill-opacity:1;" d="M 342.882813 525.546875 C 343.171875 527.09375 343.1875 528.542969 342.933594 529.902344 C 342.675781 531.261719 342.105469 532.496094 341.226563 533.601563 C 340.347656 534.710938 339.160156 535.660156 337.660156 536.453125 C 336.164063 537.242188 334.300781 537.847656 332.078125 538.261719 C 329.359375 538.773438 326.796875 538.710938 324.371094 538.074219 C 321.949219 537.441406 319.953125 536.328125 318.378906 534.738281 L 322.273438 529.695313 C 323.671875 530.808594 325.117188 531.519531 326.628906 531.828125 C 328.140625 532.136719 329.6875 532.140625 331.261719 531.847656 C 333.210938 531.484375 334.585938 530.9375 335.390625 530.210938 C 336.195313 529.484375 336.484375 528.503906 336.253906 527.269531 C 336.15625 526.746094 335.976563 526.304688 335.71875 525.953125 C 335.464844 525.601563 335.046875 525.304688 334.472656 525.0625 C 333.902344 524.816406 333.105469 524.628906 332.089844 524.5 C 331.074219 524.371094 329.78125 524.277344 328.203125 524.222656 C 326.65625 524.15625 325.214844 524.011719 323.878906 523.785156 C 322.539063 523.554688 321.355469 523.167969 320.328125 522.625 C 319.300781 522.082031 318.4375 521.316406 317.742188 520.328125 C 317.046875 519.339844 316.546875 518.042969 316.246094 516.4375 C 315.96875 514.953125 316.019531 513.570313 316.402344 512.285156 C 316.785156 510.996094 317.425781 509.847656 318.324219 508.832031 C 319.21875 507.816406 320.335938 506.960938 321.65625 506.265625 C 322.980469 505.570313 324.445313 505.074219 326.050781 504.773438 C 328.585938 504.300781 330.882813 504.332031 332.949219 504.871094 C 335.015625 505.414063 336.972656 506.339844 338.816406 507.65625 L 334.988281 513.074219 C 333.734375 512.1875 332.464844 511.574219 331.164063 511.222656 C 329.871094 510.875 328.480469 510.839844 326.996094 511.117188 C 326.132813 511.277344 325.421875 511.5 324.867188 511.777344 C 324.3125 512.058594 323.878906 512.371094 323.558594 512.71875 C 323.238281 513.066406 323.035156 513.425781 322.941406 513.792969 C 322.851563 514.160156 322.84375 514.53125 322.910156 514.902344 C 323.007813 515.425781 323.191406 515.847656 323.464844 516.167969 C 323.726563 516.484375 324.132813 516.734375 324.679688 516.921875 C 325.226563 517.105469 325.9375 517.246094 326.820313 517.335938 C 327.699219 517.425781 328.816406 517.503906 330.171875 517.570313 C 331.527344 517.636719 332.882813 517.757813 334.242188 517.9375 C 335.601563 518.113281 336.871094 518.476563 338.046875 519.023438 C 339.214844 519.570313 340.234375 520.355469 341.097656 521.375 C 341.960938 522.398438 342.554688 523.789063 342.882813 525.546875 Z M 342.882813 525.546875 "/>
<path style=" stroke:none;fill-rule:evenodd;fill:rgb(0%,0.784302%,0%);fill-opacity:1;" d="M 359.171875 503.226563 L 367.441406 528.390625 L 361.175781 530.449219 L 352.902344 505.289063 L 343.902344 508.246094 L 341.871094 502.066406 L 366.136719 494.089844 L 368.171875 500.269531 Z M 359.171875 503.226563 "/>
<path style=" stroke:none;fill-rule:evenodd;fill:rgb(0%,0.784302%,0%);fill-opacity:1;" d="M 418.050781 504.886719 L 412.199219 494.28125 C 411.984375 493.898438 411.71875 493.398438 411.398438 492.785156 C 411.078125 492.171875 410.742188 491.550781 410.394531 490.917969 C 410.046875 490.285156 409.722656 489.691406 409.433594 489.132813 C 409.144531 488.574219 408.925781 488.15625 408.773438 487.882813 C 408.855469 488.554688 408.964844 489.445313 409.09375 490.558594 C 409.222656 491.671875 409.320313 492.746094 409.390625 493.785156 L 410.617188 509.851563 L 397.675781 500.253906 C 396.835938 499.640625 395.976563 498.984375 395.105469 498.28125 C 394.230469 497.578125 393.535156 497.011719 393.011719 496.582031 C 393.160156 496.859375 393.398438 497.269531 393.714844 497.808594 C 394.03125 498.351563 394.363281 498.941406 394.714844 499.574219 C 395.0625 500.207031 395.410156 500.820313 395.757813 501.417969 C 396.109375 502.015625 396.386719 502.507813 396.601563 502.894531 L 402.453125 513.496094 L 396.800781 516.617188 L 380.855469 487.734375 L 386.425781 484.660156 L 399.671875 494.414063 C 400.09375 494.71875 400.523438 495.046875 400.96875 495.394531 C 401.410156 495.742188 401.84375 496.085938 402.265625 496.429688 C 402.6875 496.769531 403.078125 497.089844 403.441406 497.390625 C 403.808594 497.695313 404.097656 497.945313 404.316406 498.148438 C 404.210938 497.492188 404.074219 496.605469 403.925781 495.484375 C 403.773438 494.367188 403.664063 493.289063 403.59375 492.25 L 402.1875 475.957031 L 407.882813 472.816406 L 423.828125 501.699219 Z M 418.050781 504.886719 "/>
<path style=" stroke:none;fill-rule:evenodd;fill:rgb(0%,0.784302%,0%);fill-opacity:1;" d="M 434.269531 494.148438 L 414.046875 468.078125 L 432.144531 454.039063 L 436.101563 459.140625 L 423.21875 469.136719 L 426.714844 473.640625 L 434.199219 467.835938 L 438.128906 472.902344 L 430.640625 478.707031 L 435.523438 485 L 448.96875 474.574219 L 452.925781 479.675781 Z M 434.269531 494.148438 "/>
<path style=" stroke:none;fill-rule:evenodd;fill:rgb(0%,0.784302%,0%);fill-opacity:1;" d="M 475.023438 457.820313 L 453.671875 453.953125 C 452.9375 453.804688 452.15625 453.652344 451.335938 453.484375 C 450.507813 453.316406 449.859375 453.160156 449.390625 453.011719 C 449.617188 453.230469 449.953125 453.546875 450.40625 453.964844 C 450.855469 454.378906 451.335938 454.835938 451.839844 455.328125 C 452.347656 455.820313 452.855469 456.300781 453.359375 456.773438 C 453.867188 457.242188 454.289063 457.644531 454.628906 457.972656 L 465.035156 468.089844 L 460.503906 472.753906 L 436.847656 449.753906 L 441.253906 445.226563 L 461.902344 449.003906 C 462.636719 449.148438 463.414063 449.304688 464.242188 449.472656 C 465.066406 449.636719 465.714844 449.796875 466.179688 449.945313 C 465.960938 449.726563 465.617188 449.40625 465.171875 448.992188 C 464.71875 448.574219 464.238281 448.121094 463.730469 447.628906 C 463.226563 447.136719 462.71875 446.652344 462.214844 446.183594 C 461.703125 445.710938 461.28125 445.3125 460.945313 444.984375 L 450.945313 435.257813 L 455.476563 430.59375 L 479.128906 453.597656 Z M 475.023438 457.820313 "/>
<path style=" stroke:none;fill-rule:evenodd;fill:rgb(100%,100%,100%);fill-opacity:1;" d="M 253.15625 461.632813 L 245.714844 461.480469 L 246.191406 438.1875 L 242.015625 438.097656 L 242.109375 433.421875 C 243.753906 433.304688 244.972656 432.972656 245.789063 432.429688 C 246.601563 431.886719 247.1875 430.984375 247.546875 429.71875 L 253.8125 429.847656 Z M 253.15625 461.632813 "/>
<path style=" stroke:none;fill-rule:evenodd;fill:rgb(100%,100%,100%);fill-opacity:1;" d="M 278.640625 441.898438 C 278.527344 447.320313 277.148438 451.800781 274.503906 455.351563 C 271.574219 459.257813 267.34375 461.625 261.816406 462.449219 L 260.121094 456.644531 C 265.683594 455.515625 269.386719 452.914063 271.226563 448.832031 C 269.691406 449.984375 267.800781 450.535156 265.5625 450.488281 C 262.925781 450.433594 260.902344 449.589844 259.480469 447.953125 C 257.972656 446.195313 257.253906 443.667969 257.320313 440.367188 C 257.394531 436.886719 258.425781 434.214844 260.421875 432.347656 C 262.410156 430.480469 265.117188 429.582031 268.535156 429.652344 C 271.714844 429.71875 274.191406 430.769531 275.964844 432.804688 C 277.828125 434.964844 278.71875 437.996094 278.640625 441.898438 Z M 271.546875 440.117188 C 271.605469 437.210938 270.46875 435.734375 268.140625 435.6875 C 265.839844 435.640625 264.65625 437.082031 264.597656 440.019531 C 264.53125 443.105469 265.621094 444.675781 267.859375 444.71875 C 270.253906 444.769531 271.480469 443.234375 271.546875 440.117188 Z M 271.546875 440.117188 "/>
<path style=" stroke:none;fill-rule:evenodd;fill:rgb(100%,100%,100%);fill-opacity:1;" d="M 292.34375 462.445313 L 284.894531 462.289063 L 285.378906 438.996094 L 281.199219 438.910156 L 281.296875 434.234375 C 282.933594 434.117188 284.160156 433.785156 284.972656 433.242188 C 285.789063 432.699219 286.378906 431.792969 286.734375 430.53125 L 293.003906 430.660156 Z M 292.34375 462.445313 "/>
<path style=" stroke:none;fill-rule:evenodd;fill:rgb(100%,100%,100%);fill-opacity:1;" d="M 318.546875 447.039063 C 318.433594 452.460938 317.390625 456.535156 315.410156 459.265625 C 313.429688 461.992188 310.671875 463.324219 307.128906 463.25 C 303.617188 463.175781 300.964844 461.773438 299.171875 459.042969 C 297.296875 456.214844 296.410156 452.09375 296.523438 446.675781 C 296.632813 441.257813 297.703125 437.160156 299.730469 434.386719 C 301.664063 431.699219 304.382813 430.394531 307.894531 430.46875 C 311.40625 430.539063 314.089844 431.972656 315.9375 434.765625 C 317.789063 437.5625 318.65625 441.652344 318.546875 447.039063 Z M 310.921875 446.972656 C 310.992188 443.21875 310.761719 440.582031 310.21875 439.054688 C 309.730469 437.683594 308.898438 436.984375 307.714844 436.960938 C 306.535156 436.933594 305.675781 437.582031 305.132813 438.90625 C 304.554688 440.375 304.230469 442.988281 304.152344 446.742188 C 304.074219 450.496094 304.308594 453.136719 304.851563 454.660156 C 305.339844 456.035156 306.171875 456.734375 307.351563 456.757813 C 308.53125 456.78125 309.394531 456.132813 309.9375 454.8125 C 310.511719 453.339844 310.839844 450.726563 310.921875 446.972656 Z M 310.921875 446.972656 "/>
<path style=" stroke:none;fill-rule:evenodd;fill:rgb(0%,0.784302%,0%);fill-opacity:1;" d="M 87.105469 422.683594 C 59.867188 383.75 43.878906 336.378906 43.878906 285.269531 C 43.878906 284.539063 43.894531 283.8125 43.902344 283.082031 L 46.460938 283.082031 C 46.453125 283.8125 46.429688 284.539063 46.429688 285.269531 C 46.429688 335.8125 62.238281 382.660156 89.164063 421.167969 Z M 87.105469 422.683594 "/>
<path style=" stroke:none;fill-rule:evenodd;fill:rgb(0%,0.784302%,0%);fill-opacity:1;" d="M 481.890625 423.339844 C 509.265625 384.503906 525.425781 336.457031 525.601563 285.347656 C 525.605469 284.617188 525.589844 283.890625 525.585938 283.160156 L 523.027344 283.152344 C 523.03125 283.882813 523.050781 284.609375 523.046875 285.339844 C 522.871094 335.882813 506.898438 383.40625 479.839844 421.820313 Z M 481.890625 423.339844 "/>
</g>
</svg>
