<?xml version="1.0" encoding="UTF-8" standalone="no"?>
<!-- Generator: Adobe Illustrator 16.0.0, SVG Export Plug-In . SVG Version: 6.00 Build 0)  -->

<svg
   xmlns:dc="http://purl.org/dc/elements/1.1/"
   xmlns:cc="http://creativecommons.org/ns#"
   xmlns:rdf="http://www.w3.org/1999/02/22-rdf-syntax-ns#"
   xmlns:svg="http://www.w3.org/2000/svg"
   xmlns="http://www.w3.org/2000/svg"
   xmlns:sodipodi="http://sodipodi.sourceforge.net/DTD/sodipodi-0.dtd"
   xmlns:inkscape="http://www.inkscape.org/namespaces/inkscape"
   version="1.1"
   id="Calque_1"
   x="0px"
   y="0px"
   width="243.02518"
   height="300"
   viewBox="0 0 243.02518 300"
   enable-background="new 0 0 80 80"
   xml:space="preserve"
   sodipodi:docname="Football Bourg-en-Bresse Peronnas 01 logo.svg"
   inkscape:version="0.92.4 (5da689c313, 2019-01-14)"><metadata
   id="metadata1319"><rdf:RDF><cc:Work
       rdf:about=""><dc:format>image/svg+xml</dc:format><dc:type
         rdf:resource="http://purl.org/dc/dcmitype/StillImage" /></cc:Work></rdf:RDF></metadata><defs
   id="defs1317" /><sodipodi:namedview
   pagecolor="#ffffff"
   bordercolor="#666666"
   borderopacity="1"
   objecttolerance="10"
   gridtolerance="10"
   guidetolerance="10"
   inkscape:pageopacity="0"
   inkscape:pageshadow="2"
   inkscape:window-width="1366"
   inkscape:window-height="705"
   id="namedview1315"
   showgrid="false"
   inkscape:zoom="1.475"
   inkscape:cx="21.275287"
   inkscape:cy="36.394"
   inkscape:window-x="-8"
   inkscape:window-y="-8"
   inkscape:window-maximized="1"
   inkscape:current-layer="Calque_1" />
<path
   d="m 119.43042,299.96415 c 0,0 -46.988006,-23.74494 -76.562757,-63.22275 C 23.782987,211.26678 10.886603,182.42692 4.5683606,150.99703 -3.3137588,111.85977 -0.98810838,68.59998 11.482579,22.42304 l 0.291267,-1.07993 1.021673,-0.47499 C 13.234659,20.65752 54.952982,0 119.4349,0 c 37.8512,0 77.96532,6.99936 113.61185,20.80091 l 1.13818,0.4481 0.32264,1.17403 c 0.13891,0.50187 13.70745,50.7207 6.31376,109.64167 -4.36004,34.67863 -15.03383,65.57977 -31.67187,91.852 C 188.32615,256.77605 158.04787,282.36717 119.1526,300 Z"
   id="path1277"
   inkscape:connector-curvature="0"
   style="fill:#ffffff;stroke-width:4.48102283" />
<radialGradient
   id="SVGID_1_"
   cx="242.53999"
   cy="241.8828"
   r="24.2509"
   gradientTransform="matrix(4.4810229,0,0,5.278645,-969.8592,-1128.0133)"
   gradientUnits="userSpaceOnUse">
	<stop
   offset="0"
   style="stop-color:#11669F"
   id="stop1279" />
	<stop
   offset="1"
   style="stop-color:#094896"
   id="stop1281" />
</radialGradient>
<path
   d="M 119.43042,291.41436 120.39384,6.19277 c 0,0 -83.929558,4.56168 -105.079986,19.59552 1.021673,1.55491 -55.869393,166.88225 104.116566,265.62607 z"
   id="path1284"
   style="fill:url(#SVGID_1_);stroke-width:4.48102283"
   inkscape:connector-curvature="0" />
<radialGradient
   id="SVGID_2_"
   cx="244.85941"
   cy="354.918"
   r="24.363501"
   gradientTransform="matrix(4.4810229,0,0,4.8484668,-969.8592,-1580.455)"
   gradientUnits="userSpaceOnUse">
	<stop
   offset="0"
   style="stop-color:#1C8ECF"
   id="stop1286" />
	<stop
   offset="1"
   style="stop-color:#0C56A2"
   id="stop1288" />
</radialGradient>
<path
   d="M 225.41109,25.79277 C 204.2517,10.76342 120.32214,6.19725 120.32214,6.19725 l -1.33982,285.21263 C 281.58967,228.32156 231.35293,30.07214 225.41109,25.79277 Z"
   id="path1291"
   style="fill:url(#SVGID_2_);stroke-width:4.48102283"
   inkscape:connector-curvature="0" />
<linearGradient
   id="SVGID_3_"
   gradientUnits="userSpaceOnUse"
   x1="-310.78519"
   y1="-1874.5"
   x2="-310.78519"
   y2="-1836.2856"
   gradientTransform="matrix(4.4810229,0,0,-4.4810229,1507.7571,-8218.5711)">
	<stop
   offset="0"
   style="stop-color:#EF7D00"
   id="stop1293" />
	<stop
   offset="0.6"
   style="stop-color:#E6007E"
   id="stop1295" />
</linearGradient>
<path
   d="m 222.56116,124.42456 c 0.11203,-0.50635 -73.63665,-28.8309 -143.424098,1.28157 C 78.37977,120.57088 76.896551,115.67312 74.414064,111.16522 70.605195,104.21515 65.133866,98.94098 56.086681,98.0403 53.882017,97.80729 51.681835,97.56531 49.463729,97.42192 64.730574,94.10596 80.04671,89.58909 94.314291,78.23866 112.65959,63.72911 127.28565,45.218 135.22602,24.92345 c 0.17028,-0.4481 -1.29053,-1.22332 -2.6662,-0.4481 0.10754,-0.55117 -0.37193,-0.88276 -0.89621,-0.77522 -0.53324,0.11203 -1.04856,0.61838 -1.07993,1.11577 l -3.67443,5.68642 c 1.59524,-3.14568 3.06502,-6.3272 4.32418,-9.55802 0.17028,-0.45706 -1.29949,-1.24124 -2.66621,-0.45706 0.10755,-0.55565 -0.35848,-0.89173 -0.90068,-0.7797 -0.5422,0.12099 -1.05304,0.6139 -1.08441,1.12025 -11.15326,17.39085 -22.76808,34.85788 -40.714571,48.08586 -3.643072,2.67965 -7.40265,4.94257 -11.224963,6.86045 3.454869,-1.9851 6.882852,-4.2973 10.261543,-6.96351 C 103.24048,54.30552 117.8755,35.79441 125.8114,15.50434 c 0.11202,-0.32263 -0.58702,-0.79314 -1.50563,-0.76626 l 1.50563,-3.6117 c 0.16579,-0.45706 -1.2995,-1.23676 -2.66621,-0.45706 0.0941,-0.55565 -0.37193,-0.89173 -0.90069,-0.7797 -0.53772,0.11202 -1.05752,0.6139 -1.07993,1.11577 C 110.00683,28.41417 98.374091,45.85431 80.436559,59.09125 64.336244,70.98836 46.098481,74.31776 28.756922,78.03701 c -2.330132,0.56013 -4.288339,2.72447 -4.373478,4.90672 -0.009,0.86932 0.259899,1.59077 0.734888,2.14193 -0.439141,0.70352 -0.708002,1.46082 -0.734888,2.23155 -0.04033,2.22259 1.774485,3.55793 4.068769,3.06054 l 2.581069,-0.52428 c -0.716964,0.85139 -1.18299,1.87307 -1.214357,2.9037 -0.04033,2.23155 1.761042,3.54897 4.073249,3.0471 l 0.04929,-0.004 -0.120988,0.94549 0.07618,0.81107 c -5.076998,-0.0762 -10.180883,0.0538 -15.638769,2.89026 -0.595976,0.17476 -1.066484,0.66319 -1.106813,1.21884 0.009,0.56012 0.430178,0.89172 1.00823,0.78866 17.933054,1.11129 41.839311,-5.28313 50.321887,13.22798 l 0.945496,2.24051 -0.618381,-1.13818 c -3.799908,-6.95903 -9.28468,-12.23768 -18.336346,-13.12492 -4.539276,-0.50635 -9.011337,-1.00375 -13.779145,-0.6139 -7.989664,0.708 -15.59396,-1.39808 -24.054131,2.99333 -0.609419,0.16579 -1.066483,0.67663 -1.111294,1.23228 0.02241,0.56012 0.43466,0.89172 1.017193,0.77073 l 0.811065,0.0358 c -1.505624,0.43914 -3.024691,1.01719 -4.5706444,1.8193 -0.600457,0.16579 -1.070964,0.66319 -1.111293,1.23676 0.02241,0.53772 0.425697,0.86484 1.003749,0.77073 17.9330534,1.12026 41.8393104,-5.27864 50.3308494,13.22798 1.389117,2.99781 2.307726,6.1166 2.926108,9.30261 -8.303336,4.88879 -16.467759,10.7186 -24.327474,17.68211 0,0 8.545311,-6.93662 24.833829,-14.64398 0.766255,5.84773 0.555647,11.92848 -0.120987,18.09437 l -0.39433,3.27115 c -0.869319,6.57814 -2.115043,13.21901 -3.100868,19.70305 -0.34952,1.49667 0.578052,2.59452 2.088156,2.56763 1.469776,-0.0627 2.961956,-1.29501 3.293552,-2.72894 l 0.340558,-1.16955 0.237494,0.0179 c 1.451852,-0.0583 2.948513,-1.25917 3.275628,-2.7155 l 0.954458,-3.22185 c 0.345038,0.23301 0.820027,0.35848 1.35775,0.34055 1.469775,-0.0672 2.948513,-1.26365 3.284589,-2.71998 1.864106,-6.1614 3.513122,-12.48413 4.633378,-18.77548 l 0.78866,-5.11285 c 0.649748,-5.01875 0.869319,-9.94787 0.560128,-14.72464 31.456782,-11.35939 79.901112,-20.22285 142.922222,-5.87462 z"
   id="path1298"
   style="fill:url(#SVGID_3_);stroke-width:4.48102283"
   inkscape:connector-curvature="0" />
<path
   d="m 118.86581,295.27252 -1.24124,-0.57805 C 111.40939,291.7818 -34.053575,221.05782 17.433377,27.29839 l 0.345039,-1.30846 1.218838,-0.58253 C 20.704524,24.58289 61.674516,5.29209 122.80463,5.29209 c 35.87955,0 71.20793,6.73498 104.9814,20.03017 l 1.37568,0.5422 0.3764,1.41601 c 0.51532,1.9358 50.41599,193.82216 -109.43554,267.42296 z M 22.729947,30.13936 C -24.661351,211.24438 103.9216,281.34102 118.89718,288.81537 265.69549,220.15265 228.43578,47.64672 224.23258,30.22002 191.57489,17.55665 157.46534,11.13982 122.80015,11.13982 c -54.018731,0 -92.851276,15.82698 -100.070203,18.99954 z"
   id="path1300"
   inkscape:connector-curvature="0"
   style="fill:#193c6c;stroke-width:4.48102283" />
<path
   d="m 119.21981,296.14632 c 0,0 -45.137341,-23.13552 -73.735229,-61.58718 C 27.031728,209.73427 14.565523,181.63378 8.4534076,151.02391 0.84014962,112.89937 3.0851416,70.75983 15.139094,25.77484 l 0.282304,-1.05304 0.985825,-0.46602 C 16.837401,24.05413 57.094911,3.92538 119.4349,3.92538 c 36.60099,0 75.45594,6.81563 109.91501,20.2587 l 1.08889,0.43466 0.33608,1.14714 c 0.11202,0.48395 13.25038,49.40328 6.07626,106.80966 -4.20768,33.78691 -14.50955,63.89043 -30.60986,89.48155 -20.14668,31.9945 -49.41224,56.93139 -87.02147,74.08923 z M 19.405028,28.07809 C 7.7857346,71.95627 5.6617296,113.0114 13.068861,150.1053 c 5.973204,29.9422 18.152624,57.40191 36.18426,81.64872 28.472419,38.27242 63.935229,56.54155 70.181779,59.65586 36.27388,-16.78143 63.3527,-40.94311 82.81378,-71.88905 15.71495,-24.98618 25.77933,-54.44891 29.90187,-87.54126 C 238.59874,80.31785 228.40441,35.73168 226.5179,28.13634 192.93712,15.20859 155.05903,8.63941 119.4349,8.63941 63.301128,8.64341 26.054865,25.14302 19.405028,28.07809 Z"
   id="path1302"
   inkscape:connector-curvature="0"
   style="fill:#c6c6c6;stroke-width:4.48102283" />
<path
   d="m 132.33128,263.13911 c -0.46602,0 -0.77073,-0.13443 -11.90159,-12.51102 l -0.6139,-0.67663 0.74385,-0.51532 0.0896,-0.44362 c -0.17924,-0.37193 -1.56388,-1.47426 -2.89474,-2.41528 -0.74833,0.57806 -1.89548,1.64902 -2.15089,2.74239 -0.51532,2.24947 -3.70581,5.42204 -5.63713,4.86191 -0.50188,-0.13891 -1.05304,-0.49739 -1.75208,-0.94101 -1.56388,-0.99927 -3.71029,-2.26292 -5.71779,-1.68039 l -6.824589,0.56909 -0.21061,-0.57805 c -0.59598,-1.64902 -2.84993,-6.18381 -5.35931,-5.05459 l -2.70653,1.22332 1.43392,-2.02991 c -0.55116,-0.69008 -1.985089,-1.96269 -2.648281,-1.96269 h -1.05304 l 0.210608,-1.01271 c 0.05825,-0.34504 0.224051,-4.20768 0.318153,-6.53781 l 0.385368,-2.93507 0.13443,-0.17476 c 1.160602,-1.45633 2.164352,-3.13671 2.146432,-3.60274 -0.41674,-0.62734 -1.30846,-1.59973 -1.317422,-1.62661 l -0.30471,-0.32712 0.120988,-0.42569 c 0.551164,-2.02543 5.466844,-19.84645 7.989664,-22.53059 l 0.47947,-0.51532 0.56909,0.39882 c 0.0179,0 1.45185,0.67663 4.660259,0.67663 2.04335,0 4.36004,-0.2823 6.8963,-0.8021 l 1.81929,-0.37641 -0.59597,0.99479 c 1.14714,0.8021 4.06876,2.68861 6.15692,4.01051 l 0.29127,0.17924 0.49291,2.41528 3.79543,4.36451 0.61838,-0.78418 3.67444,2.41976 -0.32264,0.64526 c -0.29126,0.58702 -0.51531,1.30846 -0.53772,1.67142 1.34879,-0.0672 3.73717,-1.00823 4.57512,-1.75656 l 0.80211,-0.93205 c 0.78418,-0.98582 1.80137,-2.09264 3.08294,-1.73415 1.33983,0.37192 3.43695,1.72519 3.52209,1.77448 l 0.51531,0.354 -0.18372,0.56461 c -0.0493,0.18372 -0.11202,0.66767 0.0538,0.91413 l 0.57806,0.27782 0.93205,0.0403 c 2.44664,0 6.62743,-0.70352 8.1465,-2.66621 l 1.61317,-2.26291 c 2.40631,-3.44591 4.10013,-5.6909 5.785,-5.6909 l 0.67663,0.12995 c 1.87755,0.79762 3.36077,1.76104 3.4235,1.80137 0.0807,0.0179 1.11578,0.48843 1.33535,1.44289 0.0807,0.41225 0.0538,1.01271 -0.56909,1.6759 -0.6856,0.73489 -1.44289,2.89474 -1.82826,4.27041 0.17924,0.73937 0.49739,2.59452 -0.79314,3.17705 l -0.94102,0.38985 c -2.78271,1.10681 -4.49894,1.89099 -5.0994,2.35254 0.35848,0.77969 0.4257,1.99853 -0.74385,3.73717 -0.69904,1.062 -3.68788,4.31522 -5.1487,4.53928 -0.55564,0.0941 -1.21883,-0.0896 -1.76552,-0.22854 l -0.2823,-0.0986 -0.0941,0.76177 c -0.17028,1.2278 -0.61839,4.54376 0.16579,5.16662 2.1016,1.67142 0.31368,15.35199 -1.01271,17.7583 -0.74833,0.94549 -2.54522,1.46977 -3.54001,1.70279 -0.3764,1.20091 -1.46977,4.26593 -3.17704,5.63712 l -0.21061,0.17476 h -0.29575 v 0.0134 z m -10.2481,-13.08459 c 3.50416,3.89849 8.61701,9.50425 10.23914,11.16223 1.16955,-1.38016 2.02542,-3.84472 2.28532,-4.79918 l 0.12547,-0.47499 0.49291,-0.0941 c 1.20092,-0.24197 2.6931,-0.75281 3.00677,-1.13818 1.23228,-2.2674 2.31221,-14.34375 1.29502,-15.62981 -1.33983,-1.08888 -1.09785,-3.87608 -0.72145,-6.61847 l 0.11651,-1.00823 c 0,-0.71696 0.48395,-1.19643 1.20987,-1.19643 l 1.08441,0.20613 0.99031,0.19268 c 0.7797,-0.14339 3.30251,-2.53178 4.15839,-3.82679 0.38537,-0.60046 0.99478,-1.69383 0.53324,-2.3391 -0.17476,-0.26886 -0.23301,-0.58253 -0.13891,-0.90068 0.28678,-0.89621 1.72519,-1.70727 6.20621,-3.49072 l 0.86932,-0.354 c 0.0627,-0.12547 0.009,-0.8962 -0.16131,-1.4877 l -0.0717,-0.20613 0.0627,-0.22853 c 0.11203,-0.38088 1.02616,-3.85816 2.28981,-5.14869 l 0.15235,-0.22405 -0.49291,-0.37641 c -0.14788,-0.0672 -1.58628,-0.98134 -3.31148,-1.71623 h -0.004 c -1.02167,0 -3.27114,3.2353 -4.49895,4.99634 l -1.67142,2.34805 c -2.35253,3.0471 -8.56771,3.45487 -10.54384,3.22186 -0.99479,-0.11651 -1.49667,-0.6139 -1.7476,-0.99031 -0.34504,-0.56909 -0.38089,-1.1785 -0.34504,-1.62661 -0.72145,-0.43914 -1.90892,-1.11129 -2.6438,-1.30846 h -0.0269 c -0.39881,0 -0.95894,0.69008 -1.35327,1.20092 l -0.99031,1.10681 c -1.18299,1.062 -4.09565,2.1733 -5.69089,2.1733 h -0.20613 c -0.4974,-0.0269 -0.91861,-0.26886 -1.15162,-0.67216 -0.43466,-0.76177 -0.12547,-1.88203 0.18372,-2.6662 l -1.25469,-0.83796 -0.90517,1.16507 -5.36826,-6.17933 -0.4257,-2.15089 c -3.62963,-2.30325 -5.43996,-3.45487 -6.27791,-4.12254 -2.49593,0.50187 -4.7947,0.77073 -6.84252,0.77073 -2.486969,0 -4.037409,-0.35848 -4.852949,-0.65423 -1.77897,2.76928 -5.1487,13.67609 -7.16516,21.00256 0.33608,0.39881 0.89173,1.062 1.26365,1.68038 0.52428,0.8738 -0.21061,2.59003 -2.17778,5.13077 l -0.32263,2.41975 c -0.143392,3.45039 -0.22405,5.13526 -0.277822,5.96425 1.268132,0.46154 2.558662,1.70278 3.163602,2.50041 l 0.79314,-0.11203 c 3.10087,0 5.12629,4.14047 5.79844,5.75363 l 5.462369,-0.45706 1.40704,-0.18372 c 2.20018,0 4.09118,1.21436 5.46685,2.09712 l 1.3219,0.75729 h 0.004 c 1.07993,0 3.25323,-2.08368 3.61171,-3.66996 0.5198,-2.27188 3.17256,-3.97466 3.28011,-4.04636 l 0.4481,-0.28679 0.43914,0.29575 c 1.35327,0.91861 3.66996,2.57659 3.99259,3.58482 0.1882,0.56461 0.0896,1.08889 -0.11203,1.49218 z"
   id="path1304"
   inkscape:connector-curvature="0"
   style="fill:#ffffff;stroke-width:4.48102283" />
<path
   d="m 122.47751,153.11207 v 2.27636 h 3.66996 v 1.61317 h -3.66996 v 3.77302 h -1.81481 v -9.27572 h 6.1166 v 1.62661 z m 9.86274,6.90078 c -0.42122,0.4481 -1.09337,0.8245 -2.11057,0.8245 -1.00823,0 -1.67142,-0.3764 -2.09263,-0.8245 -0.60494,-0.64975 -0.77522,-1.42049 -0.77522,-2.64381 0,-1.22332 0.16132,-1.98957 0.77522,-2.63036 0.40777,-0.44362 1.0844,-0.83347 2.09263,-0.83347 1.00823,0 1.68935,0.38985 2.11057,0.83347 0.61838,0.64079 0.78866,1.40256 0.78866,2.63036 0,1.22332 -0.1658,1.99854 -0.78866,2.64381 z m -1.31294,-4.29282 -0.78418,-0.29575 -0.77522,0.29575 c -0.34952,0.34951 -0.39433,0.94101 -0.39433,1.64901 0,0.69904 0.0448,1.29502 0.39433,1.64902 l 0.77522,0.31815 0.78418,-0.31815 c 0.34952,-0.3316 0.39433,-0.94998 0.39433,-1.64902 0,-0.708 -0.0403,-1.28605 -0.39433,-1.64901 z m 8.24956,4.29282 c -0.40777,0.4481 -1.09337,0.8245 -2.11952,0.8245 -1.01272,0 -1.67143,-0.3764 -2.11505,-0.8245 -0.59597,-0.64975 -0.7797,-1.42049 -0.7797,-2.64381 0,-1.22332 0.15236,-1.98957 0.7797,-2.63036 0.4257,-0.44362 1.10233,-0.83347 2.11505,-0.83347 1.02615,0 1.68934,0.38985 2.11952,0.83347 0.60046,0.64079 0.77522,1.40256 0.77522,2.63036 0,1.22332 -0.15236,1.99854 -0.77522,2.64381 z m -1.3219,-4.29282 -0.78866,-0.29575 -0.78418,0.29575 c -0.3316,0.34951 -0.36745,0.94101 -0.36745,1.64901 0,0.69904 0.0448,1.29502 0.36745,1.64902 l 0.78418,0.31815 0.78866,-0.31815 c 0.34056,-0.3316 0.40329,-0.94998 0.40329,-1.64902 0.009,-0.708 -0.0269,-1.28605 -0.40329,-1.64901 z m 5.70434,5.05459 c -1.38464,0 -1.96269,-0.98583 -1.96269,-1.95373 v -3.36525 h -0.708 v -1.28157 h 0.708 v -2.01198 h 1.68935 v 2.01198 h 1.20091 v 1.28157 h -1.20539 v 3.24875 c 0,0.38985 0.18372,0.60942 0.59597,0.60942 h 0.60494 v 1.46081 z m 7.31751,-0.54669 c -0.36744,0.38985 -0.98134,0.60942 -1.66694,0.60942 -0.708,0 -1.21884,-0.17924 -1.67142,-0.70352 v 0.64527 h -1.64454 v -9.29812 h 1.68039 v 3.10087 c 0.4481,-0.50636 0.95894,-0.68112 1.63557,-0.68112 0.6856,0 1.28605,0.24646 1.68038,0.60046 0.67664,0.70352 0.6856,1.85962 0.6856,2.84993 0.004,0.9903 -0.0134,2.20466 -0.69904,2.87681 z m -2.14193,-4.80365 c -1.00823,0 -1.14266,0.83795 -1.14266,1.94924 0,1.10682 0.12099,1.95373 1.14266,1.95373 1.02616,0 1.14266,-0.84243 1.14266,-1.95373 0,-1.11577 -0.12099,-1.94924 -1.14266,-1.94924 z m 7.79698,5.35034 v -0.57357 c -0.45258,0.45706 -0.8738,0.6363 -1.66694,0.6363 -0.78418,0 -1.32638,-0.17924 -1.73416,-0.59149 -0.36296,-0.36745 -0.56909,-0.91861 -0.56909,-1.51907 0,-1.062 0.76626,-1.95372 2.33462,-1.95372 h 1.61317 v -0.34952 c 0,-0.73937 -0.34504,-1.05753 -1.25469,-1.05753 -0.64527,0 -0.92757,0.15236 -1.29054,0.54669 l -1.08888,-1.04856 c 0.68111,-0.73041 1.3219,-0.94101 2.46008,-0.94101 1.89099,0 2.89026,0.78417 2.89026,2.38838 v 4.48102 h -1.66246 v -0.009 h -0.0224 v -0.009 z m -0.0493,-2.86786 h -1.32638 c -0.6139,0 -0.95894,0.28231 -0.95894,0.76626 0,0.47051 0.31367,0.78866 0.98582,0.78866 0.47051,0 0.77522,-0.0538 1.05752,-0.33608 0.18373,-0.16131 0.24198,-0.43914 0.24198,-0.86483 z m 5.30553,2.86786 c -1.38464,0 -1.97613,-0.98583 -1.97613,-1.95373 v -7.32647 h 1.69383 v 7.24133 c 0,0.39433 0.16579,0.60494 0.60045,0.60494 h 0.63183 v 1.44737 l -0.94998,-0.0134 z m 4.10014,0 c -1.39808,0 -1.96717,-0.98583 -1.96717,-1.95373 v -7.32647 h 1.68486 v 7.24133 c 0,0.39433 0.16132,0.60494 0.5915,0.60494 h 0.65871 v 1.44737 z m -41.42706,15.62533 h -3.89849 v -9.27572 h 3.73269 c 1.80585,0 2.85889,1.01271 2.85889,2.59899 0,1.02167 -0.67663,1.68039 -1.15162,1.9134 0.56013,0.26438 1.28157,0.84243 1.28157,2.09264 0.009,1.73863 -1.18299,2.67069 -2.82304,2.67069 z m -0.31815,-7.65807 h -1.76553 v 2.124 h 1.76553 c 0.77521,0 1.20539,-0.43466 1.20539,-1.05752 -0.004,-0.64527 -0.43466,-1.06648 -1.20539,-1.06648 z m 0.11202,3.75061 h -1.87755 v 2.28981 h 1.88203 c 0.83347,0 1.21884,-0.52876 1.21884,-1.15163 0,-0.62734 -0.38985,-1.13818 -1.22332,-1.13818 z m 9.31605,3.15016 c -0.42122,0.43914 -1.11578,0.82899 -2.11952,0.82899 -1.01272,0 -1.68039,-0.38985 -2.10608,-0.82899 -0.60942,-0.64526 -0.78418,-1.41152 -0.78418,-2.64828 0,-1.21436 0.13443,-1.98061 0.78418,-2.63036 0.41673,-0.44362 1.09336,-0.82899 2.10608,-0.82899 1.00374,0 1.68486,0.38537 2.11952,0.82899 0.60046,0.64975 0.78418,1.42944 0.78418,2.63036 -0.0269,1.23228 -0.18372,2.00302 -0.78418,2.64828 z m -1.3219,-4.29282 -0.78418,-0.29574 -0.7797,0.29574 c -0.34056,0.34504 -0.39881,0.9455 -0.39881,1.6535 0,0.69904 0.0582,1.29502 0.39881,1.6535 l 0.7797,0.30919 0.78418,-0.30919 c 0.33607,-0.33608 0.3764,-0.95446 0.3764,-1.6535 0,-0.708 -0.0403,-1.29502 -0.3764,-1.6535 z m 7.46986,5.05012 v -0.63183 c -0.44362,0.48843 -1.06648,0.71697 -1.69382,0.71697 -0.67216,0 -1.21436,-0.21509 -1.59077,-0.5915 -0.55116,-0.56013 -0.69456,-1.18299 -0.69456,-1.90443 v -4.35556 h 1.69831 v 4.10462 c 0,0.94101 0.56909,1.23228 1.10233,1.23228 0.55117,0 1.14715,-0.31815 1.14715,-1.23228 v -4.10462 h 1.69382 v 6.79771 l -1.66246,-0.0314 z m 7.10691,-4.93809 c -0.26887,-0.27334 -0.47947,-0.41226 -0.89621,-0.41226 -0.51532,0 -1.08441,0.4033 -1.08441,1.24573 v 4.10013 h -1.70279 v -6.79323 h 1.67591 v 0.64975 c 0.32711,-0.38985 0.97686,-0.7304 1.68486,-0.7304 0.67664,0 1.15162,0.16579 1.60421,0.64078 z m 4.05084,7.49227 c -1.0396,0 -1.76104,-0.21061 -2.4556,-0.88276 l 1.04856,-1.06201 c 0.37192,0.36297 0.75729,0.52428 1.33086,0.52428 1.00375,0 1.37568,-0.72592 1.37568,-1.41152 v -0.69456 c -0.44811,0.50188 -0.95894,0.68112 -1.62661,0.68112 -0.65423,0 -1.23229,-0.22853 -1.60421,-0.60494 -0.64079,-0.62286 -0.72145,-1.4877 -0.72145,-2.69757 0,-1.18299 0.0851,-2.05231 0.72145,-2.68414 0.354,-0.38088 0.97686,-0.60045 1.61317,-0.60045 0.73937,0 1.19195,0.1882 1.66694,0.7304 v -0.63182 h 1.64901 v 6.54229 c -0.009,1.59973 -1.16954,2.79168 -2.9978,2.79168 z m 0.16132,-7.90453 c -1.00823,0 -1.09785,0.8738 -1.09785,1.76553 0,0.89172 0.10306,1.77 1.09785,1.77 1.01719,0 1.13818,-0.87828 1.13818,-1.77 -0.004,-0.88725 -0.12099,-1.76553 -1.13818,-1.76553 z m 8.80969,2.46905 c 0,0.8738 0.55564,1.51906 1.47874,1.51906 0.76625,0 1.12921,-0.21508 1.55043,-0.64526 l 1.03063,1.00375 c -0.70352,0.69456 -1.36223,1.06648 -2.58555,1.06648 -1.6042,0 -3.13671,-0.74385 -3.13671,-3.47279 0,-2.21363 1.19643,-3.45487 2.95299,-3.45487 1.89099,0 2.96196,1.37567 2.96196,3.2353 v 0.75729 l -4.25249,-0.009 z m 2.42871,-1.87755 c -0.17476,-0.40777 -0.57357,-0.708 -1.13818,-0.708 -0.56013,0 -0.95446,0.30023 -1.13818,0.708 l -0.15683,0.72144 h 2.58555 z m 7.20549,4.75885 v -4.10462 c 0,-0.93205 -0.56909,-1.24124 -1.11578,-1.24124 -0.5422,0 -1.13818,0.33159 -1.13818,1.24124 v 4.10462 h -1.6759 v -6.79323 h 1.65798 v 0.62734 c 0.43914,-0.47499 1.062,-0.708 1.68486,-0.708 0.6856,0 1.22332,0.21957 1.59973,0.60045 0.55564,0.55117 0.69008,1.18299 0.69008,1.90892 v 4.35555 h -1.70727 v 0.009 z m 10.27498,0 h -3.86712 v -9.27572 h 3.71029 c 1.82377,0 2.87233,1.01271 2.87233,2.59899 0,1.02167 -0.66767,1.68039 -1.14266,1.9134 0.55117,0.26438 1.28157,0.84243 1.28157,2.09264 -0.004,1.73863 -1.18747,2.67069 -2.85441,2.67069 z m -0.30023,-7.65807 h -1.75656 v 2.124 h 1.75656 c 0.78418,0 1.20988,-0.43466 1.20988,-1.05752 -0.009,-0.64527 -0.43466,-1.06648 -1.20988,-1.06648 z m 0.12547,3.75061 h -1.88651 v 2.28981 h 1.88651 c 0.82003,0 1.21436,-0.52876 1.21436,-1.15163 0,-0.62734 -0.39881,-1.13818 -1.21436,-1.13818 z m 8.29438,-1.03063 c -0.26438,-0.27334 -0.48395,-0.41226 -0.90069,-0.41226 -0.5198,0 -1.08441,0.4033 -1.08441,1.24573 v 4.10013 h -1.70279 v -6.79323 h 1.68039 v 0.64975 c 0.34056,-0.38985 0.99478,-0.7304 1.68486,-0.7304 0.66319,0 1.1337,0.16579 1.60421,0.64078 z m 3.02469,2.05679 c 0,0.8738 0.5422,1.51906 1.47425,1.51906 0.76178,0 1.1113,-0.21508 1.54147,-0.64526 l 1.00823,1.00375 c -0.68111,0.69456 -1.35775,1.06648 -2.56314,1.06648 -1.59973,0 -3.13672,-0.74385 -3.13672,-3.47279 0,-2.21363 1.21436,-3.45487 2.97092,-3.45487 1.89996,0 2.96196,1.37567 2.96196,3.2353 v 0.75729 l -4.25697,-0.009 z m 2.43319,-1.87755 c -0.1882,-0.40777 -0.55116,-0.708 -1.14266,-0.708 -0.55116,0 -0.95446,0.30023 -1.12474,0.708 l -0.15683,0.72144 h 2.56314 z m 5.47581,4.82606 c -1.06648,0 -2.02094,-0.11202 -2.87682,-0.97686 l 1.09786,-1.10681 c 0.55116,0.55564 1.29949,0.64078 1.80585,0.64078 0.58701,0 1.19195,-0.20164 1.19195,-0.71248 0,-0.34056 -0.14787,-0.56909 -0.70352,-0.61838 l -1.07097,-0.11651 c -1.21883,-0.10754 -1.97613,-0.64078 -1.97613,-1.89099 0,-1.42048 1.23677,-2.15985 2.6214,-2.15985 1.04408,0 1.94477,0.17924 2.58555,0.78418 l -1.0396,1.04856 c -0.40329,-0.33608 -0.9903,-0.46155 -1.56387,-0.46155 -0.6856,0 -0.98583,0.32263 -0.98583,0.64079 0,0.26886 0.11651,0.56012 0.70352,0.59149 l 1.07097,0.12099 c 1.33982,0.0986 2.02542,0.83795 2.02542,1.98509 0,1.51459 -1.27709,2.23155 -2.88578,2.23155 z m 6.32272,0 c -1.05752,0 -2.03438,-0.11202 -2.89474,-0.97686 l 1.10682,-1.10681 c 0.56909,0.55564 1.29053,0.64078 1.80585,0.64078 0.59149,0 1.22332,-0.20164 1.22332,-0.71248 0,-0.34056 -0.1882,-0.56909 -0.73041,-0.61838 l -1.04856,-0.11651 c -1.23676,-0.10754 -1.98509,-0.64078 -1.98509,-1.89099 0,-1.42048 1.2278,-2.15985 2.60347,-2.15985 1.04856,0 1.94029,0.17924 2.58555,0.78418 l -1.04407,1.04856 c -0.36297,-0.33608 -0.99031,-0.46155 -1.56836,-0.46155 -0.69008,0 -0.97687,0.32263 -0.97687,0.64079 0,0.26886 0.11651,0.56012 0.70801,0.59149 l 1.07096,0.12099 c 1.32638,0.0986 2.01198,0.83795 2.01198,1.98509 0,1.51459 -1.26813,2.23155 -2.86786,2.23155 z m 5.49374,-2.94851 c 0,0.8738 0.53324,1.51906 1.47426,1.51906 0.75281,0 1.10681,-0.21508 1.54147,-0.64526 l 1.01271,1.00375 c -0.69456,0.69456 -1.34879,1.06648 -2.55867,1.06648 -1.59524,0 -3.14119,-0.74385 -3.14119,-3.47279 0,-2.21363 1.21435,-3.45487 2.96195,-3.45487 1.891,0 2.953,1.37567 2.953,3.2353 v 0.75729 z m 2.41975,-1.87755 c -0.17924,-0.40777 -0.55565,-0.708 -1.1337,-0.708 -0.58253,0 -0.95894,0.30023 -1.14266,0.708 l -0.15235,0.72144 h 2.58107 z m -88.87661,16.88897 h -1.79689 v 3.48624 h -1.81033 v -9.27124 h 3.60722 c 1.89548,0 3.0471,1.31294 3.0471,2.89474 0,1.58629 -1.15162,2.89026 -3.0471,2.89026 z m -0.10306,-4.16735 h -1.68935 v 2.54522 h 1.68935 c 0.82003,0 1.33983,-0.51979 1.33983,-1.25468 0,-0.78418 -0.50636,-1.29054 -1.33983,-1.29054 z m 5.61024,4.7947 c 0,0.86932 0.5422,1.49666 1.4877,1.49666 0.74833,0 1.10233,-0.20613 1.54147,-0.62734 l 1.01719,0.99926 c -0.69455,0.69904 -1.35775,1.06201 -2.5721,1.06201 -1.59525,0 -3.12776,-0.72145 -3.12776,-3.46383 0,-2.21811 1.19644,-3.45487 2.953,-3.45487 1.89099,0 2.95299,1.38015 2.95299,3.23978 v 0.75729 z m 2.42423,-1.89547 c -0.18372,-0.4033 -0.56012,-0.70353 -1.12921,-0.70353 -0.58254,0 -0.9679,0.30023 -1.13818,0.70353 l -0.15684,0.72592 h 2.57211 z m 6.94111,-0.17925 c -0.25094,-0.27334 -0.47947,-0.40329 -0.90069,-0.40329 -0.5198,0 -1.09337,0.39433 -1.09337,1.24125 v 4.10461 h -1.69382 v -6.80219 h 1.68038 v 0.65423 c 0.33608,-0.38985 0.99479,-0.73041 1.68486,-0.73041 0.65872,0 1.14267,0.1658 1.60421,0.63631 z m 6.38994,4.18528 c -0.41226,0.44362 -1.09785,0.82451 -2.11953,0.82451 -1.01719,0 -1.67142,-0.38089 -2.1016,-0.82451 -0.6139,-0.64975 -0.78418,-1.41152 -0.78418,-2.6438 0,-1.21436 0.15236,-1.98958 0.78418,-2.62588 0.4033,-0.44362 1.08441,-0.82451 2.1016,-0.82451 1.02168,0 1.67591,0.38089 2.11953,0.82451 0.61838,0.6363 0.77521,1.416 0.77521,2.62588 -0.004,1.2278 -0.16131,1.99405 -0.77521,2.6438 z m -1.3219,-4.29282 -0.77522,-0.30023 -0.78418,0.30023 c -0.36296,0.34952 -0.40329,0.94101 -0.40329,1.64902 0,0.708 0.0403,1.29501 0.40329,1.66694 l 0.78418,0.29574 0.77522,-0.29574 c 0.34503,-0.34952 0.40777,-0.95894 0.40777,-1.66694 0.004,-0.70801 -0.0359,-1.2995 -0.40777,-1.64902 z m 7.52811,5.04115 v -4.11806 c 0,-0.93205 -0.57357,-1.22332 -1.12025,-1.22332 -0.53772,0 -1.14266,0.30919 -1.14266,1.22332 v 4.11806 h -1.66694 v -6.81115 h 1.64453 v 0.6363 c 0.4481,-0.48395 1.07545,-0.71248 1.69831,-0.71248 0.67215,0 1.21884,0.21509 1.59524,0.59597 0.56461,0.55117 0.69456,1.19644 0.69456,1.91788 v 4.33763 h -1.68934 v 0.0269 h -0.0179 v 0.009 z m 7.33992,0 v -4.11806 c 0,-0.93205 -0.5915,-1.22332 -1.11578,-1.22332 -0.55116,0 -1.15162,0.30919 -1.15162,1.22332 v 4.11806 h -1.68486 v -6.81115 h 1.6759 v 0.6363 c 0.43914,-0.48395 1.062,-0.71248 1.6759,-0.71248 0.67664,0 1.22332,0.21509 1.61317,0.59597 0.56013,0.55117 0.69008,1.19644 0.69008,1.91788 v 4.33763 h -1.70727 v 0.0359 z m 6.85596,0 v -0.58253 c -0.46154,0.45706 -0.89172,0.64975 -1.68486,0.64975 -0.7797,0 -1.31742,-0.19269 -1.71623,-0.6139 -0.36745,-0.36297 -0.57357,-0.91413 -0.57357,-1.51907 0,-1.07097 0.76177,-1.96269 2.33013,-1.96269 h 1.62213 v -0.33608 c 0,-0.74385 -0.34952,-1.062 -1.25469,-1.062 -0.64975,0 -0.96342,0.16132 -1.28157,0.55117 l -1.09785,-1.03064 c 0.66319,-0.75281 1.3219,-0.93653 2.45112,-0.93653 1.89547,0 2.89474,0.7797 2.89474,2.3839 v 4.45862 z m -0.0493,-2.85889 h -1.33534 c -0.6139,0 -0.94998,0.27334 -0.94998,0.76177 0,0.47051 0.30919,0.78866 0.97686,0.78866 0.46603,0 0.77074,-0.0359 1.06649,-0.33607 l 0.24197,-0.8514 z m 5.62369,2.93507 c -1.06649,0 -2.04335,-0.11203 -2.89474,-0.97687 l 1.10681,-1.10233 c 0.55565,0.55117 1.29053,0.63631 1.80585,0.63631 0.58701,0 1.2054,-0.19717 1.2054,-0.71697 0,-0.34055 -0.1658,-0.56012 -0.71697,-0.60493 l -1.07096,-0.12099 c -1.21436,-0.11651 -1.96717,-0.64975 -1.96717,-1.89547 0,-1.41601 1.23676,-2.14641 2.59451,-2.14641 1.062,0 1.95373,0.17476 2.59451,0.77969 l -1.03063,1.0396 c -0.38985,-0.33607 -0.99479,-0.4481 -1.5818,-0.4481 -0.67216,0 -0.96342,0.32711 -0.96342,0.65423 0,0.24197 0.0986,0.55116 0.69904,0.56013 l 1.07096,0.13891 c 1.33535,0.12547 2.02094,0.84243 2.02094,1.99853 0.004,1.4877 -1.27709,2.20467 -2.87233,2.20467 z"
   id="path1306"
   inkscape:connector-curvature="0"
   style="fill:#ffffff;stroke-width:4.48102283" />
<path
   d="m 111.46316,246.0216 c -3.72821,0 -6.96351,-2.43768 -6.96351,-6.80219 v -9.62972 c 0,-4.36452 3.23978,-6.81564 6.96351,-6.81564 3.71925,0 6.93662,2.45112 6.93662,6.81564 v 9.62972 c -0.004,4.36451 -3.21289,6.80219 -6.93662,6.80219 z m 2.76031,-16.37814 c 0,-1.92684 -1.12474,-3.11431 -2.76031,-3.11431 -1.63557,0 -2.79168,1.19195 -2.79168,3.11431 v 9.5401 c 0,1.92684 1.15611,3.08294 2.79168,3.08294 1.63557,0 2.76031,-1.16058 2.76031,-3.08294 z"
   id="path1308"
   inkscape:connector-curvature="0"
   style="fill:#ffffff;stroke-width:4.48102283" />
<path
   d="m 125.75762,246.63998 v -19.67617 l -4.98289,4.33763 v -4.82158 l 4.98289,-4.31971 h 4.47655 v 24.46191 h -4.47655 z"
   id="path1310"
   inkscape:connector-curvature="0"
   style="fill:#ffffff;stroke-width:4.48102283" />
<path
   d="M 46.452482,82.67935 H 67.82248 v 6.43923 H 46.452482 v 13.07563 H 34.864556 V 68.39385 h 34.382889 v 6.43923 H 46.448001 Z m 28.454495,-14.2855 h 26.025783 c 11.28321,0 14.97109,2.22707 14.97109,8.91276 0,4.77229 -2.18674,6.84252 -7.83282,7.50123 v 0.15235 c 6.69913,0.56013 8.88138,2.48249 8.88138,8.00759 0,6.89181 -3.83575,9.22643 -15.2758,9.22643 H 74.893534 Z m 21.670224,13.82396 c 4.740919,-0.0493 5.117329,-0.10307 6.089709,-0.55565 1.27709,-0.55565 1.73416,-1.51907 1.73416,-3.45039 0,-2.73342 -1.05752,-3.39661 -5.717789,-3.39661 H 86.503864 v 7.39817 h 10.073337 z m -0.38537,13.53717 c 7.828349,0 9.253319,-0.60942 9.253319,-3.85368 0,-2.38391 -0.67216,-3.39214 -2.48249,-3.85368 -0.8962,-0.25094 -1.2054,-0.25094 -5.489249,-0.29575 h -10.98299 v 8.01207 z M 123.24377,68.39385 h 26.02578 c 11.29218,0 14.96662,2.22707 14.96662,8.91276 0,4.77229 -2.16882,6.84252 -7.81491,7.50123 v 0.15235 c 6.69017,0.56013 8.87691,2.48249 8.87691,8.00759 0,6.89181 -3.83576,9.22643 -15.26685,9.22643 h -26.77411 l -0.0134,-33.80036 z M 144.914,82.21781 c 4.74092,-0.0493 5.11732,-0.10307 6.08971,-0.55565 1.28157,-0.55565 1.73415,-1.51907 1.73415,-3.45039 0,-2.73342 -1.05304,-3.39661 -5.7133,-3.39661 h -12.19287 v 7.39817 H 144.914 Z m -0.37641,13.53717 c 7.82387,0 9.26227,-0.60942 9.26227,-3.85368 0,-2.38391 -0.68559,-3.39214 -2.49144,-3.85368 -0.90069,-0.25094 -1.21884,-0.25094 -5.48478,-0.29575 h -10.99643 v 8.01207 l 9.71038,-0.009 z m 27.04297,-27.36113 h 26.26776 c 10.68276,0.15236 15.06072,3.49072 15.06072,11.49831 0,4.76332 -0.54221,6.9411 -2.2674,8.81417 -2.25844,2.53178 -5.48029,3.4952 -11.90608,3.59826 l -6.01801,0.11203 h -9.53114 v 9.77759 H 171.58953 V 68.39833 l -0.009,-0.004 z m 21.21317,17.27435 c 7.15171,0 8.28541,-0.71249 8.28541,-5.06804 0,-4.66027 -1.20988,-5.77604 -6.03146,-5.77604 H 183.19089 V 85.6682 Z"
   id="path1312"
   inkscape:connector-curvature="0"
   style="fill:#ffffff;stroke-width:4.48102283" />
</svg>