<svg id="Logo" xmlns="http://www.w3.org/2000/svg" viewBox="0 0 358.73 485.79"><defs><style>.cls-1{fill:#fff;}.cls-2{fill:#da2a1c;}.cls-3{fill:#3d8e49;}.cls-4{fill:#010101;}.cls-5{fill:#fcc352;}.cls-6{fill:#f8bb4a;}</style></defs><path class="cls-1" d="M235.41,113.78c12.27-4.9,48.79-27.3,62.81-40.11a256.58,256.58,0,0,0,62.83,40.11v357c-20.21,20.08-35.13,34.1-63.26,54.59C280.44,511.86,251,487,235.49,471.19Z" transform="translate(-118.73 -55.55)"/><path class="cls-2" d="M126.15,129.08c39.07,5.77,73.57-.9,109.34-15.7V471.81c-1.58-1.67-4.17-4.27-5.72-5.88a286.77,286.77,0,0,1-27.44-31.33c-6.14-8.34-12.43-16.68-18-25.51-5.78-9.09-11.09-18.48-16.21-28-4-7.39-7.59-15-11.08-22.69-2.5-5.52-4.6-11.24-6.67-16.93s-4.22-11.56-6.19-17.4c-1.17-3.49-2.2-7-3.16-10.58-1.66-5.94-3.33-11.88-4.6-17.88-1.17-5.23-2-10.5-3-15.74-.6-3.13-1.32-6.25-1.84-9.4s-.9-6.68-1.36-10.13c-.55-4-1.19-7.91-1.67-11.88-.45-3.34-.57-6.67-.92-10s-.73-7-.93-10.44q-1-19.32-1.24-38.73c-.1-10.62,0-21.25,0-31.88,0-6.47.55-16.85.72-23.36,0-.9,0-3.23,0-5" transform="translate(-118.73 -55.55)"/><path class="cls-3" d="M470.38,129.08c-39.06,5.77-73.58-.9-109.33-15.7V471.81c1.67-1.67,4.17-4.27,5.72-5.88a289.83,289.83,0,0,0,27.45-31.33c6.12-8.34,12.41-16.68,18-25.51,5.79-9.09,11.07-18.48,16.21-28,4-7.39,7.59-15,11.06-22.69,2.52-5.52,4.61-11.24,6.68-16.93s4.22-11.56,6.17-17.4c1.17-3.49,2.2-7,3.15-10.58,1.67-5.94,3.34-11.88,4.61-17.88,1.17-5.23,2-10.5,3-15.74.61-3.13,1.31-6.25,1.82-9.4s.9-6.68,1.39-10.13c.55-4,1.18-7.91,1.67-11.88.43-3.34.56-6.67.91-10s.74-7,.92-10.44q1.05-19.32,1.25-38.73c.1-10.62,0-21.25-.08-31.88,0-6.47-.55-16.85-.73-23.36,0-.9.1-3.23.1-5" transform="translate(-118.73 -55.55)"/><g id="Escudo"><path class="cls-4" d="M297.88,541.33l-.51-.38L294,538.49c-2.56-1.86-5.2-3.78-7.71-5.8l-3.83-3c-6-4.78-12.25-9.72-18.14-14.87-8.33-7.26-16.57-14.86-24.51-22.57-8.11-7.88-15.83-16-21.65-22.25-3.57-3.82-6.86-7.83-9.61-11.26-1.37-1.73-2.8-3.46-4.19-5.14-2.5-3-5.09-6.16-7.44-9.41-5.47-7.56-10.79-15-15.83-22.65-4.36-6.65-9.45-14.59-14.15-23.13-5.48-10-10.13-19.34-14.2-28.47-3.88-8.73-7.19-17.51-9.91-24.94C140.3,338,138,330.89,136,323.75s-4.61-16.64-6.79-26.24c-1.13-5-2-10.09-2.83-15l-.6-3.52c-1-5.6-2.07-11.95-2.94-18.15-.51-3.65-.84-7.37-1.16-11-.08-.86-.15-1.73-.23-2.59-.12-1.21-.23-2.43-.35-3.64-.5-5.19-1-10.55-1.25-15.85-.37-6.86-.61-14.17-.76-23.7-.21-13.09-.37-24.92-.32-37.16,0-10.7.15-20.62.31-31.12.09-5.73.18-11.66.24-17.69a31.21,31.21,0,0,1,.11-3.18l.12-1.06,6.25,1.22c4.41.87,13.28,2.47,18.54,2.9,7.9.67,12.23.73,20.11.84H165a98.45,98.45,0,0,0,12.24-.75c3.77-.44,7.73-1.1,12.11-2,6.49-1.36,13.32-3.08,20.29-5.09a143.45,143.45,0,0,0,24.82-10,257.9,257.9,0,0,0,23.18-12.84c8.46-5.49,16.7-12.07,24-17.87,3.78-3,7.32-6.28,11.07-9.73,1.56-1.44,3.17-2.92,4.81-4.4l.64-.57.64.57c.74.66,1.49,1.36,2.26,2.08s1.81,1.68,2.74,2.51l2,1.83c2.73,2.42,5.55,4.93,8.38,7.33l1.08.91c3.21,2.73,6.53,5.55,9.93,8.08a217.08,217.08,0,0,0,35.34,21.68,189.11,189.11,0,0,0,29.42,11.34,186.23,186.23,0,0,0,22.19,5,153.65,153.65,0,0,0,37.22,1.63A109,109,0,0,0,471.46,115l.06,0,1.19-.27c1.05-.24,2.34-.54,3-.64l1.12-.17v3.54q.06,10.77.16,21.55t.17,21.73c0,4.85.07,9.79.13,14.57.11,7.27.21,14.79.08,22.18-.19,10.64-.7,22-1.6,35.75-.46,7.23-1.16,15-2.14,23.93-.64,5.76-1.59,12.05-2.91,19.21-.36,2-.71,4-1.07,6-1.08,6.13-2.19,12.47-3.62,18.63-1.74,7.52-4.11,17.39-7.06,27a362.43,362.43,0,0,1-19.17,49.67,342.3,342.3,0,0,1-18.43,34c-5.36,8.58-11.26,17.31-18,26.68-5.85,8.05-12.08,16-18.53,23.61-6,7.13-12.52,14-18.67,20.39-5.24,5.47-10.8,10.94-17,16.74s-11.62,10.76-17.29,15.58c-6.28,5.33-12.8,10.56-19.11,15.61L310,532.5c-2.56,2.06-5.24,4-7.83,6l-1.53,1.14c-.62.43-1.25.81-1.92,1.21ZM121.27,116.23c0,.44,0,1,0,1.86-.06,6-.15,12-.24,17.71-.16,10.49-.32,20.4-.32,31.09,0,12.23.12,24.05.32,37.13.16,9.5.39,16.78.77,23.63.23,5.26.74,10.59,1.24,15.75.12,1.22.23,2.43.35,3.64.08.87.15,1.74.23,2.61.32,3.58.65,7.28,1.15,10.87.86,6.17,2,12.5,2.92,18.09.21,1.17.41,2.35.61,3.52.83,4.92,1.69,10,2.81,14.92,2.17,9.56,4.75,19,6.76,26.14s4.3,14.17,6.82,21.05c2.71,7.41,6,16.15,9.85,24.81,4.06,9.09,8.68,18.35,14.13,28.33,4.67,8.47,9.73,16.37,14.07,23,5,7.64,10.33,15,15.78,22.58,2.32,3.2,4.88,6.31,7.36,9.31,1.39,1.69,2.83,3.43,4.21,5.17,2.72,3.39,6,7.37,9.51,11.14,5.8,6.2,13.5,14.33,21.59,22.18,7.91,7.69,16.13,15.26,24.43,22.5,5.86,5.12,12.06,10,18.06,14.81l3.84,3.05c2.48,2,5,3.82,7.64,5.75l2.86,2.09c.54-.33,1.05-.64,1.52-1l1.51-1.13c2.58-1.91,5.24-3.89,7.77-5.93l2.78-2.23c6.3-5,12.81-10.26,19.06-15.58,5.64-4.79,11-9.67,17.22-15.52s11.71-11.22,16.93-16.66c6.13-6.38,12.61-13.2,18.58-20.3,6.42-7.58,12.62-15.48,18.44-23.49,6.76-9.33,12.63-18,18-26.56a339.22,339.22,0,0,0,18.32-33.83,357.86,357.86,0,0,0,19.06-49.39c2.94-9.57,5.3-19.39,7-26.88,1.42-6.11,2.53-12.42,3.61-18.52.35-2,.7-4,1.07-6,1.3-7.11,2.25-13.35,2.89-19.06,1-8.84,1.67-16.64,2.13-23.84.9-13.71,1.4-25,1.59-35.64.13-7.37,0-14.87-.07-22.13-.07-4.78-.14-9.72-.14-14.59q-.08-10.85-.17-21.72t-.16-21.56v-1.16c-.58.12-1.23.27-1.77.4l-1.22.27a110.3,110.3,0,0,1-22.46,3.63,155.17,155.17,0,0,1-37.65-1.66,188.09,188.09,0,0,1-22.42-5.06,190.48,190.48,0,0,1-29.71-11.46A218.72,218.72,0,0,1,324,80.49c-3.45-2.56-6.79-5.4-10-8.15l-1.07-.91c-2.85-2.41-5.68-4.93-8.42-7.37l-2.05-1.82c-.95-.84-1.88-1.71-2.77-2.54-.54-.51-1.08-1-1.6-1.48-1.41,1.28-2.8,2.56-4.15,3.8-3.78,3.48-7.34,6.76-11.18,9.82-7.31,5.83-15.59,12.44-24.14,18a262,262,0,0,1-23.34,12.93,144.7,144.7,0,0,1-25.15,10.13c-7,2-13.89,3.75-20.43,5.12-4.44.93-8.46,1.59-12.28,2a100.72,100.72,0,0,1-12.41.76h-.61c-7.92-.11-12.28-.18-20.24-.86-5.33-.43-14.29-2-18.74-2.93Zm176.45,408-.58-.49q-4-3.32-7.91-6.6c-7.69-6.41-15.64-13-23.29-19.77-6.79-6-13.79-12.55-22-20.71a375.55,375.55,0,0,1-31.45-35.31,353.18,353.18,0,0,1-39.58-62c-5.47-11.17-9.62-20.31-13.06-28.79-3.85-9.49-7.1-19.4-9.78-27.84-2.28-7.26-4-14.45-5.87-22.07l0-.19c-1.7-7-3.27-14.45-4.79-22.75-.84-4.6-1.87-12.61-2.61-18.46-.18-1.42-.35-2.72-.49-3.83-.46-3.51-.69-5.5-.94-7.6-.19-1.7-.41-3.5-.75-6.28,0-.33-.12-1.16-.2-2s-.18-1.88-.23-2.3c-2.73-32-2.14-61.93-1.52-93.66.07-3.82.15-7.66.22-11.53l0-1.1,2.19.24c.85.1,1.59.18,2.34.25,5.38.45,16.44,1.08,22.22,1.08a139.67,139.67,0,0,0,19.19-.75A162.73,162.73,0,0,0,201,127.57c8.07-2,16.31-4.59,24.49-7.55a152.76,152.76,0,0,0,29.38-14c8.08-5.1,16.7-10.63,24.87-16.44,4.27-3,8.25-6.34,12.46-9.84,1.78-1.47,3.62-3,5.47-4.5l.62-.5.61.52,1.84,1.58c1.9,1.64,3.86,3.33,5.86,5a235.71,235.71,0,0,0,34.1,23.85,216.76,216.76,0,0,0,34.21,15.92,205,205,0,0,0,28.54,7.84,165.1,165.1,0,0,0,35.47,3.28c4.93-.08,10-.54,14.82-1,2.18-.2,4.43-.4,6.65-.57h3.08l.06.93a7,7,0,0,1,0,1.62q.06,8.55.13,17.08c.14,16.27.27,33.09.18,49.64,0,8.79-.44,18.23-1.23,29.71-.57,8.22-1.34,15.73-2.35,23-.38,2.81-.72,5.68-1,8.45-.43,3.71-.88,7.54-1.45,11.33-.72,4.25-1.44,8.39-2.3,12.41-1.75,8.32-3.28,15.09-4.79,21.31a347.92,347.92,0,0,1-50.4,111.88c-6.45,9.25-13.57,18.76-21.79,29.07-6.34,7.94-13.1,15.36-18.88,21.57-4.92,5.28-10.18,10.39-15.26,15.32l-2.19,2.12a447,447,0,0,1-35.57,30.88c-1.85,1.45-3.72,2.88-5.69,4.39l-2.51,1.92Zm-163-391.06q-.11,5.25-.2,10.43c-.62,31.67-1.21,61.59,1.5,93.41.05.39.14,1.37.23,2.31s.16,1.65.2,2c.35,2.78.56,4.59.76,6.29.24,2.09.48,4.07.93,7.57.14,1.11.31,2.41.49,3.83.74,5.83,1.76,13.81,2.59,18.35,1.52,8.26,3.08,15.67,4.77,22.64l0,.19c1.84,7.58,3.57,14.75,5.83,21.93,2.66,8.4,5.9,18.27,9.73,27.7,3.41,8.42,7.55,17.52,13,28.64A352,352,0,0,0,214,440.07a377.25,377.25,0,0,0,31.29,35.13c8.2,8.13,15.17,14.68,21.93,20.63,7.63,6.71,15.58,13.33,23.26,19.73l7.32,6.11,1.9-1.45c2-1.51,3.83-2.93,5.67-4.38a443.34,443.34,0,0,0,35.42-30.74L343,483c5.06-4.92,10.3-10,15.19-15.25,5.75-6.18,12.48-13.56,18.78-21.45,8.19-10.28,15.29-19.75,21.71-29a345.78,345.78,0,0,0,50.09-111.21c1.51-6.19,3-12.94,4.77-21.24.86-4,1.57-8.1,2.29-12.31.56-3.73,1-7.55,1.44-11.25.32-2.78.66-5.65,1-8.48,1-7.18,1.77-14.64,2.34-22.81.79-11.44,1.18-20.84,1.22-29.58.09-16.54,0-33.35-.17-49.61q-.07-8.58-.13-17.17v-.19a1.88,1.88,0,0,0,0-.28h-1.11c-2.2.17-4.43.37-6.59.57-4.89.44-9.95.9-15,1a167.53,167.53,0,0,1-35.87-3.31,207.5,207.5,0,0,1-28.81-7.91,220.31,220.31,0,0,1-34.52-16.07,238.82,238.82,0,0,1-34.38-24c-2-1.67-4-3.37-5.88-5l-1.23-1.06c-1.64,1.33-3.26,2.67-4.84,4-4.24,3.53-8.25,6.85-12.58,9.93-8.21,5.84-16.85,11.38-25,16.5a153.94,153.94,0,0,1-29.75,14.18c-8.23,3-16.53,5.54-24.66,7.6A163.21,163.21,0,0,1,179,133.74a141.77,141.77,0,0,1-19.43.77c-5.8,0-16.94-.64-22.36-1.09-.78-.07-1.52-.16-2.39-.26Z" transform="translate(-118.73 -55.55)"/><path class="cls-5" d="M297.94,540.13c-3.76-2.78-7.49-5.37-11-8.23C279.52,526,272.07,520.22,265,514q-12.52-10.92-24.47-22.53c-7.41-7.2-14.56-14.68-21.62-22.22-3.35-3.58-6.47-7.35-9.56-11.2-3.84-4.85-8-9.49-11.6-14.51-5.38-7.45-10.75-14.93-15.8-22.62s-9.78-15.19-14.12-23.06c-5.06-9.27-9.84-18.73-14.16-28.4-3.62-8.13-6.8-16.47-9.88-24.87q-3.83-10.43-6.85-21.13c-2.44-8.68-4.78-17.41-6.77-26.19-1.39-6.11-2.36-12.32-3.43-18.5s-2.08-12.1-2.93-18.12c-.62-4.48-1-9-1.38-13.52-.61-6.47-1.31-12.95-1.6-19.44-.43-7.87-.63-15.77-.76-23.66-.19-12.39-.37-24.71-.32-37.15,0-16.73.38-32.07.56-48.8,0-.45,0-2.26.09-3.07l5.23,1c5,1,13.62,2.5,18.64,2.91,8.11.69,12.55.74,20.71.86a100.15,100.15,0,0,0,12.36-.76c4.08-.48,8.16-1.19,12.19-2,6.84-1.43,13.64-3.16,20.36-5.1a143.93,143.93,0,0,0,25-10.07A255.74,255.74,0,0,0,258.09,89c8.37-5.43,16.24-11.69,24.06-17.93,5.43-4.34,10.44-9.23,15.93-14.17,1.6,1.43,3.27,3,5,4.6,3.47,3.08,6.91,6.17,10.45,9.17s7.25,6.19,11,9a217.87,217.87,0,0,0,35.5,21.77,189,189,0,0,0,29.57,11.4,185.68,185.68,0,0,0,22.3,5,154.45,154.45,0,0,0,37.44,1.65,109.53,109.53,0,0,0,22.31-3.61c.73-.15,3.18-.76,4.17-.91v2.38c.1,14.43.24,28.85.34,43.28,0,12.24.43,24.5.2,36.73-.2,11.91-.81,23.82-1.59,35.7-.51,8-1.26,15.93-2.14,23.88-.71,6.41-1.73,12.8-2.89,19.14-1.5,8.24-2.81,16.47-4.69,24.58-2.09,9-4.33,18.11-7,26.94A357.66,357.66,0,0,1,439,377.18a336,336,0,0,1-18.37,33.93c-5.67,9.1-11.72,18-18,26.62q-8.79,12.11-18.48,23.56c-5.93,7-12.27,13.72-18.63,20.34-5.49,5.73-11.15,11.26-17,16.7s-11.36,10.54-17.26,15.55c-7.17,6.09-14.53,11.94-21.86,17.82-3,2.45-6.19,4.76-9.33,7.1C299.41,539.26,298.7,539.67,297.94,540.13ZM462.53,132.18h-2.1c-7.17.55-14.34,1.44-21.52,1.55a165.77,165.77,0,0,1-35.68-3.29,205.9,205.9,0,0,1-28.67-7.88,217.87,217.87,0,0,1-34.37-16A237.42,237.42,0,0,1,306,82.62c-2.66-2.22-5.27-4.5-7.71-6.59-6.11,4.94-11.82,10-18,14.38-8.11,5.77-16.49,11.15-24.92,16.47A152.49,152.49,0,0,1,225.79,121c-8.06,2.91-16.29,5.46-24.59,7.57a161.06,161.06,0,0,1-22.3,4.2,139.67,139.67,0,0,1-19.29.76c-5.66,0-16.62-.61-22.31-1.09-1.08-.09-2.15-.23-3.49-.37-.65,36.13-1.75,69.34,1.29,105.05.1.81.35,3.64.43,4.31.78,6.26.88,7.56,1.69,13.87.75,5.74,2.06,16.57,3.09,22.24,1.4,7.61,3,15.19,4.78,22.7s3.6,14.9,5.9,22.18c3,9.36,6.07,18.7,9.75,27.77,3.95,9.74,8.41,19.29,13,28.71a351.27,351.27,0,0,0,39.46,61.84,374.93,374.93,0,0,0,31.37,35.21c7.14,7.09,14.44,14.05,22,20.67,10.21,9,20.71,17.58,31.18,26.36,2.92-2.24,5.58-4.25,8.19-6.31a441.2,441.2,0,0,0,35.5-30.8c5.87-5.72,11.82-11.4,17.41-17.41,6.48-7,12.89-14.07,18.83-21.51,7.52-9.44,14.83-19.09,21.75-29a348.25,348.25,0,0,0,50.25-111.54c1.72-7.07,3.28-14.17,4.78-21.28.87-4.09,1.59-8.24,2.29-12.36,1-6.59,1.59-13.17,2.48-19.76,1.07-7.6,1.82-15.24,2.35-22.88.68-9.88,1.18-19.77,1.22-29.65.13-22.25-.16-44.47-.3-66.79A6,6,0,0,0,462.53,132.18Z" transform="translate(-118.73 -55.55)"/></g><g id="A"><path class="cls-4" d="M325.4,475.43H311.63l-4.29-10.88H288.45l-4.35,10.88H270.79l21.89-56.49h11.05Zm-12.34-2.11h9.27l-20.05-52.27h-8.15l-20.26,52.27h8.8L287,462.44h21.74Zm-7.19-19.64H290l8-21.22ZM293,451.57h9.81L298,438.47Z" transform="translate(-118.73 -55.55)"/><path class="cls-5" d="M323.86,474.37H312.35l-4.3-10.87H287.74l-4.36,10.87H272.33L293.41,420H303ZM291.5,452.62h12.86L298,435.47Z" transform="translate(-118.73 -55.55)"/></g><g id="E"><path class="cls-6" d="M427.85,236H398.6V181.47h28.65v9.36H409.17v12.34h18.08v10H409.77v13.55h18.08Zm-28.93-.32h28.62V227H409.45V212.82h17.48v-9.33H408.85v-13h18.08v-8.73h-28Z" transform="translate(-118.73 -55.55)"/><path class="cls-4" d="M428.91,237.09H397.55V180.42H428.3v11.46H410.22v10.24H428.3v12.07H410.82v11.44h18.09ZM400,234.67h26.51v-6.62H408.4V211.77h17.48v-7.23H407.8V189.46h18.08v-6.62H400Z" transform="translate(-118.73 -55.55)"/><polygon class="cls-5" points="308.36 157.43 290.88 157.43 290.88 171.29 308.97 171.29 308.97 180.33 280.03 180.33 280.03 126.09 308.36 126.09 308.36 135.13 290.28 135.13 290.28 147.78 308.36 147.78 308.36 157.43"/></g><g id="F"><path class="cls-4" d="M300.89,169.27h-12.4l0-56.71h30.6v10.61H300.89v10.62h18.16v11.83H300.89Zm-10.29-2.11h8.18V143.5h18.15v-7.59H298.78V121.06h18.15v-6.38H290.57Z" transform="translate(-118.73 -55.55)"/><polygon class="cls-5" points="170.78 58.08 199.26 58.08 199.26 66.57 181.1 66.57 181.1 79.31 199.26 79.31 199.26 89.01 181.1 89.01 181.1 112.67 170.82 112.67 170.78 58.08"/></g><g id="C"><path class="cls-4" d="M184.51,237.27a54.53,54.53,0,0,1-8-.63h-.05c-12.16-2.35-20.61-13.31-21-27.27-.44-14.82,9.39-26.58,23.92-28.61,14-1.95,27.26,5.38,30.74,17.06l.41,1.38h-14.7l-.32-.56c-2.56-4.58-7.72-5.42-10.56-5.52-5.13-.18-10.54,1.79-12.31,4.49l0,.05c-5.79,7.75-4.84,18.56-.15,22.69a17.55,17.55,0,0,0,13.63,5,13.41,13.41,0,0,0,9.79-5.66l.33-.47H210l-.43,1.39C206.16,231.59,197.57,237.27,184.51,237.27Zm-7.64-2.75c15.93,2.35,26-2.08,30.13-13.17h-9.69a15.63,15.63,0,0,1-11,6.12A19.79,19.79,0,0,1,171,221.93c-5.46-4.81-6.69-16.75-.15-25.53C173,193,179,190.75,185,191c5.45.19,9.71,2.34,12.07,6.08h10.47c-3.79-9.85-15.47-15.89-27.87-14.16-13.39,1.87-22.46,12.73-22,26.41C158,222.22,165.74,232.35,176.87,234.52Z" transform="translate(-118.73 -55.55)"/><path class="cls-5" d="M196.75,220.27h11.76c-3.86,12.52-14.68,17.85-31.83,15.31-10.89-2.11-19.73-12-20.15-26.26s9.12-25.57,23-27.5c13.26-1.85,26.15,4.92,29.55,16.29H196.45c-5.16-9.21-21.11-6.63-24.75-1.09-6.37,8.51-4.9,19.81,0,24.13C180,228.89,191.45,227.87,196.75,220.27Z" transform="translate(-118.73 -55.55)"/></g><g id="Estrela"><path class="cls-4" d="M226.57,410.58l.91-2.86q3.41-10.73,6.8-21.48c6.37-20.1,12.95-40.88,19.47-61.38L183,271.78h87.69c7.69-23.92,15.5-48.43,23.06-72.15L298,186.3l.92,2.9c9.48,29.91,18.07,56.93,26.24,82.58h88.1l-71.29,53.13q13.29,41.52,26.48,82.7l.92,2.87L298,357.6ZM188.79,273.72,256,324.13l-.21.66c-6.6,20.72-13.25,41.73-19.68,62q-3,9.32-5.9,18.63l67.83-50.28,67.59,50.15q-12.84-40.08-25.77-80.49l-.22-.66.56-.41,67.15-50H323.71l-.22-.67c-8-25-16.33-51.34-25.53-80.36l-2.4,7.53c-7.63,23.94-15.52,48.7-23.27,72.83l-.22.67Z" transform="translate(-118.73 -55.55)"/><path class="cls-5" d="M186.62,272.92h85c8.82-27.42,17.54-55.18,26.36-82.84q13.09,41.34,26.39,82.84h85.38l-69.09,51.5Q354,366,367.18,407.31L298,356.08,228.9,407.42q13.13-41.43,26.33-83Z" transform="translate(-118.73 -55.55)"/></g></svg>