<svg xmlns:dc="http://purl.org/dc/elements/1.1/" xmlns:cc="http://creativecommons.org/ns#" xmlns:rdf="http://www.w3.org/1999/02/22-rdf-syntax-ns#" xmlns:svg="http://www.w3.org/2000/svg" xmlns="http://www.w3.org/2000/svg" viewBox="0 0 614.99997 700" height="337.3738848983159" width="296.4070560178061" xml:space="preserve" version="1.1" id="svg2"><metadata id="metadata8"><rdf:RDF><cc:Work rdf:about=""><dc:format>image/svg+xml</dc:format><dc:type rdf:resource="http://purl.org/dc/dcmitype/StillImage"/><dc:title/></cc:Work></rdf:RDF></metadata><defs id="defs6"/><g transform="matrix(1.25,0,0,-1.25,0,700.00003)" id="g10"><g transform="scale(0.99999853,0.99999853)" id="g5095"><path id="path562" style="fill:#ffffff;fill-opacity:1;fill-rule:nonzero;stroke:none" d="M 245.00723,559.90748 C 160.44787,549.85242 41.731873,517.0121 3.8725167,497.18222 l -3.872558635,-2.03819 0,-4.36512 C -4.1935e-5,293.88988 90.334182,111.53993 241.65271,3.014868 L 245.86497,4.7117e-5 250.07722,3.014868 C 401.37877,111.54842 491.71299,293.88988 491.71299,490.77891 l 0,4.22075 -3.66874,2.07216 c -27.15886,15.27792 -156.06581,54.02899 -241.44044,62.84415 l -0.7898,0.0849 -0.80678,-0.0934 z"/><path id="path566" style="fill:#141316;fill-opacity:1;fill-rule:nonzero;stroke:none" d="m 245.86497,552.72456 c -15.60913,-1.85135 -32.1779,-4.44155 -49.0609,-7.53281 47.47281,-26.80218 101.59521,-85.80774 130.1978,-151.47139 39.81262,31.27771 81.45111,41.62151 132.04915,13.503 C 413.37861,398.52709 438.90692,289.83218 326.4074,207.17514 263.75857,161.14604 186.34137,144.34797 112.06637,146.36068 148.9491,92.527019 194.23935,45.911944 245.86497,8.8933408 389.59974,112.00021 484.49441,289.30565 484.49441,490.78061 460.1975,504.45346 332.72578,543.75653 245.86497,552.72456"/><path id="path570" style="fill:#ea1b29;fill-opacity:1;fill-rule:nonzero;stroke:none" d="m 31.853453,428.72795 c 0,0 94.826727,14.78536 192.744717,-29.10364 -5.66447,41.47714 -18.64943,89.27267 -43.48136,142.53734 C 109.03287,527.74146 34.808827,505.22797 7.225339,490.77381 c 0,-113.68847 30.241625,-219.68277 82.410765,-308.98941 41.222366,1.74095 95.276836,35.30313 129.178706,86.79287 -19.09953,47.32844 -67.02244,117.7054 -186.961357,160.15068"/><path id="path574" style="fill:#ea1b29;fill-opacity:1;fill-rule:nonzero;stroke:none" d="m 299.86508,251.34863 c -5.57105,-23.05701 -8.25466,-45.73186 -8.3311,-66.07129 12.01682,6.40331 23.68546,13.68135 34.87002,21.89355 112.50801,82.65704 86.97121,191.35195 132.64362,200.04822 -15.93184,8.87462 -31.00595,13.89366 -45.39216,15.66858 -48.47492,-28.14399 -95.30231,-95.09 -113.79038,-171.53906"/></g></g></svg>