<svg height="344.23829" viewBox="0 0 200 236.75" width="290.496447" xmlns="http://www.w3.org/2000/svg"><g transform="matrix(.17841213 0 0 .17841213 -305.6071 -244.8461)"><path d="m1769.93 1480.36c133.5-65.61 324.53-108 512-108 198.32 0 368.82 50.83 501 114 33.38 126.33 51 242.13 51 378 0 454.02-314.84 723.34-557 835-309.09-141.27-564-435.68-564-848 0-141.75 22.62-264.73 57-371z" fill="#004890"/><path d="m1789.07 1499.37c72.53-36.01 251.31-103.93 490.7-103.93 215.8 0 387.48 64.7 479.53 110.11 36.26 137.33 48.81 242.2 48.81 358.8 0 469.4-341.53 715.16-534.27 802.5-194.5-83.42-539.56-335.61-539.56-816.1-.65-128.79 23.91-261.48 54.79-351.38z" fill="#fff"/><path d="m2273.49 2640.92c-232.4-106-518.01-358.53-518.01-783.97 0-141.48 28.53-263.76 53.03-337.23 107.91-50.76 274.72-99.28 471.38-99.28 165.19 0 335.8 45.6 460.03 105.6 21.86 92.23 46.55 204.04 46.55 338.77 0 467.97-337.39 694.41-512.98 776.11z" fill="#004890"/><path d="m1951.03 1515.84 17.24 62.35" fill="none" stroke="#fff" stroke-width="15"/><path d="m1998.58 1535.52-38.36 10.92" fill="none" stroke="#fff" stroke-width="13"/><path d="m1990.54 1504.63 17.24 62.35" fill="none" stroke="#fff" stroke-width="15"/><g fill="#ff0" stroke="#fff" transform="translate(1553.9278)"><path d="m466.22 1497.04 15.2 62.88" stroke-width="15"/><g stroke-width="13"><path d="m498.14 1496.11-27.32 6.52"/><path d="m510.25 1546.53-27.19 6.29"/><path d="m503.63 1519.98-27.32 6.52"/></g></g><path d="m2060.45 2462.32c-196.37-172.88-269.31-385.97-269.31-589.32 0-73.88 9.77-154.65 18.9-197.39 86.74-34.86 274.21-104.32 458.43-104.32 51.08 0 110.12 6.32 110.12 6.32 5.67 31.74 14.99 103.27 14.65 168.96 0 309.29-174.16 536.94-332.79 715.75z" fill="#fff"/><path d="m2554.8 2392.37c109.5-127.58 195.75-271.71 195.75-513.76 0-70.75-8.44-151.24-19.97-212.2-107.75-43.98-232.56-74.92-346.89-87.93 65.03 116.77 137.22 304.98 152.94 501.98 6.26 102.55 12.52 198.55 18.17 311.91z" fill="#fff"/><g stroke="#fff"><g fill="#ff0" transform="matrix(.99055156 .13714083 -.13714083 .99055156 1919.5527 -79.04876)"><path d="m466.22 1497.04 15.2 62.88" stroke-width="15"/><g stroke-width="13"><path d="m498.14 1496.11-27.32 6.52"/><path d="m510.25 1546.53-27.19 6.29"/><path d="m503.63 1519.98-27.32 6.52"/></g></g><path d="m2134.83 1477.11 9.45 60.72" fill="none" stroke-width="15"/><path d="m2158.16 1476.72-45.53 6.92" fill="none" stroke-width="13"/><g fill="#ff0" transform="matrix(.94209918 .33533436 -.33533436 .94209918 2434.6521 -97.611051)"><path d="m466.22 1497.04 15.2 62.88" stroke-width="15"/><g stroke-width="13"><path d="m498.14 1496.11-27.32 6.52"/><path d="m510.25 1546.53-27.19 6.29"/><path d="m503.63 1519.98-27.32 6.52"/></g></g><g fill="#ff0" transform="matrix(.96356961 .26745767 -.26745767 .96356961 2241.5483 -103.72999)"><path d="m466.22 1497.04 15.2 62.88" stroke-width="15"/><g stroke-width="13"><path d="m498.14 1496.11-27.32 6.52"/><path d="m503.63 1519.98-27.32 6.52"/></g></g><path d="m2341.3 1466.28-5.06 64.49" fill="none" stroke-width="15"/><g fill="#ff0" transform="matrix(.92869459 .37084545 -.37084545 .92869459 2547.1523 -87.283593)"><path d="m466.22 1497.04 15.2 62.88" stroke-width="15"/><path d="m508.35 1546.82-25.3 6" stroke-width="13"/></g><g fill="#ff0" transform="matrix(.88320229 .46899224 -.46899224 .88320229 2858.7506 -35.95599)"><path d="m466.22 1497.04 15.2 62.88" stroke-width="15"/><g stroke-width="13"><path d="m498.14 1496.11-27.32 6.52"/><path d="m503.63 1519.98-27.32 6.52"/></g></g></g><path d="m2089.52 1480.53c-8.84 0-24.59 4.01-24.59 21.16.05 8.33 5.34 12.42 12.58 15.69 8.66 3.67 21.96 3.78 21.96 12.03 0 5.21-6.66 7.06-10.6 7.06-5.65-.04-10.93-4.65-10.93-4.65l-6.83 10.55s3.62 6.4 17.28 6.69c13.11 0 24.9-7.41 24.9-20.77 0-26-33.73-15.63-33.73-28.17 0-6.83 6.34-7.38 8.99-7.38 4.46 0 7.98 3.77 7.98 3.77l7.45-9.79s-6.06-6.19-14.47-6.19z" fill="#fff"/><g transform="matrix(.97586483 .21837544 -.21837544 .97586483 2104.3382 -99.219108)"><path d="m466.22 1497.04 15.2 62.88" fill="none" stroke="#fff" stroke-width="15"/><path d="m490.03 1492.75c-3.22-.17-6.92.26-11.22 1.22l-.06.03h-.06l-5.37 1.34 2.75 11.11 5.83-1.3c4.8-1.07 8.4-.21 9.82 6.13 1.37 5.63-2.88 7.96-6.57 8.78l-11.76 2.8 2.41 10.75c5.22-1.17 12.75-2.54 19.28-6.03 3.27-1.75 6.43-4.13 8.53-7.66s2.8-8.13 1.75-12.81c-.86-3.83-2.27-8.82-7-11.87-2.36-1.53-5.09-2.33-8.31-2.5z" fill="#fff"/></g><path d="m2240.09 1500.25 16.16 27.23 17.53-.5-19.25-29.81z" fill="#fff"/><path d="m2471.9 1483.31-12.52 63.47" fill="none" stroke="#fff" stroke-width="15"/><path d="m2478.18 1484.56-2.36 12.71c17.78 3.23 26 6.83 23.42 23.35-3.59 20.27-14.86 18.42-30.56 15.31l-2.5 12.19c8.59 2 18.35 3.79 27.69 1s17.24-11.22 19.84-25.19l.03-.03v-.06c1.87-11.23-.7-21.06-7.41-27.66-6.7-6.59-16.4-9.86-28.16-11.62z" fill="#fff"/><path d="m1920.14 1592.99c-23.11 0-34.27-16.81-34.27-34.55 0-22.17 19.06-34.05 38.36-34.05 4.38 0 7.51.75 7.51.75l4.02 14.51s-6.66-3.12-12.61-3.12c-13.67 0-22.27 11-22.27 20.54 0 13.58 9.42 22.34 19.29 22.34 10.76 0 17.58-5.76 23.59-14.37l4.67 15.09s-9.36 12.86-28.3 12.86z" fill="#fff"/><path d="m2611.83 1584.14c-19.1-13.02-18.85-33.19-8.85-47.85 12.49-18.32 34.93-17.4 50.87-6.53 3.62 2.47 5.78 4.85 5.78 4.85l-4.85 14.26s-3.74-6.33-8.66-9.68c-11.3-7.7-24.6-3.45-29.97 4.43-7.65 11.22-4.79 23.77 3.36 29.33 8.89 6.06 17.77 5.14 27.59 1.42l-4.64 15.1s-14.98 5.35-30.63-5.32z" fill="#fff"/><path d="m2113.66 2470.95c163.16-198.02 288.78-420.01 288.78-714.47 0-81.29-14.07-159.9-14.07-159.9s44.48 158.35 41.65 310.45c0 60.63-8.47 106.42-30.01 186.03-18.09 70.99-43.97 158.07-64.23 210.37-10.31 27.01-29.69 44.92-57.47 71.83-39.28 39.07-109.07 75.18-164.65 95.68z" fill="#aa0736"/><path d="m2420.88 2340.4c9.64 0 12.66-11.39 14.12-21.42 8.03-53.77 21.13-127.97 29.77-203.38 0 0 4.88-41.77 4.88-89.4 0-220.48-81.27-429.52-81.27-429.52s51.61 155.68 51.61 331.18c0 93.26-31.42 232.25-51.61 321.02 0 0-5.69 18.89-5.69 31.49 0 41.94 29.61 60.02 38.2 60.02z" fill="#ee3e41"/><path d="m2388.47 1596.88c50.69 108.48 86.25 207.69 111.8 347.25 17.82 95.27 16.71 193.17 16.71 280.77 0 98.39-2.99 178.59-2.99 178.59l-39.72-26.29c-20.47-14.34-15.08-26.29-13.22-54.38 2.97-49.32 24.42-186.28 24.42-274.41 0-161.06-45.57-310.37-97.01-451.54z" fill="#ee3e41"/><g transform="translate(-1446.0322 -39.796413)"><g fill="#004890"><path d="m3542.43 1865.32c21.89 18.46 31.5 37.8 31.5 37.8l-36.42 36.01s-6.89-18.83-25.06-35.06z" stroke="#ed3f41" stroke-width="7.5"/><path d="m3419.88 1835.67c9.54-2.18 19.51-3.35 29.8-3.35 45.68 0 77.18 18.62 97.03 36.76l-33.99 35.24c-13.76-12.4-34.06-23.34-62.84-23.34-10.43 0-20.55 1.76-30 5.08l-.01-50.39z" stroke="#ed3f41" stroke-width="7.5"/><path d="m3512.4 1975.73-48.34-2.44c0-71.62 59.31-139.23 137.8-139.23 89.07 0 124.24 70.8 124.24 70.8l-36.42 36.01s-21.29-58.16-87.62-58.16c-48.23 0-89.66 37.63-89.66 93.02z" stroke="#ed3f41" stroke-width="7.5"/><path d="m3549.13 2048.67c15.37 11.55 34.46 18.43 55.07 18.43 60 0 83.46-51.89 83.46-51.89l34.94 34.89s-35.29 65.13-118.44 65.13c-33.32 0-66.87-12.64-92.78-35.35 9.52-13.26 25.3-41.78 37.74-31.21z" stroke="#ed3f41" stroke-width="7.5"/><path d="m3512.4 1975.73c0 26.99 11.98 51.41 30.91 68.19l-37.77 30.53c-24.96-24.51-41.49-59.12-41.49-101.17z" stroke="#ed3f41" stroke-width="7.5"/><path d="m3388.34 1909.84c-13.03 14.28-26.19 31.43-26.19 65.88 0 50.14 41.32 91.37 91.8 91.37 60 0 83.46-51.89 83.46-51.89l34.94 34.89s-35.29 65.13-118.44 65.13c-69.58 0-140.11-55.1-140.11-141.95 0-69.56 47.74-110.91 77.51-124.42"/><path d="m3389.75 2211.6v-219.49h-38.22v-51.47h38.22v-184.5h247.03v51.22h-196.06v133.28h165.5v51.47h-165.5v219.49z" stroke="#ed3f41" stroke-width="7.5"/><path d="m3343.47 2014.95-8.91-87.93 35.92 6.32-8.62 34.77 2.01 31.89z"/><path d="m3380.25 2094.83 2.3-62.07 18.96 18.39 22.99 11.78 29.6 4.6 6.03 47.7h-25.29z"/></g><path d="m3389.77 1908.62c-13.03 14.28-27.62 32.65-27.62 67.11 0 50.14 41.32 91.37 91.8 91.37 60 0 83.46-51.89 83.46-51.89l34.94 34.89s-35.29 65.13-118.44 65.13c-69.58 0-140.11-55.1-140.11-141.95 0-69.56 47.74-110.91 77.51-124.42" fill="none" stroke="#ed3f41" stroke-width="7.5"/></g></g></svg>