<svg xmlns="http://www.w3.org/2000/svg" viewBox="24.45 45.13 407.49 476.74" width="292.3624342974211" height="342.0412073128032"><!-- Source: https://football-logos.cc --><path d="M97.784 312.996q-146.676-469.494 0 0M91.046 79.479l.615 233.533c.133 50.304 15.384 87.776 67.378 102.453 26.559 8.32 56.892 21.814 68.563 49.056l5.628 13.138 5.628-13.138c11.67-27.241 42.015-40.737 68.572-49.056 51.994-14.677 67.245-52.149 67.378-102.453l.615-233.533-69.988-.075c-11.876-.013-24.446-1.565-35.736-5.291-11.866-3.918-23.1-12.081-32.483-20.157l-3.994-3.438-3.994 3.438c-9.377 8.07-20.598 16.242-32.458 20.157-11.29 3.726-23.86 5.279-35.736 5.291z" style="fill:#fff;fill-opacity:1;fill-rule:evenodd" data-source="https://football-logos.cc"/><path d="M290.052 117.393c1.125.05 2.832.007 3.75-.206 2.456-2.097 4.448-4.48 6.47-7.332.513-.725.934-1.345 1.199-2.025 1.538-3.944-.465-4.757-3.525-4.275-2.866.452-5.058 1.744-6.6 3.525-2.554 2.951-1.896 6.852-1.294 10.313" style="fill:#fff;fill-rule:evenodd"/><path d="M293.127 113.697c-.635-2.093-.418-3.764.675-5.025 1.31-1.513 2.96-1.721 4.65-1.5-1.387 2.744-3.189 4.88-5.325 6.525M267.907 112.2c-.705.13-.734.712-.713 1.238.09 2.22.224 4.393 1.613 5.887.232.25.517.2.787-.262 1.15-1.963 2.374-3.885 3.45-5.888.298-.554-.17-.673-.712-.788-1.475-.311-2.968-.455-4.425-.187M276.022 114.205c.54-.653.75-.918 1.688.075s1.597 2.5 1.95 3.75l.374 2.475.15 3.337c-2.92.631-5.928.509-9.15-1.462 1.387-2.91 2.943-5.703 4.988-8.175" style="fill:#294b8b;fill-rule:evenodd"/><path d="M278.04 139.868c-.209-1.488.186-2.63 1.05-3.675 1.449-1.751 2.898-3.51 4.988-4.687 1.283-.723 2.605-.5 3.45.824 1.374 2.152 1.221 6.061-.675 8.775-6.315 9.042-13.873 17.753-21.824 26.4-1.816 1.975-3.237 4.468-3.976 7.801-.525 2.372-.792 4.749-1.612 6.881-.51 1.326-1.491 2.438-1.387 3.844.16 2.155-.313 4.022-1.388 5.4-1.46 1.872-2.725 1.667-4.238 1.725-1.317.05-2.082-.533-2.55-1.575-1.455-3.247-1.5-6.328.375-9.15.936-1.409 1.79-2.75 1.575-4.575-.309-2.62-.303-5.156 1.726-6.975 4.857-6.163 10.369-12.057 16.425-18.225 1.024-1.044 1.6-2.45 2.4-3.675.377-1.786 1.011-3.263 2.325-3.975 1.995-1.082 3.717-2.43 3.337-5.138" style="fill:#fff;fill-rule:evenodd"/><path d="M284.209 135.577c.731-.88 1.055-.03 1.054.365 0 .707-1.158 3.9-2.229 5.477-3.523 5.188-6.717 8.585-7.446 9.75-3.2 5.11-8.635 10.541-13.275 15.524-2.279 2.448-3.428 5.485-4.275 8.4-.15.925-.394 1.855-.778 2.69-.284.62-.252 1.323-.497 1.96-.255.664-.447 1.351-.675 2.025-.222.657-.788.518-.9 1.125-.115.626-.463 1.255-.375 1.875.299 2.112.119 3.715-.675 4.5-.676.67-1.4.906-1.576-.597-.183-1.57-.068-3.029.525-4.5.65-1.61 1.62-3.099 2.026-4.8.325-1.368.126-3.581.313-5.013.025-.925.656-.924.886-1.887.175-.73 4.644-5.493 6.826-8.325l9.975-10.95c.906-.981 1.57-2.131 2.1-3.45.402-1.005.937-1.99 1.875-2.85.902-.829 2.102-1.472 2.85-2.325.76-.867 1.658-1.983 1.5-3.225-.231-1.807.253-3.35 1.453-4.524.42-.41.942-.794 1.318-1.245M242.584 205.37c.699.038 1.051.659.764 1.208-.297.566-.428 1.061-.455 1.589-.105 1.063-.078 1.788-.128 3.621-.031 1.127-.668 2.012-.668 3.492 0 1.212-.597 2.828-1.05 3.3-2.108 1.893-4.075 3.839-5.775 5.888-.54.65-.523 1.269-.629 1.952-.51 3.302-.297 5.116 2.934 7.22 1.687 1.098 11.496 3.742 17.325 5.174 3.41.839 5.07 3.645 3.9 5.4-2.02 3.03-3.7 6.25-5.55 9.376-2.499 4.15-3.486 7.21-2.4 8.85 1.31 1.978 2.726 3.05 4.707 3.244.883.087 1.119.205 1.774.007.458-.138 1.198.395.5 1.217-1.014 1.19-1.146 2.19-1.75 3.277-.37.667-1.267.977-1.95.3-1.496-1.487-2.616-3.1-3.993-4.67-.455-.518-1.012-1.056-.994-1.818.045-1.892-.11-3.88.713-5.663 1.264-2.74 3.038-5.544 4.387-8.4.48-1.015.712-2.13 1.088-3.188.417-1.175.813-2.425-.62-3.13-2.563-1.264-6.56-2.586-11.006-3.77-1.167-.311-2.336-.806-3.3-1.5-.929-.668-1.94-1.242-2.774-2.025-.778-.73-1.358-1.644-2.026-2.475-1.882-2.344-3.75-4.7-5.625-7.05 2.6-2.125 5.153-4.31 7.8-6.375 1.183-.922 1.776-2.065 1.8-3.525.054-3.25-.332-6.466.15-9.75.128-.868.677-1.3 1.5-1.575.658-.22.868-.226 1.351-.2z" style="fill:#294b8b;fill-rule:evenodd"/><path d="M264.615 110.349c-.75 7.454 1.262 10.95 4.387 14.489.844.955-1.68 2.322-2.55 1.64-11.136-8.723-15.513-15.05-16.8-15.6-3.78-1.654-4.313-3.82-8.209-3.635-.788.137-.953 2.528.034 2.473s1.798.048 3.281 1.013c3.606 2.346 13.49 14.053 21.094 19.05-1.913 1.723-4.15 2.52-6.862 2.643.063.899-.12 1.329-.516 1.861-3.297-1.288-5.37-3.032-7.472-6.154-1.268-1.883-2.168-4.025-2.1-6.9-1.55-1.15-2.856-2.656-4.406-3.806-3.338-3.373-5.154-5.846-5.11-8.71.042-2.702 1.443-3.748 4.716-3.834 3.18-.084 6.175.358 9.3 2.7 2.064-1.631 4.656-2.7 7.35-3.9 1.503-.67 3.741-1.302 6.3-1.35 3.2-.06 6.4.1 9.6.15 1.364-3.839 3.955-5.747 8.325-5.025 3.48.574 3.689 2.495 3.825 5.925.05 1.258 1.643.73 2.25-.6.47-1.028 1.582-1.005 2.625-1.425 1.45-.585 3.087-1.357 4.35-2.325 2.02-1.549 3.705-3.604 6.6-3.6 2.953.004 5.765 2.49 3.525 6.3-1.152 1.96-1.75 3.816-2.025 5.775-1.07 7.618-3.972 13.1-8.625 16.35-1.381.965-2.627 1.549-4.725 1.65-.69.033-.838 1.504 0 1.8 1.33.47.856 2.553.938 3.938.568 9.608-2.33 16.663-7.95 22.5-7.767 8.068-13.783 16.684-18.15 25.8-11.01 22.98-9.897 42.148 6.15 53.4 8.523 5.977 13.126 13.895 17.85 22.65 3.052 5.658 6.825 11.997 13.5 11.7 3.227-.143 5.373-1.645 5.25-5.85-.106-3.586-1.036-12.409-5.1-21.3-2.966-6.485-5.7-12.7-8.55-19.05-7.002-17.507 2.138-30.802 11.1-46.5a20.5 20.5 0 0 0 2.7-10.5c-.066-4.187-.027-8.323 1.2-12.45.635-2.137 3.726-5.912 6.3-5.55 3.985.56 4.138 5.63 3.3 12-.257 1.95-.09 2.084 1.35 1.95 2.407-.224 2.07 4.095 1.95 6.75-.067 1.462.513 1.486 2.25 1.5 2.254.019 3.014 5.816 2.7 9.6-.135 1.614-.6 3.131-1.8 4.35-3.894 3.952-7.265 8.187-10.5 12.45-2.002 2.638-.15 3.316.9 1.875 2.91-3.991 4.688-7.014 9.3-10.303 3.693-2.634 4.937 1.056 5.85 4.828.267 6.846-3.08 13.388-10.416 19.716-3.382 2.917-7.982 6.732-8.906 9.03-.509 1.266.21 2.225 1.022 1.423 1.65-1.5 2.892-3.139 4.8-4.668 1.624-1.303 3.397-2.26 3.9.278.431 2.169-.124 4.766-.732 6.21-.286.678-.512 1.411-.018 2.361.756-.25 1.284-2.67 2.1-3.9 1.124-1.694 2.513-1.985 3.9.6 1.45 3.025 1.279 6.882.3 11.1-.308 1.327 1.147 1.477 1.484.308 1.055-3.656 2.8-6.316 5.116-9.158.676-.83 1.498-1.448 2.4.657 1.003 2.342 2.506 6.51 2.25 10.593-.34 5.403-6.317 15.796-10.95 22.2-1.833 2.534-2.201 4.626-2.25 7.05-.079 3.906-.377 7.977-.45 11.701-.1 5.118-6.086 10.156-17.7 9.6-7.091-.34-9.497-1.806-13.408-1.227-2.122.313-3.306 2.14-3.918 3.027-6.021 8.73-9.184 17.234-10.124 27.15-.406 2.178-.128 3.8 1.05 5.4 2.27 3.081 4.634 6.95 3.9 10.65-.398 2.004-1.496 3.803-2.25 5.7-2.845 7.152-3.3 14.9-4.95 22.35-1.564 5.88-3.304 11.134-8.12 15.32-2.434 2.115-5.167 3.85-8.98 4.03.256 2.6.222 5.19-.15 7.8-.297 2.079-2.395 3.035-3.788 2.25-1.88-1.057-2.288-2.023-3.075-4.717-.306-1.048-2.08-1.368-2.47-.132-.59 1.87-.844 2.912-2.367 4.7-1.095 1.284-3.692.605-4.05-.6-.67-2.248-.602-5.436-2.152-4.111-1.667 2.007-3.282 3.405-5.348 4.41-2.241 1.09-3.842.561-3.75-2.25.101-3.133 2.217-6.014 5.7-8.1 1.499-.897 1.796-1.67.45-3-.73-.72-1.5-1.4-2.25-2.1-.776-.624-.94-2.028-.103-3.178 7.255-9.236 13.745-1.601 18.552-1.621 3.264-7.2 5.771-14.404 7.05-21.6 1.31-7.366 3.69-9.573 6.45-14.1 1.466-2.406 1.818-4.776-.45-7.05-2.697-2.706-5.6-5.2-8.4-7.8-1.635-1.783-3.138-3.613-3.356-6.507-.277-3.68-.593-9.007-1.294-11.044-4.769-13.113-1.885-18.013-4.574-20.552-.27-.255-.041-.728.375-1.05.55-.447 1.024.1 1.537.15 3.6-9.413 9.576-14.576 9.9-16.201.314-1.572-1.383-3.158-3.15-1.65-2.067 1.765-3.846 2.367-5.977 1.856-3.405-.817-3.195-3.14-1.748-5.681 2.007-3.527 5.049-6.617 7.275-10.125 2.38-3.752 2.324-7.47-4.275-10.275-7.132-3.032-13.75-2.525-18.375-5.925-4.159-3.329.916-6.733 4.125-9.45 2.084-1.764 2.864-4.624 2.85-8.55-.009-2.792.107-5.449 2.11-7.903 1.222-1.499 3.047-3.06 5.69-4.548 1.087-.61 1.471-1.565.9-2.625-.556-1.03-1.59-.982-2.625-.224-3.997 2.927-7.962 4.92-9 5.174-3.749.918-5.597 2.43-6 4.5-.69 3.542-.244 6.836-.075 10.2.037.736-.23 1.41-.825 1.876-3.317 2.6-6.737 5.068-10.125 7.575-.656.485-.453.798 0 .9 1.001.225 1.572.775.825 1.275a41 41 0 0 0-4.95 5.025c-1.275 1.587-4.892 1.542-5.963-.187-1.755-2.835-.472-5.782-1.537-6.863-.607-.653-1.422-1.033-1.95-.15-.61 1.02-1.116 1.977-2.1 2.55-2.96 1.723-4.748.666-5.55-2.55-1.01-4.047-.83-9.712.47-15.575-4.158-1.927-7.014-4.246-10.22-8.275-.874-1.098-1.94-.615-3.15.15-3.22 2.035-5.69.453-6.6-4.05-.89-4.395-1.92-9.221-4.876-15.376-1.265-2.635-2.905-3.494-5.25-3.675-2.798-.217-5.031-1.357-7.2-2.85-1.556-1.072-1.548-2.514-.15-4.2 1.812-2.185 4.236-3.153 6.937-4.219.92-.363 1.675-.724 2.963-.731.626-.003.712.762.825 1.425.21 1.232 1.758 1.472 3 1.425.866-.033 1.449-.486 2.475-1.575 2.23-2.368 3.967-5.894 5.738-10.314.552-1.377 1.749-1.334 2.4 0 2.88 5.899 2.08 12.555.9 19.2-.137.774.606 1.244 1.05 1.5 1.436-2.32 3.015-4.428 4.65-6.45.685 2.406 2.797 3.904 5.086 4.408 2.721.598 3.478 1.724 4.364 4.592 1.28-1.47.916-4.259.9-7.35-.044-8.47 3.61-17.153 13.2-19.575.787-.199 1.375-.4.825-1.5-.533-1.777-2.69-4.945-2.55-8.475.086-2.19 1.1-4.213 2.7-6.225.503-.632 1.177-.573 1.725.075 2.08 2.462 5.167 5.868 8.719 5.756.805-.025 1.666-.236 1.931-1.556.266-1.327.326-2.98 0-4.8-.173-.968.238-2.3 1.425-2.325 4.912.035 8.192 2.143 9.825 7.425.157.508 1.031.538 1.125-.075.194-1.272.163-2.725.975-3.75.79.669.553 1.825 1.05 2.625.875 1.408 2.431 1.917 4.275.9 2.38-1.313 4.288-3.788 5.195-7.83 5.088.573 9.26-2.538 11.68-7.171.542-1.037.421-2.058 1.838-2.663.5.276.897 1.096 1.463 1.088 2.7-.041 5.4-.034 8.1-.075.571-.008.831-.766.9-1.65.366-4.694.251-9.509-3.825-12.975-3.341-2.841-8.53-2.412-13.5-2.325-.713.012-1.056.279-1.126.975" style="fill:#294b8b;fill-rule:evenodd"/><path d="M241.887 164.076a1.356 1.356 0 0 1 1.052 2.498c-6.709 2.844-12.685 5.483-16.92 8.882-4.057 3.255-6.537 7.264-6.551 12.969q0 .05-.004.1h.004c-.357 4.7-1.68 8.698-3.728 12.317-2.022 3.573-4.744 6.75-7.931 9.855a1.357 1.357 0 0 1-1.892-1.945c3.018-2.94 5.583-5.928 7.463-9.25 1.855-3.276 3.053-6.905 3.377-11.178h.001c.045-6.617 2.902-11.245 7.56-14.983 4.503-3.614 10.664-6.338 17.569-9.265M283.924 260.879c-.016-1.486 1.612-1.505 2.55-.45 3.207 3.61 5.712 7.775 6.6 12 .412 2.712-1.725 4.412-3.6 6.45-6.026 7.634-12.424 15.071-12.9 24.75-.204 4.125.403 8.732 1.912 12.675.855 2.233-2.03 3.912-3.174.988-2.018-5.157-3.212-9.412-4.139-14.413-.435-2.35.583-9.024 2.1-13.2 2.41-6.632 5.944-12.988 9.45-19.2 1.083-1.918 1.538-3.86 1.35-6.15-.05-1.15-.138-2.3-.15-3.45" style="fill:#fff;fill-rule:evenodd"/><path d="M274.407 298.198c1.356-5.97 8.947-16.698 15.382-24.642.26-2.461-.497-4.578-2.025-6.45-.562-.69-.911-.653-.975.15-.125 1.573-.177 3.152-.975 4.575-4.207 6.848-8.422 13.766-10.725 21-.472 1.485-.802 3.133-.682 5.367M186.162 158.83c-1.35-2.512-1.231-5.59-1.35-8.55-.119-2.954-.4-5.9-.6-8.85 3.35-6.5 6.64-13.031 10.049-19.5.678-1.288.662-2.395 0-3.45-.97-1.645-2.449-3.805-4.556-4.819-.182 1.975 1.006 4.025.806 5.869-.213 1.825-.73 3.237-1.65 4.8-2.66 4.511-6.138 12.063-7.65 13.8-.537-1.9-1.69-5.947-1.86-10.832-.16-4.619-1.863-7.934-2.19-13.318-.046-.744-.7-1.45-1.35-2.4-1.936-2.827-5.681-4.297-6.7-4.164-1.054.137-.977-1.202-3.547-1.227.878.903 1.184 2.134 1.884 3.01 1.612 2.68 2.151 6.556.77 7.893-4.069 3.94-6.498 6.328-3.207 9.488 1.803 1.733 3.773 3.343 4.95 4.95 1.595 2.178 1.486 3.303-1.65 3.6-2.412.228-4.953-1.544-7.426-2.625-1.352-.59-2.13-1.17-3.6-1.125-2.51.08-4.241-1.506-6.75-1.65-3.617-.208-5.6.852-6.3 3.45l1.275.487c2.806-.446 4.682.44 6.262 2.4 1.79 2.222 3.75 4.191 5.287 6.489 1.768.101 3.404.195 5.776-.976 1.832-.904 3.526-1.212 5.25-.824 2.915.656 2.716 3.463 1.424 4.425-1.422 1.058-2.812.63-3.318 1.105-1.256.938-.468 2.348-1.181 3.245-.478.599-.744 1.202-.75 1.95-.028 3.02.205 6.297-1.5 7.725-2.523 2.113-4.677 2.291-5.616 4.2-.367.746-.436 1.244.563 1.332 1.828.16 3.7.394 5.128-.357 1.428-.75 2.31-.583 3.468-.543.39.013.903-.302 1.257-.807 2.836-4.042 4.457-8.166 5.025-12.675.11-.868.764-1.75 1.65-2.625 1.407 1.84 2.68 3.78 2.925 6.225.544 5.438 1.773 6.783 2.27 8.813.317 1.297-.358 4.585 2.08 4.912 2.305-2.9 3.847-5.85 4.652-8.85M226.747 279.49c.4-.185 1.256-.903 1.92-.374.746.593 2.836 1.65 3.357 2.831.222.502-.4 1.022-.975 1.003-.73-.024-3.684-2.472-4.303-3.46M231.172 278.14c.4-.185 1.257-.903 1.92-.374.746.593 2.836 1.65 3.357 2.831.222.502-.4 1.022-.974 1.003-.731-.024-3.685-2.472-4.303-3.46M230.758 266.237c1.057 2.687 1.768 5.312 1.725 7.8-.014.623.295.826 1.05 1.05 2.027.601 3.69 1.731 4.8 3.074.556.62 1.042.999 1.561.661.762-.287.94-1.779 1.664-2.31.619-.294.506-1.376 0-2.175-.844-1.463-1.448-3.538-2.025-4.95-.42-1.027-.581-2.107-1.8-2.176-1.385-.151-2.773-.554-4.2-1.575-1.277-1.007-2.198-.792-2.775.6M228.217 284.091c-.427.705-.987 1.046-1.613 1.2-.498.147-.593.209-.263 1.013 1.147 2.795.104 5.033-1.425 6.825-2.064 1.605-2.296 3.542-2.385 5.546-.09 2.027.079 3.542.438 5.434.109.695.757.553.783.195.13-2.015.221-4.293.788-5.362.793-1.5 2.3-2.952 3.487-3.225s1.957.114 2.625 1.725c1.47-1.213 1.396-3.51 1.725-5.55.127-.782-.195-1.517-.525-2.213a37 37 0 0 0-2.4-4.275c-.328-.504-.823-.875-1.235-1.313" style="fill:#294b8b;fill-rule:evenodd"/><path d="M244.43 267.594c.137-.542.65-.44 1.2.526.41.718.905 1.421 1.05 2.25.093.522.164 1.048.226 1.575.087.748.328 1.143.675 1.35 1.426.849 2.43 2.148 5.015 1.833 1.013-.138 1.753-1.17.46-1.984-1.603-.934-7.425-5.024-6.788-10.762.531-4.78 3.164-10.308 5.943-15.226.263-.519.693-1.27.107-1.772-.483-.413-.963-.853-1.762-.993-.749-.132-1.858-.736-2.376.103-.483.782-.895 1.258-1.8 1.125-5.907-.402-11.731.192-17.55.15-8.872-.064-13.217 3.38-13.875 10.875-2.292 12.403-2.49 25.04-2.925 37.65-.64 3.283-3.298 4.158-6.525 3.826-5.475-.564-10.604-1.998-16.35-2.325-2.156-.123-5.721-2.537-6.225-5.775-.58-3.733-5.12-8.8-6.863-9.6-2.017-.926-2.567.635-2.374 2.332.246 2.16 1.168 4.102 2.187 6.068.725 1.362-.294 2.353-1.2 1.275-1.899-2.26-4.126-2.853-6.975-2.775-2.278.062-4.438 1.168-6.6 1.5-1.3.137-1.345 1.559-.3 1.875 4.947 1.498 11.266 2.572 11.175 6.374-.074 3.069-5.69 3.21-9.75 3.6-1.838.226-2.419 1.82-1.144 2.1 1.325.4 2.635.214 4.05.244 2.274.05 4.5.135 4.894 2.157.314 1.613-1.259 2.137-1.913 3.309-1.778 3.187-2.038 5.945-.676 8.618.321.706.69.868 1.275.374 3.816-3.428 7.433-7.003 10.65-11.231.569-.713.93-1.181 1.931-1.256 1.72 0 3.156.43 4.275 2.549.444.781.626 1.9 1.576 1.95 1.356-.012 2.999-1.53 4.218-2.437 1.805-1.343 7.948-.417 11.438 1.874 3.052 2.004 15.554 4.988 19.463 5.025 1.368.075 2.09-.331 2.4-.9 2.186-4.035 3.443-8.526 4.05-13.05.151-1.126-.948-1.424-1.238-.226a78 78 0 0 1-2.4 8.1c-.451 1.261-1.199 2.08-2.212 2.138-1.483.084-2.376-1.51-2.944-3.338-1.32-4.25-.8-11.52 1.782-14.776 1.01-1.275 3.285-2.097 1.5-4.596-1.084-1.518-1.195-2.65.45-3.75 1.007-.673 2.163-1.23.863-2.363-2.458-.71-4.693-2.651-1.838-3.487 1.863-1.324 4.1-1.9 6.863-1.425-.039-2.351-.697-4.744-1.462-7.352-1.131-3.861-1.046-7.736 3.975-7.05 4.614.63 9.184 2.08 10.35 6.337.019.84.466 1.236 1.125 1.125.522-.087.68-.866.9-1.738" style="fill:#294b8b;fill-rule:evenodd"/><path d="m177.388 318.801 1.313-1.831a36 36 0 0 0-5.31 2.47zm2.976-2.4-2.005 2.795 4.54 4.065 16.763-.017 4.095-3.728-2.785-3.44a36 36 0 0 0-8.025-1.293l-.063-.003-.08-.004h-.013l-.065-.004-.317-.011-.08-.003h-.01l-.069-.002-.08-.002h-.008l-.15-.004h-.007l-.072-.002-.08-.001h-.006l-.073-.001-.08-.001h-.004l-.076-.001h-.083l-.076-.002h-.508l-.086.002h-.092l-.084.001h-.004l-.09.001-.082.002h-.006l-.09.002-.08.002h-.008l-.088.002-.08.002h-.008l-.09.004-.078.003q-.264.008-.526.02l-.014.001c-3.147.152-6.189.709-9.074 1.617zm26.156 67.174-2.47.192-.915 1.188a36 36 0 0 0 3.385-1.38m-2.541-.825 4.885-.38a36.25 36.25 0 0 0 14.393-14.843l-.275-4.38-5.594-3.14-12.237 6.425c-.323 2.305-.937 4.512-1.774 6.643-.818 2.085-1.853 4.104-3.036 6.073zm-2.552 2.755 1.682-2.183-3.624-3.59-16.515-.219-3.322 3.665.276 1.99a36 36 0 0 0 9.27 1.746l.057.003.126.007.06.003.305.013.066.003.094.004.024.001.069.002.093.003h.021l.166.006h.017l.17.004h.014l.08.002h.094l.01.001.084.001.094.001h.007l.086.001h.098l.09.001h.345l.081-.001h.003l.084-.001.08-.001h.003l.084-.001.078-.001h.006l.083-.001.077-.002h.006l.026-.001.133-.003h.008l.083-.002.074-.002h.01l.082-.003.073-.003h.01l.083-.003.166-.007.07-.003h.013l.083-.005.069-.003.096-.005.068-.004h.015a36 36 0 0 0 8.216-1.411zm-27.631-3.006 5.09.007 3.214-3.546a28.8 28.8 0 0 1-3.167-6.08 26.4 26.4 0 0 1-1.53-6.474 41 41 0 0 1-6.195-2.816 45 45 0 0 1-5.71-3.8l-6.077 3.796-.29 3.866a36.244 36.244 0 0 0 14.665 15.048zm4.872 1.022-2.88-.004q1.492.707 3.057 1.278zm-20.421-17.902.158-2.109-1.459-1.226q.57 1.707 1.3 3.335m65.752-2.528.162 2.574a36 36 0 0 0 1.42-3.682zm-45.571 3.325q.35 3.15 1.457 6.109 1.152 3.082 3.133 5.972l16.395.218c1.177-1.95 2.205-3.946 3.015-6.01.799-2.034 1.387-4.13 1.701-6.305l-12.909-6.257zm-12.723-21.66.22 14.078a44 44 0 0 0 5.778 3.866 40 40 0 0 0 6.244 2.82l12.767-6.26.141-15.616-12.912-7.186a38.4 38.4 0 0 0-6.38 3.432 36.7 36.7 0 0 0-5.68 4.686zm-.795 14.2-.227-14.554.14-.002c-1.011-.574-2.08-1.12-3.148-1.666-1.128-.577-2.258-1.156-3.326-1.767l-2.399 2.066a36 36 0 0 0-.82 6.319l-.001.039-.002.063-.001.023-.002.04-.003.084-.002.043-.002.063v.02l-.001.044-.002.063v.017l-.002.047v.064l-.001.014-.001.05-.001.063v.013l-.001.05-.001.064v.011l-.001.053-.001.064v.064l-.001.064v.007l-.001.057v.068l-.001.123v.366l.001.075v.083l.002.074v.083l.002.073v.084l.002.071v.008l.002.079.002.069v.01l.004.145v.011l.005.145v.012l.003.078.01.22v.015l.003.078a36 36 0 0 0 1.266 7.993l2.572 2.164zm26.961-15.31-.14 15.614 12.943 6.273 12.213-6.413-.077-14.549c-1.726-1.703-3.632-3.199-5.676-4.53-2.042-1.33-4.223-2.5-6.505-3.55zm25.956 1 .076 14.481 5.54 3.112 2.606-1.824a36 36 0 0 0 1.246-7.996v-.02l.007-.154.002-.06.003-.077v-.016l.007-.218.002-.078v-.012l.002-.066.002-.078v-.01l.001-.068.001-.079v-.009l.002-.07v-.085l.002-.072v-.156l.001-.079v-.48l-.001-.059v-.006l-.001-.064v-.056l-.001-.009v-.065l-.002-.053v-.075l-.002-.052v-.013l-.001-.064-.001-.05-.002-.079-.001-.047v-.017l-.004-.11v-.018l-.002-.064-.002-.044v-.02l-.008-.192-.002-.04-.005-.127v-.025a36 36 0 0 0-.832-6.237l-2.106-1.851a52 52 0 0 0-3.34 1.701c-1.085.599-2.14 1.22-3.186 1.848zm7.135-4.373 1.062.934a36 36 0 0 0-.963-2.97zm-68.59 1.054 1.415-1.219.063-3.098a36 36 0 0 0-1.479 4.317m48.338-22.25 4.23.307a36 36 0 0 0-6.226-2.771zm6.144 1.468-6.219-.452-4.115 3.748a33.3 33.3 0 0 1 2.788 5.55v.002a34 34 0 0 1 1.75 6.177c2.325 1.07 4.548 2.261 6.63 3.617 2.05 1.336 3.965 2.832 5.705 4.53a100 100 0 0 1 3.128-1.813 53 53 0 0 1 3.428-1.744l.201-4.138a36.273 36.273 0 0 0-13.296-15.477zm-6.817 15.11a32.289 32.289 0 0 0-4.457-11.394l-16.595.016a35.4 35.4 0 0 0-2.865 5.61 42 42 0 0 0-1.815 5.608l13.06 7.267zm-26.822.007a43.5 43.5 0 0 1 1.96-6.158 36.5 36.5 0 0 1 2.869-5.644l-4.523-4.05-6.38 1.02a36.3 36.3 0 0 0-12.227 13.857l-.109 5.37c1.066.613 2.2 1.193 3.333 1.772 1.12.573 2.24 1.146 3.301 1.752a37.6 37.6 0 0 1 5.558-4.537 39.4 39.4 0 0 1 6.218-3.382m-13.462-12.267c7.028-7.027 16.737-11.374 27.461-11.374s20.433 4.347 27.46 11.374 11.375 16.737 11.375 27.46c0 10.725-4.347 20.434-11.374 27.461-7.028 7.028-16.737 11.375-27.461 11.375s-20.433-4.347-27.46-11.375-11.375-16.736-11.375-27.46 4.347-20.434 11.374-27.46" style="fill:#294b8b;fill-rule:evenodd"/><path d="M157.873 419.378c-53.622-15.161-70.156-54.004-70.293-106.355L86.953 75.4l74.076-.079c11.477-.012 23.538-1.48 34.46-5.086 11.34-3.743 22.098-11.647 31.075-19.374l6.657-5.73 6.657 5.73c8.984 7.733 19.753 15.629 31.1 19.374 10.922 3.606 22.984 5.074 34.46 5.086l74.077.08-.626 237.62c-.138 52.352-16.672 91.194-70.294 106.356-25.251 7.914-54.873 20.813-65.986 46.751l-9.38 21.895-9.38-21.895c-11.113-25.939-40.724-38.836-65.977-46.751" style="fill:none"/><path d="M159.039 415.465c-51.994-14.677-67.245-52.15-67.378-102.453l-.615-233.533 69.989-.075c11.875-.012 24.446-1.565 35.735-5.291 11.86-3.915 23.08-12.086 32.458-20.157l3.994-3.438 3.994 3.438c9.383 8.076 20.617 16.24 32.483 20.157 11.29 3.726 23.86 5.279 35.736 5.291l69.988.075-.615 233.533c-.133 50.304-15.384 87.776-67.377 102.453-26.558 8.319-56.902 21.815-68.573 49.056l-5.628 13.138-5.628-13.138c-11.671-27.242-42.004-40.737-68.563-49.056" style="fill:none"/><path d="M233.23 462.11c11.387-26.58 38.66-41.939 72.455-52.514 50.922-14.34 62.881-51.436 63-96.6l.6-227.4-63.857-.07c-9.16-.009-23.586-.957-37.648-5.6-11.04-3.644-22.464-10.92-34.558-21.33-12.094 10.41-23.493 17.687-34.532 21.33-14.062 4.643-28.488 5.591-37.649 5.6l-63.856.07.6 227.4c.118 45.164 12.077 82.26 63 96.6 33.795 10.575 61.057 25.934 72.445 52.514" style="fill:none"/><path d="m97.784 312.996-.599-227.4 63.856-.07c9.161-.009 23.587-.957 37.649-5.6 11.04-3.643 22.438-10.92 34.532-21.33 12.094 10.41 23.518 17.686 34.558 21.33 14.062 4.643 28.487 5.591 37.648 5.6l63.856.07-.599 227.4c-.119 45.164-12.078 82.26-63 96.6-33.795 10.575-61.068 25.934-72.455 52.514-11.388-26.58-38.65-41.939-72.446-52.514-50.922-14.34-62.88-51.436-63-96.6M91.046 79.479l.615 233.533c.133 50.304 15.384 87.776 67.378 102.453 26.559 8.32 56.892 21.814 68.563 49.056l5.628 13.138 5.628-13.138c11.67-27.241 42.015-40.737 68.572-49.056 51.994-14.677 67.245-52.149 67.378-102.453l.615-233.533-69.988-.075c-11.876-.013-24.446-1.565-35.736-5.291-11.866-3.918-23.1-12.081-32.483-20.157l-3.994-3.438-3.994 3.438c-9.377 8.07-20.598 16.242-32.458 20.157-11.29 3.726-23.86 5.279-35.736 5.291z" style="fill:#294b8b;fill-rule:evenodd"/><path d="m120.952 411.119-13.31-2.717c-18.848-3.848-38.213-7.78-56.176-14.792l-.105-.041-.108-.035c-2.303-.755-4.809-1.586-7.198-1.987-2.436-.41-4.991-.305-6.858 1.547-3.479 3.452-.921 9.872.46 13.759l9.723 29.04-11.966 25.103c-3.12 6.208-.688 12.166 5.967 14.466l29.98 10.956-.735 10.479c-.23 3.263.072 6.725 2.772 8.966 1.695 1.407 3.668 1.784 5.759 2.176 50.68 9.506 102.268 13.829 153.813 13.829 51.424 0 102.81-4.391 153.376-13.828 5.843-1.09 9.339-5.308 8.564-11.286-.264-3.446-.487-6.895-.753-10.341 10.014-3.658 20.029-7.31 30.039-10.976 2.839-1.04 5.933-2.34 7.2-5.322 1.293-3.044.002-6.248-1.271-9.05l-.032-.069-11.972-25.115c1.514-4.679 2.843-9.471 4.153-14.198a1400 1400 0 0 0 3.56-13.14c.641-2.406 1.247-4.878 1.954-7.262.75-2.531.915-5.384-1.192-7.36-2.258-2.12-5.309-1.56-7.884-.487-9.738 3.554-20.032 6.18-30.127 8.504-10.201 2.347-20.465 4.37-30.72 6.464l-13.31 2.717c-5.19 1.06-7.016 4.768-6.837 9.744l.045 6.8c-24.13 2.856-39.654 4.141-61.964 5.12 10.551-5.78 22.068-10.042 32.797-13.405 53.622-15.162 70.156-54.004 70.294-106.355l.626-237.622-74.077-.079c-11.476-.012-23.538-1.48-34.46-5.085-11.347-3.746-22.116-11.642-31.1-19.375l-6.657-5.73-6.657 5.73c-8.977 7.727-19.734 15.631-31.074 19.374-10.923 3.606-22.984 5.074-34.46 5.086l-74.077.08.626 237.62c.137 52.352 16.671 91.195 70.293 106.356 10.814 3.39 22.425 7.693 33.042 13.542-22.809-.754-38.652-2.16-63.172-5.264l.046-6.966-.005-.11c-.22-4.659-1.85-8.444-6.832-9.461zm146.239 22.016h-.004l-.17.112a98 98 0 0 0-5.72 3.951l-.184.134h.003c-9.53 7.143-17.468 16.007-22.259 27.19l-5.628 13.137-5.628-13.138c-4.779-11.153-12.686-20.002-22.182-27.135h.003l-.076-.068-.076-.067c-.372-.273-.769-.556-1.18-.844a100 100 0 0 0-4.716-3.207l-.055-.038h-.004c-12.457-7.96-26.848-13.491-40.276-17.697-51.994-14.677-67.245-52.15-67.378-102.453l-.615-233.533 69.989-.075c11.875-.012 24.446-1.565 35.735-5.291 11.86-3.915 23.08-12.086 32.458-20.157l3.994-3.438 3.994 3.438c9.383 8.076 20.617 16.24 32.483 20.157 11.29 3.726 23.86 5.279 35.736 5.291l69.988.075-.615 233.533c-.133 50.304-15.384 87.776-67.377 102.453-13.413 4.201-27.79 9.725-40.24 17.67m1.302 4.016c26.426-.73 45.826-2.247 73.376-5.905l-.069-10.474c-.138-3.47.746-5.084 3.571-5.654l13.31-2.717c18.935-3.865 43.307-8.505 61.523-15.166 3.576-1.516 4.665-.465 3.67 2.885-.825 2.784-6.718 25.815-10.142 36.04l12.676 26.593c2.524 5.554 1.992 6.79-3.615 8.851l-31.2 11.4c-1.113.321-1.74.762-1.602 2.492.327 4.08.544 7.604.857 11.686.528 3.764-1.379 6.183-5.25 6.846-50.345 9.455-101.423 13.758-152.628 13.758-51.296 0-102.627-4.287-153.06-13.758-3.592-.662-5.653-1.016-5.213-6.845l.788-11.207c.118-1.684-.2-2.474-1.571-2.972l-31.2-11.4c-4.416-1.526-5.614-4.873-3.616-8.851l12.677-26.593-10.271-30.675c-3.975-11.182-2.442-11.651 8.478-8.072 18.029 7.036 37.908 11.123 56.843 14.988l13.31 2.717c2.695.551 3.419 2.41 3.572 5.654l-.07 10.468c27.915 3.7 47.633 5.247 74.427 5.971 11.123 7.288 20.526 16.642 25.786 28.918l9.38 21.895 9.38-21.895c5.274-12.31 14.717-21.68 25.883-28.978" style="fill:#ecd23b;fill-rule:evenodd"/><path d="M80.302 504.243c50.433 9.472 101.765 13.759 153.06 13.759 51.206 0 102.284-4.304 152.628-13.759 3.872-.662 5.778-3.08 5.25-6.846-.312-4.082-.53-7.605-.856-11.685-.14-1.73.489-2.171 1.601-2.492l31.2-11.4c5.607-2.062 6.14-3.298 3.616-8.852l-12.676-26.593c3.423-10.224 9.317-33.256 10.142-36.04.994-3.35-.095-4.4-3.67-2.885-18.217 6.662-42.588 11.302-61.523 15.167l-13.31 2.717c-2.826.57-3.71 2.184-3.571 5.654l.068 10.474c-27.55 3.657-46.94 4.95-73.367 5.678-9.402.472-18.393.57-70.325.084-26.794-.724-46.624-2.068-74.538-5.768l.068-10.468c-.153-3.245-.877-5.103-3.571-5.654l-13.31-2.717c-18.935-3.865-38.814-7.952-56.843-14.989-10.92-3.579-12.453-3.11-8.479 8.073l10.271 30.674-12.676 26.593c-1.999 3.98-.8 7.326 3.616 8.852l31.2 11.4c1.371.498 1.689 1.287 1.57 2.972l-.787 11.207c-.44 5.829 1.62 6.183 5.212 6.844" style="fill:#fff;fill-rule:evenodd"/><path d="M233.616 511.277c51.72-.062 102.114-4.384 151.435-13.647-1.689-22.032-2.988-44.142-3.675-66.374-49.25 10.047-98.5 12.615-147.749 13.05-49.25-.435-98.954-3.003-148.203-13.05-.688 22.232-1.987 44.342-3.675 66.374 49.32 9.263 100.147 13.585 151.867 13.647m115.303-89.13c6.163 1.088 12.4 3.488 18.6 4.5-5.98 1.499-12.12 2.643-18.549 3.342zm-231.039 0c-6.162 1.088-12.4 3.488-18.6 4.5 5.98 1.499 12.12 2.643 18.55 3.342zm242.74-3.46c20.384-4.16 40.537-8.522 57.9-15.3l-11.1 33.151 13.8 28.95-31.2 11.4c-1-16.2-1.633-32.279-2.474-48.487-.122-2.348-1.425-3.65-3.15-4.088-6.837-1.74-15.925-3.625-23.775-5.625m-254.441 0c-20.384-4.16-40.536-8.522-57.9-15.3l11.1 33.151-13.8 28.95 31.2 11.4c1-16.2 1.633-32.279 2.475-48.487.121-2.348 1.424-3.65 3.15-4.088 6.836-1.74 15.925-3.625 23.775-5.625" style="fill:#294b8b;fill-rule:evenodd"/><path d="m105.212 462.247-.752 5.084 10.103 1.49-.744 5.039-10.103-1.49-.95 6.427 11.233 1.655-.744 5.04-15.948-2.35 3.936-26.629 15.57 2.295-.745 5.04zM130.888 477.12l1.957-16.367 4.655.557-3.207 26.82-4.846-.58-6.124-16.922-1.909 15.962-4.655-.557 3.207-26.819 4.701.562z" style="fill:#fff;fill-rule:evenodd" data-source="https://football-logos.cc"/><path d="m117.138 485.736 3.126-26.144 4.154.497 6.636 18.503 2.088-17.46 3.98.476-3.127 26.144-4.299-.514-6.54-18.072-2.039 17.046zM145.614 467.318l-.504 5.549 8.926.81-.463 5.108-8.926-.81-1.01 11.134-4.959-.45 2.44-26.9 15.264 1.385-.464 5.109z" style="fill:#fff;fill-rule:evenodd"/><path d="m139.048 488.351 2.378-26.222 14.586 1.323-.402 4.431-10.304-.934-.565 6.226 8.926.81-.402 4.43-8.926-.809-1.01 11.134zM156.41 490.528l2.026-26.933 4.965.373-2.025 26.933z" style="fill:#fff;fill-rule:evenodd"/><path d="m156.775 490.215 1.974-26.256 4.287.322-1.974 26.256zM171.585 469.81l-.296 5.122 10.73.62-.296 5.122-10.73-.62-.376 6.48 11.93.69-.295 5.121-16.902-.978 1.56-26.965 16.501.954-.296 5.122z" style="fill:#fff;fill-rule:evenodd"/><path d="m165.71 491.047 1.52-26.286 15.822.915-.257 4.442-11.53-.666-.336 5.8 10.73.621-.257 4.442-10.73-.62-.414 7.158 11.93.69-.256 4.443zM190.872 487.513l10.74.416-.198 5.127-15.716-.609 1.037-26.77 4.976.193z" style="fill:#fff;fill-rule:evenodd"/><path d="m186.05 492.12 1.012-26.09 4.295.167-.838 21.643 10.74.416-.172 4.446zM205.004 466.29l8.215.152c1.456.027 3.297.168 4.635.789 1.16.538 2.105 1.423 2.882 2.425.971 1.253 1.59 2.78 1.993 4.3.547 2.058.662 4.33.623 6.45-.037 2.013-.27 4.094-.891 6.016-.461 1.428-1.109 2.908-2.072 4.072a7.9 7.9 0 0 1-3.005 2.262c-1.365.582-2.964.723-4.434.696l-8.445-.157zm4.884 5.221-.31 16.748 2.902.053c.84.016 2.11.004 2.899-.312a3.3 3.3 0 0 0 1.409-1.059c.487-.628.787-1.619.975-2.38.349-1.411.441-3.008.468-4.458.027-1.456.004-3.115-.307-4.543-.195-.892-.532-1.823-1.13-2.529a3.65 3.65 0 0 0-1.863-1.204c-.935-.254-2.452-.268-3.422-.286z" style="fill:#fff;fill-rule:evenodd"/><path d="m205.338 466.636 7.875.146q2.987.057 4.498.757c1.005.467 1.92 1.243 2.756 2.326.837 1.076 1.48 2.473 1.934 4.18q.68 2.568.61 6.355-.062 3.411-.874 5.918c-.54 1.676-1.209 2.993-2.01 3.96a7.5 7.5 0 0 1-2.877 2.165q-1.68.715-4.294.669l-8.105-.15zm4.216 4.529-.322 17.427 3.242.06q2.085.04 3.03-.336a3.6 3.6 0 0 0 1.553-1.166q.614-.788 1.036-2.507.425-1.71.479-4.533.053-2.924-.316-4.622c-.246-1.126-.649-2.023-1.201-2.677a4 4 0 0 0-2.035-1.312c-.598-.165-1.769-.266-3.505-.298zM318.408 479.597l-1.655-16.4 4.664-.47 2.712 26.874-4.855.49-9.663-15.181 1.614 15.993-4.665.47-2.712-26.873 4.71-.475z" style="fill:#fff;fill-rule:evenodd"/><path d="m306.865 491.001-2.644-26.196 4.162-.42 10.508 16.613-1.765-17.496 3.987-.402 2.644 26.197-4.308.434-10.32-16.212 1.723 17.08zM282.868 482.165l2.785-16.833 5.665-.266 4.28 16.758 2.193-17.063 5.034-.237-3.962 27.226-5.17.244-4.867-18.223-3.076 18.597-5.231.247-6.504-26.734 5.125-.242z" style="fill:#fff;fill-rule:evenodd"/><path d="m280.783 492.262-6.34-26.061 4.428-.209 4.049 17.947 3.023-18.28 5.114-.24 4.65 18.212 2.385-18.544 4.337-.204-3.862 26.54-4.616.218-5.203-19.481-3.289 19.881zM252.347 480.578c-.13-2.625.044-5.473 1.015-7.942.741-1.885 1.84-3.633 3.484-4.857 1.607-1.198 3.51-1.724 5.492-1.823 3.14-.156 5.803.937 7.91 3.272 2.465 2.732 3.298 6.55 3.476 10.125.185 3.712-.343 7.618-2.61 10.68-1.814 2.452-4.342 3.63-7.37 3.78-3.02.151-5.689-.736-7.744-2.99-2.546-2.793-3.469-6.56-3.653-10.246" style="fill:#fff;fill-rule:evenodd"/><path d="M252.687 480.56q-.232-4.69.991-7.8 1.223-3.108 3.371-4.708 2.147-1.599 5.305-1.756 4.584-.23 7.642 3.16c2.04 2.26 3.171 5.561 3.388 9.914.22 4.395-.628 7.886-2.543 10.46-1.674 2.274-4.051 3.491-7.114 3.644q-4.64.23-7.475-2.88c-2.162-2.371-3.35-5.718-3.565-10.033M239.613 471.814h-6.34v-5.13h17.659v5.13h-6.34v21.88h-4.98z" style="fill:#fff;fill-rule:evenodd"/><path d="M239.953 493.354v-21.88h-6.34v-4.45h16.979v4.45h-6.34v21.88zM367.04 473.022l5.047 1.223-.025.291c-.21 2.45-.826 5.13-2.463 7.045-1.437 1.683-3.313 2.588-5.498 2.875-2.848.374-5.352-.436-7.422-2.43-2.695-2.595-3.906-6.221-4.383-9.85-.489-3.723-.323-7.755 1.654-11.057 1.532-2.56 3.844-3.967 6.789-4.354 2.42-.318 4.622.234 6.544 1.748 1.578 1.242 2.604 3.165 3.295 5.014l.113.301-4.7 2.076-.118-.355c-.367-1.107-.954-2.172-1.92-2.863-.832-.595-1.747-.828-2.76-.695-1.524.2-2.582 1.048-3.304 2.387-1.004 1.863-.822 4.767-.556 6.79.268 2.04.844 5.048 2.28 6.626 1.003 1.103 2.224 1.674 3.727 1.477 1.073-.141 1.895-.691 2.519-1.569.828-1.163 1.083-2.88 1.16-4.272z" style="fill:#fff;fill-rule:evenodd"/><path d="m367.358 473.449 4.365 1.058c-.259 3.02-1.056 5.3-2.382 6.853s-3.087 2.47-5.285 2.759q-4.145.543-7.142-2.338-3.45-3.331-4.28-9.65-.877-6.672 1.608-10.837 2.17-3.616 6.54-4.192c2.38-.312 4.473.248 6.29 1.678q1.938 1.526 3.188 4.867l-4.064 1.794q-.686-2.06-2.046-3.032-1.359-.971-3.002-.755-2.348.308-3.558 2.563-1.219 2.255-.594 6.995.646 4.923 2.365 6.81c1.145 1.26 2.482 1.789 4.023 1.586q1.689-.224 2.752-1.709c.702-.994 1.114-2.476 1.222-4.45M339.04 465.341l.584 5.541 8.913-.94.539 5.1-8.913.941 1.174 11.117-4.952.524-2.836-26.861 15.241-1.61.54 5.102z" style="fill:#fff;fill-rule:evenodd"/><path d="m336.687 487.25-2.765-26.185 14.566-1.538.467 4.425-10.29 1.087.657 6.217 8.912-.941.468 4.425-8.913.941 1.174 11.117z" style="fill:#fff;fill-rule:evenodd"/><path d="M257.117 480.162c.15 3.018.834 5.254 2.043 6.703 1.216 1.456 2.666 2.138 4.346 2.054q2.549-.125 4.103-2.456 1.563-2.326 1.33-6.983c-.151-3.035-.803-5.261-1.961-6.658q-1.736-2.104-4.373-1.973c-1.752.088-3.14.893-4.172 2.411q-1.546 2.285-1.316 6.902" style="fill:#294b8b;fill-rule:evenodd"/><path d="M257.457 480.145c.108 2.162.532 4.787 1.964 6.502 1.06 1.27 2.393 2.016 4.068 1.932 1.677-.083 2.914-.925 3.837-2.306 1.246-1.862 1.381-4.61 1.273-6.776-.105-2.1-.496-4.781-1.883-6.458-1.067-1.29-2.416-1.934-4.093-1.85-1.689.084-2.964.869-3.908 2.262-1.239 1.829-1.364 4.563-1.258 6.694" style="fill:#fff;fill-rule:evenodd"/><path d="M76.779 476.888c1-16.2 1.633-32.279 2.474-48.487.122-2.348 1.425-3.65 3.15-4.088 6.837-1.74 15.925-3.625 23.776-5.625-20.384-4.161-40.536-8.523-57.9-15.3l11.1 33.15-13.8 28.95z" style="fill:#294b8b;fill-rule:evenodd"/><path d="M99.28 426.648c5.98 1.498 12.12 2.642 18.55 3.341l.05-7.841c-6.162 1.087-12.4 3.487-18.6 4.5M348.919 422.148l.051 7.841c6.43-.699 12.57-1.843 18.549-3.341-6.2-1.013-12.437-3.413-18.6-4.5" style="fill:#294b8b;fill-rule:evenodd"/><path d="M384.396 424.313c1.725.439 3.028 1.74 3.15 4.087.841 16.21 1.475 32.288 2.475 48.488l31.2-11.4-13.8-28.95 11.1-33.15c-17.364 6.777-37.517 11.139-57.9 15.3 7.85 2 16.938 3.885 23.775 5.625M268.6 479.498c-.106-2.101-.497-4.782-1.884-6.46-1.067-1.288-2.416-1.933-4.093-1.85-1.689.085-2.964.87-3.908 2.263-1.239 1.829-1.364 4.563-1.258 6.694.108 2.162.532 4.787 1.964 6.502 1.06 1.27 2.393 2.016 4.068 1.932 1.677-.083 2.914-.925 3.837-2.306 1.246-1.862 1.381-4.61 1.273-6.776" style="fill:#294b8b;fill-rule:evenodd" data-source="https://football-logos.cc"/><!-- source: https://football-logos.cc --></svg>