<svg xmlns:xlink="http://www.w3.org/1999/xlink" xmlns="http://www.w3.org/2000/svg" xmlns:svg="http://www.w3.org/2000/svg" version="1.1" id="svg824" xml:space="preserve" width="300" height="300" viewBox="0 0 700 700"><defs id="defs828"/><g id="g830" transform="matrix(1.3333333,0,0,-1.3333333,563.59246,1080.7561)"><g id="g6638" transform="matrix(1.1290323,0,0,1.1290323,20.67025,-80.770468)"><circle style="fill:#bdb047;fill-opacity:1;fill-rule:evenodd;stroke-width:1.80274" id="path2884" cx="-160.19435" cy="-556.9704" transform="scale(1,-1)" r="232.5"/><circle style="fill:#254aa5;fill-opacity:1;fill-rule:evenodd;stroke-width:1.66317" id="circle2966" cx="-160.19435" cy="-556.9704" transform="scale(1,-1)" r="214.5"/><circle style="fill:#bdb047;fill-opacity:1;fill-rule:evenodd;stroke-width:0.962429" id="circle5422" cx="-160.19435" cy="-556.9704" transform="scale(1,-1)" r="124.125"/><circle style="fill:#f9f9f9;fill-opacity:1;fill-rule:evenodd;stroke-width:0.918814" id="circle6596" cx="-160.19435" cy="-556.9704" transform="scale(1,-1)" r="118.5"/></g><g id="g6632" transform="matrix(1.1290323,0,0,1.1290323,-474.96756,-104.58933)"><path d="m 123.26444,483.8371 18.89064,12.66104 10.20681,-15.23453 -3.4405,-2.30284 -7.51864,11.24355 -5.16075,-3.46803 7.11496,-10.62426 -3.2983,-2.21109 -7.11954,10.62426 -6.99568,-4.68825 z" style="fill:#ffffff;fill-opacity:1;fill-rule:nonzero;stroke:none;stroke-width:4.58733" id="path906"/><path d="m 150.74119,464.96894 c -2.61478,-2.67441 -3.91759,-7.08743 0.2523,-11.40869 4.17447,-4.32127 8.65171,-3.14233 11.39035,-0.59636 2.81203,2.62396 4.22493,7.33056 0.0505,11.65642 -4.18824,4.32126 -9.0187,3.09644 -11.69311,0.34863 M 165.728,449.60597 c -4.28915,-4.04144 -11.33071,-5.22498 -17.56031,1.22023 -6.23418,6.44061 -4.97725,13.43629 -0.67434,17.597 4.29833,4.16071 11.61513,5.2525 17.74381,-1.08719 6.10574,-6.31217 4.82128,-13.63356 0.49084,-17.73004" style="fill:#ffffff;fill-opacity:1;fill-rule:nonzero;stroke:none;stroke-width:4.58733" id="path908"/><path d="m 175.17745,441.90934 c -2.03678,-3.13315 -2.45423,-7.71589 2.49092,-11.13346 4.94514,-3.42215 9.10585,-1.38996 11.29401,1.64227 2.24321,3.12397 2.70653,8.01866 -2.23862,11.44081 -4.94973,3.42673 -9.4499,1.27527 -11.54631,-1.94962 m 17.71627,-12.12432 c -3.41297,-4.80294 -10.08754,-7.34891 -17.46856,-2.24779 -7.37184,5.10111 -7.51863,12.19771 -4.11025,17.12451 3.41298,4.92221 10.37655,7.43148 17.62912,2.41294 7.22964,-5.0002 7.39937,-12.43626 3.94969,-17.28966" style="fill:#ffffff;fill-opacity:1;fill-rule:nonzero;stroke:none;stroke-width:4.58733" id="path910"/><path d="m 208.26863,430.69606 -7.34432,3.40381 1.64226,3.546 c 6.67916,-3.10103 12.33534,-5.72499 19.04661,-8.8352 l -1.64685,-3.54601 -7.33515,3.40839 -7.94526,-17.13369 -4.36714,2.02761 z" style="fill:#ffffff;fill-opacity:1;fill-rule:nonzero;stroke:none;stroke-width:4.58733" id="path912"/><path d="m 229.19604,416.69553 7.10119,-1.93586 c 2.91754,-0.80278 4.1653,0.0321 4.51393,1.29363 0.26607,1.00004 -0.1789,2.95424 -3.12856,3.75702 l -7.11036,1.94045 z m -2.54138,-9.29853 7.11036,-1.93585 c 1.88998,-0.51837 4.74789,-0.69728 5.32131,1.38079 0.5413,1.97255 -1.8854,3.75243 -3.78455,4.26621 l -7.10119,1.94503 z m 18.78512,7.4957 c -0.46332,-1.7019 -1.83034,-3.08268 -4.36255,-3.3671 2.67441,-1.57345 2.98177,-4.60109 2.61019,-5.9727 -1.3395,-4.89928 -5.88555,-5.35342 -10.98207,-3.95429 -3.90382,1.06885 -7.77553,2.11935 -11.67476,3.19279 l 6.00023,21.97791 c 3.87171,-1.05968 7.77553,-2.12394 11.67476,-3.18361 4.8534,-1.32574 7.94526,-4.27081 6.7342,-8.693" style="fill:#ffffff;fill-opacity:1;fill-rule:nonzero;stroke:none;stroke-width:4.58733" id="path914"/><path d="m 265.11852,414.11469 -5.55526,-9.26182 9.44073,-0.80737 z m 5.46351,-14.22073 -13.2895,1.13766 -2.54597,-4.08731 -5.19744,0.44497 13.36748,21.70726 5.23415,-0.4358 9.43614,-23.67981 -5.22497,0.44956 z" style="fill:#ffffff;fill-opacity:1;fill-rule:nonzero;stroke:none;stroke-width:4.58733" id="path916"/><path d="m 289.81626,418.53 1.66979,-18.73467 13.06931,1.16519 0.35322,-3.95887 -17.85848,-1.59639 -2.01843,22.69812 z" style="fill:#ffffff;fill-opacity:1;fill-rule:nonzero;stroke:none;stroke-width:4.58733" id="path918"/><path d="m 313.99792,421.94894 4.5277,-18.25758 12.74361,3.15608 0.95417,-3.85795 -17.40434,-4.3075 -5.49104,22.11094 z" style="fill:#ffffff;fill-opacity:1;fill-rule:nonzero;stroke:none;stroke-width:4.58733" id="path920"/><path d="m 372.39283,423.81507 c -1.27528,-3.25701 -3.77996,-5.76628 -7.0599,-7.45442 -8.41776,-4.35338 -14.65194,-1.02297 -17.40434,4.22035 -2.76158,5.27084 -1.68814,12.63351 6.50484,16.87679 3.0781,1.59181 6.52777,2.05054 9.9224,1.20647 l -1.57805,-3.92676 c -2.16522,0.52755 -4.491,0.0917 -6.45896,-0.92205 -5.47728,-2.83497 -5.95895,-7.69296 -4.17906,-11.06006 1.76612,-3.33499 5.73875,-5.71581 11.33989,-2.81662 1.98172,1.02298 3.83959,2.89919 4.64238,5.00019 z" style="fill:#ffffff;fill-opacity:1;fill-rule:nonzero;stroke:none;stroke-width:4.58733" id="path922"/><path d="m 371.53638,447.51277 11.27566,-15.05563 10.50958,7.86269 2.37624,-3.17902 -14.34459,-10.74812 -13.67484,18.23006 z" style="fill:#ffffff;fill-opacity:1;fill-rule:nonzero;stroke:none;stroke-width:4.58733" id="path924"/><path d="m 401.45909,474.52573 9.39027,-9.06915 c 4.83963,-4.68367 4.10107,-10.40866 -0.35781,-15.00976 -4.25246,-4.40842 -10.26645,-5.84884 -15.19784,-1.07343 l -9.39485,9.06457 3.32581,3.43591 9.38568,-9.07374 c 2.94507,-2.84874 6.33511,-2.47716 9.09668,0.38074 2.76158,2.85791 2.62396,6.13327 -0.1789,8.84438 l -9.38568,9.05998 z" style="fill:#ffffff;fill-opacity:1;fill-rule:nonzero;stroke:none;stroke-width:4.58733" id="path926"/><path d="m 424.38428,473.89727 4.07814,6.12867 c 1.07802,1.63768 2.15146,4.30292 0.3624,5.49104 -1.71108,1.13766 -4.16071,-0.60553 -5.2525,-2.24779 l -4.06896,-6.12868 z m -8.03242,5.32589 4.08732,6.13785 c 1.6652,2.52303 1.2661,3.96804 0.18808,4.69743 -0.87618,0.57342 -2.8625,0.75691 -4.55522,-1.79365 l -4.07814,-6.12867 z m 6.83513,14.86296 c 1.45877,-0.97252 2.33954,-2.70194 1.81658,-5.19745 2.33495,2.03678 5.29378,1.38079 6.49566,0.58718 4.22035,-2.80745 3.2249,-7.26175 0.28901,-11.66559 -2.23403,-3.37169 -4.45889,-6.71127 -6.69292,-10.08295 l -18.97321,12.61516 c 2.21568,3.34875 4.4543,6.71585 6.68374,10.08296 2.79369,4.18823 6.55072,6.20207 10.38114,3.66069" style="fill:#ffffff;fill-opacity:1;fill-rule:nonzero;stroke:none;stroke-width:4.58733" id="path928"/></g><g id="g6618" transform="matrix(1.1290323,0,0,1.1290323,-475.76109,-104.58933)"><path d="m 470.21907,576.48287 c -0.14679,3.73867 -3.19278,6.78007 -6.93604,6.93145 -2.25238,0.0872 -4.28457,-0.86241 -5.66536,-2.40376 -2.75699,-2.73405 -4.11942,-7.54157 -4.20658,-12.8537 h -2.39 c -0.1101,6.64245 1.97255,11.45915 3.76161,16.39971 0.60094,1.66061 1.32115,3.39463 1.47253,5.12405 0.64223,7.36726 -3.44967,12.39039 -6.94063,16.56027 -3.49555,-4.16988 -7.58745,-9.19301 -6.94522,-16.56027 0.15138,-1.72942 0.87618,-3.46344 1.48171,-5.12405 1.78447,-4.94056 3.86712,-9.75726 3.75702,-16.39971 h -2.39459 c -0.0826,5.31213 -1.44959,10.11965 -4.19741,12.8537 -1.38996,1.54135 -3.41756,2.49092 -5.66994,2.40376 -3.75244,-0.15138 -6.78925,-3.19278 -6.94063,-6.93145 -0.16056,-4.13319 3.13315,-7.52782 7.22963,-7.52782 0.90371,0 1.7753,0.16056 2.58267,0.47709 -0.14679,0.0321 -0.289,0.055 -0.42662,0.055 -1.93127,0 -3.50931,1.56887 -3.50931,3.50931 0,1.94044 1.57804,3.50931 3.50931,3.50931 4.64238,0 4.89468,-7.99572 4.77541,-8.34894 -0.44038,-0.009 -1.17894,-0.005 -2.28908,-0.005 -0.55506,0.005 -1.00921,-0.44497 -1.00921,-1.00004 v -2.41752 c 0,-0.55966 0.44956,-1.00922 1.00921,-1.00922 h 6.53236 v -0.009 c -0.009,-2.29825 -1.86704,-4.15612 -4.16988,-4.15612 0.56883,-1.63309 2.28449,-3.72951 4.16988,-4.04603 0.27066,-2.22486 1.11931,-3.8763 2.50469,-5.00019 1.38537,1.12389 2.23403,2.77533 2.50009,5.00019 1.8854,0.31652 3.60106,2.41294 4.17448,4.04603 -2.29826,0 -4.1653,1.85787 -4.17448,4.15612 v 0.009 h 6.53695 c 0.55966,0 1.00463,0.44956 1.00463,1.00922 v 2.41752 c 0,0.55507 -0.44497,1.00463 -1.00463,1.00004 -1.11013,0 -1.85787,-0.005 -2.29825,0.005 -0.10551,0.35322 0.14679,8.34894 4.78,8.34894 1.94044,0 3.50931,-1.56887 3.50931,-3.50931 0,-1.94044 -1.56887,-3.50931 -3.50931,-3.50931 -0.13762,0 -0.27065,-0.0229 -0.42662,-0.055 0.80278,-0.31653 1.67896,-0.47709 2.58725,-0.47709 4.09649,0 7.39478,3.39463 7.22505,7.52782" style="fill:#bdb047;fill-opacity:1;fill-rule:nonzero;stroke:none;stroke-width:4.58733" id="path930"/><path d="m 130.60693,576.48287 c -0.15139,3.73867 -3.19738,6.78007 -6.93605,6.93145 -2.25238,0.0872 -4.29374,-0.86241 -5.66994,-2.40376 -2.75699,-2.73405 -4.11943,-7.54157 -4.19741,-12.8537 h -2.39918 c -0.11468,6.64245 1.96338,11.45915 3.75703,16.39971 0.60552,1.66061 1.33491,3.39463 1.47712,5.12405 0.64681,7.36726 -3.45426,12.39039 -6.94064,16.56027 -3.48637,-4.16988 -7.58744,-9.19301 -6.94063,-16.56027 0.14679,-1.72942 0.87618,-3.46344 1.47712,-5.12405 1.79365,-4.94056 3.87171,-9.75726 3.75703,-16.39971 h -2.39 c -0.0872,5.31213 -1.4496,10.11965 -4.20659,12.8537 -1.38078,1.54135 -3.417561,2.49092 -5.674528,2.40376 -3.738676,-0.15138 -6.780077,-3.19278 -6.936047,-6.93145 -0.160556,-4.13319 3.137736,-7.52782 7.229636,-7.52782 0.912879,0 1.784472,0.16056 2.582668,0.47709 -0.142207,0.0321 -0.289002,0.055 -0.41286,0.055 -1.945029,0 -3.513896,1.56887 -3.513896,3.50931 0,1.94044 1.568867,3.50931 3.513896,3.50931 4.628621,0 4.885511,-7.99572 4.775411,-8.34894 -0.44038,-0.009 -1.18812,-0.005 -2.29366,-0.005 -0.55966,0.005 -1.009217,-0.44497 -1.009217,-1.00004 v -2.41752 c 0,-0.55966 0.449557,-1.00922 1.000037,-1.00922 h 6.53236 v -0.009 c 0,-2.29825 -1.86704,-4.15612 -4.16529,-4.15612 0.56882,-1.63309 2.28449,-3.72951 4.16529,-4.04603 0.27983,-2.22486 1.1239,-3.8763 2.50927,-5.00019 1.38997,1.12389 2.23862,2.77533 2.50927,5.00019 1.88081,0.31652 3.60106,2.41294 4.16989,4.04603 -2.30284,0 -4.16989,1.85787 -4.16989,4.15612 v 0.009 h 6.53237 c 0.55048,0 1.00003,0.44956 1.00003,1.00922 v 2.41752 c 0,0.55507 -0.44955,1.00463 -1.00921,1.00004 -1.10555,0 -1.84869,-0.005 -2.28449,0.005 -0.11927,0.35322 0.13762,8.34894 4.77083,8.34894 1.94044,0 3.50472,-1.56887 3.50472,-3.50931 0,-1.94044 -1.56428,-3.50931 -3.50472,-3.50931 -0.12845,0 -0.27524,-0.0229 -0.42204,-0.055 0.80737,-0.31653 1.67896,-0.47709 2.58267,-0.47709 4.09649,0 7.39019,3.39463 7.22964,7.52782" style="fill:#bdb047;fill-opacity:1;fill-rule:nonzero;stroke:none;stroke-width:4.58733" id="path932"/></g><g id="g2996" transform="matrix(1.1290323,0,0,1.1290323,-471.57752,-104.58933)"><path d="m 157.35428,659.54524 -3.09645,-7.46818 h -44.89622 l 3.33958,8.06453 34.4738,-0.7982 -24.92756,23.86331 3.34416,8.06911 z" style="fill:#ffffff;fill-opacity:1;fill-rule:nonzero;stroke:none;stroke-width:4.58733" id="path862"/><path d="m 185.24251,689.79411 -22.10635,-21.62928 c -9.61505,9.82607 -19.27139,19.69801 -28.89102,29.52866 l 22.10635,21.62927 5.28002,-5.39929 -16.57403,-16.22998 6.64705,-6.78925 15.98226,15.65198 5.07818,-5.18827 -15.99144,-15.65198 6.52318,-6.66081 16.57404,16.22539 z" style="fill:#ffffff;fill-opacity:1;fill-rule:nonzero;stroke:none;stroke-width:4.58733" id="path864"/><path d="m 240.94466,750.39231 c -1.91292,1.97714 -6.22043,3.27994 -10.58757,2.26155 -5.63324,-1.31656 -7.78011,-4.29833 -7.08743,-7.28927 0.82114,-3.50931 5.18828,-3.51848 10.15177,-2.968 8.62877,0.92205 16.95478,0.56424 19.1934,-9.03705 2.09182,-8.97282 -4.94514,-14.67487 -13.90879,-16.76211 -8.2205,-1.9175 -15.12902,-0.86701 -19.83563,5.7938 l 5.55526,4.75248 c 2.81204,-4.00933 7.91774,-4.87634 12.81701,-3.73868 4.76624,1.11472 8.86272,3.82584 7.84434,8.19756 -0.88077,3.79373 -5.2158,4.41761 -10.69307,3.75244 -8.44987,-0.94499 -16.54651,-0.52754 -18.64751,8.49115 -1.93127,8.28014 5.44058,13.57392 12.83994,15.36298 6.2663,1.46336 13.17482,1.19271 17.67041,-4.3075 z" style="fill:#ffffff;fill-opacity:1;fill-rule:nonzero;stroke:none;stroke-width:4.58733" id="path866"/><path d="m 279.35806,754.72321 -7.58745,-17.62453 15.34922,0.0688 z m 10.91785,-24.79912 -21.60633,-0.0963 -3.50473,-7.80764 -8.44069,-0.0413 18.34933,41.40526 8.50033,0.0367 18.71632,-41.23094 -8.49574,-0.0413 z" style="fill:#ffffff;fill-opacity:1;fill-rule:nonzero;stroke:none;stroke-width:4.58733" id="path868"/><path d="m 434.26585,666.83542 c 1.21565,2.46799 0.99087,6.95899 -1.42666,10.72977 -3.12397,4.86716 -6.66998,5.89473 -9.24806,4.23411 -3.03222,-1.94961 -1.56887,-6.06445 0.60553,-10.55545 3.7662,-7.82599 6.22042,-15.7896 -2.07806,-21.12008 -7.72966,-4.97725 -15.4639,-0.26606 -20.45033,7.48194 -4.56898,7.0966 -5.89013,13.96843 -1.19271,20.63382 l 6.34887,-3.64234 c -2.84873,-3.99557 -1.94503,-9.10585 0.77526,-13.3262 2.63313,-4.11942 6.57365,-7.06908 10.34902,-4.64238 3.27536,2.11017 2.40835,6.39015 -0.0596,11.33071 -3.71574,7.6425 -6.05069,15.40885 1.75695,20.4228 7.13789,4.59192 14.61065,-0.57341 18.77595,-6.9498 3.48178,-5.40847 5.53691,-12.01423 1.87622,-18.09244 z" style="fill:#ffffff;fill-opacity:1;fill-rule:nonzero;stroke:none;stroke-width:4.58733" id="path870"/><path d="m 179.13448,726.79002 6.90852,-11.27107 10.11507,6.20666 c 4.22035,2.59643 4.30292,6.52319 2.57808,9.33522 -1.72484,2.82121 -5.31672,4.491 -9.49578,1.93127 z m 42.35025,-13.95925 -7.8948,-4.84422 -17.48232,5.47269 -6.39015,-3.92217 7.22504,-11.76651 -6.63328,-4.07355 -21.63845,35.25823 c 5.57361,3.42674 11.1931,6.79843 16.77588,10.22517 8.3306,5.04148 16.09695,2.19274 19.83104,-3.89006 2.968,-4.83046 3.74785,-11.06464 -2.10559,-16.52816 l 18.03281,-5.47727 z" style="fill:#ffffff;fill-opacity:1;fill-rule:nonzero;stroke:none;stroke-width:4.58733" id="path934"/><path d="m 390.98621,672.84254 -22.0926,21.63386 c 9.60588,9.82147 19.28056,19.69341 28.89561,29.51948 l 22.09718,-21.63845 -5.28919,-5.3947 -16.56945,16.22539 -6.64704,-6.78925 15.98226,-15.64739 -5.07817,-5.18827 -15.98686,15.65198 -6.52318,-6.6654 16.57403,-16.22539 z" style="fill:#ffffff;fill-opacity:1;fill-rule:nonzero;stroke:none;stroke-width:4.58733" id="path936"/><path d="m 373.1447,739.76529 -18.09703,-28.91395 14.00054,-8.76639 -3.82125,-6.10574 -20.6063,12.90416 21.91828,35.01511 z" style="fill:#ffffff;fill-opacity:1;fill-rule:nonzero;stroke:none;stroke-width:4.58733" id="path938"/><path d="m 340.26316,754.58284 -11.85367,-31.9783 15.49142,-5.74793 -2.5001,-6.75255 -22.80363,8.45445 14.36294,38.73544 z" style="fill:#ffffff;fill-opacity:1;fill-rule:nonzero;stroke:none;stroke-width:4.58733" id="path940"/><path d="m 305.72788,721.12146 8.34436,40.45109 7.5691,-1.56428 -8.33977,-40.44651 z" style="fill:#ffffff;fill-opacity:1;fill-rule:nonzero;stroke:none;stroke-width:4.58733" id="path942"/></g><g id="g8442" transform="matrix(1.1290323,0,0,1.1290323,54.541219,-104.58933)"><g id="g3193" transform="translate(-469.70471,-0.00252)"><path d="m 264.23592,625.49117 c -5.22497,7.4957 -8.70217,7.62874 -12.22983,12.79407 -3.5139,5.14699 -1.71107,12.33993 -4.27998,15.62904 -1.84411,2.33954 -6.60576,4.98185 -7.2801,3.65611 -0.65599,-1.32574 1.12849,-0.4358 4.04144,-5.56902 1.50006,-2.63772 1.11931,-12.63352 2.73405,-16.15659 2.08265,-4.55063 7.86728,-6.07821 10.41783,-13.04637 1.50465,-4.10566 2.17899,-8.17922 2.25239,-11.21144 2.66065,1.46336 5.50021,2.61019 8.4728,3.46343 -0.52296,3.30747 -1.75695,7.03697 -4.1286,10.44077" style="fill:#bdb047;fill-opacity:1;fill-rule:nonzero;stroke:none;stroke-width:4.58733" id="path872"/><path d="m 233.68428,600.18561 c -8.99575,1.60098 -11.5509,-0.75691 -17.69334,0.39451 -6.1195,1.1606 -9.93157,7.51864 -14.07852,8.02325 -2.95883,0.3624 -8.18839,-1.14684 -7.72507,-2.55056 0.46332,-1.40831 1.10555,0.48167 6.79384,-1.08261 2.91755,-0.80737 9.72056,-8.14252 13.35373,-9.49578 4.69284,-1.74318 9.85817,1.26611 16.5832,-1.85787 3.98181,-1.84411 7.34891,-4.25246 9.54165,-6.34887 0.85784,2.97718 2.04137,5.80757 3.5139,8.45905 -2.70194,1.97255 -6.21125,3.7295 -10.28939,4.45888" style="fill:#bdb047;fill-opacity:1;fill-rule:nonzero;stroke:none;stroke-width:4.58733" id="path874"/><path d="m 229.98139,560.68914 c -7.50488,-5.22497 -7.63791,-8.70676 -12.79407,-12.22983 -5.14699,-3.50931 -12.33992,-1.70649 -15.62904,-4.27998 -2.34413,-1.83493 -4.98184,-6.60576 -3.65611,-7.27551 1.32574,-0.65599 0.4358,1.1239 5.56903,4.03685 2.63312,1.50465 12.62433,1.11931 16.15199,2.73405 4.54605,2.08265 6.07363,7.86728 13.04179,10.41325 4.11484,1.51382 8.17463,2.18815 11.22061,2.25696 -1.46794,2.66066 -2.61936,5.50022 -3.45884,8.46822 -3.31206,-0.51378 -7.05073,-1.75236 -10.44536,-4.12401" style="fill:#bdb047;fill-opacity:1;fill-rule:nonzero;stroke:none;stroke-width:4.58733" id="path876"/><path d="m 255.28145,530.14301 c -1.60557,-8.99576 0.76149,-11.55549 -0.3991,-17.69334 -1.15142,-6.12409 -7.51864,-9.93158 -8.02325,-14.08311 -0.35322,-2.95883 1.14684,-8.19298 2.55515,-7.72507 1.4129,0.46791 -0.48626,1.10096 1.08261,6.79843 0.80737,2.92213 8.1471,9.71597 9.50036,13.34913 1.73402,4.68826 -1.2661,9.86277 1.85329,16.59239 1.83952,3.97263 4.25245,7.33973 6.34428,9.53247 -2.97259,0.86242 -5.80298,2.04137 -8.45446,3.5139 -1.97255,-2.70194 -3.7295,-6.21584 -4.45888,-10.2848" style="fill:#bdb047;fill-opacity:1;fill-rule:nonzero;stroke:none;stroke-width:4.58733" id="path878"/><path d="m 294.77975,526.43644 c 5.22498,-7.4957 8.70217,-7.64249 12.22066,-12.79407 3.51848,-5.1424 1.71566,-12.33533 4.29833,-15.62904 1.82576,-2.33954 6.592,-4.98643 7.25716,-3.66069 0.66516,1.33033 -1.11931,0.44039 -4.02768,5.56902 -1.50006,2.64689 -1.11931,12.62893 -2.73405,16.15659 -2.08265,4.55063 -7.86269,6.07363 -10.41324,13.04637 -1.50924,4.10108 -2.18357,8.17463 -2.25697,11.21144 -2.65148,-1.46336 -5.50021,-2.61478 -8.4728,-3.45885 0.51378,-3.31205 1.75236,-7.03696 4.12859,-10.44077" style="fill:#bdb047;fill-opacity:1;fill-rule:nonzero;stroke:none;stroke-width:4.58733" id="path880"/><path d="m 325.32405,551.73834 c 9.00035,-1.60557 11.55549,0.75691 17.69793,-0.40369 6.1195,-1.14683 9.93616,-7.51405 14.07852,-8.01407 2.95883,-0.35322 8.20215,1.14225 7.73424,2.55514 -0.47249,1.40832 -1.10554,-0.49084 -6.80301,1.08262 -2.92672,0.80737 -9.71597,8.13792 -13.34914,9.49119 -4.69284,1.74318 -9.86276,-1.2707 -16.59238,1.85328 -3.97722,1.84411 -7.33514,4.25246 -9.54165,6.34887 -0.85325,-2.96801 -2.03219,-5.80298 -3.5139,-8.45904 2.70653,-1.97256 6.22501,-3.72951 10.28939,-4.4543" style="fill:#bdb047;fill-opacity:1;fill-rule:nonzero;stroke:none;stroke-width:4.58733" id="path882"/><path d="m 329.03428,591.23481 c 7.49112,5.22956 7.62874,8.70217 12.79407,12.22524 5.1424,3.5139 12.33993,1.71108 15.63363,4.28916 2.33954,1.83493 4.98643,6.60117 3.65152,7.27092 -1.33033,0.66057 -0.43121,-1.13307 -5.55985,-4.04144 -2.6423,-1.50006 -12.64727,-1.11472 -16.16576,-2.72946 -4.54604,-2.08265 -6.07363,-7.86728 -13.0372,-10.41784 -4.11483,-1.50464 -8.1838,-2.17898 -11.21602,-2.25238 1.47253,-2.65606 2.6056,-5.50021 3.45884,-8.4728 3.30747,0.51837 7.04156,1.76154 10.44077,4.1286" style="fill:#bdb047;fill-opacity:1;fill-rule:nonzero;stroke:none;stroke-width:4.58733" id="path884"/><path d="m 283.92154,616.38348 c -0.6514,11.05089 -2.25697,37.16657 -3.52766,46.30454 -0.26607,1.90833 -0.72939,5.33965 -0.88077,5.33965 -0.16055,0 -0.62388,-3.43132 -0.88994,-5.33965 -1.27069,-9.14714 -3.05516,-35.3087 -3.77537,-46.34124 1.52758,0.17432 3.08727,0.28442 4.66531,0.28442 1.49089,0 2.96342,-0.0918 4.40843,-0.24772" style="fill:#bdb047;fill-opacity:1;fill-rule:nonzero;stroke:none;stroke-width:4.58733" id="path886"/><path d="m 303.73056,621.78461 c 1.60556,8.99576 -0.75232,11.55549 0.3991,17.68875 1.156,6.12409 7.50946,9.93616 8.01865,14.08311 0.3624,2.95424 -1.14683,8.19298 -2.55055,7.72966 -1.40832,-0.46332 0.48167,-1.10555 -1.08261,-6.79384 -0.80738,-2.92672 -8.14252,-9.72515 -9.49578,-13.35831 -1.7386,-4.68826 1.2661,-9.85818 -1.8487,-16.5878 -1.85787,-3.97721 -4.25704,-7.33973 -6.35804,-9.54165 2.97259,-0.85783 5.81215,-2.03219 8.46363,-3.50931 1.96338,2.70194 3.72491,6.21584 4.4543,10.28939" style="fill:#bdb047;fill-opacity:1;fill-rule:nonzero;stroke:none;stroke-width:4.58733" id="path888"/><path d="m 319.93026,571.54139 c 11.05089,0.65599 37.16198,2.27073 46.30454,3.53225 1.89915,0.26606 5.33965,0.73397 5.33965,0.89453 0,0.15138 -3.4405,0.61929 -5.33965,0.88076 -9.15173,1.26152 -35.31788,3.04599 -46.34582,3.77079 0.17432,-1.52758 0.289,-3.0781 0.289,-4.65155 0,-1.50006 -0.0872,-2.97259 -0.24772,-4.42678" style="fill:#bdb047;fill-opacity:1;fill-rule:nonzero;stroke:none;stroke-width:4.58733" id="path890"/><path d="m 239.08587,580.37843 c -11.05089,-0.6514 -37.16657,-2.27073 -46.30912,-3.53225 -1.89916,-0.26148 -5.33048,-0.72938 -5.33048,-0.88077 0,-0.15596 3.43132,-0.62387 5.33048,-0.89453 9.15173,-1.2661 35.31328,-3.05057 46.34582,-3.77078 -0.17432,1.53217 -0.289,3.08727 -0.289,4.66531 0,1.4863 0.0917,2.96342 0.2523,4.41302" style="fill:#bdb047;fill-opacity:1;fill-rule:nonzero;stroke:none;stroke-width:4.58733" id="path892"/><path d="m 254.05479,607.65884 c -8.27096,7.3489 -27.8818,24.67984 -35.24447,30.25804 -1.53676,1.1606 -4.29374,3.25242 -4.40384,3.14232 -0.10551,-0.10551 1.9909,-2.86249 3.14232,-4.39925 5.58737,-7.37184 22.82657,-27.13866 30.11125,-35.44632 1.88998,2.38083 4.03227,4.54605 6.39474,6.44521" style="fill:#bdb047;fill-opacity:1;fill-rule:nonzero;stroke:none;stroke-width:4.58733" id="path894"/><path d="m 247.81189,550.51535 c -7.35808,-8.27554 -24.68443,-27.89098 -30.26263,-35.25365 -1.15142,-1.53217 -3.24783,-4.28915 -3.14232,-4.39466 0.11009,-0.1101 2.86708,1.98631 4.40384,3.13773 7.36267,5.58279 27.13407,22.82657 35.44631,30.10667 -2.38082,1.89915 -4.54604,4.03226 -6.4452,6.40391" style="fill:#bdb047;fill-opacity:1;fill-rule:nonzero;stroke:none;stroke-width:4.58733" id="path896"/><path d="m 275.0868,535.54046 c 0.66057,-11.05088 2.26614,-37.16198 3.53224,-46.30453 0.26607,-1.90374 0.73397,-5.33507 0.89453,-5.33507 0.15138,0 0.6147,3.43133 0.88077,5.33507 1.27069,9.15632 3.04599,35.31329 3.77537,46.34582 -1.53217,-0.17891 -3.08727,-0.289 -4.65614,-0.289 -1.50006,0 -2.968,0.0918 -4.42677,0.24771" style="fill:#bdb047;fill-opacity:1;fill-rule:nonzero;stroke:none;stroke-width:4.58733" id="path898"/><path d="m 304.95721,544.26832 c 8.27555,-7.36267 27.88639,-24.68443 35.24906,-30.26263 1.53676,-1.15601 4.28916,-3.25242 4.39925,-3.13773 0.10551,0.1055 -1.98631,2.86249 -3.15149,4.39466 -5.57361,7.37184 -22.81281,27.13407 -30.10208,35.44632 -1.88998,-2.38083 -4.03226,-4.53687 -6.39474,-6.44062" style="fill:#bdb047;fill-opacity:1;fill-rule:nonzero;stroke:none;stroke-width:4.58733" id="path900"/><path d="m 311.20011,601.41226 c 7.34891,8.27555 24.68444,27.8864 30.25805,35.24907 1.16059,1.53217 3.25241,4.28915 3.14691,4.39466 -0.1101,0.11469 -2.8625,-1.98173 -4.39926,-3.14232 -7.37184,-5.5782 -27.13407,-22.82198 -35.44631,-30.10666 2.38541,-1.88998 4.54604,-4.02768 6.44061,-6.39475" style="fill:#bdb047;fill-opacity:1;fill-rule:nonzero;stroke:none;stroke-width:4.58733" id="path902"/></g><circle style="fill:#bdb047;fill-opacity:1;fill-rule:evenodd;stroke-width:0.839385" id="path6700" cx="-190.19435" cy="-575.96173" transform="scale(1,-1)" r="35.377502"/></g></g></svg>