<?xml version="1.0" encoding="UTF-8" standalone="no"?>
<svg
   xmlns:dc="http://purl.org/dc/elements/1.1/"
   xmlns:cc="http://creativecommons.org/ns#"
   xmlns:rdf="http://www.w3.org/1999/02/22-rdf-syntax-ns#"
   xmlns:svg="http://www.w3.org/2000/svg"
   xmlns="http://www.w3.org/2000/svg"
   id="svg55"
   version="1.1"
   viewBox="0 0 68.249954 68.225204"
   height="68.225204mm"
   width="68.249954mm">
  <defs
     id="defs49" />
  <metadata
     id="metadata52">
    <rdf:RDF>
      <cc:Work
         rdf:about="">
        <dc:format>image/svg+xml</dc:format>
        <dc:type
           rdf:resource="http://purl.org/dc/dcmitype/StillImage" />
        <dc:title></dc:title>
      </cc:Work>
    </rdf:RDF>
  </metadata>
  <g
     transform="translate(-43.089158,-31.465805)"
     id="layer1">
    <g
       id="Layer1000"
       transform="matrix(0.58919276,0,0,0.58919276,-94.931758,-223.65723)">
      <path
         id="path4"
         style="fill:#00804d;fill-rule:evenodd"
         d="m 292.1725,434.7016 c 30.9659,0 56.2209,25.2459 56.2209,56.1988 0,30.9551 -25.255,56.2011 -56.2209,56.2011 -30.966,0 -56.221,-25.246 -56.221,-56.2011 0,-30.9529 25.255,-56.1988 56.221,-56.1988 z" />
      <path
         id="path6"
         style="fill:#ffffff;fill-rule:evenodd"
         d="m 292.1764,436.8228 c 29.797,0 54.102,24.2928 54.102,54.0799 0,29.787 -24.305,54.0818 -54.102,54.0818 -29.7992,0 -54.104,-24.2948 -54.104,-54.0818 0,-29.7871 24.3048,-54.0799 54.104,-54.0799 z" />
      <path
         id="path8"
         style="fill:#00804d;fill-rule:evenodd"
         d="m 337.9565,494.0803 c -0.2429,-1.0999 -0.292,-2.4919 -0.5828,-3.854 -0.6951,0.991 -1.457,2.3332 -1.91,3.6269 -0.1791,0.5021 -1.408,4.1633 1.0349,2.7522 2.0251,1.9769 1.571,-2.039 1.4579,-2.5251 z m 3.772,0.3912 c -1.15,1.2279 -2.4448,2.6379 -3.1569,3.7539 -0.4201,0.6789 -0.9071,1.5369 -0.2591,2.234 0.5831,0.6001 1.4412,0.68 2.1371,-0.0182 0.826,-0.8569 1.0839,-3.7377 1.2789,-5.9697 z m -7.334,1.5678 c -0.599,-1.4389 -1.4579,-2.9789 -2.3789,-4.873 -0.115,1.9771 -0.3571,4.373 -0.21,5.8121 0.275,0.631 0.76,1.0381 1.3901,1.1489 1.086,-0.356 1.281,-0.9709 1.1988,-2.088 z m -1.213,5.584 c -0.4209,-1.5038 -0.7129,-2.8009 -1.7818,-3.949 -0.3722,1.8791 -1.0032,3.0272 -0.9051,4.5491 0.2089,0.6809 0.6301,1.1338 1.2449,1.328 1.118,-0.2271 1.3771,-0.7931 1.442,-1.9281 z m 3.949,-0.4839 c -0.0159,-1.0531 0.049,-1.9749 -0.8249,-3.401 -1.2949,0.94 -2.0069,1.912 -2.3479,3.4979 -0.0641,0.9222 0.9238,1.1512 1.538,0.8241 1.279,1.4091 1.6509,-0.1931 1.6348,-0.921 z m 3.431,0.972 c -2.5398,1.1979 -4.0629,2.848 -3.9648,3.9651 0.2758,1.1818 1.0199,1.7478 2.2178,0.8578 1.1982,-0.891 1.262,-2.702 1.747,-4.8229 z m -4.8549,4.7421 c 0.307,-1.15 0.161,-2.1541 -0.6159,-3.8021 -1.4732,0.8569 -2.2502,1.5681 -2.8491,3.3979 -0.1781,0.9711 0.843,1.311 1.523,1.0352 1.1169,1.2948 1.715,0.2109 1.942,-0.631 z m -4.4521,0.2109 c -0.21,-1.603 -0.3078,-2.9631 -1.2458,-4.3061 -0.663,1.8941 -1.4731,2.961 -1.5712,4.5311 0.081,0.73 0.4702,1.2479 1.0692,1.5231 1.165,-0.0822 1.5378,-0.6301 1.7478,-1.7481 z m -2.5268,5.3268 c -0.015,-1.62 0.0978,-2.9809 -0.6621,-4.4359 -0.9709,1.779 -1.8621,2.736 -2.1861,4.271 0,0.7151 0.3081,1.2801 0.875,1.6531 1.1642,0.0819 1.586,-0.4221 1.9732,-1.4882 z m 4.6959,-0.9087 c 0.0159,-0.955 0.032,-1.9741 -0.178,-2.9781 -0.955,0.3418 -1.813,1.0839 -2.395,1.828 -0.665,0.8771 -2.0081,2.996 0.3861,2.4469 1.1508,2.137 2.1869,-0.4859 2.1869,-1.2968 z m 5.0029,-2.5892 c -2.6878,0.792 -4.0958,1.8451 -4.1939,2.9622 0.0661,1.1489 0.633,2.0078 1.8301,1.1489 1.165,-0.8399 1.3748,-1.7791 2.3638,-4.1111 z m -2.7199,5.65 c -2.7201,0.5661 -4.4849,1.635 -4.6939,2.7522 0.129,1.148 0.5828,2.1517 1.9089,1.3118 1.311,-0.8098 1.4899,-1.845 2.785,-4.064 z m -5.472,2.3811 c 0.2101,-1.004 0.5511,-1.83 0.292,-3.2391 -1.2141,0.3401 -2.4769,1.053 -3.3361,2.1061 -0.8569,1.082 -1.3748,2.3459 0.5831,1.9409 0.599,2.2501 2.1529,0.3892 2.461,-0.8079 z m -4.7931,0.2401 c 0.1962,-1.6021 0.4221,-2.9611 -0.176,-4.4671 -1.101,1.6529 -2.1367,2.5101 -2.607,3.9999 -0.0808,0.711 0.1771,1.2952 0.6962,1.7312 1.133,0.2259 1.6018,-0.2432 2.0868,-1.264 z m -4.0138,4.4529 c 0.3719,-1.601 0.794,-2.9471 0.3889,-4.5822 -1.328,1.5551 -2.526,2.3162 -3.1731,3.7741 -0.178,0.7279 0,1.3592 0.47,1.845 1.116,0.3711 1.6991,-0.0328 2.3142,-1.0369 z m 4.7109,0.4689 c 0.4221,-0.7759 0.7449,-1.766 0.6641,-3.1388 -1.214,0.1939 -2.5092,0.7438 -3.5132,1.6189 -1.1169,0.953 -2.0398,2.0389 0.2911,2.0709 0.324,2.4761 1.9899,0.453 2.558,-0.551 z m 5.6829,-1.406 c -2.8009,0.1772 -4.7109,1.148 -5.067,2.2161 -0.066,1.133 0.129,2.039 1.6512,1.3439 1.4409,-0.648 1.7799,-1.5369 3.4158,-3.56 z m -4.614,5.2591 c -2.8009,-0.2911 -5.2129,0.5511 -5.6987,1.717 -0.1942,1.133 0.1139,1.9919 1.5698,1.6018 1.4091,-0.3889 2.283,-1.4887 4.1289,-3.3188 z m -6.3618,1.0199 c 0.5979,-0.875 1.101,-1.828 1.1979,-3.3828 -1.2951,0.0649 -2.8159,0.3398 -3.95,1.2639 -1.15,0.9389 -2.1209,2.0081 0.1289,2.183 0.1781,2.5429 1.9911,0.8909 2.6232,-0.0641 z m -4.9062,-1.004 c 0.582,-1.537 1.1991,-2.8318 1.0222,-4.5 -1.5242,1.3771 -2.8182,1.959 -3.6921,3.3029 -0.2591,0.6951 -0.1789,1.3592 0.21,1.9103 1.084,0.5167 1.6841,0.1927 2.4599,-0.7132 z m -1.8289,5.2951 c 1.5871,-0.9711 2.3791,-2.7031 2.59,-3.547 -0.89,0 -1.8459,0.0819 -2.6869,0.18 -0.5341,0.1619 -0.9391,0.3059 -1.457,0.7129 -0.9882,0.9859 -0.582,2.1339 0,2.6541 0.534,0.2441 1.1488,0.2441 1.5539,0 z m 8.062,-0.875 c -2.7371,-0.6492 -5.019,-0.1781 -5.6979,0.744 -0.4051,1.086 -0.3881,1.9591 1.1489,1.861 1.4732,-0.095 2.3961,-1.1322 4.549,-2.605 z m -11.0891,2.023 -1.0678,-1.0681 c 0.129,-0.873 0.6789,-2.1208 0.8249,-2.9959 -1.0369,1.184 -1.7649,2.156 -3.221,3.111 -0.955,0.387 -1.5381,0.8558 -2.7851,1.082 0.76,-1.7972 0.5511,-3.009 0.2432,-3.5762 -0.2262,2.1521 -1.6021,3.8033 -3.0112,4.9221 -2.3309,1.8281 -5.6497,3.172 -8.515,4.549 1.4411,-0.3089 2.8982,-0.746 3.869,-0.8909 1.5061,-0.2112 4.2571,-0.3572 5.6342,0.1599 0.9538,0.358 1.8289,1.0879 1.6338,2.008 0.745,-0.873 0.6642,-1.5859 0.1792,-2.0701 -1.247,-1.2478 -4.8251,-1.2149 -5.44,-1.0689 1.91,-0.792 3.4161,-1.912 5.1959,-2.687 1.7969,-0.7948 3.869,-1.4899 6.4599,-1.4749 z m -64.4629,-38.3181 c 0.2421,-1.0999 0.2911,-2.4919 0.5831,-3.854 0.695,0.991 1.4558,2.3332 1.9099,3.6269 0.1781,0.5021 1.408,4.1633 -1.036,2.7522 -2.0228,1.9769 -1.5698,-2.039 -1.457,-2.5251 z m -3.7709,0.3912 c 1.1488,1.2279 2.444,2.6379 3.1549,3.7539 0.421,0.6789 0.9071,1.5369 0.2599,2.234 -0.5819,0.6001 -1.4419,0.68 -2.1367,-0.0182 -0.8252,-0.8569 -1.0843,-3.7377 -1.2781,-5.9697 z m 7.3329,1.5678 c 0.5981,-1.4389 1.457,-2.9789 2.378,-4.873 0.1139,1.9771 0.358,4.373 0.2112,5.8121 -0.275,0.631 -0.76,1.0381 -1.3921,1.1489 -1.084,-0.356 -1.279,-0.9709 -1.1971,-2.088 z m 1.2141,5.584 c 0.4209,-1.5038 0.7109,-2.8009 1.781,-3.949 0.3719,1.8791 1.0029,3.0272 0.9071,4.5491 -0.2112,0.6809 -0.6322,1.1338 -1.2481,1.328 -1.1172,-0.2271 -1.376,-0.7931 -1.44,-1.9281 z m -3.951,-0.4839 c 0.0171,-1.0531 -0.049,-1.9749 0.8249,-3.401 1.296,0.94 2.0081,1.912 2.348,3.4979 0.066,0.9222 -0.9219,1.1512 -1.537,0.8241 -1.279,1.4091 -1.6509,-0.1931 -1.6359,-0.921 z m -3.4302,0.972 c 2.5402,1.1979 4.0621,2.848 3.9651,3.9651 -0.2761,1.1818 -1.0199,1.7478 -2.2181,0.8578 -1.1987,-0.891 -1.2628,-2.702 -1.747,-4.8229 z m 4.8552,4.7421 c -0.3081,-1.15 -0.161,-2.1541 0.6149,-3.8021 1.474,0.8569 2.2509,1.5681 2.8491,3.3979 0.1788,0.9711 -0.8419,1.311 -1.522,1.0352 -1.116,1.2948 -1.7141,0.2109 -1.942,-0.631 z m 4.4518,0.2109 c 0.2112,-1.603 0.307,-2.9631 1.2461,-4.3061 0.6631,1.8941 1.4741,2.961 1.5721,4.5311 -0.0822,0.73 -0.47,1.2479 -1.07,1.5231 -1.1651,-0.0822 -1.537,-0.6301 -1.7482,-1.7481 z m 2.5263,5.3268 c 0.0139,-1.62 -0.0981,-2.9809 0.663,-4.4359 0.9709,1.779 1.8618,2.736 2.1858,4.271 0,0.7151 -0.307,1.2801 -0.8751,1.6531 -1.1659,0.0819 -1.586,-0.4221 -1.9737,-1.4882 z m -4.6962,-0.9087 c -0.0159,-0.955 -0.032,-1.9741 0.1792,-2.9781 0.955,0.3418 1.8119,1.0839 2.3958,1.828 0.663,0.8771 2.0061,2.996 -0.3889,2.4469 -1.15,2.137 -2.1861,-0.4859 -2.1861,-1.2968 z m -5.0009,-2.5892 c 2.687,0.792 4.095,1.8451 4.193,2.9622 -0.066,1.1489 -0.6321,2.0078 -1.83,1.1489 -1.165,-0.8399 -1.3759,-1.7791 -2.363,-4.1111 z m 2.719,5.65 c 2.7199,0.5661 4.4839,1.635 4.6939,2.7522 -0.129,1.148 -0.5819,2.1517 -1.9088,1.3118 -1.3111,-0.8098 -1.4902,-1.845 -2.7851,-4.064 z m 5.472,2.3811 c -0.21,-1.004 -0.551,-1.83 -0.2911,-3.2391 1.2129,0.3401 2.4761,1.053 3.3341,2.1061 0.8589,1.082 1.3771,2.3459 -0.5819,1.9409 -0.6001,2.2501 -2.1541,0.3892 -2.4611,-0.8079 z m 4.7928,0.2401 c -0.1958,-1.6021 -0.4218,-2.9611 0.1772,-4.4671 1.101,1.6529 2.1359,2.5101 2.6059,3.9999 0.0811,0.711 -0.178,1.2952 -0.6959,1.7312 -1.1322,0.2259 -1.603,-0.2432 -2.0872,-1.264 z m 4.013,4.4529 c -0.3727,-1.601 -0.792,-2.9471 -0.3877,-4.5822 1.328,1.5551 2.5248,2.3162 3.1728,3.7741 0.178,0.7279 0,1.3592 -0.4689,1.845 -1.1171,0.3711 -1.6999,-0.0328 -2.3162,-1.0369 z m -4.7109,0.4689 c -0.4189,-0.7759 -0.7449,-1.766 -0.663,-3.1388 1.2141,0.1939 2.509,0.7438 3.513,1.6189 1.116,0.953 2.0401,2.0389 -0.292,2.0709 -0.324,2.4761 -1.991,0.453 -2.558,-0.551 z m -5.682,-1.406 c 2.8012,0.1772 4.7112,1.148 5.0669,2.2161 0.0661,1.133 -0.1298,2.039 -1.6509,1.3439 -1.4408,-0.648 -1.781,-1.5369 -3.416,-3.56 z m 4.6139,5.2591 c 2.8012,-0.2911 5.2141,0.5511 5.6983,1.717 0.195,1.133 -0.112,1.9919 -1.569,1.6018 -1.4083,-0.3889 -2.283,-1.4887 -4.1293,-3.3188 z m 6.3633,1.0199 c -0.6001,-0.875 -1.1022,-1.828 -1.1991,-3.3828 1.2949,0.0649 2.8009,0.356 3.9501,1.2639 1.1497,0.906 2.1209,1.9741 -0.1293,2.183 -0.1788,2.5429 -1.9907,0.8909 -2.6217,-0.0641 z m 4.9047,-1.004 c -0.5828,-1.537 -1.1987,-2.8318 -1.0199,-4.5 1.522,1.3771 2.8171,1.959 3.691,3.3029 0.258,0.6951 0.178,1.3592 -0.21,1.9103 -1.0848,0.5167 -1.6841,0.1927 -2.4611,-0.7132 z m 1.8301,5.2951 c -1.588,-0.9711 -2.3808,-2.7031 -2.5909,-3.547 0.8898,0 1.8448,0.0819 2.6858,0.18 0.5361,0.1619 0.94,0.3059 1.4582,0.7129 0.987,0.9859 0.5819,2.1339 0,2.6541 -0.5341,0.2441 -1.15,0.2441 -1.5531,0 z m -8.064,-0.875 c 2.738,-0.6492 5.019,-0.1781 5.699,0.744 0.4051,1.086 0.3881,1.9591 -1.1488,1.861 -1.4741,-0.095 -2.3962,-1.1322 -4.5502,-2.605 z m 11.0911,2.023 1.0658,-1.0681 c -0.1278,-0.873 -0.6777,-2.1208 -0.8237,-2.9959 1.0349,1.184 1.764,2.156 3.2218,3.111 0.955,0.387 1.537,0.8558 2.7839,1.082 -0.7619,-1.7972 -0.5507,-3.009 -0.2437,-3.5762 0.2267,2.1521 1.6038,3.8033 3.0118,4.9221 2.332,1.8281 5.65,3.172 8.515,4.549 -1.4409,-0.3089 -2.897,-0.746 -3.869,-0.8909 -1.505,-0.2112 -4.258,-0.3572 -5.6339,0.1599 -0.9541,0.358 -1.8292,1.0879 -1.6342,2.008 -0.7449,-0.873 -0.6638,-1.5859 -0.1788,-2.0701 1.2469,-1.2478 4.824,-1.2149 5.4399,-1.0689 -1.9111,-0.792 -3.4169,-1.912 -5.1959,-2.687 -1.798,-0.7948 -3.869,-1.4899 -6.459,-1.4749 z" />
      <path
         id="path10"
         style="fill:#031b0a;fill-rule:evenodd"
         d="m 294.8951,503.2543 c -0.4039,-0.051 -0.858,-0.551 -1.004,-1.586 l -0.7441,-4.2051 0.5012,-0.1168 1.586,4.1028 c 0.2109,0.5531 0.3078,1.537 -0.3391,1.8051 z m -7.592,-3.439 c -0.665,-1.1001 -1.296,-1.286 -2.056,-1.5179 l 0.436,-0.8011 c 1.0531,0.1658 1.815,0.8669 1.62,2.319 z m -13.826,1.5699 c 0.5341,-1.035 1.5551,-1.836 2.397,-1.537 l 0.0799,0.8691 c -0.7287,-0.2681 -1.6659,0.25 -2.4769,0.6679 z m 33.8669,-5.459 c 0.129,-0.3169 0.453,-0.6168 1.6342,-0.733 -0.921,-0.502 -1.6841,-0.2849 -2.5081,-0.0499 0.3081,0.265 0.5981,0.502 0.8739,0.7829 z m 4.0961,2.1702 c -0.6951,-0.6332 -2.0081,-1.3192 -2.768,-0.7682 l 0.4691,0.7849 c 0.6148,-0.4178 1.3589,-0.2009 2.2989,-0.0167 z m -9.5831,8.3789 -3.9668,-4.0881 0.3079,-0.3691 4.888,2.8732 c 0.6959,0.4159 1.0681,1.4511 0.9391,1.785 -0.1459,0.3509 -1.4241,0.6168 -2.1682,-0.201 z m -2.1549,1.4681 -2.9781,-4.7551 0.3901,-0.284 4.176,3.954 c 0.5981,0.57 0.7121,1.6208 0.5669,1.8368 -0.163,0.235 -1.5868,0.2002 -2.1549,-0.7517 z m -9.663,2.1858 0.921,-5.7909 -0.5159,-0.1329 -2.4789,5.2758 c -0.339,0.7322 -0.015,1.8 0.3577,2.0001 0.4042,0.203 1.5693,-0.2151 1.7161,-1.3521 z m -2.882,-0.7319 2.1359,-5.442 -0.4198,-0.2191 -3.4809,4.5261 c -0.5012,0.6678 -0.5502,1.7521 -0.2262,2.035 0.3722,0.2829 1.5851,0.1329 1.991,-0.9 z m -4.581,-2.922 3.9492,-4.1059 -0.3073,-0.3671 -4.8889,2.889 c -0.6959,0.4159 -1.133,1.4001 -0.9388,1.7669 0.2267,0.3852 1.4238,0.6349 2.1858,-0.1829 z m 9.6309,5.6909 c 0,0.3852 1.2141,-0.8669 1.0693,-1.719 l -0.7611,-5.8921 H 291.9 l -0.7608,5.8921 c -0.144,0.8521 1.0678,2.1042 1.0678,1.719 z m 0,-8.445 c 0.5502,0 1.0531,-0.7829 0.9882,-1.518 l -0.7441,-4.691 h -0.4859 l -0.7452,4.691 c -0.0638,0.7351 0.4371,1.518 0.987,1.518 z m -2.6869,-0.4669 c 0.4051,-0.051 0.858,-0.551 1.004,-1.586 l 0.745,-4.2051 -0.5029,-0.1168 -1.5851,4.1028 c -0.2109,0.5531 -0.3079,1.537 0.339,1.8051 z m -2.1521,-1.1021 c 0.3552,0.2172 0.9221,-0.3999 1.0503,-0.767 l 1.7007,-4.1721 -0.5499,-0.2338 -2.2011,3.9058 c -0.2429,0.3833 -0.2429,1.1172 0,1.2671 z m -2.6388,5.7762 2.962,-4.7583 -0.3731,-0.2829 -4.1768,3.9711 c -0.6151,0.5851 -0.8422,1.5029 -0.5811,1.8368 0.29,0.3172 1.569,0.2002 2.169,-0.7667 z m 9.6319,2.2209 -0.8901,-5.811 0.485,-0.1329 2.4942,5.2398 c 0.2568,0.551 0.015,1.872 -0.3722,2.0361 -0.3739,0.1678 -1.5398,-0.233 -1.7169,-1.332 z m 2.897,-0.7702 -2.1359,-5.4238 0.4198,-0.2191 3.4971,4.5411 c 0.502,0.6528 0.534,1.77 0.2271,2.02 -0.3402,0.301 -1.603,0.1329 -2.0081,-0.9182 z m -0.2109,-7.2269 c -0.3552,0.2172 -0.923,-0.3999 -1.0511,-0.767 l -1.7011,-4.1721 0.5511,-0.2338 2.2011,3.9058 c 0.2441,0.3833 0.2441,1.1172 0,1.2671 z m 0.0669,-2.3369 c 0.663,-1.1001 1.2951,-1.286 2.054,-1.5179 l -0.4368,-0.8011 c -1.0523,0.1658 -1.8131,0.8669 -1.6172,2.319 z m 10.828,0.7339 0.065,-0.801 c -0.3719,-1.1501 0.0331,-1.2668 0.6811,-1.5509 l -0.373,-0.6701 c -1.3589,-0.1318 -1.5531,-0.5661 -1.5701,-1.533 l -0.616,-0.502 c -1.1319,0.2172 -1.1319,0.6171 -1.7799,1.2351 -0.163,0.201 -0.7282,0.267 -1.1179,0.267 -0.4692,0 -0.8893,-0.451 -1.0843,-0.75 l -1.7478,-3.638 c -0.3232,0.066 -0.648,0.3999 -0.8581,0.6851 0,0.5998 0.453,1.567 0.453,1.8519 0,0.2319 0.307,1.0681 0.307,1.584 l -1.0658,0.6009 0.4668,0.8011 c 2.607,-0.383 3.2701,1.1679 4.955,1.5021 0.4209,0.068 2.332,0.7339 3.285,0.9178 z m -34.9659,-2.4528 c 0.6948,-0.6332 2.007,-1.3192 2.7689,-0.7682 l -0.47,0.7849 c -0.6159,-0.4178 -1.36,-0.2009 -2.2989,-0.0167 z m 4.0958,-2.1702 c -0.1298,-0.3169 -0.4538,-0.6168 -1.6358,-0.733 0.9229,-0.502 1.684,-0.2849 2.5089,-0.0499 -0.307,0.265 -0.599,0.502 -0.8731,0.7829 z m -9.324,-5.707 c -0.0989,-2.1039 2.054,-9.379 3.5601,-12.168 h 0.259 c -0.972,4.4731 -1.8779,10.1821 -1.2789,16.4741 0,1.0179 -0.307,2.3191 -1.198,2.6039 -1.3921,-0.051 -1.3422,-5.9938 -1.3422,-6.91 z m 4.6942,-12.1328 h 0.3229 c -0.114,3.272 0.017,6.709 -0.3561,10.0139 -0.1139,0.8669 -0.9388,1.5679 -1.3929,0.199 -0.2738,-3.5549 1.0859,-7.5101 1.4261,-10.2129 z m -5.3909,9.7968 c -0.7282,3.721 0.307,13.6012 -0.6151,17.691 -0.2761,1.2351 -2.268,3.621 -2.429,-0.7339 0.3398,-6.0939 1.942,-12.5351 3.0441,-16.9571 z m 44.2428,-14.0859 c -0.794,-0.0681 -1.1659,-0.5349 -1.1489,-0.938 0,-0.6321 0.6801,0.1681 1.1489,0.1681 0.663,-0.017 0.9712,-0.7342 1.0369,-0.3002 0.0641,0.6681 -0.5828,1.1191 -1.0369,1.0701 z m -2.088,-1.772 c -0.777,-0.066 -1.182,-0.5329 -1.1489,-0.9351 0,-0.6148 0.6631,0.1522 1.1489,0.1522 0.68,-0.017 0.97,-0.701 1.0361,-0.2832 0.0649,0.6662 -0.5831,1.1172 -1.0361,1.0661 z m -1.62,1.772 c -0.7761,-0.0681 -1.1809,-0.5349 -1.148,-0.938 0,-0.6151 0.6641,0.1511 1.148,0.1511 0.68,-0.0162 0.972,-0.701 1.0369,-0.2832 0.0652,0.6681 -0.5828,1.1191 -1.0369,1.0701 z m -1.2948,2.234 c -0.7762,-0.0661 -1.1812,-0.533 -1.1481,-0.9329 0,-0.6171 0.6639,0.1499 1.1481,0.1499 0.6797,-0.017 0.9719,-0.701 1.0369,-0.2831 0.0649,0.6661 -0.5831,1.1171 -1.0369,1.0661 z m 3.4168,0 c -0.7769,-0.0661 -1.182,-0.533 -1.15,-0.9329 0,-0.6171 0.663,0.1499 1.15,0.1499 0.6789,-0.017 0.97,-0.701 1.0369,-0.2831 0.0641,0.6661 -0.5839,1.1171 -1.0369,1.0661 z m -36.587,-2.234 c -0.453,0.049 -1.0998,-0.402 -1.0369,-1.0701 0.066,-0.434 0.3739,0.2832 1.0369,0.3002 0.4691,0 1.15,-0.8002 1.15,-0.1681 0.017,0.4031 -0.356,0.8699 -1.15,0.938 z m 2.088,-1.772 c -0.453,0.0511 -1.0998,-0.3999 -1.0361,-1.0661 0.0661,-0.4178 0.3561,0.2662 1.0361,0.2832 0.4861,0 1.15,-0.767 1.15,-0.1522 0.032,0.4022 -0.371,0.8691 -1.15,0.9351 z m 1.62,1.772 c -0.4538,0.049 -1.1018,-0.402 -1.0369,-1.0701 0.066,-0.4178 0.3569,0.267 1.0369,0.2832 0.485,0 1.148,-0.7662 1.148,-0.1511 0.0329,0.4031 -0.371,0.8699 -1.148,0.938 z m 1.2951,2.234 c -0.4541,0.051 -1.1021,-0.4 -1.038,-1.0661 0.0669,-0.4179 0.358,0.2661 1.038,0.2831 0.4851,0 1.1481,-0.767 1.1481,-0.1499 0.0329,0.3999 -0.3711,0.8668 -1.1481,0.9329 z m -3.416,0 c -0.4541,0.051 -1.1021,-0.4 -1.0372,-1.0661 0.0661,-0.4179 0.3572,0.2661 1.0372,0.2831 0.4859,0 1.15,-0.767 1.15,-0.1499 0.0321,0.3999 -0.3741,0.8668 -1.15,0.9329 z m 24.719,-11.1311 c 0.4541,0 0.8098,0.3662 0.8098,0.8342 0,0.4669 -0.3557,0.834 -0.8098,0.834 -0.453,0 -0.809,-0.3671 -0.809,-0.834 0,-0.468 0.356,-0.8342 0.809,-0.8342 z m -14.4712,0 c 0.4533,0 0.8082,0.3662 0.8082,0.8342 0,0.4669 -0.3549,0.834 -0.8082,0.834 -0.4538,0 -0.811,-0.3671 -0.811,-0.834 0,-0.468 0.3572,-0.8342 0.811,-0.8342 z m 31.729,25.319 c 0.097,-2.1039 -2.0559,-9.379 -3.5608,-12.168 h -0.26 c 0.972,4.4731 1.8788,10.1821 1.279,16.4741 0,1.0179 0.3079,2.3191 1.1968,2.6039 1.3932,-0.051 1.345,-5.9938 1.345,-6.91 z m -4.695,-12.1328 h -0.324 c 0.1143,3.272 -0.0159,6.709 0.356,10.0139 0.1132,0.8669 0.938,1.5679 1.393,0.199 0.2752,-3.5549 -1.084,-7.5101 -1.425,-10.2129 z m 5.3912,9.7968 c 0.728,3.721 -0.3081,13.6012 0.6149,17.691 0.2761,1.2351 2.266,3.621 2.4281,-0.7339 -0.3401,-6.0939 -1.9431,-12.5351 -3.043,-16.9571 z m -6.4431,13.502 c -0.5329,-1.035 -1.554,-1.836 -2.3959,-1.537 l -0.081,0.8691 c 0.7279,-0.2681 1.667,0.25 2.4769,0.6679 z m -18.7311,-7.494 c 1.3442,0 2.5912,-0.5179 3.3512,-1.3008 0.7299,-0.8691 0.6638,-2.338 0.405,-3.5062 -0.2591,-1.351 -0.5989,-3.7048 -0.405,-5.3419 0.1301,-0.8671 1.0048,-2.203 1.9269,-2.203 0.5179,0 2.0401,-0.1809 2.9299,0.619 -0.1289,-1.2361 -0.4368,-3.941 0.2262,-4.824 0.163,-0.2171 0.4709,-0.3999 0.8419,-0.367 0.3082,0.6171 0.777,1.051 1.4412,1.2849 0.341,-0.4839 0.5507,-1.0349 0.6808,-1.152 0.1931,0 0.614,0.201 0.8099,0.25 0.193,1.1702 -0.989,2.5881 -0.0488,2.8041 0.1619,0.034 0.5979,-0.084 0.777,-0.7339 0.0958,-0.2172 0.2089,-1.6022 0.0958,-1.8851 0.0973,0.0159 0.5032,0.0491 0.9391,0.0669 0.065,0.5001 0.065,1.334 -0.388,3.0881 -0.0479,1.2671 0.8251,1 1.1321,0.1811 0.3569,-1.4842 0.2588,-2.084 0.0669,-3.2031 0.533,0.0329 0.6461,0.049 1.2609,0.049 -0.0468,1.7189 -0.8739,2.8381 -0.76,3.7069 -0.032,0.4161 0.1131,1.0681 0.5341,1.135 0.6151,-0.1678 0.6962,-0.485 0.9071,-1.135 0.242,-1.186 0.047,-2.4219 -0.163,-3.6899 0.373,0 0.7129,-0.017 1.1179,-0.017 -0.083,1.8198 -0.356,4.6559 -0.356,6.476 0,0.567 0.5499,3.3718 1.2149,1.4871 0.0641,-0.2191 0.3382,-1.1531 0.3552,-1.8031 0.0649,-1.637 -0.2262,-4.057 -0.633,-6.1761 1.4571,-0.0168 2.543,-0.201 2.9149,-0.451 0.3081,0.6862 0.9391,1.4862 1.635,1.5701 -0.712,-1.336 -1.0519,-2.287 -1.0519,-2.8219 0,-0.701 0.307,-0.7671 0.307,-0.7671 0.1789,0 0.4708,0.5681 0.5828,0.9681 1.489,3.8888 4.9541,21.2969 5.8601,20.2798 1.1179,-1.737 -1.586,-10.3498 -3.479,-16.0409 -0.616,-1.819 -1.8961,-4.6571 -2.219,-5.8581 0.5831,0.834 1.2311,1.8692 1.4729,2.4531 0.8912,2.069 2.1371,5.459 2.721,7.8619 0.3722,1.4352 1.019,1.586 1.019,0.4842 -0.534,-3.1391 -1.474,-5.5412 -2.0239,-7.1621 -0.5661,-1.701 -2.1359,-4.5221 -3.5929,-6.2231 -1.328,-1.537 -3.401,-2.9719 -5.4882,-2.937 0.631,-0.5349 2.9793,-0.051 3.5932,0.515 0.972,0.5021 2.4461,2.537 3.2389,3.405 0.7109,1.0352 2.3309,2.804 3.026,2.7712 -1.23,-1.385 -2.3151,-3.1391 -3.2049,-4.4552 -0.7931,-1.1699 -2.4111,-3.121 -3.1082,-3.2559 -0.4368,-0.0661 -2.3468,-0.7339 -3.6598,-0.1831 -0.97,0.468 -1.9732,1.152 -2.944,2.2362 -2.543,4.2398 -2.8661,4.4898 -8.0632,4.4898 -1.925,1.385 -3.8848,2.1042 -5.796,2.1042 -1.9099,0 -3.869,-0.7192 -5.794,-2.1042 -5.1979,0 -5.5219,-0.25 -8.0628,-4.4898 -0.9712,-1.0842 -1.9749,-1.7682 -2.9461,-2.2362 -1.311,-0.5508 -3.2218,0.117 -3.6589,0.1831 -0.6959,0.1349 -2.3151,2.086 -3.1079,3.2559 -0.8893,1.3161 -1.9752,3.0702 -3.2052,4.4552 0.6959,0.0328 2.3159,-1.736 3.0271,-2.7712 0.792,-0.868 2.2661,-2.9029 3.2381,-3.405 0.6139,-0.566 2.9619,-1.0499 3.5937,-0.515 -2.088,-0.0349 -4.1618,1.4 -5.489,2.937 -1.4559,1.701 -3.0268,4.5221 -3.5929,6.2231 -0.5499,1.6209 -1.4899,4.023 -2.0239,7.1621 0,1.1018 0.648,0.951 1.021,-0.4842 0.582,-2.4029 1.8281,-5.7929 2.7179,-7.8619 0.2432,-0.5839 0.8912,-1.6191 1.4731,-2.4531 -0.322,1.201 -1.603,4.0391 -2.2169,5.8581 -1.8942,5.6911 -4.5973,14.3039 -3.4813,16.0409 0.9071,1.0171 4.371,-16.391 5.8612,-20.2798 0.1128,-0.4 0.4028,-0.9681 0.582,-0.9681 0,0 0.3078,0.0661 0.3078,0.7671 0,0.5349 -0.3387,1.4859 -1.0528,2.8219 0.6971,-0.0839 1.3281,-0.8839 1.637,-1.5701 0.3719,0.25 1.4559,0.4342 2.914,0.451 -0.407,2.1191 -0.6981,4.5391 -0.6329,6.1761 0.017,0.65 0.2908,1.584 0.3557,1.8031 0.663,1.8847 1.2161,-0.9201 1.2161,-1.4871 0,-1.8201 -0.2758,-4.6562 -0.358,-6.476 0.405,0 0.746,0.017 1.1179,0.017 -0.2108,1.268 -0.4039,2.5039 -0.1629,3.6899 0.2111,0.65 0.2919,0.9672 0.907,1.135 0.4221,-0.0669 0.567,-0.7189 0.533,-1.135 0.1162,-0.8688 -0.7098,-1.988 -0.7589,-3.7069 0.6149,0 0.728,-0.0161 1.262,-0.049 -0.1942,1.1191 -0.292,1.7189 0.0661,3.2031 0.3058,0.8189 1.1809,1.086 1.1318,-0.1811 -0.4541,-1.7541 -0.4541,-2.588 -0.388,-3.0881 0.4371,-0.0178 0.8421,-0.051 0.9391,-0.0669 -0.1131,0.2829 0,1.6679 0.0961,1.8851 0.1788,0.6499 0.6159,0.7679 0.777,0.7339 0.9399,-0.216 -0.2421,-1.6339 -0.0482,-2.8041 0.195,-0.049 0.6159,-0.25 0.8101,-0.25 0.129,0.1171 0.3399,0.6681 0.68,1.152 0.6631,-0.2339 1.133,-0.6678 1.4409,-1.2849 0.3722,-0.0329 0.68,0.1499 0.841,0.367 0.663,0.883 0.3561,3.5879 0.2259,4.824 0.8921,-0.7999 2.414,-0.619 2.9311,-0.619 0.9221,0 1.7971,1.3359 1.9261,2.203 0.195,1.6371 -0.1451,3.9909 -0.4031,5.3419 -0.2611,1.1682 -0.3248,2.6371 0.4031,3.5062 0.7628,0.7829 2.0081,1.3008 3.3508,1.3008 z m 3.6752,-21.164 0.568,-1.637 c 2.4259,-0.2319 3.399,-1.4839 4.1749,-3.354 l 2.2992,-0.064 0.5669,-0.303 -2.541,-0.383 0.404,-0.4329 2.8,0.5661 0.4218,-0.4002 -2.5738,-1.035 c -0.8901,-1.133 -1.9112,-1.836 -2.8171,-1.836 -2.865,0 -2.202,1.3851 -5.0029,-0.2168 l 0.1619,2.035 c -1.1971,1.7028 -1.1339,5.3419 -1.1339,7.861 0.8739,0.184 1.717,-0.214 2.672,-0.8002 z m -7.382,0 c 0.9558,0.5862 1.781,0.968 2.656,0.7852 0,-2.52 0.0808,-6.1432 -1.1171,-7.846 l 0.1621,-2.035 c -2.8012,1.6019 -2.1381,0.2168 -5.002,0.2168 -0.9082,0 -1.927,0.703 -2.8182,1.836 l -2.5738,1.035 0.4209,0.4002 2.8021,-0.5661 0.403,0.4329 -2.5421,0.383 0.567,0.303 2.2991,0.064 c 0.777,1.8701 1.747,3.1221 4.1769,3.354 z m 3.7068,3.054 c 1.8451,0.0491 3.3991,-0.4838 4.7931,-1.6679 l -0.697,-0.7361 c -1.5049,0.803 -2.234,0.9862 -4.1111,1.0531 -1.8949,-0.084 -2.558,-0.2659 -4.0637,-1.069 l -0.6962,0.735 c 1.3929,1.1849 2.8981,1.719 4.7749,1.6849 z m -6.6208,17.2911 c 0.8419,-0.0989 1.5389,-0.8671 1.7169,-1.7521 0.129,-1.1339 0.3232,-2.6189 0.6959,-4.089 0.2753,-1.7699 0.339,-3.5039 -0.5179,-4.557 -0.9071,-0.566 -1.798,-0.566 -2.8661,0 -1.5058,1.3692 -1.3107,2.7712 -0.6967,5.6251 0.2109,1.0021 0.341,2.086 0.1788,3.5059 0.5499,0.2322 1.1659,0.7671 1.4891,1.2671 z m 13.2429,0 c 0.3231,-0.5 0.9379,-1.0349 1.4901,-1.2671 -0.1621,-1.4199 -0.0331,-2.5038 0.1769,-3.5059 0.616,-2.8539 0.809,-4.2559 -0.6959,-5.6251 -1.0689,-0.566 -1.9602,-0.566 -2.865,0 -0.8572,1.0531 -0.794,2.7871 -0.519,4.557 0.3719,1.4701 0.5669,2.9551 0.6979,4.089 0.1772,0.885 0.8731,1.6532 1.715,1.7521 z m -22.3569,7.4769 -0.0652,-0.801 c 0.3731,-1.1501 -0.0317,-1.2668 -0.6797,-1.5509 l 0.3727,-0.6701 c 1.3601,-0.1318 1.5543,-0.5661 1.5701,-1.533 l 0.616,-0.502 c 1.1322,0.2172 1.1322,0.6171 1.781,1.2351 0.161,0.201 0.7279,0.267 1.116,0.267 0.47,0 0.8901,-0.451 1.0851,-0.75 l 1.7479,-3.638 c 0.324,0.066 0.6471,0.3999 0.858,0.6851 0,0.5998 -0.4538,1.567 -0.4538,1.8519 0,0.2319 -0.3062,1.0681 -0.3062,1.584 l 1.0681,0.6009 -0.47,0.8011 c -2.605,-0.383 -3.27,1.1679 -4.9529,1.5021 -0.4221,0.068 -2.3321,0.7339 -3.2871,0.9178 z m 15.7348,-3.6538 c -0.8248,0.017 -2.2977,-0.2682 -2.897,-0.8521 -0.5828,-0.9 -0.6148,-1.4511 -0.6468,-2.787 0.987,0.951 2.2498,1.3011 3.5438,1.3011 1.2952,-0.0162 2.575,-0.5162 3.545,-1.317 -0.0479,1.334 0.2912,2.02 -0.7928,2.9378 -0.6962,0.5839 -1.925,0.7172 -2.7522,0.7172 z" />
      <path
         id="path12"
         style="fill:#00804d;fill-rule:evenodd"
         d="m 254.3747,477.973 -8.6601,-4.4181 1.537,-3.0268 3.594,1.8278 -2.0401,-5.0329 1.7323,-2.996 2.2178,5.5349 6.6861,-1.682 -1.764,3.3341 -5.3751,1.5551 3.6099,1.8768 z m 4.2081,-16.1229 c 1.2639,1.1818 2.4627,1.3748 3.2388,0.5508 0.728,-0.7929 0.453,-1.9769 -0.858,-3.174 -0.5669,-0.5349 -1.279,-1.004 -1.796,-1.0859 -0.5199,-0.063 -1.1019,0.1131 -1.425,0.453 -0.324,0.358 -0.4708,0.8929 -0.4368,1.377 0.0309,0.5349 0.5828,1.2149 1.277,1.8791 z m -2.6212,2.8159 c -1.0349,-0.97 -1.6189,-2.2501 -1.6189,-3.6269 0,-1.326 0.663,-2.7031 1.781,-3.9492 0.5329,-0.582 1.213,-1.1478 1.7969,-1.457 0.6151,-0.3079 1.3921,-0.582 1.9412,-0.582 0.6168,0 1.3447,0.0652 1.9278,0.2271 0.599,0.1769 1.3272,0.6131 1.8459,1.084 0.7283,0.695 1.3272,1.6191 1.4721,2.461 0.163,0.875 0.049,1.8609 -0.2109,2.6869 -0.258,0.8091 -0.874,1.7332 -1.4879,2.3792 -0.648,0.6638 -1.4732,1.311 -2.3321,1.65 -0.777,0.3249 -1.764,0.438 -2.59,0.3728 -0.8731,-0.0638 -1.8301,-0.599 -2.5251,-1.2459 z m 12.5149,-5.6321 -4.5819,-8.5 3.2542,-1.991 6.1018,3.0101 -2.671,-4.9201 2.573,-1.3918 4.5992,8.693 -2.9461,1.5548 -6.8811,-3.401 3.0271,5.553 z m 13.7432,-6.395 -1.0522,-3.9359 -5.2619,-4.4019 3.8199,-1.0372 2.7692,2.543 1.133,-3.5629 3.045,-0.841 -2.1062,6.3961 1.0693,3.9319 z m 12.547,-5.328 -0.9399,-2.7989 -0.9562,2.7989 z m -6.2022,4.0162 3.7072,-9.7291 h 3.806 l 3.6899,9.7291 h -3.6899 l -0.714,-1.895 h -3.1391 l -0.6488,1.895 z m 12.903,-1.8771 3.335,0.4351 c 0.032,0.3909 0.307,0.7619 0.534,0.9878 0.3731,0.3731 0.8581,0.6492 1.2782,0.7461 0.341,0.063 0.7789,0.129 1.021,0.129 0.275,0 0.502,-0.2109 0.502,-0.339 0,-0.358 -0.568,-0.8269 -1.8292,-1.442 -1.0859,-0.5349 -2.1378,-1.264 -2.7688,-1.8609 -0.567,-0.5511 -0.567,-1.522 -0.2109,-2.5742 0.1468,-0.4688 0.5998,-1.004 1.0678,-1.1979 0.568,-0.2441 1.313,-0.47 2.0571,-0.47 0.777,0 1.5698,0.146 2.3309,0.339 0.923,0.243 1.8289,0.7129 2.541,1.3289 0.714,0.6131 1.1662,1.3771 1.279,2.2502 l -3.043,-0.0321 c -0.0321,-0.341 -0.1619,-0.7611 -0.4538,-0.957 -0.2742,-0.193 -0.7603,-0.4841 -1.1002,-0.5329 -0.2421,-0.0331 -0.663,-0.1151 -0.955,-0.098 -0.2591,0.0178 -0.4209,0.178 -0.4379,0.2908 -0.0312,0.1961 0.2279,0.6001 0.697,0.8271 0.584,0.2931 1.3439,0.7929 2.088,1.1319 0.777,0.3422 1.5378,0.9071 1.9579,1.457 0.3901,0.502 0.519,1.3442 0.358,2.2042 -0.0981,0.597 -0.568,1.2459 -1.118,1.5208 -0.6471,0.324 -1.3759,0.5491 -2.2011,0.5491 -0.8268,0 -1.7818,-0.1619 -2.639,-0.3711 -1.1648,-0.307 -2.3309,-1.004 -3.1088,-1.7169 -0.8081,-0.7441 -1.2461,-1.6501 -1.1812,-2.605 z m 16.7222,4.2891 1.2149,0.7769 c 0.2911,0.1931 0.6959,0.26 0.955,0.26 0.2761,0 0.5989,-0.26 0.663,-0.358 0.0981,-0.1931 0.1301,-0.5171 0.049,-0.7439 -0.096,-0.2582 -0.3719,-0.5822 -0.6959,-0.7772 l -1.1982,-0.7778 z m -6.086,2.8159 5.1488,-8.2539 4.3861,2.768 c 1.3269,0.824 2.315,1.7969 2.622,2.556 0.3081,0.811 0.292,1.8459 -0.227,2.6719 -0.3229,0.533 -0.8419,0.9709 -1.3269,1.084 -0.5499,0.1471 -1.2631,0.2421 -1.8122,0.131 -0.599,-0.1151 -1.2478,-0.3889 -1.7328,-0.682 l -2.0892,-1.3099 -1.8448,2.9959 z m 16.124,8.0141 c -1.2951,1.1968 -2.4772,1.408 -3.2391,0.5658 -0.7438,-0.7929 -0.468,-1.9749 0.843,-3.189 0.5831,-0.534 1.2631,-0.987 1.813,-1.0669 0.519,-0.082 1.084,0.0799 1.4241,0.4529 0.324,0.3731 0.4689,0.8731 0.438,1.3601 -0.0482,0.5511 -0.5831,1.2149 -1.279,1.8771 z m 2.6229,2.8338 c 1.0349,-0.9729 1.618,-2.2499 1.618,-3.6269 0,-1.3601 -0.6471,-2.7029 -1.781,-3.949 -0.5329,-0.6001 -1.2291,-1.135 -1.8139,-1.459 -0.6131,-0.3231 -1.3581,-0.5981 -1.9261,-0.5981 -0.631,-0.0159 -1.3589,0.0641 -1.9259,0.2262 -0.6301,0.1959 -1.328,0.618 -1.845,1.1019 -0.7441,0.695 -1.3122,1.6171 -1.4732,2.459 -0.1619,0.8909 -0.0649,1.8301 0.2112,2.687 0.2738,0.8271 0.8419,1.7331 1.4729,2.3811 0.6641,0.6979 1.472,1.2778 2.3459,1.6528 0.794,0.3221 1.749,0.4352 2.5912,0.3711 0.858,-0.0819 1.813,-0.5981 2.5259,-1.2461 z m 5.0831,5.375 -1.652,0.8082 0.7449,1.5219 c 0.161,0.3569 0.453,0.6639 0.7121,0.7611 0.178,0.0649 0.4529,0.129 0.68,0.0159 0.2599,-0.131 0.4218,-0.3569 0.4538,-0.5491 0.0312,-0.2769 -0.049,-0.7129 -0.1939,-1.0369 z m 0.2908,-4.2429 2.719,5.618 c 0.2772,0.5681 0.5511,1.23 0.616,1.7161 0.064,0.4998 0.064,1.084 0.0331,1.4729 -0.017,0.3889 -0.2911,0.826 -0.4711,1.1169 -0.1939,0.3072 -0.6148,0.6491 -0.9229,0.7781 -0.5009,0.2109 -1.052,0.2749 -1.6339,0.2259 -0.4862,-0.0329 -1.101,-0.3878 -1.62,-0.955 l -2.848,3.7721 -1.749,-3.5941 2.558,-3.272 -0.453,-0.9369 -3.3661,1.635 -1.6211,-3.3029 z" />
      <path
         id="path14"
         style="fill:#00804d;fill-rule:evenodd"
         d="m 284.5748,523.8888 0.9059,-4.3239 c -0.3898,0.307 -0.94,0.553 -1.6478,0.7381 l 0.133,-0.6409 c 0.3509,-0.14 0.6979,-0.324 1.0409,-0.5502 0.3421,-0.2271 0.5989,-0.4241 0.771,-0.5939 0.104,-0.104 0.2029,-0.231 0.2971,-0.379 h 0.4098 l -1.1987,5.7498 z" />
      <path
         id="path16"
         style="fill:#00804d;fill-rule:evenodd"
         d="m 288.5787,520.3109 c 0,0.3589 0.0961,0.6461 0.2871,0.8589 0.1919,0.2141 0.419,0.3209 0.6821,0.3209 0.1947,0 0.3889,-0.0669 0.5819,-0.1998 0.1931,-0.1321 0.358,-0.3311 0.4961,-0.595 0.1377,-0.2639 0.2069,-0.5349 0.2069,-0.815 0,-0.2179 -0.0462,-0.422 -0.1372,-0.6091 -0.091,-0.188 -0.2149,-0.328 -0.3727,-0.4238 -0.1582,-0.0953 -0.3172,-0.142 -0.4783,-0.142 -0.157,0 -0.3098,0.0419 -0.4609,0.125 -0.1511,0.0839 -0.2911,0.2058 -0.4201,0.3668 -0.1289,0.1621 -0.2247,0.3469 -0.2888,0.5561 -0.0641,0.2101 -0.0961,0.396 -0.0961,0.557 z m -0.9408,2.2661 0.6639,-0.0672 c 0.0439,0.3211 0.1349,0.5491 0.2729,0.684 0.1381,0.136 0.3019,0.2029 0.4921,0.2029 0.271,0 0.5219,-0.1167 0.754,-0.3517 0.341,-0.343 0.5919,-0.8371 0.7541,-1.48 -0.237,0.1777 -0.4471,0.3039 -0.631,0.379 -0.1832,0.076 -0.3711,0.1128 -0.5641,0.1128 -0.349,0 -0.6619,-0.1171 -0.938,-0.3509 -0.364,-0.305 -0.5471,-0.743 -0.5471,-1.313 0,-0.6449 0.2112,-1.1991 0.633,-1.66 0.362,-0.396 0.8061,-0.5941 1.332,-0.5941 0.4739,0 0.8671,0.176 1.18,0.5261 0.3121,0.3501 0.4692,0.845 0.4692,1.4859 0,0.623 -0.1041,1.237 -0.3133,1.8439 -0.2469,0.7132 -0.5819,1.2402 -1.004,1.5781 -0.343,0.2761 -0.7299,0.4141 -1.1599,0.4141 -0.396,0 -0.7189,-0.123 -0.9709,-0.3691 -0.2511,-0.246 -0.392,-0.593 -0.4229,-1.0408 z" />
      <path
         id="path18"
         style="fill:#00804d;fill-rule:evenodd"
         d="m 292.0163,523.8888 c 0.0728,-0.341 0.174,-0.6267 0.303,-0.8569 0.129,-0.231 0.2999,-0.4498 0.5131,-0.657 0.2137,-0.207 0.6247,-0.5528 1.2347,-1.0409 0.3691,-0.294 0.6222,-0.5111 0.758,-0.652 0.195,-0.203 0.3371,-0.4019 0.4252,-0.5981 0.0598,-0.133 0.0899,-0.2769 0.0899,-0.4329 0,-0.263 -0.093,-0.4869 -0.279,-0.6701 -0.1859,-0.1839 -0.415,-0.2761 -0.6859,-0.2761 -0.2682,0 -0.5021,0.0942 -0.703,0.2801 -0.2002,0.186 -0.3442,0.485 -0.4292,0.896 l -0.6919,-0.1009 c 0.068,-0.5079 0.265,-0.909 0.5921,-1.2022 0.3269,-0.2928 0.7339,-0.4388 1.2209,-0.4388 0.3251,0 0.6199,0.0681 0.8841,0.203 0.2651,0.1361 0.4629,0.326 0.5959,0.5701 0.1329,0.246 0.199,0.498 0.199,0.7579 0,0.381 -0.135,0.7458 -0.406,1.0979 -0.1661,0.2191 -0.6559,0.65 -1.4689,1.2932 -0.3492,0.2758 -0.6091,0.5028 -0.7789,0.68 -0.1701,0.1769 -0.2991,0.343 -0.3853,0.4997 h 2.5631 l -0.1369,0.648 z" />
      <path
         id="path20"
         style="fill:#00804d;fill-rule:evenodd"
         d="m 296.4655,523.8888 c 0.0729,-0.341 0.1741,-0.6267 0.303,-0.8569 0.129,-0.231 0.3,-0.4498 0.5128,-0.657 0.2141,-0.207 0.6251,-0.5528 1.2351,-1.0409 0.3691,-0.294 0.6219,-0.5111 0.758,-0.652 0.195,-0.203 0.337,-0.4019 0.4252,-0.5981 0.0598,-0.133 0.0898,-0.2769 0.0898,-0.4329 0,-0.263 -0.0929,-0.4869 -0.2789,-0.6701 -0.186,-0.1839 -0.415,-0.2761 -0.686,-0.2761 -0.2681,0 -0.502,0.0942 -0.703,0.2801 -0.2001,0.186 -0.3441,0.485 -0.4291,0.896 l -0.692,-0.1009 c 0.0681,-0.5079 0.2651,-0.909 0.5919,-1.2022 0.3271,-0.2928 0.7342,-0.4388 1.2212,-0.4388 0.3248,0 0.6199,0.0681 0.8838,0.203 0.265,0.1361 0.4632,0.326 0.5961,0.5701 0.133,0.246 0.199,0.498 0.199,0.7579 0,0.381 -0.1349,0.7458 -0.4059,1.0979 -0.1661,0.2191 -0.6559,0.65 -1.4692,1.2932 -0.3489,0.2758 -0.6089,0.5028 -0.779,0.68 -0.1698,0.1769 -0.2987,0.343 -0.3849,0.4997 h 2.5631 l -0.1369,0.648 z" />
    </g>
  </g>
</svg>
