<svg height="410.161751" viewBox="0 0 446.8295 751.91357" width="243.806254" xmlns="http://www.w3.org/2000/svg"><g fill="#e62831" fill-rule="evenodd" transform="translate(-74.2229 -44.9881)"><path d="m166.415 178.6385-54.0465 20.5747-14.3983 33.5642 32.9428 16.4248 25.2927-20.9477 2.649-2.1935 3.4687.1063 29.3066.9 6.4066.197 2.0503 6.0647 26.7477 79.1139 70.4724 34.0582 70.7564-34.359 28.1118-78.9001 2.107-5.9136 6.2779-.2041 27.7126-.9 3.9353.1145 27.4675 22.4289 33.5814-15.6875-14.0694-33.2544-53.883-20.7261 6.5498-17.1297 57.5444 22.1343 3.6612 1.4085 1.5208 3.5938 19.031 44.9816 3.4407 8.1331-8.011 3.7423-46.8 21.8622-5.2075 2.4327-4.4728-3.6201-26.1477-22.1752-19.5244-.0895-26.7492 77.4487-1.2693 3.5629-3.409 1.6551-78.1503 37.9497-3.9849 1.9352-4.0043-1.9352-77.9448-37.6696-3.4679-1.6758-1.2464-3.6862-25.9432-76.7347-19.4312-.5967-27.2577 22.5751-4.6137 3.8214-5.3546-2.67-46.0687-22.9688-7.7709-3.8744 3.4166-7.9651 19.3686-45.1502 1.5534-3.6207 3.6286-1.3816 57.6751-21.956z"/><path d="m408.1292 274.1559 37.8748 10.2373 4.7475 1.2832 1.5862 4.6545 50.3246 147.6754 1.9772 5.8028-4.6403 4.0575-97.725 85.4485-35.335 10.0525-37.2512 25.207 44.5635-5.5468 36.1437 35.4441-.1503-62.058 18.2033-19.5001.0003 124.842-60.9092-59.5797-167.5083 19.6943-40.9932-39.7636 23.5967-36.2772-88.2915-77.9797-4.5987-4.0615 1.9715-5.7628 50.6435-148.0127 1.597-4.6667 4.7367-1.2711 36.9-9.9 4.7503 17.7772-32.163 8.6293-47.0749 137.5832 126.1836 110.8012-24.9134 1.9718-15.6075-13.949-14.5914 22.708 24.5211 23.3487 84.9549-9.6454 67.1511-46.6421 34.8658-9.5982 89.5975-79.0545-46.7609-137.2182-33.1273-8.954z"/><path d="m440.9359 425.7397-80.1671 81.9862-45.8371 3.7063-31.4467 40.4112-9.6509 11.8231-5.9315-14.0542-27.9334-66.1887-45.5426-5.0403-41.5533-52.6856 22.195.4782 30.1467 35.1394 47.609 5.6098 26.2109 63.0077 28.1276-36.3411 44.8373-3.1186 64.2087-64.6387z"/><path d="m139.987 155.8545-32.3626-71.5125 18.7903-10.6157 43.9875 26.8123-9.1106 14.7963-28.2926-17.2159 17.3075 39.0002z"/><path d="m213.3062 80.1816-44.0813 76.65-15.1562-8.6905 43.3312-77.1001z"/><path d="m259.8415 57.0087-43.7154 77.9907-16.0503-8.9966 43.7153-77.9907z"/><path d="m294.5903 53.9127-36.9236 65.4987-15.7504-8.9246 36.6236-65.4987z"/><path d="m396.246 71.041 43.8189 77.1188-15.5282 9.1406-44.269-77.1188z"/><path d="m350.1578 48.5033 43.0872 78.0656-14.9281 8.6185-44.1374-77.6155z"/><path d="m315.2812 45.1633 36.5343 65.1002-16.0503 8.9966-36.5343-65.1002z"/><path d="m444.5544 137.1172 17.0146-37.7464-27.9816 16.1801-9.1406-15.9783 45.0003-25.7715 18.2083 10.4117-31.8753 71.8498z"/><path d="m297.6724 65.5999 12.6751 27.3002-12.3752 22.2752-12.975-22.0501z"/><path d="m209.1166 166.3067.2999 16.8001 22.9502 10.3498s21.7499 20.3998 22.6499 20.0999 25.0501-26.3999 25.0501-26.3999-70.9501-20.4001-70.9501-20.8499z"/><path d="m386.3659 166.3067-.2999 16.8001-22.9502 10.3498s-21.7499 20.3998-22.6499 20.0999-25.0501-26.3999-25.0501-26.3999 70.9501-20.4001 70.9501-20.8499z"/><path d="m279.0215 226.7118 18.6526-7.0718 18.7129 7.1798.1103 18.3989-17.9246-7.8565-19.6345 7.4395z"/><path d="m244.6557 254.5628 52.5521 26.013 53.2383-25.9092-.6389 20.5316-48.6094 23.8498-4.0708 1.9908-4.0263-1.9908-47.4279-23.6534z"/><path d="m236.8553 500.7835 20.0251 46.425-15.1257.8702-25.6501-47.4003z"/><path d="m341.1422 525.2482-33.2251 27.0746-13.0986-.5834 29.1747-33.6747z"/><path d="m291.7602 599.8825 4.2749 40.9124.3889 3.7193-2.3321 2.9384-37.646 47.4378 5.9618 16.9404 32.3821-10.8184 21.2774 58.172 23.8386-53.8968-16.6454-45.3787 4.9686-64.904 21.0566-3.0005-7.3315 65.5951 17.1048 47.7723-39.1822 91.5299-9.5576-.5817-26.5198-72.2704-32.718 10.9307-15.3386-43.5847 41.6226-52.4486-3.8863-37.1931z"/></g></svg>