<?xml version="1.0" encoding="UTF-8" standalone="no"?>
<svg xmlns="http://www.w3.org/2000/svg" version="1.1" width="194.24242" height="257.55939" viewBox="0 0 485.60604 643.89847">
<title>Notts County FC</title>
<defs>
<clipPath id="clip1"><path d="M 0,346.03516 0,990 l 485.69531,0 0,-643.96484 -485.69531,0 z m 0,0" id="path9"/></clipPath>
</defs>
<g transform="translate(-0.04259168,-346.10149)" id="misc2svg">
<g clip-path="url(#clip1)" id="g12">
<path d="m 28.21875,401.89062 c 0,0 196.66797,-115.83203 425.83594,0 123.32812,431.66797 -211.67188,583.33594 -211.67188,583.33594 0,0 -327.499998,-138.33594 -214.16406,-583.33594" id="path14" style="fill:#231f20;fill-opacity:1;fill-rule:nonzero;stroke:none" />
<path d="m 225.75,4704.875 c 0,0 1573.3438,926.6562 3406.6875,0 C 4619.0625,1251.5313 1939.0625,38.1875 1939.0625,38.1875 c 0,0 -2620,1106.6875 -1713.3125,4666.6875 z m 0,0"
transform="matrix(0.125,0,0,-0.125,0,990)" id="path16" style="fill:none;stroke:#a49150;stroke-width:70;stroke-linecap:butt;stroke-linejoin:miter;stroke-miterlimit:10;stroke-opacity:1" />
<path d="m 25.859375,464.39062 c 0,0 210.835935,-115 433.335935,0 30.83594,149.58594 -5,248.33594 -5,248.33594 l -422.91406,0 c 0,0 -35,-117.5 -5.421875,-248.33594" id="path18" style="fill:#a49150;fill-opacity:1;fill-rule:nonzero;stroke:none" />
<path d="m 65.195312,432.47656 -9.398437,-25.27344 6.671875,-2.48046 8.699219,7.30859 c 2.488281,2.10547 5.121093,4.71094 7.34375,7.12891 l 0.07813,-0.0274 c -1.582037,-3.21479 -2.964849,-6.58589 -4.386724,-10.4062 l -2.734375,-7.35156 5.253906,-1.95313 9.394532,25.27344 -6,2.22656 -9.023438,-7.73828 c -2.503906,-2.14453 -5.40625,-4.77343 -7.703125,-7.28906 l -0.152344,0.0547 c 1.445313,3.30469 2.839844,6.83984 4.375,10.96094 l 2.832031,7.61328 -5.25,1.95312" id="path20" style="fill:#fff;fill-opacity:1;fill-rule:nonzero;stroke:none" />
<path d="m 98.0625,410.80469 c 0.929688,3.22656 2.97266,5.25781 5.47266,4.54297 2.30468,-0.66407 3.07422,-3.34766 2.08984,-6.76172 -0.80078,-2.76953 -2.69531,-5.30469 -5.34766,-4.53907 -2.769528,0.79688 -3.011715,3.99219 -2.21484,6.75782 z m 13.54688,-4.11719 c 1.98828,6.88281 -1.98438,11.44141 -7.01954,12.89062 -5.49609,1.58594 -10.765621,-0.80859 -12.515621,-6.88281 -1.761719,-6.10937 1.113281,-11.14062 7.1875,-12.89062 5.730471,-1.65625 10.707031,1.19531 12.347661,6.88281" id="path22" style="fill:#fff;fill-opacity:1;fill-rule:nonzero;stroke:none" />
<path d="m 124.21094,388.38281 1.20312,5.14063 4.24219,-0.99219 1.02734,4.35937 -4.24609,0.9961 1.61328,6.89453 c 0.54297,2.29297 1.37109,3.21094 3.125,2.79687 0.81641,-0.1914 1.19922,-0.3164 1.71484,-0.5664 l 1.08985,4.47265 c -0.67578,0.44532 -2.0625,1.01563 -3.69922,1.40235 -1.90625,0.4414 -3.66016,0.16015 -4.85937,-0.58594 -1.35547,-0.875 -2.33204,-2.57812 -2.96094,-5.26562 l -1.82813,-7.78516 -2.53125,0.58984 -1.02343,-4.36328 2.53125,-0.59375 -0.82813,-3.54687 5.42969,-2.95313" id="path24" style="fill:#fff;fill-opacity:1;fill-rule:nonzero;stroke:none" />
<path d="m 144.86328,384.04297 1,5.18359 4.28516,-0.82422 0.84765,4.39453 -4.28125,0.83204 1.34766,6.94921 c 0.44531,2.31641 1.23828,3.26563 3.00781,2.92188 0.82422,-0.16016 1.21094,-0.27734 1.73828,-0.49609 l 0.90625,4.5039 c -0.6875,0.42188 -2.09765,0.9375 -3.75,1.25781 -1.92187,0.3711 -3.66015,0.0156 -4.83203,-0.77734 -1.32031,-0.92578 -2.22656,-2.66797 -2.75,-5.375 l -1.51953,-7.85156 -2.55078,0.48828 -0.85156,-4.39453 2.55468,-0.4961 -0.69531,-3.57031 5.54297,-2.74609" id="path26" style="fill:#fff;fill-opacity:1;fill-rule:nonzero;stroke:none" />
<path d="m 161.89062,400.875 c 1.20313,0.50781 3.61329,0.91406 5.39454,0.64844 1.8164,-0.27735 2.48046,-0.98047 2.33203,-1.97266 -0.15625,-1.02734 -0.82032,-1.41016 -3.14844,-1.83203 -4.23438,-0.73438 -6.10156,-2.68359 -6.41016,-4.98438 -0.54297,-3.63671 2.13282,-6.83203 6.91797,-7.54687 2.25781,-0.33984 4.31641,-0.0781 5.59375,0.32812 l -0.40625,4.3125 c -0.94531,-0.34375 -2.74219,-0.72265 -4.35937,-0.47656 -1.46094,0.21875 -2.20313,0.9375 -2.0625,1.88281 0.14062,0.94922 0.96093,1.3125 3.46093,1.78907 3.86719,0.71093 5.66016,2.38672 6.11719,5.1875 0.54688,3.64062 -1.86328,6.71093 -7.39844,7.53906 -2.53515,0.38281 -4.8789,0.12891 -6.46093,-0.44141 l 0.42968,-4.43359" id="path28" style="fill:#fff;fill-opacity:1;fill-rule:nonzero;stroke:none" />
<path d="m 218.625,399.32031 c -1.04297,0.59766 -3.55078,1.42188 -6.78516,1.65235 -9.29687,0.67187 -14.5039,-4.80469 -15.05859,-12.46485 -0.66406,-9.17969 5.51953,-14.72265 13.65625,-15.30859 3.15234,-0.22656 5.58594,0.19922 6.71094,0.71484 l -0.9336,4.88281 c -1.23437,-0.43359 -2.98047,-0.78515 -5.17968,-0.6289 -4.78516,0.34765 -8.32422,3.53125 -7.89454,9.51953 0.39063,5.38281 3.82813,8.54297 9.21094,8.15625 1.875,-0.13672 3.84375,-0.64063 5.04688,-1.25 l 1.22656,4.72656" id="path30" style="fill:#fff;fill-opacity:1;fill-rule:nonzero;stroke:none" />
<path d="m 232.08594,389.82031 c 0.0547,3.35938 1.5,5.85156 4.09375,5.8086 2.39843,-0.0391 3.83984,-2.42188 3.78125,-5.98047 -0.0469,-2.88282 -1.21485,-5.82032 -3.97657,-5.77735 -2.8789,0.0508 -3.94921,3.06641 -3.89843,5.94922 z m 14.15625,-0.4375 c 0.11718,7.16016 -4.91016,10.52344 -10.14844,10.61328 -5.71875,0.0899 -10.17969,-3.59375 -10.28906,-9.91406 -0.10157,-6.35547 3.99218,-10.46875 10.30859,-10.57422 5.95703,-0.0976 10.02734,3.95313 10.12891,9.875" id="path32" style="fill:#fff;fill-opacity:1;fill-rule:nonzero;stroke:none" />
<path d="m 274.17969,394 c -0.10938,2.55859 -0.11328,4.63672 -0.0977,6.28125 l -5.27734,-0.21875 -0.16797,-2.76563 -0.11719,0 c -0.80859,1.16407 -2.73047,3.08594 -6.24609,2.94141 -3.9961,-0.16406 -6.76953,-2.76172 -6.52344,-8.79297 l 0.46875,-11.46875 6.07812,0.25 -0.42968,10.50781 c -0.11719,2.83594 0.73047,4.59375 2.89062,4.67969 1.67188,0.0703 2.72266,-1.04687 3.11719,-1.99219 0.17578,-0.35546 0.27344,-0.78906 0.29687,-1.30859 l 0.47657,-11.625 6.07422,0.25 L 274.17969,394" id="path34" style="fill:#fff;fill-opacity:1;fill-rule:nonzero;stroke:none" />
<path d="m 285.42578,387.73047 c 0.24219,-2.4336 0.36328,-4.46875 0.46484,-6.23047 l 5.25,0.52734 0.0117,2.73438 0.11719,0.0117 c 0.92188,-1.19532 3.0625,-2.86719 6.32813,-2.54297 3.98046,0.40234 6.69921,3.36328 6.12109,9.09765 l -1.14844,11.50391 -6.05078,-0.60547 1.07813,-10.78515 c 0.2539,-2.51172 -0.45313,-4.3125 -2.64063,-4.52735 -1.67187,-0.17187 -2.78516,0.88281 -3.33203,1.95703 -0.19922,0.38282 -0.29688,0.9336 -0.35156,1.48828 l -1.1211,11.22657 -6.05468,-0.60547 1.32812,-13.25" id="path36" style="fill:#fff;fill-opacity:1;fill-rule:nonzero;stroke:none" />
<path d="m 322.94922,380.64453 -0.79297,5.21875 4.3125,0.65625 -0.66797,4.42578 -4.3125,-0.64844 -1.05859,7.00391 c -0.35157,2.32813 0.0781,3.48828 1.85937,3.75781 0.83203,0.12891 1.23047,0.14844 1.80469,0.11328 l -0.65234,4.55079 c -0.78907,0.16796 -2.29297,0.17968 -3.95313,-0.0664 -1.94141,-0.29688 -3.45703,-1.21094 -4.29687,-2.35156 -0.9336,-1.31641 -1.20704,-3.26172 -0.79297,-5.99219 l 1.19531,-7.90625 -2.57031,-0.39063 0.67187,-4.42968 2.57031,0.39062 0.54688,-3.60547 6.13672,-0.72656" id="path38" style="fill:#fff;fill-opacity:1;fill-rule:nonzero;stroke:none" />
<path d="m 340.86328,389.13281 0.95313,10.02735 c 0.0937,1.16015 0.1914,2.6914 0.21875,3.76171 l 0.15625,0.0312 c 0.44921,-1.00781 1.05078,-2.36328 1.55468,-3.4414 l 4.29688,-8.92578 6.35156,1.28515 -7.02734,11.71875 c -4.28907,7.09375 -6.74219,9.73828 -9.28907,11.22266 -2.40625,1.39453 -4.73437,1.61719 -6.25781,1.47266 L 331.54297,411 c 0.77734,-0.004 1.78515,-0.16406 2.79297,-0.49219 0.99609,-0.28906 2.21875,-1.0625 2.95312,-1.89453 0.26563,-0.27344 0.44531,-0.5625 0.48828,-0.79687 0.0508,-0.23829 0.0664,-0.51563 -0.0351,-1.02735 l -3.50391,-19 6.625,1.34375" id="path40" style="fill:#fff;fill-opacity:1;fill-rule:nonzero;stroke:none" />
<path d="m 379.17187,390.47656 15.78125,4.6211 -1.40625,4.80078 -9.94531,-2.91016 -1.73047,5.91016 9.29297,2.72265 -1.39453,4.76172 -9.29297,-2.72265 -3.03906,10.40625 -5.83984,-1.70704 7.57421,-25.88281" id="path42" style="fill:#fff;fill-opacity:1;fill-rule:nonzero;stroke:none" />
<path d="m 415.66797,430.00781 c -1.19141,0.12891 -3.81641,-0.13281 -6.86328,-1.22656 -8.77344,-3.14063 -11.32422,-10.25781 -8.73438,-17.48828 3.10156,-8.65625 10.98828,-11.23047 18.67188,-8.47656 2.97265,1.0664 5.02734,2.4375 5.84375,3.37109 l -2.82422,4.08594 c -0.95703,-0.89844 -2.41016,-1.92969 -4.48047,-2.67188 -4.51563,-1.61719 -9.04297,-0.13672 -11.06641,5.51563 -1.82031,5.08203 0.043,9.35937 5.12891,11.17968 1.77344,0.63282 3.77344,0.97266 5.11719,0.89844 l -0.79297,4.8125" id="path44" style="fill:#fff;fill-opacity:1;fill-rule:nonzero;stroke:none" />
<path d="m 209.08203,726.28906 -0.0781,0 -4.96094,2.35938 -1,-4.55469 6.92187,-3.20313 4.9961,0 0,26 -5.87891,0 0,-20.60156" id="path46" style="fill:#fff;fill-opacity:1;fill-rule:nonzero;stroke:none" />
<path d="m 226.01562,727.57031 c 0,1.76172 1.5586,2.87891 3.63672,3.51953 1.40235,-0.40234 2.64453,-1.67968 2.64453,-3.28125 0,-1.64062 -0.92578,-3.23828 -3.16015,-3.23828 -2.08203,0 -3.1211,1.40235 -3.1211,3 z m 6.79688,12.31641 c 0,-2.27735 -1.71875,-3.64063 -4.07813,-4.27735 -2,0.5586 -3.16406,2 -3.16406,3.87891 -0.0391,1.87891 1.40235,3.64063 3.6836,3.64063 2.11718,0 3.55859,-1.40235 3.55859,-3.24219 z m -8.79688,-6.40235 c -2.52343,-1.3164 -3.76171,-3.4375 -3.76171,-5.71484 0,-4.40234 3.96093,-7.32031 9.16015,-7.32031 6.07813,0 8.59766,3.51953 8.59766,6.67969 0,2.24218 -1.19922,4.4375 -3.79688,5.71875 l 0,0.12109 c 2.5586,0.96094 4.80078,3.12109 4.80078,6.44141 0,4.71484 -3.96093,7.91796 -10,7.91796 -6.60156,0 -9.64062,-3.71875 -9.64062,-7.24218 0,-3.11719 1.79687,-5.27735 4.64062,-6.51563 l 0,-0.0859" id="path48" style="fill:#fff;fill-opacity:1;fill-rule:nonzero;stroke:none" />
<path d="m 255.25391,738.24609 c 0,-2.39453 -1.27735,-4.47656 -3.88282,-4.47656 -1.64062,0 -2.99609,1 -3.55859,2.28125 -0.19922,0.35547 -0.27734,0.83984 -0.27734,1.55859 0.11718,2.75782 1.4414,5.23829 4.23828,5.23829 2.11718,0 3.48047,-1.95704 3.48047,-4.60157 z m 3.32031,-13.03515 c -0.6836,-0.0391 -1.40235,0 -2.36328,0.0781 -5.39453,0.4375 -7.79688,3.19531 -8.47657,6.19922 l 0.11719,0 c 1.28125,-1.27734 3.1211,-2.03906 5.52344,-2.03906 4.35937,0 8.03516,3.08203 8.03516,8.48047 0,5.15625 -3.95704,9.39843 -9.55469,9.39843 -6.96485,0 -10.36328,-5.16015 -10.36328,-11.35937 0,-4.87891 1.80468,-8.96094 4.64062,-11.59766 2.5586,-2.35937 5.96094,-3.59765 10,-3.80468 1.11719,-0.11719 1.87891,-0.0781 2.44141,-0.0391 l 0,4.6836" id="path50" style="fill:#fff;fill-opacity:1;fill-rule:nonzero;stroke:none" />
<path d="m 264.21484,746.89062 0,-3.68359 3.32032,-3.00391 c 5.71484,-5.11718 8.47656,-8.03515 8.51953,-11.07031 0,-2.125 -1.24219,-3.80469 -4.24219,-3.80469 -2.23828,0 -4.19922,1.1211 -5.55859,2.125 l -1.72266,-4.32421 c 1.92187,-1.48047 5,-2.67969 8.48047,-2.67969 5.91797,0 9.12109,3.4414 9.12109,8.12109 0,4.39844 -3.11719,7.87891 -6.91797,11.23828 l -2.40234,1.9961 0,0.0859 9.83984,0 0,5 -18.4375,0" id="path52" style="fill:#fff;fill-opacity:1;fill-rule:nonzero;stroke:none" />
<path d="m 44.984375,753.42969 27.796875,0 0,58.27343 c 0,0 -19.421875,-32.82031 -27.796875,-58.27343" id="path54" style="fill:#fff;fill-opacity:1;fill-rule:nonzero;stroke:none" />
<path d="m 113.3125,869.98047 0,-116.55078 35.16406,0 0,153.72656 c 0,0 -28.13281,-27.125 -35.16406,-37.17578" id="path56" style="fill:#fff;fill-opacity:1;fill-rule:nonzero;stroke:none" />
<path d="m 188,940.3125 0,-186.54688 34.16406,0 0,211 c 0,0 -28.13672,-18.42187 -34.16406,-24.45312" id="path58" style="fill:#fff;fill-opacity:1;fill-rule:nonzero;stroke:none" />
<path d="m 440.19531,753.42969 -27.79687,0 0,58.27343 c 0,0 19.42187,-32.82031 27.79687,-58.27343" id="path60" style="fill:#fff;fill-opacity:1;fill-rule:nonzero;stroke:none" />
<path d="m 371.87109,869.98047 0,-116.55078 -35.16797,0 0,153.72656 c 0,0 28.13672,-27.125 35.16797,-37.17578" id="path62" style="fill:#fff;fill-opacity:1;fill-rule:nonzero;stroke:none" />
<path d="m 297.18359,940.3125 0,-186.54688 -34.16015,0 0,211 c 0,0 28.1289,-18.42187 34.16015,-24.45312" id="path64" style="fill:#fff;fill-opacity:1;fill-rule:nonzero;stroke:none" />
<path d="m 239.85937,700.51562 c -35.34375,0 -64.11718,-28.77343 -64.11718,-64.11328 0,-35.30859 28.77343,-64.07812 64.11718,-64.07812 35.30469,0 64.08204,28.76953 64.08204,64.07812 0,35.33985 -28.77735,64.11328 -64.08204,64.11328" id="path66" style="fill:#fff;fill-opacity:1;fill-rule:nonzero;stroke:none" />
<path d="m 176.51562,636.40234 c 0,-34.91015 28.41407,-63.3125 63.34375,-63.3125 34.90625,0 63.3086,28.40235 63.3086,63.3125 0,34.92969 -28.40235,63.34375 -63.3086,63.34375 -34.92968,0 -63.34375,-28.41406 -63.34375,-63.34375 z m -1.54687,0 c 0,35.78125 29.10937,64.88672 64.89062,64.88672 35.76172,0 64.85157,-29.10547 64.85157,-64.88672 0,-35.75781 -29.08985,-64.85547 -64.85157,-64.85547 -35.78125,0 -64.89062,29.09766 -64.89062,64.85547" id="path68" style="fill:#231f20;fill-opacity:1;fill-rule:nonzero;stroke:none" />
<path d="m 282.90625,588.83203 -8.74219,5.13672 1.03125,21.84766 18.375,12.59765 8.86719,-5.40234 c 0,0 -0.25781,-7.96875 -6.42578,-18.88672 -6.16797,-10.92188 -13.10547,-15.29297 -13.10547,-15.29297" id="path70" style="fill:#231f20;fill-opacity:1;fill-rule:nonzero;stroke:none" />
<path d="m 282.90625,684.17578 -8.74219,-5.13281 1.03125,-21.85156 18.375,-12.58985 L 302.4375,650 c 0,0 -0.25781,7.96484 -6.42578,18.88672 -6.16797,10.92187 -13.10547,15.28906 -13.10547,15.28906" id="path72" style="fill:#231f20;fill-opacity:1;fill-rule:nonzero;stroke:none" />
<path d="m 240.13281,677.03516 19.70703,9.91015 0,10.01563 c 0,0 -8.60937,3.72656 -19.66015,3.72656 l -0.10157,-0.004 c -11.05078,0 -19.65234,-3.73047 -19.65234,-3.73047 l 0,-10.01953 19.70703,-9.89843" id="path74" style="fill:#231f20;fill-opacity:1;fill-rule:nonzero;stroke:none" />
<path d="m 240.11719,594.82031 0,20.42969" id="path76" style="fill:#fff;fill-opacity:1;fill-rule:nonzero;stroke:none" />
<path d="m 239.34375,615.25 1.54687,0 0,-20.42969 -1.54687,0 0,20.42969 z m 0,0" id="path78" style="fill:#231f20;fill-opacity:1;fill-rule:nonzero;stroke:none" />
<path d="m 240.11719,655.59375 0,22.45703" id="path80" style="fill:#fff;fill-opacity:1;fill-rule:nonzero;stroke:none" />
<path d="m 239.34375,678.05078 1.54687,0 0,-22.45703 -1.54687,0 0,22.45703 z m 0,0" id="path82" style="fill:#231f20;fill-opacity:1;fill-rule:nonzero;stroke:none" />
<path d="m 293.57031,626.12891 0,19.17968" id="path84" style="fill:#fff;fill-opacity:1;fill-rule:nonzero;stroke:none" />
<path d="m 292.79687,645.30859 1.54297,0 0,-19.17968 -1.54297,0 0,19.17968 z m 0,0" id="path86" style="fill:#231f20;fill-opacity:1;fill-rule:nonzero;stroke:none" />
<path d="m 258.49219,625.64453 17.24609,-10.21484" id="path88" style="fill:#fff;fill-opacity:1;fill-rule:nonzero;stroke:none" />
<path d="m 258.09375,624.98047 0.78906,1.32812 17.25,-10.21484 -0.78515,-1.32813 -17.25391,10.21485" id="path90" style="fill:#231f20;fill-opacity:1;fill-rule:nonzero;stroke:none" />
<path d="m 259.06641,585.46094 15.70703,8.86718" id="path92" style="fill:#fff;fill-opacity:1;fill-rule:nonzero;stroke:none" />
<path d="M 258.6875,586.13281 274.39844,595 l 0.75781,-1.34375 -15.70703,-8.87109 -0.76172,1.34765" id="path94" style="fill:#231f20;fill-opacity:1;fill-rule:nonzero;stroke:none" />
<path d="m 274.875,678.65234 -15.71094,8.67578" id="path96" style="fill:#fff;fill-opacity:1;fill-rule:nonzero;stroke:none" />
<path d="m 258.78906,686.64844 0.7461,1.35547 15.70703,-8.67188 -0.74219,-1.35547 -15.71094,8.67188" id="path98" style="fill:#231f20;fill-opacity:1;fill-rule:nonzero;stroke:none" />
<path d="m 258.49219,646.55859 17.53906,11.17969" id="path100" style="fill:#fff;fill-opacity:1;fill-rule:nonzero;stroke:none" />
<path d="m 258.07812,647.21094 17.53907,11.17968 0.82812,-1.30078 -17.53906,-11.18359 -0.82813,1.30469" id="path102" style="fill:#231f20;fill-opacity:1;fill-rule:nonzero;stroke:none" />
<path d="m 197.35156,588.82422 8.74219,5.14062 -1.02344,21.84766 -18.38281,12.58984 -8.86719,-5.39453 c 0,0 0.26172,-7.97265 6.42969,-18.89844 6.16406,-10.91015 13.10156,-15.28515 13.10156,-15.28515" id="path104" style="fill:#231f20;fill-opacity:1;fill-rule:nonzero;stroke:none" />
<path d="m 197.35156,684.17187 8.74219,-5.14453 -1.02344,-21.84375 -18.38281,-12.58984 -8.86719,5.39844 c 0,0 0.26172,7.96875 6.42969,18.88281 6.16406,10.92578 13.10156,15.29687 13.10156,15.29687" id="path106" style="fill:#231f20;fill-opacity:1;fill-rule:nonzero;stroke:none" />
<path d="m 186.6875,626.125 0,19.17187" id="path108" style="fill:#fff;fill-opacity:1;fill-rule:nonzero;stroke:none" />
<path d="m 185.92187,645.29687 1.53907,0 0,-19.17187 -1.53907,0 0,19.17187 z m 0,0" id="path110" style="fill:#231f20;fill-opacity:1;fill-rule:nonzero;stroke:none" />
<path d="m 221.77344,625.64062 -17.25,-10.21484" id="path112" style="fill:#fff;fill-opacity:1;fill-rule:nonzero;stroke:none" />
<path d="m 204.125,616.08594 17.25,10.21875 0.78906,-1.32813 -17.24609,-10.21484 -0.79297,1.32422" id="path114" style="fill:#231f20;fill-opacity:1;fill-rule:nonzero;stroke:none" />
<path d="m 221.19141,585.45312 -15.70704,8.86719" id="path116" style="fill:#fff;fill-opacity:1;fill-rule:nonzero;stroke:none" />
<path d="m 205.10156,593.64844 0.75781,1.34375 15.71094,-8.86719 -0.7539,-1.34375 -15.71485,8.86719" id="path118" style="fill:#231f20;fill-opacity:1;fill-rule:nonzero;stroke:none" />
<path d="m 205.38672,678.64062 15.71094,8.67969" id="path120" style="fill:#fff;fill-opacity:1;fill-rule:nonzero;stroke:none" />
<path d="m 205.01562,679.31641 15.70704,8.67578 0.74609,-1.34766 -15.70703,-8.67187 -0.7461,1.34375" id="path122" style="fill:#231f20;fill-opacity:1;fill-rule:nonzero;stroke:none" />
<path d="m 221.77344,646.55469 -17.54688,11.17578" id="path124" style="fill:#fff;fill-opacity:1;fill-rule:nonzero;stroke:none" />
<path d="m 203.8125,657.07812 0.83594,1.30469 17.53906,-11.17969 -0.82813,-1.30468 -17.54687,11.17968" id="path126" style="fill:#231f20;fill-opacity:1;fill-rule:nonzero;stroke:none" />
<path d="m 240.11719,613.61328 18.88672,11.58594 0,21.71484 -18.89454,11.33203 -18.85546,-11.33984 0,-21.71484 18.86328,-11.57813" id="path128" style="fill:#231f20;fill-opacity:1;fill-rule:nonzero;stroke:none" />
<path d="m 240.24219,572.12891 c 11.05078,0 19.66015,3.72656 19.66015,3.72656 l 0,10.01953 -19.76953,9.89062 -19.77734,-9.89843 0,-10.01563 c 0,0 8.60937,-3.73437 19.66406,-3.73437 l 0.22266,0.0117" id="path130" style="fill:#231f20;fill-opacity:1;fill-rule:nonzero;stroke:none" />
<path d="m 113.99219,657.12891 c -7.13281,-1.15625 27.5664,-46.06641 49.15234,-74.59375 16.93359,-22.37891 17.86328,-28.97657 17.86328,-28.97657 -1.28906,-2.3125 -19.91797,-2.1875 -22.61719,-2.3125 -2.70312,-0.1289 -1.67187,-3.72656 -1.67187,-3.72656 0,0 -1.03125,-0.38672 -3.33984,-0.64062 -2.31641,-0.25782 -5.40235,-1.54297 -5.40235,-1.54297 0,0 0.38672,-2.05469 4.2461,-5.01563 3.85156,-2.95312 6.9375,-3.33594 7.44921,-4.23437 0.51954,-0.89844 -2.82812,-0.51563 -6.42578,0.38281 -3.59375,0.89844 -6.93359,2.44141 -6.93359,2.44141 0,0 0.25391,-1.28516 3.21484,-5.39454 2.95313,-4.11718 0.89453,-3.59765 -1.67578,-3.73046 -2.57031,-0.12891 -4.23828,-1.53907 -4.23828,-1.53907 0,0 0.25781,-0.76953 1.54297,-1.67578 1.28516,-0.89844 1.92969,-1.66406 1.92969,-2.30859 0,-0.64453 -5.40235,-0.12891 -5.40235,-0.12891 0,0 0.64063,-2.05859 1.79688,-3.59375 1.16015,-1.54687 2.57422,-3.47265 2.57422,-4.37109 0,-0.89844 -2.96094,-2.0586 -2.96094,-2.0586 0,0 0.13281,-7.0625 0,-11.30468 -0.43359,-14.39844 -3.17578,-17.66797 -8.60547,-25.1875 -1.67187,-2.3125 -1.28516,-8.74219 -0.25391,-9.50782 1.02344,-0.77343 13.58204,-0.25781 25.95704,7.19532 11.91015,7.17578 17.60156,17.73437 18.11328,17.73437 0.51562,0 0.64453,-2.1875 1.22265,-3.41015 1.05078,-2.21485 2.02735,-2.3086 2.69922,-8.1875 0.42969,-3.76563 2.21875,-5.39454 3.75781,-9.54297 1.05469,-2.83594 2.3125,-3.85547 2.3125,-3.85547 l 1.92969,2.60156 c 0,0 0.0937,-2.50391 0.0937,-4.52734 0,-2.02344 0.0937,-4.33594 0.0937,-4.33594 0,0 0.8711,0.76562 2.60156,2.60156 1.74219,1.83203 2.31641,2.41016 2.31641,2.41016 0,0 0,-1.0586 0.28906,-5.01172 0.29297,-3.95313 1.25391,-7.32813 1.25391,-7.32813 0,0 1.34766,1.73829 2.69531,3.85938 1.35156,2.11719 2.11719,3.17578 2.11719,3.17578 0,0 0.29687,-2.11719 1.35547,-5.20312 0.9414,-2.73829 2.79297,-6.16797 2.79297,-6.16797 0,0 0.28906,1.73828 1.15625,4.91797 0.86718,3.17578 1.92968,4.52734 1.92968,4.52734 0,0 0.57813,-3.95313 2.01954,-8.77344 1.33203,-4.42969 3.08593,-8.28515 3.08593,-8.28515 0,0 0.28907,3.375 1.25,6.65234 0.96875,3.27344 2.02735,4.71875 2.02735,4.71875 0,0 0.58203,-2.60156 1.34765,-4.33594 0.76953,-1.73437 2.02735,-3.66015 2.02735,-3.66015 0,0 0.0977,2.69531 0.48437,6.45703 0.38281,3.75781 0.76953,6.9375 0.76953,6.9375 0,0 0.67578,-0.38672 1.34766,-0.77344 0.67187,-0.38281 2.02344,-0.86328 2.02344,-0.86328 0,0 -0.57813,1.82422 -1.35157,3.08203 -0.76953,1.25391 -1.05859,2.41016 -1.05859,2.41016 0.28906,6.74609 3.14453,15.09375 2.69922,20.71875 -0.51563,6.49609 -6.55469,12.78906 -9.89063,20.7539 -2.73828,6.52344 -2.1875,12.20313 -2.1875,12.20313 0,0 7.07032,-0.83594 10.15235,4.88281 2.69922,5.01562 1.15234,10.29687 1.41015,13.23828 0.38672,4.37109 2.79297,9.21875 1.67579,8.74219 -6.30079,-2.69922 -6.94532,-4.2461 -7.45704,-3.34766 -1.03125,1.80469 2.01563,7.47266 1.54297,14.26563 -0.51172,7.32812 -5.13672,14.65234 -9.89843,18.5039 -4.39844,3.57032 -8.60547,5.13672 -8.34766,5.78125 0.25781,0.64453 2.1875,0.26172 2.82812,0.77344 0.64063,0.51563 2.56641,1.15625 1.53907,1.79688 -1.02735,0.64453 -5.52344,4.375 -5.52344,3.47265 0,-0.89844 -1.02734,-2.3125 -1.67188,-1.66797 -0.64062,0.63672 -0.64062,2.1836 0,2.3086 0.64454,0.1289 -0.64062,1.15625 -1.92968,2.05859 -1.28125,0.89844 -2.3086,3.21094 -2.69532,0.64453 -0.38281,-2.57422 -0.2539,-4.74219 -1.80078,-4.5 -2.4414,0.38281 -11.17578,1.15625 -12.20703,1.67188 -1.03125,0.51172 -12.97656,26.33593 -17.60937,34.82031 -4.6211,8.48047 -5.35547,12.98437 -9.2461,12.98437 -4.11328,0 -4.88281,-0.13281 -6.8125,4.23438 -1.15625,2.62891 -6.16797,2.3125 -6.29297,-0.12891 -0.20312,-3.85937 -0.20312,-5.36328 -2.95312,-3.85937 -6.8125,3.73047 -11.75,11.14453 -13.75,15.42578 -1.41797,3.01562 -2,9.60156 -10.47656,8.22266" id="path132" style="fill:#231f20;fill-opacity:1;fill-rule:nonzero;stroke:none" />
<path d="m 213.54687,567.40234 c 1.9375,-2.85156 3.85547,-6.9375 3.75782,-8.08984 -0.11328,-1.37891 -1.25,-1.73828 -2.69532,-2.60156 -1.79296,-1.07813 -3.18359,-2.41407 -3.75781,-0.29688 -0.42187,1.54688 -1.54687,1.35547 -1.54687,-0.57422 0,-1.92968 -1.98438,-3.41406 -5.29688,-6.55078 -5.39844,-5.10937 -4.53125,-6.45703 -5.78515,-7.03906 -0.69922,-0.32031 -1.73438,0.96094 -1.73438,3.76172 0,2.79297 1.54297,3.66015 0.96484,4.33594 -0.57812,0.67187 -3.85546,2.60156 -2.79687,4.8164 1.0625,2.21875 2.50781,3.08203 0.77344,4.33594 -1.73828,1.25 -2.28907,0.87109 -2.21875,-2.69531 0.0937,-4.82032 -5.4961,-4.07422 -7.42188,3.37109 -0.76953,2.98828 -1.15625,13.01172 -0.76953,13.39844 0.38672,0.38672 2.02734,1.15234 3.375,2.40625 1.34766,1.2539 1.54297,2.5039 3.27734,2.5039 1.73047,0 3.17579,-3.17578 5.39454,-3.27343 2.21484,-0.0977 2.98828,1.64062 5.8789,0.57422 2.89063,-1.0586 6.7461,-2.69532 10.60156,-8.38282" id="path134" style="fill:#fff;fill-opacity:1;fill-rule:nonzero;stroke:none" />
<path d="m 214.125,456.48047 c -0.55469,-0.16016 -4.43359,7.90234 -4.33594,9.05859 0.0937,1.15625 2.1211,3.5625 4.04688,6.7461 1.92578,3.17968 2.69531,4.33593 2.69531,4.33593 0,0 0.19531,-5.49218 -0.57422,-11.75781 -0.76953,-6.26562 -1.15625,-8.19141 -1.83203,-8.38281" id="path136" style="fill:#fff;fill-opacity:1;fill-rule:nonzero;stroke:none" />
<path d="m 205.64453,458.3125 c -0.375,-0.0781 -1.15625,0.38281 -2.12109,3.75781 -0.46094,1.61719 -1.0625,2.50391 -0.0937,4.33594 0.96484,1.83203 8.57812,13.30078 8.57812,13.30078 0,0 0.57422,-1.64062 -2.125,-9.73828 -2.69531,-8.09375 -3.75781,-11.5625 -4.23828,-11.65625" id="path138" style="fill:#fff;fill-opacity:1;fill-rule:nonzero;stroke:none" />
<path d="m 198.70703,461.875 c -0.76953,0.0977 -1.35547,2.60156 -1.25391,6.36328 0.0937,3.75781 0.57813,4.23828 5.00782,8.38281 4.43359,4.14063 5.20312,4.72266 5.20312,4.72266 0,0 0,-1.92578 -3.55859,-9.73828 -3.56641,-7.8086 -3.85547,-9.92188 -5.39844,-9.73047" id="path140" style="fill:#fff;fill-opacity:1;fill-rule:nonzero;stroke:none" />
<path d="m 192.92578,468.23828 c -0.75391,-0.21484 -0.55078,1.73047 -0.48437,3.66016 0.0977,2.60156 0.48437,3.17968 5.10546,7.13281 4.625,3.95312 6.16797,5.20312 6.16797,5.20312 0,0 -1.54297,-3.95312 -5.10547,-8.67187 -3.5664,-4.72266 -5.01171,-7.12891 -5.68359,-7.32422" id="path142" style="fill:#fff;fill-opacity:1;fill-rule:nonzero;stroke:none" />
<path d="m 189.64453,472.76953 c -0.76172,-0.13281 -1.44141,0.37891 -1.82812,2.89063 -0.38672,2.5039 -0.0977,2.89062 5.30078,6.83984 3.29687,2.41797 4.71875,3.27734 4.71875,3.27734 0,0 0.28906,-1.05859 -3.46485,-6.35937 -3.76172,-5.30078 -4.14453,-6.5586 -4.72656,-6.64844" id="path144" style="fill:#fff;fill-opacity:1;fill-rule:nonzero;stroke:none" />
<path d="m 186.66016,479.89844 c -0.76954,0 -0.96485,0.48437 -0.8711,2.01953 0.0703,1.0664 -0.1875,1.35547 2.79688,3.18359 2.35156,1.44141 3.28125,1.83203 3.28125,1.83203 0,0 -0.5,-1.73828 -2.41407,-4.04687 -2.30859,-2.79297 -2.79296,-2.98828 -2.79296,-2.98828" id="path146" style="fill:#fff;fill-opacity:1;fill-rule:nonzero;stroke:none" />
<path d="m 184.34375,484.42969 c -0.67188,0 -0.86719,0.57422 -0.76953,2.21484 0.0977,1.63672 1.05859,2.21875 3.28125,3.17969 2.21094,0.96094 2.21094,0.96094 2.21094,0.96094 0,0 0.38671,-1.0586 -1.63672,-2.98047 -2.02344,-1.92969 -2.41016,-3.375 -3.08594,-3.375" id="path148" style="fill:#fff;fill-opacity:1;fill-rule:nonzero;stroke:none" />
<path d="m 136.64062,471.12891 c -0.42187,0.53125 -0.77343,3.94921 0.57813,5.58593 1.35156,1.64063 6.94141,7.03907 8.09375,18.01953 1.04687,9.89454 0.67187,15.90625 0.67187,15.90625 0,0 7.78516,-0.39062 14.26954,-3.76171 7.60546,-3.94532 6.9375,-7.80079 11.7539,-11.46485 2.5,-1.89844 3.57031,-1.92969 3.57031,-1.92969 0,0 -5.86718,-9.85546 -15.03515,-15.03125 -11.94922,-6.75 -22.84375,-8.67968 -23.90235,-7.32421" id="path150" style="fill:#fff;fill-opacity:1;fill-rule:nonzero;stroke:none" />
<path d="m 256.5625,569.10547 c -7.45703,-6.55078 -9.95703,-11.4336 -11.50391,-17.02735 -2.34765,-8.52343 -0.57422,-16.57031 -1.53906,-18.30859 -0.58984,-1.06641 -2.05469,1.66797 -6.62109,4.56641 -1.17188,0.74218 -2.64063,1.35547 -2.80078,1.13281 -0.21485,-0.30469 0.10546,-1.51953 0.8164,-3.57422 1.09375,-3.18359 1.85938,-3.66797 0.70313,-8.10156 -1.07813,-4.11719 -1.15625,-7.51563 1.53906,-10.60156 3.71875,-4.2461 11.75781,-8.28516 10.98828,-16.37891 -1.14844,-12.05469 -16.76953,-23.51563 -17.73047,-25.63672 -1.11328,-2.44141 0.19141,-16.57812 0,-27.17578 -0.19531,-10.60156 1.53906,-13.30469 1.53906,-13.30469 0.48438,0 0.23829,1.05469 2.3125,4.33594 1.16016,1.83203 2.41016,2.99219 2.41016,2.99219 0,0 1.05859,-3.66407 3.37109,-9.83203 2.31641,-6.16797 3.85938,-9.15235 3.85938,-9.15235 0,0 -0.0977,2.69922 1.44141,7.70703 1.54687,5.01172 2.79687,7.32422 2.79687,7.32422 0,0 1.15625,-2.69922 2.12109,-4.91406 1.20313,-2.76563 2.1211,-4.52734 2.1211,-4.52734 0,0 1.34765,2.89062 2.02344,5.97656 0.67187,3.08203 1.44531,6.25781 1.44531,6.25781 0,0 0.76953,-1.05859 1.92578,-2.50391 1.16016,-1.44531 2.31641,-2.30859 2.31641,-2.30859 0,0 0.48437,5.29688 0.67578,8.86719 0.1875,3.55859 0.57422,6.74219 0.57422,6.74219 0,0 1.05859,-2.40625 3.375,-5.30079 2.3125,-2.89062 4.43359,-4.52734 4.43359,-4.52734 0,0 0.57422,2.21484 0.76953,6.64453 0.16016,3.75781 0.0937,4.82422 0.0937,4.82422 0,0 0.87109,-1.25391 1.83594,-2.41016 0.96094,-1.16015 1.83203,-1.83203 1.83203,-1.83203 0,0 0.1875,2.69922 0.76562,4.24219 0.58204,1.53906 1.64063,2.69531 1.64063,4.33594 0,1.63672 1.54297,1.15234 1.83203,3.66015 0.28516,2.5 2.01953,1.83204 2.01953,6.35938 0,4.53125 0.29297,6.84375 1.16406,6.84375 0.86329,0 1.0586,3.17969 0.96094,5.01172 -0.0976,1.83203 0.48438,3.17969 0.48438,3.17969 0,0 3.61718,-10.12891 15.51172,-24.86329 12.91406,-15.99609 26.33984,-23.25781 35.08203,-22.16796 3.08203,0.39062 3.66406,1.92578 1.34765,6.17187 -2.3125,4.23828 -8.71093,15.23828 -8.28906,21.58594 0.38672,5.78125 0.76953,10.41015 1.73828,12.14453 0.96094,1.73437 0.57422,5.19922 -2.125,6.9375 -2.69531,1.73437 -4.8125,2.50391 -4.8125,3.47266 0,0.96093 4.25781,-0.14844 4.6211,0.76562 0.77343,1.92969 -0.19141,4.82031 -0.57422,6.9375 -0.38672,2.125 1.90625,2.61328 1.53906,5.20703 -0.38672,2.69922 -0.96484,5.39844 -2.89063,6.35938 -1.92578,0.96484 -1.73437,2.3164 -0.96484,5.01172 0.77344,2.69921 1.54297,5.20703 1.54297,5.20703 0,0 -2.52734,-0.94532 -5.00781,-3.66407 -4.05469,-4.43359 -4.82032,-2.51562 -4.82032,-0.58203 0,1.73828 1.54297,4.4336 5.19922,6.94532 3.66797,2.5039 5.97657,3.85156 5.97657,3.85156 0,0 -3.27735,4.6289 -9.2461,2.3164 -5.97656,-2.3164 -9.44922,-4.24218 -8.67969,-2.12109 0.77344,2.12109 1.73438,5.58594 5.97266,5.97266 4.24609,0.38281 6.55859,0 6.55859,0 0,0 -4.23828,10.02343 -14.07031,12.14062 -9.83203,2.1211 -16.23828,0.76563 -16.57812,2.1211 -0.38672,1.54687 2.3125,2.69921 5.97656,10.41015 3.66016,7.71094 4.24219,13.6875 11.56641,22.74219 7.32421,9.0625 17.71093,21.17187 34.5039,34.50391 6.54688,5.20703 14.91406,10.44531 15.60938,12.52734 1.15625,3.47266 5.24218,3.54297 9.63672,12.14453 4.625,9.05859 7.1289,16.76953 5.01171,17.92578 -2.12109,1.15625 -6.75,-6.9375 -10.60156,-13.30078 -3.85937,-6.35547 -8.28906,-7.71094 -9.82812,-7.71094 -3.47266,0 -11.57032,-6.93359 -11.57032,-6.93359 0,0 0.94532,2.70703 -1.34375,3.46875 -4.625,1.54297 -11.90625,0.043 -24.28906,-15.23047 -11.5625,-14.25781 -25.82812,-33.73047 -25.82812,-33.73047 0,0 -3.66016,1.67188 -7.71094,2.05469 -4.04688,0.38672 -4.875,-0.59375 -4.625,0.64453 0.38672,1.92578 -0.5625,1.04297 -4.43359,-1.35156 -4.69141,-2.88672 -8.57422,-4.2461 -10.02344,-4.82031 -2.95703,-1.15235 0,-1.34766 0.25781,-1.79688 1.01563,-1.76562 -2.22266,-2.14844 -5.33203,-4.88281" id="path152" style="fill:#231f20;fill-opacity:1;fill-rule:nonzero;stroke:none" />
<path d="m 274.07031,529.72266 c -2.69922,-0.38672 -5.23437,-0.0703 -5.6875,0.38671 -0.77344,0.78125 0.77344,6.64844 -6.26562,14.07032 -4.98828,5.26562 -13.97266,6.83984 -13.97266,6.83984 0,0 -1.44531,4.05078 3.94922,11.08594 4.88281,6.36719 7.42187,7.51172 10.99219,7.70703 3.5625,0.19141 5.8789,0.38672 6.74218,1.63672 0.8711,1.2539 3.95313,2.41406 5.49219,1.35547 1.54688,-1.06641 6.17188,-2.31641 8.86719,-5.30469 2.70312,-2.98438 2.79687,-6.9375 0.48437,-11.27344 -2.3125,-4.33594 -2.60156,-9.73437 -6.35937,-9.05859 -3.76172,0.67578 -5.97656,1.83203 -7.03906,2.89062 -1.0586,1.0586 -2.40625,2.69922 -2.01953,-0.48437 0.38671,-3.17578 6.45312,-11.75781 6.45312,-11.75781 0,0 -0.64844,-1.15625 -0.76953,-4.6211 -0.0977,-2.70312 0.43359,-3.28906 -0.86719,-3.47265" id="path154" style="fill:#fff;fill-opacity:1;fill-rule:nonzero;stroke:none" />
<path d="m 233.69141,445.20312 c -0.82422,-0.60937 -0.0977,3.17969 0.86328,10.3086 0.96093,7.13672 2.60156,15.23047 2.60156,15.23047 0,0 0.77344,-1.25391 0.96875,-10.69922 0.19141,-9.44141 1.15234,-10.69141 -4.43359,-14.83985" id="path156" style="fill:#fff;fill-opacity:1;fill-rule:nonzero;stroke:none" />
<path d="m 243.32812,437.10937 c -1.0625,0 -1.92578,1.92188 -2.99218,4.04688 -1.0586,2.12109 -1.60938,3.58984 -0.96094,7.22656 1.63672,9.15625 2.02734,22.26172 2.02734,22.26172 0,0 2.69532,-1.63672 2.79297,-18.98437 0.0664,-12.62891 0.86328,-14.55079 -0.86719,-14.55079" id="path158" style="fill:#fff;fill-opacity:1;fill-rule:nonzero;stroke:none" />
<path d="m 253.25,440.77344 c -0.79297,0 -4.14453,3.7539 -4.71875,4.91015 -0.57813,1.15625 0,2.89063 -0.57813,11.1836 -0.57812,8.28515 -0.48437,11.46875 -0.48437,11.46875 0,0 2.50781,-2.70313 5.01172,-13.6875 2.14844,-9.41016 2.5039,-13.875 0.76953,-13.875" id="path160" style="fill:#fff;fill-opacity:1;fill-rule:nonzero;stroke:none" />
<path d="m 257.97266,442.30859 c -0.76172,-0.10547 -1.53516,1.64063 -2.5,4.91797 -0.96485,3.27735 -1.0625,8.57813 -2.60547,14.7461 -1.53907,6.16796 -2.40625,9.73046 -2.40625,9.73046 0,0 1.2539,-1.44531 5.20312,-8.96093 3.94922,-7.51563 4.14453,-6.26172 3.375,-14.64844 -0.42969,-4.63281 -0.38672,-5.6875 -1.0664,-5.78516" id="path162" style="fill:#fff;fill-opacity:1;fill-rule:nonzero;stroke:none" />
<path d="m 266.83984,448.47656 c -0.67187,0 -4.14453,3.75781 -7.61328,12.53516 -3.46484,8.76172 -4.53125,14.45312 -4.53125,14.45312 0,0 2.89063,-1.05859 7.03906,-7.71093 4.14454,-6.65235 7.03516,-10.50391 6.35938,-14.64844 -0.67188,-4.14063 -0.0937,-4.62891 -1.25391,-4.62891" id="path164" style="fill:#fff;fill-opacity:1;fill-rule:nonzero;stroke:none" />
<path d="m 269.73047,456.67187 c -0.78516,-0.34765 -2.01953,2.3125 -3.94922,7.90235 -1.92188,5.58594 -2.69531,8 -2.69531,8 0,0 2.11718,-1.54297 5.29687,-6.45703 3.17969,-4.91407 4.82031,-7.90625 1.34766,-9.44532" id="path166" style="fill:#fff;fill-opacity:1;fill-rule:nonzero;stroke:none" />
<path d="m 272.72656,462.26172 c -0.57812,-0.12891 -0.96875,0.86719 -3.08594,4.43359 -2.12109,3.5625 -3.85937,7.13281 -3.85937,7.13281 0,0 2.3125,-1.2539 5.30469,-4.53125 2.98437,-3.27734 5.49218,-6.16796 1.64062,-7.03515" id="path168" style="fill:#fff;fill-opacity:1;fill-rule:nonzero;stroke:none" />
<path d="m 274.74219,466.50391 c -0.55469,0.6914 -1.05469,1.92968 -2.50782,4.04687 -1.44531,2.12109 -2.11718,3.56641 -2.11718,3.56641 0,0 2.60937,-0.96875 5.00781,-3.08594 2.41406,-2.12109 2.89844,-2.89063 1.74219,-4.625 -1.16016,-1.73438 -1.74219,-0.38672 -2.125,0.0977" id="path170" style="fill:#fff;fill-opacity:1;fill-rule:nonzero;stroke:none" />
<path d="m 307.83203,451.01562 c -10.92187,11.05469 -17.85547,23.39063 -17.85547,23.39063 0,0 2.3086,-0.12891 4.75,2.1875 2.44141,2.30859 3.77344,5.78125 4.75781,7.31641 0.89844,1.41796 2.3086,0.13281 5.65235,2.1875 1.625,1.0039 2.18359,2.69531 4.7539,1.79687 1.88282,-0.66016 4.49219,0.89844 6.03907,-1.15625 1.53906,-2.05469 2.70703,-3.80859 5.39453,-5.13672 2.66797,-1.32031 6.29687,-3.21094 3.21094,-5.91406 -3.08204,-2.69922 -6.29297,-3.98438 -5.51954,-6.8125 0.5586,-2.05859 4.6211,-1.21875 4.88282,-6.61328 0.25781,-5.40625 2.78906,-10.89063 4.36718,-14.07422 1.98829,-4.02734 4.89454,-7.17969 0.64063,-7.57813 -5.52734,-0.51562 -10.08594,-0.70703 -21.07422,10.40625" id="path172" style="fill:#fff;fill-opacity:1;fill-rule:nonzero;stroke:none" />
</g>
</g>
</svg>
