<?xml version="1.0" encoding="UTF-8" standalone="no"?>
<!-- Created with Inkscape (http://www.inkscape.org/) -->

<svg
   width="83.759377mm"
   height="83.759377mm"
   viewBox="0 0 83.759377 83.759377"
   version="1.1"
   id="svg1"
   inkscape:version="1.4.2 (f4327f4, 2025-05-13)"
   sodipodi:docname="OM 2026.svg"
   xmlns:inkscape="http://www.inkscape.org/namespaces/inkscape"
   xmlns:sodipodi="http://sodipodi.sourceforge.net/DTD/sodipodi-0.dtd"
   xmlns="http://www.w3.org/2000/svg"
   xmlns:svg="http://www.w3.org/2000/svg">
  <sodipodi:namedview
     id="namedview1"
     pagecolor="#ffffff"
     bordercolor="#000000"
     borderopacity="0.25"
     inkscape:showpageshadow="2"
     inkscape:pageopacity="0.0"
     inkscape:pagecheckerboard="0"
     inkscape:deskcolor="#d1d1d1"
     inkscape:document-units="mm"
     inkscape:zoom="1.9477379"
     inkscape:cx="158.38887"
     inkscape:cy="194.84141"
     inkscape:window-width="1920"
     inkscape:window-height="991"
     inkscape:window-x="-9"
     inkscape:window-y="-9"
     inkscape:window-maximized="1"
     inkscape:current-layer="layer1" />
  <defs
     id="defs1" />
  <g
     inkscape:label="Layer 1"
     inkscape:groupmode="layer"
     id="layer1"
     transform="translate(-58.593151,-132.14816)">
    <circle
       style="font-variation-settings:normal;opacity:1;vector-effect:none;fill:#0e68ac;fill-opacity:1;fill-rule:evenodd;stroke:none;stroke-width:6.35225;stroke-linecap:butt;stroke-linejoin:miter;stroke-miterlimit:4;stroke-dasharray:none;stroke-dashoffset:0;stroke-opacity:1;-inkscape-stroke:none;stop-color:#000000;stop-opacity:1"
       id="path2"
       cx="100.47284"
       cy="174.02785"
       r="41.879688" />
    <ellipse
       style="font-variation-settings:normal;opacity:1;vector-effect:none;fill:#ffffff;fill-opacity:1;fill-rule:evenodd;stroke:none;stroke-width:6.73982;stroke-linecap:butt;stroke-linejoin:miter;stroke-miterlimit:4;stroke-dasharray:none;stroke-dashoffset:0;stroke-opacity:1;-inkscape-stroke:none;stop-color:#000000;stop-opacity:1"
       id="path3"
       cx="100.47284"
       cy="174.02785"
       rx="38.902004"
       ry="38.902" />
    <circle
       style="font-variation-settings:normal;opacity:1;vector-effect:none;fill:#0e68ac;fill-opacity:1;fill-rule:evenodd;stroke:none;stroke-width:4.92802;stroke-linecap:butt;stroke-linejoin:miter;stroke-miterlimit:4;stroke-dasharray:none;stroke-dashoffset:0;stroke-opacity:1;-inkscape-stroke:none;stop-color:#000000;stop-opacity:1"
       id="path4"
       cx="100.47284"
       cy="174.02785"
       r="35.540001" />
    <g
       id="g4"
       transform="translate(-0.30482948,0.53593902)">
      <path
         style="fill:#ffffff;stroke:none;stroke-width:0.0968118"
         d="m 100.57601,184.1461 c -0.14781,-0.49551 -2.567643,-12.24225 -3.495103,-16.96635 -1.35535,-6.90363 -3.204208,-17.91097 -3.179056,-18.92681 0.01937,-0.78278 0.385363,-2.14362 0.807135,-3.00118 0.575453,-1.17001 1.765531,-2.32439 3.048551,-2.9571 1.16102,-0.57255 1.80657,-0.70396 3.191623,-0.64971 0.97732,0.0383 1.29221,0.0919 1.95542,0.33306 1.13047,0.41103 1.81222,0.84521 2.66231,1.69553 1.24872,1.24903 1.92283,2.93326 1.91846,4.79315 -0.002,0.89421 -0.1268,1.80719 -0.77659,5.68595 -1.31041,7.82203 -2.01502,11.6028 -3.59158,19.27149 -0.68964,3.35455 -1.44727,7.06493 -1.68361,8.24527 -0.4148,2.07162 -0.57379,2.64612 -0.73228,2.64612 -0.0411,0 -0.0975,-0.0762 -0.12528,-0.16942 z"
         id="path12-5" />
      <path
         style="fill:#ffffff;stroke:none;stroke-width:0.0968118"
         d="m 126.58675,189.82897 c -0.17112,-0.0526 -0.57687,-0.34171 -0.90167,-0.64242 -0.68773,-0.63672 -1.23978,-1.67981 -1.97669,-3.73494 -1.57242,-4.38518 -3.28046,-12.36728 -3.86847,-18.07824 -0.5484,-5.32629 -0.41375,-10.89906 0.32033,-13.25768 0.63803,-2.05003 2.39779,-3.0387 3.97576,-2.23368 0.85301,0.43517 1.9401,1.71039 3.51138,4.11905 2.58848,3.96796 3.94424,7.0922 4.7618,10.97318 0.61878,2.93743 0.77197,4.67698 0.70634,8.02113 -0.0568,2.89214 -0.20468,4.12764 -0.77982,6.51312 -0.78768,3.26702 -2.1987,6.77936 -3.07635,7.65775 -0.55982,0.5603 -1.91384,0.89605 -2.67261,0.66273 z"
         id="path13-5" />
      <path
         style="fill:#ffffff;stroke:none;stroke-width:0.0968118"
         d="m 108.13795,205.31263 c -0.87285,-0.1328 -1.94748,-0.94416 -2.44864,-1.84877 -0.27779,-0.50142 -0.28341,-0.53994 -0.27245,-1.86735 0.0258,-3.12565 1.92045,-15.67744 4.11367,-27.25266 0.41723,-2.20202 2.39217,-12.22071 2.70518,-13.72314 0.1027,-0.49297 0.20659,-0.61765 0.33777,-0.40539 0.20362,0.32945 4.18482,22.51398 4.54502,25.32623 0.62466,4.87717 0.69547,9.15613 0.1914,11.5666 -0.27201,1.30073 -0.93483,2.848 -1.69463,3.95589 -1.79046,2.61074 -5.2653,4.58513 -7.47732,4.24859 z"
         id="path14-1" />
      <path
         style="fill:#ffffff;stroke:none;stroke-width:0.0968118"
         d="m 91.416373,205.17342 c -0.822193,-0.22638 -2.21144,-0.94041 -3.057861,-1.57162 -2.415389,-1.80126 -3.819357,-4.10627 -4.258017,-6.99072 -0.292607,-1.92407 -0.26144,-6.83475 0.06267,-9.87525 0.157836,-1.48066 2.369448,-14.26048 3.42616,-19.79811 0.182893,-0.95845 0.531442,-2.82519 0.774554,-4.14832 0.44957,-2.44677 0.583822,-2.93295 0.735198,-2.66245 0.04379,0.0782 0.192765,0.7278 0.331054,1.44346 0.138288,0.71565 0.399172,2.02002 0.57974,2.89859 0.18057,0.87857 0.742595,3.75389 1.248947,6.38961 2.108306,10.97438 2.6778,14.28023 3.777504,21.92798 0.849195,5.90563 1.046435,7.55068 1.062085,8.85833 0.0126,1.0509 -0.002,1.14455 -0.26859,1.66997 -0.367328,0.72525 -1.037346,1.39758 -1.70272,1.70857 -0.661556,0.30922 -1.886262,0.37697 -2.710728,0.14996 z"
         id="path15-7" />
      <path
         style="fill:#ffffff;stroke:none;stroke-width:0.0968118"
         d="m 73.457796,189.84624 c -0.565242,-0.14778 -1.028857,-0.43055 -1.351237,-0.82414 -1.241031,-1.51518 -2.54263,-5.14008 -3.410755,-9.49879 -0.266867,-1.3399 -0.26995,-1.39738 -0.270018,-5.03424 -4.5e-5,-2.4359 0.04294,-4.03867 0.127231,-4.7438 0.525074,-4.39258 2.193247,-8.92007 4.86245,-13.19689 1.40705,-2.25449 3.130605,-4.28057 4.01161,-4.71573 0.591076,-0.29196 1.596468,-0.25925 2.235384,0.0727 1.488072,0.77318 2.038277,2.55476 2.276276,7.37066 0.24994,5.05751 -0.444327,11.16474 -2.152555,18.93529 -1.126827,5.12582 -2.631581,9.45982 -3.72994,10.74302 -0.659334,0.77029 -1.698828,1.12709 -2.598446,0.8919 z"
         id="path16-1" />
    </g>
  </g>
</svg>
