<?xml version="1.0" encoding="UTF-8"?>
<!-- Created with Inkscape (http://www.inkscape.org/) -->
<svg width="34.517mm" height="43.182mm" version="1.1" viewBox="0 0 175.41 219.45" xmlns="http://www.w3.org/2000/svg">
 <defs>
  <clipPath id="clipPath28">
   <path d="m0 1080h1920v-1080h-1920z"/>
  </clipPath>
 </defs>
 <g transform="translate(-19.647 -23.85)">
  <g transform="matrix(.35278 0 0 -.35278 -25.556 300.83)">
   <g clip-path="url(#clipPath28)">
    <g transform="translate(137.83 773.01)">
     <path d="m0 0v-241.92c0-36.988 13.996-174.94 80.973-234.92 66.974-59.98 157.94-120.96 157.94-120.96s100.97 56.981 148.95 112.96c47.982 55.981 89.968 65.977 89.968 360.88v123.96z" fill="#fff"/>
    </g>
    <g transform="translate(397.71 394.24)">
     <path d="m0 0c0.833 0.467 2.012 1.334 3.986 3.027 7.03 6.024 14.844 10.7 22.745 15.438 4.568 2.812 5.084 7.12 1.318 12.167-4.009 5.345-5.672 10.966-8.628 16.801 11.761 6.967 12.436 11.579 19.247 22.471 11.317-7.241 12.988-11.401 14.777-24.352-5.586-8.378-7.856-16.219-10.168-25.832-2.475-10.204-10.034-12.611-18.849-13.514-0.54-0.057-0.974-0.104-1.267-0.18-3.166-0.949-0.663-4.513-3.802-6.357-3.108-1.822-4.69 0.575-8.878-1.975-3.434-2.091-6.549-2.925-10.731-2.088-4.159 0.831-7.984 1.386-12.287 1.53v1.038c0 5.778 7.026 2.259 10.089 3.059 0.232 0.06 0.468 0.096 0.703 0.098 0.837 3e-3 1.524-0.522 1.745-1.331m7.756 13.674c-4.145-4.145-5.543-5.328-11.647-7.484-1.152-0.406-1.762 1.324-0.611 1.729 5.847 2.064 7.007 3.097 10.962 7.052 0.863 0.862 2.16-0.433 1.296-1.297m6.214 18.813c1.616-2.583-2.016-13.725 4.442-6.864 2.583-0.724 2.422 0.405 6.863-2.017-2.019 8.073-6.863 1.614-11.305 8.881m-27.613 71.047c-2.02 3.634-2.827-11.463-4.683-5.814 0.565 3.232 1.614 4.603 1.05 8.074-0.485 3.068 7.669 3.634 8.235-6.701-4.682-1.613-3.795 1.859-4.602 4.441m-7.508 8.479c-1.212-4.2-0.567-19.135-3.392-11.061-7.107-2.02-2.342 5.893-3.633 9.446 2.905 0.726 4.117 0.886 7.025 1.615m-45.379 32.939c-2.42 2.18-2.019 2.987 0.565 4.037l-4.198 3.229c-2.423-2.019-2.423-3.876-9.125-0.645-0.161-0.404-0.564-0.648-0.808-0.97 12.678-3.633 6.944-9.525 0.647-7.67-3.23 0.968-10.093-5.893 5.006-5.248 0.727-1.292 0.97-2.744 2.261-3.47 1.374-0.807 5.007-0.405 7.832 0 13.163 2.017 7.187 10.09-0.404 5.086-5.813-3.876-8.235-3.876-6.62 0.968-4.442-3.229-3.149 0.888-2.665 1.454 1.453 1.614 4.521 3.793 7.509 3.229m3.39 7.266c8.882-2.422 18.007-3.069 18.007-3.634 0-2.019 3.253-4.275 1.373-5.247-0.979-0.507-1.728 0.038-2.825 0.161-7.252 0.817-11.779 3.203-16.555 8.72m-58.134-32.939-7.269-1.615-6.216-4.199-3.471-6.297 8.075 4.845 3.229 3.229zm96.084-27.452-1.615-4.842 5.654-0.81zm68.229-78.07 2.422 6.459 9.689 3.229zm-18.731-10.739 11.06-0.808 6.46 4.039-8.882-2.019zm-87.043 179.07c1.535-3.472 3.391-4.684 4.039-9.123 0.807-5.003 2.823-7.671 3.875-11.061 0.242-0.888 2.825-6.861-2.261-1.777-5.167 5.167-7.187 9.448-10.093 15.665-0.888-1.213-0.809-2.746-1.535-4.037-0.16-0.405-0.646-5.168-1.291-0.163-1.696 13.564-5.571 18.327-11.629 15.502 2.748-4.118 4.524-6.54 7.269-10.657 0 2.179-0.889 5.893-0.162 5.811 1.453-0.16 1.923-1.565 2.341-2.987 0.285-0.966-0.241-2.017 0.08-2.583 1.615-2.664 0.486-6.944-1.937-15.581-0.484-1.777-1.938-3.632 1.05-5.086 3.23-1.615 4.44 3.469 6.057 6.459 0.645 1.211 2.758 0.527 4.036-0.404 2.236-1.633-0.726-4.359-1.05-7.023l14.938-1.052c-1.857 14.13-4.845 24.223-13.727 28.097m-29.229-8.881h1.212v-1.454h-1.212zm34.075-41.174c-1.616-3.31-1.212-5.893-4.442-8.72-1.856-1.614-2.423-3.795-3.392-6.458-0.888-2.504-3.795-2.665-6.7 2.017-12.678 1.859-4.2 4.037-11.063 5.491 0 0-3.231 1.291 2.182 0.807 4.116-0.323 6.368-1.138 10.333-0.405 5.738 1.063 8.075 4.604 13.082 7.268m-28.666-6.863c-2.745-0.968-3.794-0.405-7.023-2.422 3.229-1.855 7.105-4.765 7.751-5.007 0.482-0.161 1.292 0.647 1.371 1.212 0.325 1.535-3.067 4.441-2.099 6.217m-29.471-6.864c6.701-0.886 11.708 0 21.235-3.066 2.585-0.163 1.535 4.521 0.163 3.471-1.374-1.049-4.039-1.856-4.603 0.403-1.293 5.411-11.629-0.321-16.795-0.808m-25.597-19.376c-2.019-0.484-3.229-0.969-5.247-1.452 1.857 2.02 2.907 3.39 4.602 5.489 3.23 1.615 3.309-2.259 0.645-4.037m113.04 71.855c-3.071 6.056 12.109 6.619 6.619 7.429-3.632-0.891-8.073-0.97-9.285-2.422-0.564-0.729 0.453-1.91-0.161-2.827-0.637-0.949-1.965-0.31-2.664-1.21-1.337-1.715 3.553-0.565 5.491-0.97m12.676-8.476c0.403 3.793-1.133 7.183-4.604 8.234-2.26 3.227-7.265 0.404-4.036-2.827 1.212-1.21 3.229-3.227 2.18-6.054 2.26-0.809 3.067-2.422 1.454-5.249 1.775-1.856 2.017-2.826-0.405-5.004 2.583-1.615 3.795-2.422 1.615-7.268-1.049-2.502 1.291-2.664 2.018-4.276 0.243 3.55 5.25 5.085 0.809 9.687 0.646 3.632 1.614 7.669 0.969 12.757m-18.733-20.023c4.198 0.403 11.466 0.645 11.062 1.452-4.038 1.131-10.9 4.602-11.708 2.585-0.644-1.617 0.646-2.343 0.646-4.037m10.256-8.638c-3.636 2.097-5.814 3.551-9.45 5.651 3.232-0.323 5.723 0.426 8.883-1.049 2.374-1.11 6.958-2.214 5.248-4.198-1.197-1.391 0.403-3.231-4.681-0.404m-8.075-2.422c-1.938 2.826-3.311 4.602-5.249 7.426 0.163 0.969-0.163 2.424 0.807 2.664 0.645 0.161-6.863 0.807-6.621 0 0.323-1.291 2.199-1.03 2.987-2.259 0.489-0.764 1.454-2.019 0.807-2.182-3.39-1.047 3.472-0.402 7.269-5.649m19.217 17.356c0 2.18-0.08 1.777-1.86 3.634-0.645 0.726 0.888 1.212 1.615 1.212 2.827 0.159 4.442-1.857 8.722-0.244 0-2.583 1.614-5.005 4.442-6.861-5.25-2.424-8.643 4.923-12.919 2.259m-2.827-14.976c0 0.335 0.397 0.607 0.889 0.607 0.489 0 0.886-0.272 0.886-0.607s-0.397-0.605-0.886-0.605c-0.492 0-0.889 0.27-0.889 0.605m29.875 34.515c2.824 6.701-5.49 8.316-6.863 13.726-0.645-4.038-5.491-4.038-10.498-3.633-4.199 0.323-4.52 0.807-7.265 1.209 1.854-2.259 0.967-8.315 5.004-6.055-3.229 5.653 10.739 3.069 7.268-2.986 0.807-4.28 5.249 7.266 7.671 3.632 0.081-1.938-0.827-3.732 0.645-5.086 1.183-1.085 2.584-0.565 4.038-0.807m-27.217 9.775c1.573-5.591 3.445-7.176 3.826-13.678 0.073-1.219-1.755-1.327-1.828-0.11-0.351 5.981-2.274 8.001-3.762 13.29-0.331 1.179 1.434 1.674 1.764 0.498m28.185-11.15c-0.563 0.324-2.18-1.533-2.987-2.822-0.888-1.294 0.251-1.337 0.888-1.778 1.148-0.794 3.955 0.08 3.229 1.535-0.562 0.968-0.888 2.906-1.13 3.065m-5.733-11.14c-0.644 2.906 4.118 3.634 2.909 4.683-2.101-0.241-3.393-1.372-5.331-0.725-0.083-3.472-1.049-5.573-3.956-7.267 6.702-0.242 6.862 0.161 6.378 3.309m-44.73-28.256c2.825-1.615-4.039-4.441 0-10.093 2.422-3.471 3.23-10.658 5.247-17.358 1.212 18.166 2.422 31.085-12.919 33.507-0.403-4.844 0.404-8.075 7.672-6.056m-1.616-42.386c2.665 0.242-0.161 5.649-4.601 6.054-2.019 1.614-3.473 6.7-9.285 5.086-6.462 3.229-7.995 2.019-7.509 2.987 0.402 0.808 14.936 0 20.184-6.459 3.23 0.566 6.459-2.42 8.479 1.617 0-4.441 1.21-8.076-3.23-7.266 0.403-4.039-0.404-3.634-6.461-3.634-4.438 1.21 1.455 1.049 2.423 1.615m-19.539-2.422-3.069 1.614-0.565-2.584 2.422-0.403zm48.905 34.216 4.44-12.515c0.409-1.151-1.319-1.765-1.727-0.613l-4.441 12.513c-0.407 1.152 1.319 1.765 1.728 0.615m2.123-52.545c-9.851 13.727-0.161 22.528 8.72 14.453 2.666-0.969 0 5.248 0 8.477l5.895-13.32c-8.641 0.645-11.223-3.957-14.615-9.61m7.268 44.81 11.949-27.047s5.814 5.41 5.007 0.807c-2.099-2.017-3.553-3.471-5.653-5.488l-15.342 36.975c8.076-4.037 31.491-10.898 38.356-35.928-2.907 0.486-9.609-2.259-7.834 1.373 2.988 5.893 1.131 13.161 0 10.739-2.019-4.281-2.422-3.634-6.863-1.049-0.968 10.898-2.664 11.303-4.279 3.874-4.28 9.042-8.477 13.564-15.341 15.744m14.534-39.399-1.615 3.874c4.279 0.565 7.104 0.97 11.305 5.007 4.278-5.814-6.056-5.572-9.69-8.881m35.931 14.127c4.845 0.808 8.478-0.807 13.727-5.246 6.459-2.422 7.266-5.652 7.266-12.918-2.341-0.081-8.478 8.881-6.461 0 0.566-3.068 1.052-7.428-1.37-4.602-1.373 3.795-3.231 9.689-3.635 2.018-7.589 7.268-11.304 13.324-19.62 18.973 4.521-1.615 16.897-3.291 10.093 1.775m-32.702-46.422c-3.229 4.441-4.844 6.459-5.651 12.112-4.846-1.615-18.573 12.513-5.653-9.286 2.019-0.403-0.808 8.881 2.421 8.074 3.232-4.2 2.827-13.322 8.883-10.9m-14.886-22.286c-3.3-2.129-6.647-4.151-9.931-6.309-12.09 2.643-12.942-1.566-17.858-9.758-7.364 1.635-8.273 0.362-15.02 0.141-6.307-0.208-11.51-0.361-17.812-1.353-1.057 4.568 1.255 5.513 5.316 5.84 3.007 0.24 6.284-0.061 9.203 0.807 9.741 5.667 20.166 9.465 24.717 10.929 3.212 1.07 6.631 2.293 7.111 5.986 0.111 0.865 0.136 1.788 0.234 2.783 0.49 5.133 1.157 9.051 3.788 13.381 3.822 6.116 6.804 3.509 9.871-0.577 1.045-1.394 2.222-3.101 3.619-5.001 6.596-8.909 4.649-11.783-3.238-16.869m-15.49 170.89c-0.802 0.89-0.732 1.825-0.564 2.926 0.056 0.38 0.01 0.679-7e-3 0.779-0.216 0.263-0.401 1.344-0.686 1.562-0.494 3.377-0.842 3.812 0.07 5.576l0.653 1.198c-2.03 1.18-3.031 1.878-2.781 3.751 0.243 1.937 1.899 2.336 3.802 3.15 0.492 0.207 0.901 0.328 1.217 0.422l-0.206 0.681c-0.7 4.823 0.637 8.536 5.928 5.901 5.157-2.476 15.695-8.308 19.865-11.05 2.074-2.348 2.189-3.318-0.823-5.143-2.588-1.393-2.516-4.832-3.908-7.08-0.218-0.35-0.448-0.692-0.626-1.065 11.189-12.715 15.109-18.958 3.931-35.916-3.657-5.585-4.557-8.618-5.551-10.327-1.159-1.987-2.584-2.516-5.706-2.809 1.548-6.5 1.709-12.267-3.74-19.076-0.249-0.313-0.484-0.637-0.56-0.801 0.667-0.53 2.242-0.758 3.069-1.224 0.832-0.461 3.165-0.824 4.078-1.098 14.134-4.25 24.652-14.418 31.518-27.474 13.678 2.259 20.176-0.157 34.745-7.321 10.472-4.616 7.856-9.669 7.075-18.028-0.32-3.407 0.105-8.68-3.924-10.191-1.796-0.664-3.009-6.432-3.345-7.918-1.053-4.684-2.046-10.713-3.664-16.782-2.63-9.946-5.742-13.226-12.015-20.165-1.441-1.598-2.871-3.332-4.261-5.561-5.737-9.179-12.602-11.737-22.33-13.953 2.887-1.726 3.965-4.281 5.394-7.139h-137.99c-0.39 5.929-3.784 11.813-0.741 17.335 4.634 8.414 17.228 4.909 24.462 4.185 3.478-0.341 5.044-2.214 7.442 1.888 1.928 3.355 7.425 5.786 13.539 8.032 6.22 2.284 13.631 4.536 20.07 7.353 7.457 3.196 10.868 0.52 11.466 12.392 0.782 14.496 3.303 19.753 5.446 31.587-9.833 0.285-18.339 3.802-24.834 6.619l-5.003-5.714-9.48 2.369-0.155 2.891c-7.274 1.188-15.952 7.357-15.195 10.497 1.459 5.353 3.407 3.366 6.337 3.228 1.832-0.085 3.504-2.793 3.426-0.628-0.023 0.594-0.123 1.18-0.144 1.772-6.356 1.51-7.858 3.852-12.14 7.897-1.441 1.348-6.372 4.686-8.502 4.075-0.344-0.098-0.62-0.273-0.979-0.393-1.137-0.379-2.54-0.276-5.316 0.966-7.773 3.398-20.248 7.164-27.888 4.647-2.288-0.773-17.8-6.926-18.248-10.227-0.113-1.65 2.32-5.392 0.142-6.3-2.099-0.841-3.623-0.353-5.198-2.476-1.802-2.377 0.263-7.558-3.877-8.322-3.739-0.746-13.399 0.588-15.043 5.234 1.739 10.696 6.144 10.2 8.15 16.723 2.858 9.261 4.903 8.206 8.991 15.015 5.245 8.635 8.747 13.917 15.264 18.264 3.944 2.6 8.967 2.218 14.169 1.271 4.99-0.91 10.521-2.441 16.162-2.833 1.827 2.763 2.45 4.71 5.24 7.123 3.174 2.804 4.664 8.445 5.156 10.735 0.512 2.111 0.436 2.836 0.342 3.014-0.936 0.193-6.027-3.014-5.275 2.28-1.448-0.882-3.194-1.449-4.414 0.287-1.199 1.624-1.453 1.378-3.163 2.063-3.403 1.341-5.513 5.498-2.773 11.919 2.08 4.801 4.025 8.599 4.897 11.399 1.873 6.031-3.515 3.152-3.978 6.776-0.265 2.061 2.564 3.146 3.946 3.952 0.59 0.382 2.064 1.339 2.514 2.061-2.25 1.838-2.688 1.805-3.257 5.583l-0.133 0.895c1.653 0.552 2.699 1.043 4.491 0.695 1.399-0.275 3.505-1.045 7.489-2.52 3.634-1.32 9.61 1.399 14.247 0.7 11.176-1.687 17.697-6.175 24.886-14.742 5.984-7.128 6.706-13.277 9.715-21.645 1.944-5.533-0.336-9.607 7.397-8.214 2.43 0.437 4.859 1.316 5.973 1.874 0.558 0.27 0.987 0.968-0.378 2.948-1.212 1.758-3.415 3.687-5.709 4.908-4.72 2.511-10.122 3.717-10.971 9.996-0.798 5.387 5.72 8.834 11.098 10.392 4.241 1.23 10.806 1.482 14.443 3.163 2.404 1.174 4.653 1.354 7.236 1.186" fill-rule="evenodd"/>
    </g>
    <g transform="translate(317.4 293.57)">
     <path d="m0 0v47.602h-5.429v9.409h16.361v-57.011z" fill="#c70a0c" fill-rule="evenodd"/>
    </g>
    <g transform="translate(356.64 341.25)">
     <path d="m0 0c-2.811 0-4.216-2.968-4.216-8.903 0-5.964 1.405-8.943 4.216-8.943 2.836 0 4.256 2.979 4.258 8.943 0 5.935-1.422 8.903-4.258 8.903m3.435-24.563c-2.419-1.926-4.841-2.888-7.261-2.888-3.568 0-6.366 1.495-8.398 4.49-2.028 3.019-3.043 7.173-3.043 12.456 0 6.639 1.351 11.729 4.061 15.27 2.706 3.539 6.61 5.309 11.714 5.309 4.815 0 8.564-1.756 11.245-5.271 2.681-3.489 4.022-8.371 4.022-14.644 0-6.43-2.316-14.631-6.95-24.601l-0.508-1.093-5.505-12.144h-11.049l8.823 17.845c0.026 0.051 0.077 0.169 0.155 0.352 0.782 1.639 1.679 3.28 2.694 4.919" fill="#c70a0c" fill-rule="evenodd"/>
    </g>
    <g transform="translate(392.41 302.87)">
     <path d="m0 0c2.915 0 4.372 2.929 4.373 8.787 0 5.961-1.354 8.941-4.061 8.942-2.944 0-4.411-3.202-4.411-9.606 0-5.415 1.364-8.123 4.099-8.123m-3.046 24.524c2.525 1.822 4.893 2.732 7.105 2.734 3.568 0 6.366-1.447 8.397-4.334 2.03-2.89 3.046-6.913 3.046-12.069 0-6.612-1.367-11.753-4.099-15.423-2.709-3.672-6.483-5.507-11.324-5.507-5.078 0-8.982 1.705-11.717 5.116-2.707 3.435-4.059 8.33-4.059 14.683 0 6.221 2.46 14.408 7.377 24.563l0.626 1.288 5.858 12.144h10.934l-9.098-17.924c-1.069-2.082-2.084-3.84-3.046-5.271" fill="#c70a0c" fill-rule="evenodd"/>
    </g>
    <g transform="translate(412.05 295.1)">
     <path d="m0 0 1.444 10.308c2.863-1.692 5.61-2.537 8.241-2.537 5.907 0 8.863 3.059 8.863 9.175 0 7.03-4.607 10.545-13.824 10.545-0.26 0-1.028-0.04-2.304-0.117-0.131 0-0.325-0.015-0.584-0.04l3.941 28.155h22.221v-9.686h-14.293l-1.446-10.386h0.392c5.362 0 9.556-1.548 12.575-4.645 3.017-3.075 4.526-7.331 4.528-12.77 0-6.223-1.679-11.156-5.036-14.799-3.334-3.621-7.889-5.429-13.667-5.429-4.192 0-7.877 0.741-11.051 2.226" fill="#c70a0c" fill-rule="evenodd"/>
    </g>
    <g transform="translate(201.5 657.34)">
     <path d="m0 0v9.465c2.29-1.999 4.528-2.999 6.716-2.999 3.311 0 4.967 1.509 4.967 4.531 0 1.726-1.198 3.601-3.592 5.622-0.436 0.375-0.936 0.813-1.499 1.313-2.748 2.477-4.665 4.725-5.748 6.748-1.042 1.955-1.562 4.207-1.562 6.748 0 3.936 1.104 7.111 3.31 9.527 2.23 2.435 5.134 3.655 8.717 3.655 2.458 0 5.02-0.749 7.684-2.25v-8.06c-2.812 1.354-4.842 2.031-6.09 2.032-1.312 0-2.386-0.418-3.218-1.251-0.834-0.812-1.25-1.886-1.25-3.216 0-1.229 0.312-2.322 0.938-3.283 0.707-1.081 2.165-2.57 4.373-4.466 2.957-2.541 4.926-4.728 5.903-6.559 0.877-1.626 1.314-3.719 1.314-6.281 0-4.144-1.178-7.425-3.532-9.839-2.331-2.395-5.519-3.592-9.558-3.592-3.083 0-5.708 0.718-7.873 2.155" fill="#c70a0c" fill-rule="evenodd"/>
    </g>
    <g transform="translate(240.57 670.83)">
     <path d="m0 0h6.059c-1.27 6.457-2.27 13.473-2.998 21.055-0.917-6.831-1.938-13.849-3.061-21.055m-12.152-15.088 10.62 45.61h9.527l10.124-45.61h-9.091l-1.531 7.998h-9.153l-1.405-7.998z" fill="#c70a0c" fill-rule="evenodd"/>
    </g>
    <g transform="translate(264.54 655.75)">
     <path d="m0 0 4.468 45.61h11.713l3.844-32.084c1.037 11.145 2.669 21.069 4.527 32.084h11.592l3.841-45.61h-9.215l-1.467 37.051-5.937-37.051h-6.592l-5.591 37.3-2.155-37.3z" fill="#c70a0c" fill-rule="evenodd"/>
    </g>
    <g transform="translate(312.86 657.34)">
     <path d="m0 0v9.465c2.29-1.999 4.528-2.999 6.716-2.999 3.313 0 4.969 1.509 4.969 4.531 0 1.726-1.201 3.601-3.595 5.622-0.437 0.375-0.937 0.813-1.499 1.313-2.749 2.477-4.665 4.725-5.748 6.748-1.041 1.955-1.562 4.207-1.562 6.748 0 3.936 1.103 7.111 3.312 9.527 2.227 2.435 5.132 3.655 8.716 3.655 2.457 0 5.017-0.749 7.685-2.25v-8.06c-2.814 1.354-4.842 2.031-6.094 2.032-1.309 0-2.384-0.418-3.215-1.251-0.834-0.812-1.251-1.886-1.251-3.216 0-1.229 0.312-2.322 0.939-3.283 0.707-1.081 2.164-2.57 4.373-4.466 2.956-2.541 4.924-4.728 5.903-6.559 0.875-1.626 1.312-3.719 1.312-6.281 0-4.144-1.176-7.425-3.53-9.839-2.332-2.395-5.519-3.592-9.56-3.592-3.082 0-5.706 0.718-7.871 2.155" fill="#c70a0c" fill-rule="evenodd"/>
    </g>
    <g transform="translate(371.83 701.36)">
     <path d="m0 0v-28.648c0-5.622-0.448-9.32-1.344-11.089-2.164-4.29-6.456-6.434-12.868-6.434-6.459 0-10.759 2.144-12.905 6.434-0.914 1.832-1.372 5.528-1.372 11.089v28.648h9.09v-29.365c0-3.603 0.375-5.999 1.126-7.186 0.686-1.082 2.039-1.624 4.061-1.624 2.04 0 3.414 0.563 4.122 1.686 0.709 1.146 1.062 3.521 1.062 7.124v29.365z" fill="#c70a0c" fill-rule="evenodd"/>
    </g>
    <g transform="translate(383.53 655.75)">
     <path d="m0 0v45.61h9.215l10.893-30.414-0.182 30.414h8.344v-45.61h-8.433l-12.091 30.208 0.626-30.208z" fill="#c70a0c" fill-rule="evenodd"/>
    </g>
    <g transform="translate(422.37 657.34)">
     <path d="m0 0v9.465c2.292-1.999 4.531-2.999 6.718-2.999 3.311 0 4.967 1.509 4.967 4.531 0 1.726-1.198 3.601-3.593 5.622-0.437 0.375-0.937 0.813-1.5 1.313-2.748 2.477-4.665 4.725-5.747 6.748-1.041 1.955-1.563 4.207-1.563 6.748 0 3.936 1.104 7.111 3.313 9.527 2.227 2.435 5.131 3.655 8.714 3.655 2.458 0 5.019-0.749 7.686-2.25v-8.06c-2.812 1.354-4.842 2.031-6.092 2.032-1.312 0-2.385-0.418-3.218-1.251-0.834-0.812-1.25-1.886-1.25-3.216 0-1.229 0.313-2.322 0.938-3.283 0.707-1.081 2.165-2.57 4.373-4.466 2.958-2.541 4.926-4.728 5.905-6.559 0.873-1.626 1.312-3.719 1.312-6.281 0-4.144-1.178-7.425-3.53-9.839-2.333-2.395-5.519-3.592-9.56-3.592-3.081 0-5.705 0.718-7.873 2.155" fill="#c70a0c" fill-rule="evenodd"/>
    </g>
    <g transform="translate(461.94 681.58)">
     <path d="m0 0c0.062 0 0.217-9e-3 0.469-0.032 0.27-0.02 0.435-0.032 0.5-0.032 3.954 0 5.932 2.155 5.934 6.468 0 4.226-1.98 6.34-5.934 6.34-0.065 0-0.23-0.01-0.5-0.028-0.252-0.023-0.407-0.033-0.469-0.033zm-8.808-25.837v45.612h9.462c9.893 0 14.838-4.416 14.841-13.246 0-4.269-1.179-7.591-3.53-9.966-2.355-2.354-5.655-3.528-9.904-3.528-0.855 0-1.53 0.019-2.029 0.06l-0.032-18.932z" fill="#c70a0c" fill-rule="evenodd"/>
    </g>
    <g transform="translate(501.51 663.87)">
     <path d="m0 0c4.644 0 6.966 4.884 6.967 14.651 0 9.809-2.323 14.716-6.967 14.716-4.623 0-6.935-4.907-6.935-14.716 0-9.767 2.312-14.651 6.935-14.651m16.059 14.025c0-6.933-1.462-12.452-4.376-16.555-2.894-4.102-6.79-6.152-11.683-6.154-5.038 0-8.965 2.052-11.776 6.154-2.813 4.126-4.217 9.849-4.217 17.181 0 7.312 1.416 13.037 4.249 17.181 2.852 4.166 6.767 6.249 11.744 6.249 5 0 8.925-2.135 11.778-6.404 2.852-4.248 4.278-10.132 4.281-17.652" fill="#c70a0c" fill-rule="evenodd"/>
    </g>
    <g transform="translate(536.8 681.58)">
     <path d="m0 0c0.063 0 0.228-9e-3 0.5-0.032 0.29-0.02 0.466-0.032 0.529-0.032 3.977 0 5.967 2.176 5.969 6.53 0 4.187-1.927 6.278-5.778 6.278-0.502 0-0.898-0.021-1.189-0.061zm-8.809-25.837v45.612h9.465c5.205 0 8.975-1.022 11.309-3.063 2.352-2.04 3.527-5.299 3.529-9.777 0-6.396-2.404-10.382-7.217-11.966l8.749-20.806h-9.592l-7.434 18.872v-18.872z" fill="#c70a0c" fill-rule="evenodd"/>
    </g>
    <g transform="translate(128.14 785.14)">
     <path d="m0 0v-251.73c0-198.75 97.717-269.17 248.61-370.32 232.26 131.08 248.62 228.37 248.62 493.07v128.99zm17.979-22.491v-233.53c0-184.38 90.648-249.7 230.63-343.54 215.46 121.6 230.64 211.85 230.64 457.41v119.66z" fill="#c70a0c" fill-rule="evenodd"/>
    </g>
    <g transform="translate(169.89 743.14)">
     <path d="m0 0v-219.96c0-165.37 81.306-223.96 206.86-308.12 193.25 109.06 206.86 190.01 206.86 410.25v117.82zm19.926-100.43h373.86v74.993h-373.86zm373.86-21.308h-373.86v-102.47c0-149.44 73.473-202.38 186.93-278.44 174.63 98.558 186.93 171.71 186.93 370.73z" fill="#c70a0c" fill-rule="evenodd"/>
    </g>
   </g>
  </g>
 </g>
</svg>
