<svg xmlns="http://www.w3.org/2000/svg" xmlns:svg="http://www.w3.org/2000/svg" width="312.35431386696797" height="320.1492521809387" viewBox="0 0 148.49503 152.1973" version="1.1" id="svg1">
  <defs id="defs1"/>
  <g id="layer1" transform="translate(-41.010416,-96.30834)">
    <path id="path1" d="m 174.24283,117.62695 0.50959,-0.42549 c 1.8845,7.70248 9.28419,8.65399 9.698,20.70619 0.55111,0 1.10282,0 1.65449,0 -0.59757,5.4368 -0.1379,10.5114 1.42473,15.22331 0.64308,-0.31683 1.28668,-0.63412 1.9758,-0.95141 -5.10102,10.51201 3.03378,22.69991 -9.51353,31.8068 -0.18387,4.93839 -1.19479,9.65091 -3.86017,14.31738 0.55108,0.0908 1.10278,0.18112 1.69997,0.31732 -8.50209,5.88991 -8.86989,18.30479 -18.10809,23.28859 -3.8602,10.55691 -9.8353,17.5799 -20.45158,17.17171 -3.49303,3.12628 -7.30783,5.12011 -11.48983,4.7124 -6.25087,3.85128 -6.61818,4.66647 -12.45528,3.03548 -0.32191,0.54391 -0.64371,1.08722 -0.91902,1.6764 -8.27267,-3.44357 -16.224073,-0.4076 -25.001995,-10.73799 -13.098391,-3.89661 -18.016078,-10.69309 -19.533199,-17.85169 -7.675103,-3.39831 -11.765173,-11.2365 -14.293179,-21.02301 -5.23949,-4.1686 -5.928606,-11.19149 -5.377391,-18.8486 -5.239526,-5.25579 -6.480316,-12.82199 -5.974609,-21.43058 -5.515292,-8.15551 1.378691,-12.5506 -3.217121,-26.05271 1.194823,0.22649 2.38961,0.49841 3.539031,0.7704 1.940983,-7.39249 5.680075,-11.92442 10.667294,-14.31851 l -0.177201,-3.68981 c -0.121108,-2.56388 -0.242711,-5.12727 -0.373415,-7.68837 l -0.06558,-1.2913 1.249186,-0.40651 c 19.904991,-6.480209 39.637791,-9.658595 59.243379,-9.628397 19.6022,0.0309 39.06033,3.273213 58.41972,9.635207 l 1.23959,0.407 -0.0622,1.284 c -0.14351,2.95579 -0.26571,5.7911 -0.38911,8.65668 z" style="fill:#000000;fill-opacity:1;fill-rule:evenodd;stroke:none;stroke-width:0.352778"/>
    <path id="path2" d="m 58.474926,108.32106 v 13.18479 H 171.02994 v -13.18479 c -36.6298,-11.734907 -74.178721,-11.55372 -112.555014,0" style="fill:#ffffff;fill-opacity:1;fill-rule:evenodd;stroke:none;stroke-width:0.352778"/>
    <path id="path3" d="m 114.49974,121.50585 h 41.13378 c -1.0571,34.97819 -7.62928,67.69089 -41.13378,90.16399 z" style="fill:#ffd100;fill-opacity:1;fill-rule:evenodd;stroke:none;stroke-width:0.352778"/>
    <path id="path4" d="m 119.00372,128.48333 c -0.2298,0 -1.01109,0.36252 -1.37879,0.67963 -0.3677,0.31718 -0.4596,0.63429 -0.13791,0.81558 0.3217,0.18119 0.9192,-0.0906 1.2869,-0.67969 0.3677,-0.589 0.4596,-0.81552 0.2298,-0.81552 z m -4.50398,28.09131 c 0,-9.28829 0,-18.5765 0,-27.91009 1.14889,-0.81551 2.34389,-1.6764 3.53878,-2.53732 1.1031,-0.72488 2.2061,-0.90607 3.2632,-0.5437 1.70049,1.35933 3.49292,-1.17799 5.33132,0.6344 1.51659,1.81233 1.56259,2.76381 1.14899,2.71851 -0.1379,0 -1.1031,-0.18129 -1.5627,-0.0906 -2.29792,0 -3.95252,1.90291 -1.83829,1.31388 0.5974,-0.0906 0.9192,-0.45307 0.9192,-0.0906 0,0.31722 -0.4137,1.54051 -0.7814,2.1748 -3.44692,4.21372 -4.36612,6.2979 -3.40103,11.55372 0.18391,1.35918 0.3677,2.71847 0.5975,4.07769 0.1838,2.2202 1.70053,2.03891 4.04442,0.81558 2.0682,-1.22329 4.1824,-2.44669 6.29649,-3.66998 1.83839,-1.94832 0.5975,-2.40132 -0.9192,-2.67321 0,-1.49521 0,-2.99039 0,-4.48549 3.17119,-0.36252 4.18232,-1.8577 6.52632,-3.94191 4.18228,-2.31069 7.85907,-2.12951 9.65147,2.3108 0.27573,3.71532 1.47073,6.79619 3.99852,8.69922 -0.7354,2.03888 -1.47069,4.03239 -2.16009,6.02597 -1.70053,-0.77018 -3.40103,-1.54047 -5.05562,-2.35599 -0.3677,0.45311 -0.7353,0.90622 -1.103,1.31392 1.3328,1.44988 2.71159,2.8998 4.09039,4.30428 -0.9192,1.40462 -1.8384,2.71861 -2.75759,4.12309 -1.7005,-1.1327 -3.40099,-2.2654 -5.05549,-3.3981 -0.5056,0.45311 -1.0112,0.90611 -1.47069,1.31392 1.28679,1.90299 2.61958,3.80591 3.95248,5.7542 -1.19499,1.44991 -2.38989,2.89979 -3.53889,4.3949 -1.93029,-1.6764 -3.86062,-3.3528 -5.74502,-5.0292 -0.41359,0.31708 -0.82719,0.6343 -1.24089,0.95148 1.2869,2.31073 2.57379,4.62142 3.90659,6.93222 -1.2409,1.178 -2.48179,2.35599 -3.72269,3.57929 -2.16009,-1.90289 -4.27429,-3.80591 -6.38838,-5.70879 -0.3217,0.31711 -0.6434,0.63429 -0.9192,0.9968 1.103,2.71851 2.2061,5.43698 3.30909,8.20078 -0.41359,0.63433 -0.78129,1.26863 -1.149,1.94832 0.50561,0.67959 1.0111,1.40448 1.5626,2.12951 1.7465,-0.95151 3.49299,-1.90302 5.23938,-2.8545 2.29803,-0.99681 4.36623,-1.54051 5.05563,1.2234 0.32169,0.81548 0.68939,1.6764 1.05699,2.53718 -0.0459,0.77032 -0.59739,0.95151 -1.4707,0.5437 -0.68939,-0.67959 -1.28679,-0.4983 -1.83839,0.5891 0.092,0.95141 -0.96513,1.04211 -2.06813,1.1327 -1.3329,-0.5437 -1.88439,0.13589 -2.29799,1.1327 -0.0919,1.31392 -0.7354,1.72169 -1.93029,1.31392 -2.57369,-0.72492 -3.49289,1.1781 -4.13639,3.57939 -7.16972,0.81558 -5.97472,-4.12309 -1.0111,-6.66031 -0.6894,-0.90621 -1.3788,-1.76709 -2.06823,-2.62791 -0.6434,0.27182 -1.28679,0.589 -1.88429,0.90611 -0.6434,-0.99681 -1.2869,-1.99351 -1.9303,-2.94499 -1.33279,4.80268 -1.47069,9.42411 2.89539,13.68309 1.0571,0.5891 2.2521,0.5891 3.67683,0 1.10299,-1.40448 1.70049,-0.9967 1.8844,1.31399 -0.5975,3.26221 -1.6546,6.1166 -5.05563,5.84482 -0.4596,0.0453 -0.64339,0.18119 -0.78129,0.5437 -1.3788,3.26221 -4.09039,6.751 -6.66408,7.06808 0,-14.45337 0,-29.94889 0,-44.4023 11.99539,-2.3561 21.3252,-10.37569 26.93229,-20.9779 2.66559,3.26221 5.65298,-2.12947 0.82719,-1.44988 2.48179,-4.89331 -1.88429,-5.30112 -1.97619,-0.27181 -3.44699,-2.8544 -3.81469,2.53732 -0.3677,1.35922 -0.2298,0.5891 0.046,1.31399 -0.1379,1.76709 -3.17119,7.06808 -15.02879,13.36601 -25.27769,13.81909" style="fill:#000000;fill-opacity:1;fill-rule:evenodd;stroke:none;stroke-width:0.352778"/>
    <path id="path5" d="M 114.49974,121.50585 H 73.365816 c 1.057098,34.97819 7.629313,67.69089 41.133924,90.16399 z" style="fill:#d62b1f;fill-opacity:1;fill-rule:evenodd;stroke:none;stroke-width:0.352778"/>
    <path id="path6" d="m 73.36564,121.50574 v -16.99059 l -14.89082,4.30431 v 12.68628 z m 82.77369,0 v -16.99059 l 14.89079,4.30431 v 12.68628 z" style="fill:#d62b1f;fill-opacity:1;fill-rule:evenodd;stroke:none;stroke-width:0.352778"/>
    <path id="path7" d="m 73.354315,121.49434 v -16.96381 l -14.867783,4.29751 v 12.6663 z m 0.02311,-16.97919 v 16.9907 l 1.06e-4,0.0116 h -0.01171 -14.890785 -0.01161 v -0.0116 -12.68639 -0.009 l 0.0084,-0.002 14.89089,-4.30431 0.01482,-0.004 -1.06e-4,0.0153 z" style="fill:#d9261c;fill-opacity:1;fill-rule:nonzero;stroke:none;stroke-width:0.352778"/>
    <path id="path8" d="m 156.12741,121.50585 v -16.9907 -0.0153 l 0.0148,0.004 14.89089,4.30431 0.008,0.002 v 0.009 12.68639 0.0116 h -0.0115 -14.89093 -0.0116 v -0.0116 z m 0.0231,-16.97532 v 16.96381 h 14.86782 v -12.6663 z" style="fill:#d9261c;fill-opacity:1;fill-rule:nonzero;stroke:none;stroke-width:0.352778"/>
    <path id="path9" d="m 73.365816,121.50585 c -4.963583,0 -9.927202,0 -14.89089,0 3.492993,42.86189 6.296518,85.76898 56.024814,113.90558 41.59338,-18.5765 55.88677,-60.39618 56.5302,-113.90558 -4.96362,0 -9.92731,0 -14.89093,0 -1.42469,37.37948 -9.6515,70.00169 -41.63927,90.16399 C 78.191639,187.92815 76.031546,154.62635 73.365816,121.50585" style="fill:#008542;fill-opacity:1;fill-rule:evenodd;stroke:none;stroke-width:0.352778"/>
    <path id="path10" d="m 56.085244,121.50574 c -2.803913,0.77032 -5.837202,4.214 -9.192224,12.50519 -0.183903,0.99692 -0.046,1.90292 0.367806,2.80903 0.873513,0.36269 1.792393,1.17789 2.344103,2.22017 0.689116,-4.39508 2.481615,-8.47287 4.595918,-12.00679 -1.01092,4.25891 -1.378726,8.42751 -1.286828,12.59611 1.056922,-0.99691 2.113809,-1.99379 3.171225,-2.9906 3.40099,-1.85752 1.240684,-12.64091 0,-15.13311 z M 157.21911,105.56805 v 14.86849 h 12.73062 v -11.33909 c -4.23079,-1.336 -8.47449,-2.5123 -12.73062,-3.5294 z m -97.574797,17.00689 0.05503,0.67282 c 3.399296,41.83058 6.791395,83.5008 54.861677,110.96187 20.25709,-9.1899 33.90271,-24.0169 42.57681,-43.0898 8.66909,-19.06167 12.39418,-42.37217 12.80129,-68.54489 h -12.76541 c -0.76588,18.41521 -3.22269,35.67211 -9.39348,50.86632 -6.3131,15.54578 -16.49829,28.91278 -32.70229,39.12647 l -0.5909,0.37233 -0.58201,-0.38072 C 77.69073,188.87885 75.047119,155.94443 72.406931,123.04755 l -0.03761,-0.47261 z m 14.889832,0 0.02459,0.3055 c 2.584203,32.19881 5.176696,64.43299 39.956875,87.51302 15.43862,-9.89923 25.18982,-22.7862 31.26472,-37.74613 6.05811,-14.91608 8.47848,-31.91227 9.23929,-50.07239 z m 97.570885,-1.02549 c -0.32519,26.8848 -4.08732,50.8479 -13.00092,70.44778 -8.9595,19.69981 -23.10419,34.9826 -44.16128,44.38731 l -0.50179,0.22419 -0.4771,-0.2702 c -49.516311,-28.01679 -52.959915,-70.3895 -56.416502,-112.9237 -0.4076,-5.01357 -0.152506,-10.06686 -0.152506,-15.09388 v -0.78771 l 0.767609,-0.2316 c 19.37339,-5.83209 38.53208,-8.783499 57.463789,-8.783499 18.7942,0 37.3755,2.907099 55.7324,8.788009 l 0.75131,0.24049 v 0.77431 z m -17.04612,-1.11291 v -15.37201 c -13.02889,-2.94629 -26.17558,-4.40739 -39.43258,-4.40739 -13.61591,0 -27.343412,1.54023 -41.180203,4.59472 v 15.18468 z M 59.555237,109.11096 v 11.32558 h 12.730585 v -14.6952 c -4.23358,0.98231 -8.477391,2.1059 -12.730585,3.36962 z m 22.03718,-2.55672 3.401024,11.6441 h 4.596377 l 3.079221,-6.56999 2.573478,6.56999 h 5.009623 l 5.42339,-14.00058 -3.585,0.18168 -3.309087,7.24891 -2.573408,-7.02239 -4.458511,0.453 -2.849281,5.70879 -1.792499,-5.0292 z m 55.289513,11.6441 h 9.69741 c 2.3901,-0.36279 2.89577,-2.67328 1.74649,-4.07779 l -3.67689,-3.85121 h 4.1826 l 0.1379,-2.67327 c -3.9068,-1.13263 -7.49173,-1.90292 -9.46753,-1.58564 -2.52808,0.99692 -2.89588,2.99011 -1.51719,5.7996 l 2.94192,2.85443 h -4.09071 z m -24.54229,-13.72859 v 13.72859 h 5.4694 v -3.7605 l 3.6763,3.7605 h 7.53759 l -5.8371,-7.06839 6.48021,-6.6602 h -6.20441 l -5.65259,5.0292 v -5.0746 z m 19.71658,4.53079 c 1.2688,0 2.2982,1.0148 2.2982,2.26561 0,1.25088 -1.0294,2.26508 -2.2982,2.26508 -1.2688,0 -2.29821,-1.0142 -2.29821,-2.26508 0,-1.25081 1.02941,-2.26561 2.29821,-2.26561 z m -23.94518,0 c 1.2694,0 2.2982,1.0148 2.2982,2.26561 0,1.25088 -1.0288,2.26508 -2.2982,2.26508 -1.2688,0 -2.29761,-1.0142 -2.29761,-2.26508 0,-1.25081 1.02881,-2.26561 2.29761,-2.26561 z m -53.221218,53.9623 c -0.688975,-0.906 -1.424588,-1.85748 -2.159706,-2.80889 0.505213,-2.31051 1.562629,-4.53079 3.447027,-6.97759 4.503878,5.4374 6.71008,11.59919 6.388276,17.98747 -1.194788,-0.90607 -2.619975,-2.85439 -3.676897,-1.31367 -1.424587,-2.99061 -2.389505,-6.75101 -2.987181,-10.8742 -0.367806,1.35907 -0.68961,2.67328 -1.011519,3.98688 z m 5.331495,17.5799 c -0.964989,-0.72488 -1.976403,-1.44991 -2.987287,-2.22031 0.275801,-2.76348 1.424693,-4.89288 3.355093,-6.3428 3.952698,4.168 6.48021,8.65392 7.491623,14.31731 -1.792428,-1.08719 -3.217615,-2.12951 -4.963618,-3.17169 -1.333288,-2.4463 -1.517191,-5.0293 -1.471189,-7.79282 -1.102819,0.63412 -1.194823,3.12632 -1.424622,5.21031 z m 9.376127,36.02041 c -10.387012,-7.02299 -5.607332,-10.28502 -12.685218,-19.6639 2.94132,0.72489 7.261789,3.3074 12.777117,7.5662 -3.722829,-5.57251 -5.147522,-11.2818 -4.228606,-17.21711 4.228606,3.35291 7.215892,7.34029 8.732484,12.18791 -0.873478,0.63468 -1.746497,1.2688 -2.619975,1.85808 -1.194823,-2.9452 -2.343608,-5.9358 -3.538431,-8.92587 1.654528,4.80268 3.355022,9.55999 5.055517,14.31727 0.183409,2.1748 0.413314,4.30431 0.643114,6.43371 -0.643114,0 -1.286722,0 -1.884433,0 -2.113668,-5.75419 -5.514693,-8.60848 -9.19159,-11.19099 4.779716,5.12011 7.721,10.19468 6.940021,14.6347 z m 11.7197,-0.22662 c -1.838501,-0.4076 -3.676932,-0.81569 -5.561329,-1.2688 -1.378691,-4.2134 -0.689575,-8.7896 -1.470696,-13.13928 3.814798,0.54388 7.261296,8.65399 11.627802,12.82259 0.735013,2.1748 0.827017,4.2134 0.918916,6.2526 -1.056816,-0.68009 -2.113703,-1.31421 -3.171119,-1.94839 -0.643079,-3.94201 -3.446992,-8.65389 -6.480281,-13.50211 -0.551709,-0.0454 3.125188,6.88682 4.136707,10.78339 z m 7.169291,17.9875 c -18.475818,-6.16179 -13.695503,-11.91588 -17.096598,-18.98427 7.03139,0.453 10.89219,3.8058 14.201281,7.6116 0.0919,1.17859 0.1379,2.35648 0.183903,3.53448 -2.482109,-2.17481 -5.009586,-4.39508 -7.537697,-6.61529 -2.711379,-1.04182 -2.84928,-0.58882 -0.551109,1.3142 2.849315,3.94148 5.9285,7.5208 9.697296,10.23948 0.367912,0.99692 0.735118,1.94832 1.102924,2.8998 z m 10.157107,-1.3136 c -0.137901,-2.58308 -0.229905,-4.1232 -0.413808,-6.7062 -1.837796,-1.54019 -4.228007,-3.53399 -6.066402,-5.11948 -1.24079,-0.63471 -2.022404,-1.90302 -3.309091,-2.58251 -1.240825,12.50471 1.838396,21.47599 14.017869,22.9713 -0.50567,-1.3142 -0.96548,-2.62791 -1.42518,-3.89671 -4.687786,-0.27188 -6.893493,-9.74107 -11.076097,-13.04907 0.046,-1.22283 0.827581,-0.4076 1.194788,-0.63412 2.390104,3.03551 4.734312,6.02612 7.077921,9.01679 z m 2.252168,-4.939 c -0.41367,6.7056 2.66552,12.82263 9.19173,17.942 1.10338,0.72503 2.71198,-0.0448 4.77968,-2.1294 6.02111,3.85131 8.91642,-0.13568 11.4899,-5.11948 0.68961,-2.76412 1.42519,-5.4828 2.1602,-8.20092 -5.37739,1.31361 -10.43298,3.98692 -14.10931,11.82511 -1.01138,-7.43059 -8.96228,-9.92219 -13.5122,-14.31731 z m 27.0244,13.6832 c 0.32131,-1.49529 0.64311,-3.03548 0.96492,-4.5762 6.89398,-4.21347 7.6751,-8.20099 7.6751,-12.27868 -1.33279,3.08088 -2.43561,6.2526 -6.75612,8.11068 0.0459,-1.2234 0.0919,-2.4468 0.18391,-3.7156 -0.55118,0 -1.10289,0 -1.6086,0 3.26309,-1.54068 8.31871,-5.75419 11.26,-9.10699 -3.07919,4.93839 5.74519,18.98431 -11.71921,21.56679 z m 11.7651,-5.21029 c 0.50582,-1.35971 1.01152,-2.71871 1.51723,-4.07779 3.95217,-0.58931 6.29638,-5.66392 10.20258,-7.15871 1.65449,-1.13308 2.2062,-2.03909 0.1379,-1.3596 -3.8143,0.95151 -6.57218,5.16551 -10.11121,6.16239 -0.1379,-0.99688 -0.27527,-1.99379 -0.41317,-2.99067 4.45787,-4.53083 9.9732,-6.93212 16.68339,-6.751 -4.18261,9.6508 -9.00829,15.85799 -18.01672,16.17538 z m 15.02883,-17.89719 c 13.97197,-0.45311 11.12259,-12.32362 17.64887,-17.67021 -11.5818,-0.8606 -15.81037,3.12631 -20.40618,10.9197 0.5057,1.31361 0.96488,2.62781 1.42459,3.89612 3.7689,-3.26203 7.44569,-6.75111 10.84682,-11.14563 1.74649,-0.13617 -3.35513,6.6602 -9.5141,14.00002 z m 14.15588,-20.4337 c 1.24072,0 2.52751,0 3.81479,0 5.3309,-3.98751 6.15841,-9.60539 3.90621,-16.49271 -6.48028,1.2688 -9.69741,8.835 -13.5122,13.72859 0.3678,0.58921 0.73561,1.178 1.05741,1.72181 3.7683,-1.81261 5.88261,-5.0292 6.98599,-9.1978 -0.1839,3.48901 -0.87351,6.88731 -2.2522,10.24011 z m -1.05689,-26.68689 c 0.87298,-0.63462 1.7919,-1.2688 2.71138,-1.94832 0.046,-3.98749 0.68912,-7.74789 2.2522,-11.2364 0.18341,2.084 0.13741,4.25891 0.82702,6.29751 1.51659,-1.49479 3.03329,-2.99011 4.54988,-4.4854 -0.3218,-6.84131 1.24132,-10.9191 3.07922,-14.6347 -0.73512,4.03239 -1.6546,8.11008 -0.82702,12.0976 1.47063,-1.08769 2.94132,-1.85801 4.45792,-2.99061 -0.046,-4.48528 -1.37869,-8.74419 -2.06781,-12.95819 -5.42329,3.7604 -8.82438,8.69939 -7.53759,16.22079 -1.14882,0.906 -2.0683,-1.6764 -2.98729,-2.9452 -1.47062,1.2688 -1.9304,2.1294 -2.84931,3.67012 -0.59772,2.80899 -0.96552,6.75047 -1.8844,9.42379 -0.046,1.2688 -0.78162,2.26568 0.2758,3.48901 z m 10.61628,-28.454 c 0.092,-5.52771 0,-10.82883 -2.84928,-15.13311 0.41381,4.93889 0.1379,8.60909 -0.82761,10.8288 -1.05679,-0.49841 -1.6545,-0.8606 -2.84928,-1.81211 0.092,-3.3074 0.50567,-8.42748 0.3678,-11.6446 0.41377,-1.49468 0.55168,-1.76671 1.51659,-3.3982 12.22548,17.39872 6.98599,17.89719 4.64178,21.15922 z m -7.21578,9.92269 c 0.78161,-0.63412 1.56308,-1.2688 2.3901,-1.94829 0.046,-2.62791 -0.3218,-5.39143 -0.82702,-8.15552 0.82702,1.13249 1.7006,2.8998 2.66552,5.30109 2.43551,-2.17477 1.47059,-4.5762 0,-7.0684 -1.01092,-1.44988 -2.0224,-2.1748 -3.6769,-2.44619 -0.3678,3.62479 -0.82701,7.65711 -1.24082,11.23639 1.8844,3.94162 0.50571,2.12951 0.68912,3.08092 z m 2.574,27.41178 c 1.8844,-5.845 4.04418,-11.00988 6.93999,-15.13307 -2.75791,2.58247 -5.46929,6.34287 -8.13481,11.32727 -0.64357,-0.8158 -1.28729,-1.6764 -1.9763,-2.5376 3.7688,-8.38207 8.45662,-14.27187 14.75292,-16.6733 -3.07922,9.6503 2.34418,16.53762 -5.9745,23.51521 -2.89592,-3.12628 -3.07982,-2.31108 -5.6073,-0.49851 z m -11.21399,12.14251 c -0.59761,-0.67949 -1.19532,-1.35908 -1.83843,-2.0386 0.2758,-1.35961 0.78101,-2.17491 0.91891,-3.67019 1.7465,-4.21401 3.17119,-9.01672 4.64182,-13.2756 2.71198,1.2688 4.32057,4.30428 5.46939,8.15559 -1.10292,0.77029 -2.2063,1.54072 -3.30912,2.26561 -0.22987,-1.81261 -0.45967,-3.67009 -0.64308,-5.5276 -1.33329,5.0292 -0.64361,11.55368 -5.23949,14.09079 z m -11.8576,17.48899 c -0.046,-0.95137 -0.1379,-1.2682 -0.22991,-2.26508 3.539,-4.80272 6.25038,-9.6508 8.77849,-15.26932 2.0217,1.76721 2.84931,3.71553 3.21712,6.79641 -1.24132,0.63419 -2.48211,1.2688 -3.7229,1.85751 0.22987,-1.58552 0.27587,-3.17171 0,-4.621 -1.28672,5.11948 -3.9987,9.6048 -8.0428,13.50148 z m -10.43302,15.26931 c -0.3678,-2.1748 0.046,-3.62468 0.59772,-5.8904 2.80338,-2.80888 5.46879,-5.9352 8.0888,-8.92591 0.82698,4.25951 2.34357,4.93903 1.7465,8.47291 -1.7925,0.8158 -3.58493,1.631 -5.37743,2.4468 0.32181,-2.35599 1.65453,-4.939 2.66541,-7.29488 -2.4355,2.22017 -4.41191,5.0746 -6.0664,10.4666 -0.55171,0.27188 -1.10289,0.49837 -1.6546,0.72488 z m -36.49189,9.46919 c 1.33279,2.67332 4.13671,4.80272 6.20441,7.24952 1.8385,1.94828 2.3442,1.6764 1.51669,-0.8158 -0.96502,-2.71812 -4.77982,-4.89292 -6.38831,-7.29432 -2.75738,-4.30427 -3.17119,-4.07779 -1.33279,0.8606 z m 14.47708,7.0684 c 2.25231,-1.99369 5.42343,-3.12628 6.75612,-5.98068 2.2982,-3.53441 0.50581,-1.63152 -1.24069,0.22649 -2.2982,0.95151 -4.18211,3.12631 -6.34231,5.30119 -1.14889,2.1748 -0.87361,2.26511 0.82688,0.453 z M 61.140832,196.53705 c -1.9304,-0.4536 -3.8608,-0.9066 -5.7912,-1.40511 -2.849386,-5.799 -3.263088,-11.37211 -3.033289,-16.99059 4.136672,0.7704 7.812969,3.6702 11.168097,7.8837 0.0459,3.12628 0.137901,6.20709 0.2298,9.28861 -2.711415,-1.04232 -5.928501,-7.9744 -8.456612,-13.63832 1.424693,5.0746 3.125187,10.1038 5.883204,14.86171 z m -11.168591,-20.4797 c -2.757417,-4.9838 -3.630401,-10.78339 -3.446498,-17.08139 5.744704,1.85748 8.731885,6.298 10.984088,11.41747 -0.597605,0.8158 -1.148785,1.6316 -1.700494,2.4468 -2.803313,-2.8998 -4.825718,-5.75419 -6.572215,-8.7442 1.102925,3.85121 2.665519,7.61161 5.423394,11.14563 0.367312,1.13309 0.183903,1.35957 -0.551674,0.81569 -1.9304,-2.03909 -3.768795,-3.3982 -4.136601,0 z m -1.286828,-18.75779 c -1.056781,-0.7704 -2.114267,-1.54072 -3.217086,-2.35592 -0.551709,-0.63468 -0.780979,-1.31431 -0.735012,-2.0392 0.0919,-5.34599 0.551109,-10.64718 -0.459776,-15.81259 5.698702,3.761 9.237592,8.88051 10.019206,15.81259 -0.827511,1.6764 -1.654527,3.308 -2.436107,4.939 -1.194823,-6.52459 -2.895317,-11.73491 -5.23949,-15.26939 1.37929,4.66711 2.987781,9.33351 2.068265,14.72551 z m 7.950905,-15.54071 c -0.780979,2.71808 -1.424587,5.3914 -1.286686,8.47231 1.286686,1.04228 2.62001,2.0846 3.952699,3.12628 0.735083,-3.71499 -1.654493,-9.28811 -1.24079,-14.86108 -1.746427,1.35957 -3.722794,2.67318 -5.469326,3.98749 0.643114,0.77029 1.332724,1.6764 1.424729,2.80888 0.872878,-1.58559 1.792393,-3.08088 2.619374,-3.53388" style="fill:#bfa161;fill-opacity:1;fill-rule:evenodd;stroke:none;stroke-width:0.352778"/>
    <path id="path11" d="m 109.99544,128.48326 c 0.2299,0 1.01148,0.3628 1.37869,0.67959 0.3678,0.31729 0.45981,0.63461 0.138,0.81569 -0.32131,0.18112 -0.91902,-0.0908 -1.28679,-0.67948 -0.3678,-0.58932 -0.4597,-0.8158 -0.2299,-0.8158 z m 45.52318,41.41237 c 1.12921,0 2.0453,0.94301 2.0453,2.1064 0,1.16343 -0.91609,2.107 -2.0453,2.107 -1.12921,0 -2.0453,-0.94357 -2.0453,-2.107 0,-1.16339 0.91609,-2.1064 2.0453,-2.1064 z m -81.256396,0 c 1.129101,0 2.0453,0.94301 2.0453,2.1064 0,1.16343 -0.916199,2.107 -2.0453,2.107 -1.129206,0 -2.045405,-0.94357 -2.045405,-2.107 0,-1.16339 0.916199,-2.1064 2.045405,-2.1064 z m 40.949706,56.907 c 0.8758,0 1.58559,0.62911 1.58559,1.40501 0,0.77541 -0.70979,1.40452 -1.58559,1.40452 -0.87521,0 -1.5856,-0.62911 -1.5856,-1.40452 0,-0.7759 0.71039,-1.40501 1.5856,-1.40501 z M 75.847713,184.30314 c -0.551674,0.3628 -1.102783,0.725 -1.654492,1.13309 1.378691,2.58251 2.711414,5.16502 4.090105,7.74742 1.746497,2.4922 4.366507,2.26568 5.009586,-0.22651 0.183903,-1.04169 0.367806,-2.0386 0.551709,-3.03548 0.183903,-1.3136 0.597711,-1.40452 1.332723,-0.18112 0.597677,0.90611 1.195388,1.81212 1.7925,2.71872 0.551673,-0.4536 1.103383,-0.8612 1.654492,-1.2688 -0.597112,-1.04232 -1.194823,-2.0846 -1.792499,-3.12632 0.229905,-0.27188 0.459775,-0.4984 0.68968,-0.72488 -0.643678,-0.99692 -1.286792,-1.9938 -1.884397,-2.94521 -0.367806,0.18109 -0.735577,0.3627 -1.056887,0.54381 -0.505707,-0.77043 -1.01152,-1.54072 -1.47059,-2.31112 -2.482109,-1.08708 -3.171824,0.18172 -3.493028,1.44992 -0.09197,1.08769 -0.183904,2.22028 -0.275873,3.3528 -0.046,1.2234 -0.459704,1.31417 -1.103418,0.3628 -0.826982,-1.178 -1.608596,-2.35603 -2.389611,-3.48912 z m 18.613825,25.64511 5.193488,-4.44052 -4.136707,-4.53079 -7.261789,5.66339 7.03199,8.29183 1.884397,-1.58623 z m 16.131572,16.94519 -3.9987,-2.62781 5.9291,-9.83198 h 4.22801 l 7.07792,10.37579 -2.66541,2.084 -2.57401,-3.8058 h -5.4694 z m 3.12523,-5.845 1.83839,-3.12628 1.9764,3.12628 z m 17.7862,-4.5762 c 0.68958,0.68009 1.42519,1.35961 2.1602,2.0392 2.06837,-2.0392 4.18268,-4.03239 6.29638,-6.07148 2.0223,-1.49532 0.046,-4.30431 -2.06781,-4.25891 -1.74649,0.13568 -3.49288,0.22648 -5.19349,0.31739 -1.24128,0.18101 -1.47058,-0.22659 -0.68961,-1.2688 0.78162,-0.67959 1.5626,-1.40451 2.39022,-2.12951 -0.50582,-0.453 -0.96549,-0.9514 -1.4253,-1.44988 -1.74589,1.54019 -3.40049,3.21659 -5.28489,4.84819 -1.47063,2.26512 -0.50571,4.93829 2.52748,4.75721 1.01152,-0.13621 1.9764,-0.31732 2.98732,-0.4984 1.56259,-0.27189 2.71198,-0.3627 1.33329,1.13259 -1.01149,0.8612 -2.02241,1.7218 -3.03379,2.5824 z m 13.87997,-23.65078 -3.40109,-2.17481 -2.75728,4.214 9.05369,6.977 3.03318,-4.5762 -3.81419,-3.03551 6.89401,-2.31049 2.06771,-4.80271 -8.77782,2.89969 -0.96548,-5.8904 -2.02241,1.76731 z m -30.8846,-36.24682 c 0,-9.28808 0,-18.57679 0,-27.9103 -1.14938,-0.8152 -2.34417,-1.6764 -3.53899,-2.537 -1.10338,-0.72499 -2.2062,-0.90611 -3.26309,-0.54388 -1.70049,1.35968 -3.49299,-1.17792 -5.33139,0.63468 -1.51663,1.81212 -1.56263,2.7636 -1.14882,2.71819 0.1379,0 1.10282,-0.18108 1.56259,-0.0903 2.29761,0 3.9521,1.90288 1.83843,1.3136 -0.59771,-0.0902 -0.91951,-0.453 -0.91951,-0.0902 0,0.31669 0.41381,1.54009 0.78161,2.17428 3.447,4.214 4.36588,6.298 3.40099,11.55372 -0.1839,1.3596 -0.3678,2.71868 -0.59771,4.07779 -0.1839,2.22021 -1.70049,2.03909 -4.0447,0.8158 -2.0677,-1.2234 -4.182005,-2.4468 -6.296308,-3.67019 -1.838396,-1.94829 -0.597076,-2.4014 0.919515,-2.67332 0,-1.49468 0,-2.98997 0,-4.48539 -3.17119,-0.3622 -4.182603,-1.85748 -6.526212,-3.94201 -4.182604,-2.31059 -7.8595,-2.12947 -9.651999,2.31101 -0.275273,3.7151 -1.47059,6.79651 -3.998101,8.6994 0.735012,2.03859 1.470624,4.03242 2.159705,6.02562 1.700495,-0.7698 3.401025,-1.5402 5.055623,-2.35603 0.367771,0.453 0.735577,0.9066 1.103383,1.3142 -1.332795,1.44992 -2.712014,2.8998 -4.090705,4.30431 0.919515,1.40452 1.838395,2.71872 2.75791,4.1232 1.700601,-1.13309 3.401096,-2.26568 5.055588,-3.3982 0.505213,0.453 1.01092,0.906 1.470695,1.3136 -1.287286,1.90292 -2.62008,3.8064 -3.952769,5.75419 1.194788,1.44992 2.390175,2.8998 3.538996,4.39512 1.9304,-1.6764 3.8608,-3.3528 5.744598,-5.0292 0.413773,0.31729 0.827581,0.63408 1.24139,0.95141 -1.287286,2.31059 -2.574114,4.6216 -3.906802,6.93219 1.240789,1.17789 2.482109,2.35588 3.722899,3.57928 2.159705,-1.90288 4.274004,-3.8058 6.388204,-5.70879 0.32191,0.31739 0.64371,0.63419 0.91899,0.99691 -1.10289,2.71869 -2.20568,5.4368 -3.30909,8.20099 0.4138,0.63412 0.78161,1.2682 1.14938,1.94829 -0.50567,0.67952 -1.01148,1.40451 -1.56259,2.1294 -1.746499,-0.95137 -3.492996,-1.90288 -5.239493,-2.85439 -2.298206,-0.99678 -4.366506,-1.54069 -5.055587,1.22339 -0.321804,0.8152 -0.68961,1.6764 -1.057416,2.53711 0.046,0.77029 0.597711,0.95141 1.471189,0.54381 0.689116,-0.67952 1.286827,-0.49841 1.837901,0.58868 -0.09137,0.95151 0.965518,1.04232 2.068301,1.13312 1.332724,-0.54381 1.884398,0.13568 2.298206,1.13259 0.09201,1.31371 0.735013,1.72181 1.9304,1.31371 2.573509,-0.72499 3.492989,1.17789 4.136109,3.57929 7.16978,0.81579 5.975,-4.1226 1.01141,-6.6602 0.68908,-0.90611 1.37869,-1.76671 2.06777,-2.62788 0.64361,0.27189 1.28733,0.58928 1.8844,0.90597 0.64361,-0.99677 1.28672,-1.99309 1.9304,-2.9446 1.33273,4.80272 1.47063,9.42382 -2.89528,13.68323 -1.24079,0.72488 -2.43611,0.72488 -3.6769,0 -1.10282,-1.40512 -1.70049,-0.99692 -1.8844,1.3136 0.59768,3.26259 1.6545,6.11699 5.05559,5.845 0.50571,0.13568 0.64361,0.18108 0.78151,0.54327 1.37869,3.2626 4.09011,6.75111 6.66418,7.0684 0,-14.45348 0,-29.94878 0,-44.40237 -11.99557,-2.35592 -21.325693,-10.37583 -26.93239,-20.97811 -2.665977,3.2626 -5.653299,-2.1294 -0.827582,-1.44931 -2.481509,-4.89349 1.884398,-5.30109 1.976402,-0.27189 3.446992,-2.8544 3.814798,2.537 0.367771,1.35901 0.2298,0.58928 -0.04597,1.31427 0.137901,1.76727 3.171225,7.06783 15.028828,13.36583 25.277898,13.81891" style="fill:#ffffff;fill-opacity:1;fill-rule:evenodd;stroke:none;stroke-width:0.352778"/>
  </g>
</svg>