<?xml version="1.0" encoding="UTF-8" standalone="no"?>
<svg
   version="1.1"
   width="300"
   height="300"
   id="svg109"
   viewBox="0 0 573.26342 573.26343"
   sodipodi:docname="5c18a35a8c0db8cfa8eb77a542a5b43f.cdr"
   xmlns:inkscape="http://www.inkscape.org/namespaces/inkscape"
   xmlns:sodipodi="http://sodipodi.sourceforge.net/DTD/sodipodi-0.dtd"
   xmlns="http://www.w3.org/2000/svg"
   xmlns:svg="http://www.w3.org/2000/svg">
  <g
     id="Layer1000"
     transform="translate(-11.0061,-134.3132)">
    <g
       id="Layer1001">
      <path
         d="m 94.9589,218.266 c 53.9252,-53.9254 126.4051,-83.9528 202.6789,-83.9528 76.2738,0 148.7537,30.0274 202.6789,83.9528 53.9254,53.9252 83.9528,126.4051 83.9528,202.6789 0,76.2738 -30.0274,148.7537 -83.9528,202.6788 -53.9252,53.9255 -126.4051,83.9529 -202.6789,83.9529 -76.2738,0 -148.7537,-30.0274 -202.6789,-83.9529 -53.9254,-53.9251 -83.9528,-126.405 -83.9528,-202.6788 0,-76.2738 30.0274,-148.7537 83.9528,-202.6789 z"
         style="fill:#000000;fill-rule:evenodd"
         id="path2" />
    </g>
    <g
       id="Layer1002">
      <path
         d="m 314.1147,439.3596 c 0.002,-0.0391 0.002,-0.078 10e-4,-0.1168 -3e-4,0.0388 -6e-4,0.0777 -10e-4,0.1168 z m 34.4098,-16.4024 c 0.1097,11.5716 -7.1379,23.2075 -10.6982,26.5952 -1.5415,1.4669 -3.0844,2.7062 -4.8201,3.5569 -1.6171,0.7929 -3.6014,1.0894 -5.3254,1.2169 -4.3257,0.3195 -10.6396,1.3819 -14.5916,2.9778 -0.0284,1.0755 -0.0329,2.1076 -0.0315,3.1286 0,-0.0139 0,-0.0275 0,-0.0414 -0.003,-1.1347 -8e-4,-2.2784 0.0309,-3.4764 3.9515,-1.5959 10.2657,-2.658 14.5913,-2.978 1.7241,-0.1273 3.7083,-0.4238 5.3255,-1.2164 1.7356,-0.8507 3.2783,-2.0905 4.82,-3.5569 3.5206,-3.35 10.6464,-14.764 10.6991,-26.2063 z m -13.7367,-20.5934 c 0.0479,0.1091 0.1335,0.2143 0.2455,0.318 l 11.1713,11.3712 c 1.0687,1.1021 1.5463,2.435 1.8026,3.6476 0.3659,1.7334 0.5255,3.4951 0.5173,5.2566 -0.0156,-1.6316 -0.1772,-3.2618 -0.5162,-4.8674 -0.2565,-1.2129 -0.7344,-2.5458 -1.8028,-3.6479 l -11.1714,-11.3712 c -0.2395,-0.2213 -0.358,-0.451 -0.2463,-0.7069 z m 22.9312,-2.6085 c -0.0136,-0.9558 -0.1078,-1.9094 -0.2844,-2.7833 -0.1811,-0.8946 -0.1924,-1.6186 -2.2444,-2.0378 -1.5758,-0.3218 -2.8029,-0.3456 -4.8237,0.6837 -2.8466,1.4502 -7.0864,1.7813 -10.3165,1.4678 l -5.0728,5.0159 c -0.0907,0.0907 -0.1525,0.1777 -0.1894,0.2622 -0.0881,-0.201 -0.0485,-0.4142 0.1885,-0.6511 l 5.0729,-5.0157 c 3.2298,0.3133 7.4696,-0.0184 10.3164,-1.4677 2.0211,-1.0296 3.2477,-1.0058 4.8237,-0.6838 2.0523,0.419 2.0634,1.1433 2.2445,2.0373 0.2004,0.9927 0.2948,2.088 0.2852,3.1725 z m -15.9211,4.4581 c -0.1434,-1.0327 0.8538,-2.0863 2.5262,-2.109 1.8859,-0.0329 5.4275,2.4191 8.0938,3.8832 1.3031,0.7157 2.1195,0.6874 3.3165,-0.0822 1.2858,-0.7937 1.9602,-3.4376 1.9846,-6.1501 0,0.002 0,0.004 0,0.006 0.0388,2.8426 -0.6373,5.7022 -1.9834,6.5333 -1.1974,0.7699 -2.0135,0.798 -3.3166,0.0822 -2.6662,-1.4638 -6.2081,-3.9158 -8.094,-3.8829 -1.4621,0.0196 -2.4081,0.8272 -2.5271,1.7198 z m 23.9097,-0.0281 c 0,-0.002 0,-0.003 0,-0.005 -0.006,-0.4087 -0.027,-0.8172 -0.0644,-1.2248 -0.0567,-0.6268 -0.5533,-1.008 -1.0256,-0.6837 -1.6647,1.1432 -3.0517,2.1466 -3.7618,4.4458 -1.01,3.2692 -5.0352,6.2034 -7.8951,6.9542 -0.7503,0.1211 -1.3813,-0.0286 -2.08,-0.513 -3.1726,-2.1986 -6.156,-4.754 -8.7356,-7.7794 -0.2928,-0.3654 -0.3997,-0.7739 -0.3472,-1.1659 0.0368,0.2664 0.1497,0.5315 0.3464,0.777 2.5795,3.0254 5.5627,5.5805 8.7355,7.7794 0.699,0.4844 1.3295,0.6341 2.0801,0.5128 2.8598,-0.7507 6.885,-3.6851 7.895,-6.954 0.7098,-2.2992 2.0971,-3.3029 3.7616,-4.4464 0.4723,-0.3237 0.9695,0.0575 1.0259,0.6845 0.0493,0.5386 0.0705,1.0786 0.0652,1.6186 z m -9.995,19.8292 c -0.0904,-0.5388 0.1956,-1.0638 0.754,-1.5562 4.5051,-3.9736 9.1721,-11.1336 9.241,-18.273 0.1012,7.2675 -4.6534,14.616 -9.2401,18.6622 -0.4232,0.373 -0.6897,0.7648 -0.7549,1.167 z m 21.587,-29.1143 c 0.002,0.1301 0.002,0.2596 2e-4,0.3889 -0.1199,11.1801 -1.7631,20.5857 -13.337,31.1213 -2.1824,1.9859 -5.6256,1.5556 -7.9083,-1.2969 -0.2968,-0.3708 -0.4,-0.7393 -0.3419,-1.099 0.0397,0.2344 0.1502,0.4717 0.341,0.7098 2.2827,2.8528 5.7257,3.2828 7.9081,1.2966 11.5741,-10.535 13.2174,-19.9406 13.3379,-31.1207 z M 300.6099,324.068 c -0.0346,-0.7968 0.1347,-1.6602 0.54,-2.41 0.328,-0.5987 0.8411,-1.1401 1.539,-1.1968 38.0012,-5.5392 74.7603,46.137 74.6121,74.2641 -0.1888,-28.2119 -36.7844,-79.3891 -74.611,-73.8752 -0.6988,0.0567 -1.2115,0.5984 -1.5392,1.1968 -0.3405,0.629 -0.5142,1.3383 -0.5409,2.0211 z m 60.9905,45.5908 c -0.0263,-0.3283 -0.1176,-0.6769 -0.2911,-1.0437 -13.3753,-27.6821 -34.893,-45.2138 -58.4232,-41.8363 -0.7064,0.1015 -1.4677,-0.038 -1.8807,-0.741 -0.2844,-0.54 -0.4241,-1.2398 -0.3955,-1.9698 0.0255,0.5865 0.1613,1.1373 0.3946,1.5803 0.4133,0.7033 1.1747,0.8428 1.8811,0.7416 23.5298,-3.3772 45.0476,14.1542 58.4226,41.8362 0.2438,0.5157 0.3257,0.995 0.2922,1.4327 z m -56.6231,20.8596 c 0.0314,0.2052 0.1116,0.4152 0.2454,0.621 1.2719,1.9571 3.2298,3.2565 5.2433,4.5596 5.0629,3.2757 10.0429,2.59 12.4971,0.0643 3.9949,-4.1099 8.5708,-8.301 13.2092,-9.7251 0.8674,-0.2665 1.4842,-0.6103 1.7812,-1.1758 1.9761,-3.733 5.1597,-7.4917 8.8422,-9.9034 2.3207,-1.5202 4.1159,-1.8757 6.533,-1.8312 2.4465,0.0454 5.5051,-0.2684 7.0253,-1.3606 0.631,-0.4975 1.1784,-1.2161 1.2464,-2.1084 0.0862,1.074 -0.5252,1.9301 -1.2458,2.4976 -1.5202,1.0919 -4.5788,1.4057 -7.0251,1.3606 -2.4171,-0.0448 -4.2123,0.3104 -6.533,1.8309 -3.6828,2.4123 -6.8661,6.1699 -8.8421,9.9034 -0.2968,0.565 -0.9136,0.9091 -1.781,1.1758 -4.6383,1.4241 -9.2146,5.6146 -13.2095,9.7254 -2.4542,2.5251 -7.4338,3.2114 -12.4971,-0.0649 -2.0131,-1.3025 -3.9713,-2.6022 -5.2438,-4.5595 -0.2199,-0.3382 -0.2951,-0.6889 -0.2457,-1.0097 z m 4.9782,-6.8522 c 0.0793,3.1348 -1.6053,5.0808 -3.8203,5.6962 -0.6619,0.184 -1.0769,0.6304 -1.1579,1.156 -0.1049,-0.6857 0.3361,-1.317 1.1571,-1.5452 2.122,-0.5893 3.7573,-2.4001 3.8211,-5.307 z m -9.8465,-16.6748 6.7096,8.0745 c 2.3049,3.4778 3.1859,6.3637 3.1369,8.6003 -0.0553,-2.1787 -0.9624,-4.9317 -3.136,-8.2114 -2.2419,-2.6978 -4.189,-5.4287 -6.7261,-8.0941 0.006,-0.1213 0.0114,-0.2446 0.0156,-0.3693 z m 0.021,-1.4808 c 0,0.002 0,0.005 0,0.008 0.003,0.51 -0.004,1.0029 -0.021,1.4732 l -0.0158,-0.0193 c 0.0226,-0.4643 0.0348,-0.9536 0.0368,-1.4615 z m 83.6731,-39.3577 c -0.0241,9.6285 -2.8775,18.0312 -5.6458,26.7642 0.0355,0.0187 0.0709,0.0371 0.1063,0.0558 2.7706,-8.7264 5.5894,-17.1422 5.5395,-26.8044 0,-0.005 0,-0.0105 0,-0.0156 z m -31.1131,7.8778 c 0.0904,1.1934 -0.5856,1.5029 -1.4712,0.6811 -16.7057,-14.4462 -35.7616,-20.116 -54.3038,-19.7007 l 0.0499,35.2459 c 1.7963,0.4981 3.1884,9.2359 3.1651,15.2536 -0.0351,-5.995 -1.3972,-14.2989 -2.9494,-15.1733 v 94.7364 c 5.5318,0.2327 8.7443,-3.3237 10.0584,-6.3627 0.4513,-1.1775 1.0046,-2.0109 2.7219,-2.878 3.3652,-1.6996 4.1828,-0.0329 4.155,3.4098 -0.0377,-3.1765 -0.9182,-4.6551 -4.1542,-3.0209 -1.7175,0.8674 -2.2706,1.7002 -2.7218,2.8783 -1.3147,3.0416 -4.3991,6.3352 -10.1923,6.3496 l -0.004,69.4148 c 2.9775,-0.002 5.7722,-0.193 8.1987,-0.5797 6.0423,-1.106 10.6497,-3.5282 15.1815,-7.0418 l 8.1505,-27.9862 c 7.4417,0.2912 10.9145,-3.1631 11.0179,-7.0466 -0.0484,-1.5695 -0.6366,-3.1904 -1.7263,-4.648 -1.163,-1.5559 -1.6602,-3.1453 -1.6185,-4.7214 -0.167,-5.4847 6.3,-10.8535 14.0436,-14.1355 0.91,-0.3858 1.8088,-0.5431 2.8497,-0.1137 20.9767,8.6565 41.9239,19.6183 41.8153,37.9823 0.007,0.6636 -0.0139,1.3371 -0.0632,2.0206 -0.0153,0.2131 -0.2291,0.225 -0.3634,-0.0749 -4.9363,-11.0052 -15.0083,-19.732 -27.5375,-25.5455 -0.1766,-0.0819 -0.4221,0.019 -0.5547,0.1678 8.2318,8.0646 13.0408,17.426 13.0116,28.658 0,10e-4 0,0.003 0,0.005 0.01,1.3167 -0.0477,2.6592 -0.1741,4.0283 -0.0728,0.7909 -1.2257,0.817 -1.368,0.1137 -2.2399,-11.355 -11.7567,-21.9215 -21.1257,-30.384 -0.1735,-0.1568 -0.3918,-0.1378 -0.5086,-0.0377 6.2929,12.1481 9.6968,23.6134 9.6761,33.5602 0.0122,1.7921 -0.0856,3.5354 -0.2965,5.2254 -0.1103,0.8864 -1.4247,0.8365 -1.5319,-0.0856 -1.0938,-10.4207 -6.6877,-20.696 -12.5665,-31.1743 -0.0629,-0.1015 -0.3019,-0.129 -0.4076,-0.0213 0.6485,2.9271 0.8359,5.7444 0.8328,8.3838 0,0.005 0,0.0105 0,0.0156 0.0159,2.7431 -0.1854,5.2991 -0.3053,7.5923 -1.8431,-2.8355 -3.5439,-5.6858 -5.1871,-8.6352 -0.1177,0.2803 -0.1494,1.5313 -0.148,3.2219 0.002,1.9695 0.0479,4.5357 0.0553,6.8595 0.004,1.1563 -0.002,2.2521 -0.0284,3.185 -1.6769,-1.3793 -3.2984,-3.6932 -4.8095,-5.5426 -0.3112,-0.3812 -0.5406,-0.4938 -1.1971,-0.3418 -4.5255,1.0491 -8.369,4.2276 -9.7324,7.0251 l -0.2209,12.5543 c 3.6859,2.4792 5.8624,4.4397 5.7379,6.7417 0.1069,1.8057 -1.2183,3.7973 -4.3764,6.41 -10.7787,8.9166 -22.6037,13.2726 -34.5866,13.3364 v 64.8156 c 0.1511,3e-4 0.3024,6e-4 0.4535,6e-4 49.1511,0 93.6493,-19.9225 125.8591,-52.132 32.2095,-32.2098 52.132,-76.7081 52.132,-125.8591 0,-49.1511 -19.9225,-93.6493 -52.132,-125.8591 -32.2098,-32.2095 -76.708,-52.132 -125.8591,-52.132 -0.1511,0 -0.3024,3e-4 -0.4535,6e-4 v 65.0415 c 17.7837,0.2109 32.6157,5.2534 46.4933,12.3746 7.9412,-4.9206 18.7832,-9.8855 26.3894,-10.1455 8.041,-0.2744 13.6179,4.6029 13.737,15.5611 10e-4,0.1298 0.002,0.2594 5e-4,0.3886 -0.119,-10.9578 -5.6956,-15.8346 -13.7367,-15.5602 -7.6062,0.2591 -18.4481,5.2246 -26.3897,10.1452 -13.8775,-7.1215 -28.7101,-12.5535 -46.4938,-12.7638 l -0.2656,7.2998 c 18.5425,-0.4148 37.5976,4.8656 54.303,19.3118 0.7801,0.7234 1.3975,0.5698 1.472,-0.2922 z m -0.4504,-3.5776 c 0.0144,0.875 0.1148,1.741 0.3523,2.5792 0.0922,0.3971 0.1211,0.7316 0.0981,0.9984 -0.0139,-0.1829 -0.0456,-0.3864 -0.0975,-0.6098 -0.2721,-0.9623 -0.3642,-1.9607 -0.3529,-2.9678 z m 23.2636,-9.2313 c -0.0266,-1.5914 -0.2335,-3.5022 -3.7593,-3.4181 -5.218,0.1236 -11.0457,2.6238 -16.6433,5.2439 -2.0991,0.9493 -2.3998,2.8851 -2.6504,4.7874 -0.1139,0.8674 -0.201,1.7459 -0.2106,2.6181 -0.0167,-0.9992 0.0788,-2.0106 0.21,-3.007 0.2503,-1.9021 0.5508,-3.8376 2.6501,-4.7877 5.5979,-2.6201 11.4257,-5.1197 16.6437,-5.2438 3.6944,-0.0879 3.7443,2.0145 3.7618,3.6442 6e-4,0.0552 0,0.1097 -0.002,0.163 z m -13.507,19.1902 c -0.0876,-5.5162 3.0265,-10.9615 10.5448,-15.8156 1.4151,-0.9139 2.8965,-1.5775 2.9622,-3.3746 0.001,0.0762 0.002,0.1516 0.003,0.2262 0.0204,1.9207 -1.5072,2.5968 -2.9642,3.5373 -7.3415,4.7404 -10.4837,10.044 -10.5457,15.4267 z m 23.4402,54.9647 c -0.002,-0.2464 -0.006,-0.493 -0.0125,-0.7399 -0.335,-13.189 -5.2455,-23.6639 -12.198,-34.0849 -2.8494,-4.271 -6.9616,-7.7097 -9.2305,-12.2187 -1.3195,-2.6215 -2.0299,-5.2807 -1.9992,-7.9212 0,0.002 0,0.003 0,0.005 0.0405,2.5107 0.7446,5.0363 1.9984,7.5274 2.2694,4.5088 6.3808,7.9472 9.2304,12.2185 6.9526,10.421 11.863,20.8959 12.1975,34.0846 0.01,0.377 0.0142,0.7535 0.0139,1.1291 z m -31.6545,50.3302 c -0.1128,-0.2078 -0.0331,-0.5028 0.3492,-0.7874 15.8001,-9.2775 31.2849,-28.4908 31.3053,-49.5428 0,0.004 0,0.008 0,0.0119 0.1653,21.1991 -15.4103,40.587 -31.3044,49.9198 -0.18,0.1338 -0.2928,0.2701 -0.3501,0.3985 z m 56.9557,27.5074 c 0.163,0.7387 -0.631,1.313 -0.9748,0.9074 -15.2,-11.4287 -39.6618,-24.709 -55.5458,-27.7586 -0.3736,-0.0609 -0.5794,-0.3339 -0.4351,-0.6562 0.0734,0.1355 0.2285,0.2339 0.4349,0.2676 15.8833,3.0492 40.3452,16.3296 55.5451,27.7577 0.2801,0.3308 0.8586,0.0114 0.9757,-0.5179 z m -34.0055,-27.0731 c 0.0303,0.0507 0.0734,0.0955 0.1275,0.1324 13.9025,6.7972 27.9845,15.9063 33.8222,26.3798 0.083,0.1989 0.0932,0.3909 0.0558,0.5609 -0.0125,-0.0564 -0.0306,-0.1139 -0.055,-0.172 -5.8374,-10.4735 -19.9193,-19.5829 -33.8224,-26.3798 -0.1732,-0.1179 -0.2327,-0.3195 -0.1281,-0.5213 z m 48.1118,17.9099 c 0.0117,0.1037 0.021,0.2069 0.0281,0.3101 0.007,0.197 -0.4467,0.2083 -0.6749,0.1987 -11.4852,-11.5325 -26.2761,-19.4171 -42.321,-22.6282 l -4.9587,3.9898 c -0.0858,0.0706 -0.1468,0.1451 -0.1853,0.2197 -0.1032,-0.1712 -0.0615,-0.4071 0.1845,-0.6089 l 4.9586,-3.9897 c 16.045,3.211 30.8362,11.0956 42.321,22.6284 0.1928,0.008 0.5471,0.001 0.6477,-0.1199 z m -31.6148,-26.184 c 0.0533,0.1659 0.2812,0.1041 0.559,0.2274 12.0308,5.3529 30.4659,16.8624 31.083,25.8778 10e-4,0.0306 -0.009,0.0566 -0.0272,0.0788 -1.0097,-8.9672 -19.1616,-20.276 -31.0549,-25.5674 -0.3056,-0.1361 -0.5508,-0.0476 -0.5698,-0.2849 0.003,-0.1108 0.006,-0.2214 0.01,-0.3317 z m 7.6726,-17.3959 c 0.1029,4.9609 -3.265,9.47 -6.9914,11.7496 -0.4589,1.8094 -0.6171,3.6627 -0.6812,5.6463 -0.005,-0.0164 -0.009,-0.0354 -0.0107,-0.0569 0.0569,-2.1096 0.2066,-4.0689 0.691,-5.9783 3.6287,-2.2201 6.9174,-6.554 6.9923,-11.3607 z m -6.9554,-46.8734 c -0.1273,-8.9376 -7.3729,-15.8817 -15.7884,-20.2915 0.0351,-0.1112 0.0706,-0.2223 0.1057,-0.3334 8.4915,4.4768 15.7638,11.5376 15.6827,20.6249 z m -0.0763,1.8683 c -0.0127,-0.0113 -0.0257,-0.023 -0.0385,-0.0343 0.0717,-0.6202 0.1094,-1.2314 0.1148,-1.834 0.009,0.6134 -0.0159,1.2362 -0.0763,1.8683 z m 5.584,10.5452 c -0.007,-0.0893 -0.019,-0.1803 -0.0357,-0.2727 -0.6267,-3.4401 -2.5268,-7.2108 -5.5857,-9.9179 0.0136,-0.1185 0.0261,-0.2367 0.0374,-0.3546 3.0365,2.7048 4.9233,6.4579 5.5474,9.8833 0.042,0.2304 0.0525,0.4515 0.0366,0.6619 z m -2.668,3.2244 c -0.1281,-0.3169 0.0874,-0.6849 0.4085,-0.7297 0.8677,-0.1465 2.1529,-1.0851 2.2595,-2.4947 0.1276,1.6245 -1.3133,2.7238 -2.2586,2.8834 -0.1897,0.0266 -0.3425,0.1661 -0.4094,0.341 z m 6.5654,14.7824 c -0.08,-4.5902 -2.7117,-9.904 -6.4695,-14.2396 -0.1449,-0.1667 -0.1613,-0.3719 -0.0959,-0.5428 0.0216,0.0533 0.0528,0.1052 0.095,0.1539 3.8648,4.4583 6.5381,9.9519 6.4704,14.6285 z m -5.336,8.7902 c -0.11,-0.2188 -0.0581,-0.47 0.2906,-0.6194 3.5107,-1.8272 4.9963,-4.7848 5.0454,-8.1708 0.062,3.5475 -1.4003,6.6628 -5.0448,8.5598 -0.1455,0.0623 -0.2393,0.1423 -0.2912,0.2304 z m 0.1052,0.15 c 2.0197,2.482 2.8191,5.059 2.7811,7.5129 -0.0485,-2.3363 -0.8669,-4.773 -2.78,-7.124 -0.1482,-0.1607 -0.2086,-0.3651 -0.1063,-0.5389 0.0264,0.0525 0.0621,0.1032 0.1052,0.15 z m -82.7433,48.1912 c 2.6073,-2.9486 8.9719,-3.9991 8.4356,2.3085 -0.8342,9.8048 -5.7705,17.3571 -8.7778,23.141 -0.1805,0.3472 -1.0686,-0.0681 -0.9654,-0.4451 1.7093,-6.2583 1.1114,-16.7275 1.3076,-25.0044 z m -14.186,-9.146 c -0.001,-0.1292 -0.001,-0.2591 -0.001,-0.3892 8.2533,-0.0107 12.8211,-4.6255 12.9268,-12.2547 6e-4,0.127 0,0.2568 -0.002,0.3892 -0.1029,7.6292 -4.6709,12.2437 -12.924,12.2547 z m -0.0723,8.5595 c 0,-2.948 0.0652,-5.6341 0.0723,-8.5595 0,2.9472 -0.0658,5.6339 -0.0723,8.5595 z m -2.9432,2.5708 c -0.1086,-1.2529 0.8036,-2.5419 2.9441,-2.5708 -3e-4,0.129 -3e-4,0.2585 -3e-4,0.3887 -1.9179,0.026 -2.8497,1.0644 -2.9438,2.1821 z m 14.8867,-1.0698 c 0.003,1.1721 0.002,2.3524 -0.0303,3.5903 -4.4079,0.038 -7.4636,0.1718 -11.8707,0.2308 -2.0185,0.0272 -3.0979,-1.4182 -2.9857,-2.7513 0.1049,1.2101 1.1619,2.387 2.9846,2.3626 4.407,-0.0592 7.4631,-0.193 11.8707,-0.231 0.0286,-1.0831 0.0331,-2.1223 0.0317,-3.1501 -3e-4,-0.0173 -3e-4,-0.0343 -3e-4,-0.0513 z m 5.6781,29.5347 c 1.2611,-0.5091 3.3341,-0.3529 3.3347,2.9208 -0.2495,4.76 -3.3236,9.2982 -7.3953,12.212 -5.2986,3.4361 -13.4552,2.7419 -15.2192,0.1139 -0.7665,-1.0352 -0.438,-2.5699 -0.0457,-3.6873 0.059,-0.1687 0.2387,-0.1859 0.47,-0.1241 4.6865,1.2534 8.4404,0.2202 11.8582,-1.7031 3.1206,-1.7561 5.565,-5.167 6.4134,-8.3288 0.125,-0.4668 0.008,-1.1216 0.5839,-1.4034 z m 22.608,-59.2072 c -6.6617,9.0496 -17.4129,14.9794 -22.3724,15.133 -0.2869,0.009 -0.6891,-0.3759 -0.5128,-0.7537 -0.0814,-0.1823 -0.0632,-0.4059 0.17,-0.6044 6.8633,-5.8405 12.9215,-11.1872 18.9808,-17.4554 1.0095,-1.0446 2.4591,-2.5838 3.106,-4.1752 0.5096,-1.2529 1.235,-2.8292 2.1804,-3.8897 0.3948,-0.4428 0.8909,-0.0984 1.0122,0.2424 0.4663,1.3118 0.6526,2.5118 0.6302,3.6255 0.0737,3.1167 -1.4891,5.5613 -3.1944,7.8775 z m -10.5885,-18.1421 c -3.6525,2.3596 -6.8636,5.3694 -9.2197,9.362 -0.6738,1.1432 -1.4397,2.4086 -2.5937,3.1062 -0.6795,0.4119 -1.0984,1.4162 -1.6951,1.8525 -0.485,0.3543 -0.701,-0.1236 -0.6982,-0.5559 6e-4,-0.0882 0.002,-0.1763 0.005,-0.2645 -0.004,-0.0411 -0.006,-0.0827 -0.005,-0.1238 0.0414,-6.539 5.0947,-12.1822 10.6728,-17.2707 0.4405,-0.4014 1.0593,-0.6281 1.6528,-0.6837 1.2498,-0.1188 2.6269,-0.3643 3.7622,0.1709 0.7744,0.3646 0.8994,0.8952 0.8456,1.4114 0.0428,0.3325 -0.0394,0.6778 -0.1182,0.9865 -0.2906,1.1389 -1.7714,1.4691 -2.6076,2.0091 z m 5.8819,4.5029 c -0.0137,0.0623 -0.0284,0.1253 -0.044,0.1885 0.0414,0.0555 0.0615,0.1253 0.0448,0.2004 -0.8181,3.7301 -5.2877,9.0068 -8.8705,13.0601 -2.3839,2.6974 -5.2571,4.9359 -8.2646,6.9539 -0.2365,0.159 -0.6631,-0.0808 -0.656,-0.3651 0.002,-0.0989 0.006,-0.1978 0.0119,-0.2962 -0.009,-0.0301 -0.0139,-0.0612 -0.013,-0.093 0.0983,-4.2758 3.3848,-8.1079 7.0188,-11.4194 3.6332,-3.3108 7.1439,-6.2773 10.3235,-8.507 0.1968,-0.1375 0.5006,0.0436 0.4491,0.2778 z m -26.6792,-89.3767 c 16.5816,0.7041 29.0466,13.9519 37.5049,30.1241 5.1444,9.8371 -3.5906,14.1959 -12.454,13.5082 -0.578,-0.0445 -1.1452,0.1364 -0.8835,0.5984 1.7328,3.058 3.1685,9.4606 1.2328,11.514 -2.6896,2.8523 -7.892,0.2685 -10.9798,-1.5026 0.91,-0.7608 1.6651,-1.436 2.6221,-2.0313 0.6576,-0.4088 1.0301,-0.2412 1.5389,0.1715 0.7934,0.6426 1.9644,0.8955 2.9815,0.8974 1.093,0.002 2.0662,-0.3112 1.4644,-2.3796 -0.4915,-1.6878 -1.1183,-3.3954 -2.1195,-5.0976 -0.5201,-0.8841 -0.9493,-0.7602 -1.6566,-0.246 -4.1703,3.0342 -6.675,6.0307 -8.0795,10.2452 -0.2764,0.8294 -1.046,1.5129 -1.6529,1.9953 -3.2468,2.5779 -6.0905,-0.1323 -6.7828,-3.7621 -2.0052,-10.5075 2.7953,-18.7773 -6.4978,-41.2095 -0.6599,-1.5925 -1.3394,-2.8406 -2.736,-4.3895 -3.42,-6.118 0.5797,-8.6865 6.4978,-8.4359 z"
         style="fill:#5b5758;fill-rule:evenodd"
         id="path5" />
      <path
         d="m 315.3772,461.1496 c 2.6072,-2.9489 8.9721,-3.9995 8.4356,2.3083 -0.8342,9.8049 -5.7701,17.3572 -8.7778,23.1411 -0.1805,0.3471 -1.0685,-0.0681 -0.9655,-0.4453 1.7093,-6.2582 1.1116,-16.7275 1.3077,-25.0041 z m -36.8819,-0.2621 c -3.4735,-3.7696 -9.0175,-3.7372 -8.481,2.5704 0.834,9.8049 5.7701,17.3572 8.7778,23.1411 0.1804,0.3471 1.0683,-0.0681 0.9654,-0.4453 -1.7092,-6.258 -1.0661,-16.9896 -1.2622,-25.2662 z m -2.1863,31.7498 c -0.1251,-0.4667 -0.009,-1.1221 -0.5844,-1.4037 -1.261,-0.5089 -3.3337,-0.3526 -3.3342,2.9211 0.2493,4.7599 3.3234,9.2981 7.3954,12.212 5.2981,3.436 13.4551,2.742 15.2186,0.1138 0.7666,-1.0351 0.4385,-2.5699 0.0462,-3.6869 -0.0594,-0.169 -0.239,-0.1863 -0.4703,-0.1244 -4.6864,1.2532 -8.4402,0.2201 -11.8582,-1.7032 -3.1205,-1.756 -5.5648,-5.1673 -6.4131,-8.3287 z m 15.5122,-154.2328 c 5.0931,-6.0267 2.9956,-9.5459 -7.866,-8.3788 -14.9062,1.6016 -32.2558,11.7701 -38.2568,29.1546 -3.9189,11.3525 3.8985,13.0239 12.796,13.3718 0.8636,0.0338 0.8252,1.813 0.4157,1.8639 -0.5913,0.0734 -1.4044,0.2347 -1.955,0.38 -0.6873,0.1813 -0.9255,0.513 -0.9076,1.1708 0.0774,2.8424 1.554,7.5968 3.3062,8.9029 3.5147,2.6201 7.0025,0.5193 10.09,-1.2523 -0.2947,-0.8517 -0.3199,-1.8689 -1.2767,-2.464 -0.6577,-0.4089 -0.9803,-0.1706 -1.539,0.1711 -0.9758,0.5969 -3.1504,0.9648 -4.1673,0.9664 -1.0925,0.002 -1.6314,-0.5622 -1.7376,-2.4483 -0.0982,-1.7439 -0.2718,-2.1686 0.9453,-2.3388 1.1154,-0.1562 3.1973,0.0717 4.1787,0.0391 1.0775,-0.0359 1.5146,0.0658 2.0421,0.1068 0.3531,0.0274 0.7393,0.546 0.9396,0.8109 1.6191,2.1413 3.261,5.9199 6.2121,5.9874 0.8712,0.02 2.2041,-0.9985 2.6789,-1.7213 1.5586,-2.3735 2.5947,-7.4706 2.8841,-8.2077 2.831,-7.2105 6.3343,-8.7745 4.8078,-20.3414 -0.403,-3.053 0.5459,-6.3888 2.6478,-10.3349 0.7728,-1.4511 2.3654,-3.8895 3.7617,-5.4382 z m 5.0929,107.0439 c -7.2915,-0.004 -9.9493,-4.1841 -11.2844,-7.2715 -0.1813,-0.5903 -0.6089,-1.8196 -1.3074,-2.0695 -4.8708,-1.7436 -6.5124,1.5767 -6.2864,4.1238 0.4784,5.3947 9.6505,11.7821 12.3762,11.9534 0.5822,0.0366 1.3253,0.6503 1.3119,1.0043 l -0.0168,8.6456 c 0.9064,-0.0247 1.7052,0.0322 2.3666,0.0424 3.6662,0.056 3.7598,4.9909 -0.6058,4.8344 -4.4041,-0.1578 -7.7411,-0.0842 -12.1489,-0.1223 -0.076,-2.8879 -0.5053,-6.3971 -0.5813,-9.285 -3.8325,-1.7151 -7.5526,-2.8412 -11.8554,-3.6391 -1.6995,-0.3151 -4.0298,-0.945 -5.6907,-1.6385 -1.8716,-0.7813 -4.775,-2.4786 -6.4615,-3.7739 -2.8636,-2.1995 -8.2322,-8.5804 -10.717,-13.6853 -0.2545,-5.0003 0.0164,-11.0826 -0.0574,-16.4889 -0.0174,-1.2805 -0.3148,-2.0102 0.9364,-3.2261 l 11.8094,-12.9441 c 0.3181,-0.2945 0.6507,-0.5349 0.2849,-0.9006 l -3.7048,-4.7423 c -1.5528,0.1508 -4.1727,1.1719 -7.0143,1.2274 -3.0686,0.06 -6.3209,-0.9074 -6.6307,-2.5358 -0.3625,-1.905 -1.032,-4.0315 -3.0072,-4.6773 -0.7459,-0.2437 -1.5352,-0.2949 -1.7191,0.6061 -0.2513,1.2319 -1.0299,4.9134 -1.0537,6.0979 -0.0705,3.5083 0.344,6.1022 2.4176,8.9918 0.2737,0.4388 1.1242,0.3527 2.222,-0.2371 2.6792,-1.4394 7.3479,-3.4602 9.2336,-3.4271 2.6287,-0.04 3.5728,1.9395 2.4081,3.0907 -2.5794,3.0256 -6.0193,5.5585 -9.1914,7.7568 -0.6988,0.4845 -1.4021,1.1296 -3.4068,0.7349 -3.2472,-0.5455 -5.8327,-2.2658 -7.0244,-5.489 -0.8343,-2.2565 -2.745,-3.8048 -4.1723,-5.2323 -1.1671,-1.1672 -1.1377,0.059 -1.0713,0.8093 0.2576,2.9124 1.5062,5.9439 2.4688,9.1086 0.3588,1.1794 1.2767,2.7498 1.9727,3.4948 1.2953,1.3863 1.8815,2.8009 2.6599,4.2334 0.6049,1.1133 1.3155,4.0545 0.755,4.8879 -1.8257,2.715 -2.4541,0.9751 -4.648,-0.4362 -6.7478,-4.3409 -17.4763,-18.1846 -17.1328,-29.3591 0.5584,-18.1631 5.56,-26.9171 16.9812,-40.9664 2.7226,-3.3493 6.8114,-7.1061 9.4535,-10.471 11.993,-15.2745 34.6164,-24.7625 51.9936,-23.4412 0.6981,0.0569 1.2112,0.5984 1.5389,1.1969 0.7041,1.3017 0.6956,2.9453 0.1457,3.9907 -0.4133,0.703 -1.17,0.7773 -1.8809,0.7411 -23.2559,-1.1871 -40.5307,11.6355 -56.0568,34.0328 -4.4891,6.476 -1.1392,9.5586 -0.1348,10.6833 1.246,1.3951 3.0783,2.1672 5.52,2.0221 5.3348,-0.3173 6.7604,-0.1494 8.3118,2.1501 2.5191,3.7339 4.3273,5.0918 7.3827,8.1708 2.9705,2.9934 9.4749,6.0941 14.1239,7.4811 1.6228,1.9487 7.3431,8.1999 9.7043,9.4984 2.5698,1.4128 3.0074,0.0348 2.4018,-0.7151 -1.9318,-2.3921 -1.4148,-5.5509 0.3889,-6.5997 1.1995,-0.6975 3.1507,-1.1964 3.6269,-2.4985 0.3511,-0.9599 -0.3014,-1.4747 -1.123,-2.2162 -1.96,-1.7698 -4.8389,-5.7445 0.4619,-13.7431 2.2418,-2.6525 4.0279,-5.4871 6.7256,-7.9573 -0.3083,-6.2697 2.1735,-17.0082 4.0024,-17.008 z m -23.4302,2.1617 c 1.4667,0.0524 0.3779,-1.7021 -0.2746,-2.5362 -5.6577,-7.2343 -9.3534,-10.7169 -15.0989,-16.4302 -1.0288,-1.023 -4.1757,-2.8675 -5.2322,-3.4054 -1.2941,-0.6589 -3.0213,-0.8004 -3.1471,0.325 -0.2945,2.6315 0.2749,3.5578 1.9723,6.3268 4.0115,6.5444 19.2757,15.6303 21.7805,15.72 z m 3.9443,-22.1143 c -2.7319,-6.592 -4.7325,-9.061 -9.9681,-14.0805 -0.4295,-0.4119 -1.6914,-1.0374 -2.2841,-1.093 -1.2491,-0.1174 -1.4664,0.0753 -2.1323,0.3372 -1.4494,0.5703 -0.778,1.4594 -0.521,2.1055 0.4038,1.0148 1.4173,1.9952 1.8725,2.4862 2.75,2.9665 4.1465,4.0931 6.0143,6.1131 0.8999,0.9735 2.7967,3.101 3.5016,4.248 0.371,0.604 1.1566,1.4566 1.9919,1.4075 0.9908,-0.0585 1.797,-0.8679 1.5252,-1.524 z m -16.7099,-6.6425 c -2.034,-1.1304 -4.2628,-1.0575 -4.8262,-0.5319 -1.4801,1.3808 -0.4,3.0611 1.4847,4.1288 3.3699,1.9093 7.1142,6.1222 9.6355,8.5656 2.5846,2.5044 3.0211,3.5568 4.7992,5.221 0.8189,0.7666 3.0064,-0.2476 2.295,-1.9004 -1.3868,-3.2215 -2.1958,-4.3677 -5.2377,-7.9005 -2.1336,-2.4778 -6.0602,-6.4211 -8.1505,-7.5826 z m 36.1969,-103.8424 c -18.2708,0.4786 -37.1499,6.177 -54.3072,19.7009 -1.0082,0.9356 -1.3844,-0.3261 -1.6333,-0.9973 -0.7588,-2.0467 -4.5079,-7.9346 -6.0786,-9.4817 -4.5532,-4.4853 -7.5268,-5.804 -12.7447,-5.9276 -3.6941,-0.0875 -3.813,1.513 -3.8303,3.1428 -0.0203,1.9207 1.507,2.5967 2.9639,3.5373 10.9426,7.0654 12.556,15.3823 8.5467,23.3482 -2.2692,4.5088 -6.3812,7.9475 -9.2307,12.2186 -6.9523,10.4207 -13.8619,21.0558 -13.5657,34.2217 0.466,20.7076 13.9595,35.645 28.2174,45.8177 0.6318,0.4702 0.5511,1.1745 0.0286,1.26 -13.5125,5.8766 -35.0191,19.9797 -50.5609,35.0331 -0.3705,0.437 -1.148,0.0343 -0.806,-0.7826 4.6976,-10.7015 16.3452,-23.1439 30.248,-29.941 0.2375,-0.1615 0.2613,-0.4798 -0.057,-0.741 l -5.0501,-2.5536 c -15.7713,4.3052 -25.0804,10.3764 -36.5643,21.9097 -0.4595,0.4616 -1.4061,0.3988 -1.393,0.1777 0.7919,-13.2203 20.5994,-25.4703 32.4281,-28.7614 -0.0572,-2.1091 0.2266,-2.3127 0.4031,-3.6979 -10.4676,-6.0805 -6.0915,-16.6544 -5.1114,-19.5547 -1.8123,-1.902 -7.5709,-4.8786 -2.8791,-13.4108 -5.1157,-3.2586 -2.3876,-10.7775 -0.5724,-14.1555 1.5482,-2.881 3.9404,-7.4839 6.9995,-10.1911 -1.0679,-9.0551 5.388,-16.1497 14.4887,-20.9187 -3.2412,-8.2001 -7.4352,-18.6611 -7.8314,-28.5558 -0.5191,-12.9639 5.4719,-16.6656 13.5124,-16.3916 7.6061,0.2592 19.8581,5.6909 27.7997,10.6117 13.6055,-7.9783 28.3197,-12.9202 46.5801,-12.2198 z m 21.2412,177.9912 c 0.1253,-0.4667 0.009,-1.1221 0.5844,-1.4037 1.261,-0.5089 3.3337,-0.3526 3.3343,2.9212 -0.2494,4.7598 -3.3234,9.2981 -7.3955,12.212 -5.2981,3.4359 -13.4551,2.7419 -15.2186,0.1137 -0.7666,-1.035 -0.4386,-2.5699 -0.0462,-3.6868 0.0594,-0.1693 0.2389,-0.1863 0.4703,-0.1245 4.6864,1.2535 8.4402,0.2201 11.8582,-1.7032 3.1205,-1.756 5.5648,-5.1671 6.4131,-8.3287 z M 303.4651,337.8117 c -3.4199,-6.1179 0.5798,-8.687 6.4979,-8.4357 16.5814,0.7038 29.0465,13.9514 37.5044,30.1234 5.1449,9.8374 -3.5905,14.1958 -12.4538,13.5087 -0.5778,-0.0446 -1.145,0.1365 -0.8834,0.5984 1.7331,3.0578 3.1685,9.4602 1.2324,11.514 -2.6892,2.8524 -7.8917,0.2685 -10.9792,-1.5031 0.9101,-0.7606 1.6648,-1.4356 2.6218,-2.0307 0.6576,-0.4092 1.0299,-0.2415 1.539,0.1711 0.7934,0.6427 1.9645,0.8958 2.9818,0.8977 1.0928,0.002 2.0657,-0.3116 1.464,-2.3796 -0.4911,-1.6881 -1.1181,-3.396 -2.1196,-5.0979 -0.5201,-0.8839 -0.9492,-0.7601 -1.6565,-0.2457 -4.1703,3.034 -6.6747,6.0305 -8.0795,10.2452 -0.2762,0.8293 -1.0457,1.5128 -1.6529,1.9951 -3.2469,2.578 -6.0903,-0.1324 -6.7828,-3.7619 -2.0051,-10.5079 2.7954,-18.7776 -6.4979,-41.2095 -0.6597,-1.5926 -1.3394,-2.8409 -2.7357,-4.3895 z m -6.551,107.6367 c 5.9694,0.0874 8.9907,-3.2607 10.3258,-6.3481 0.4512,-1.178 1.0045,-2.0111 2.7217,-2.8783 3.4032,-1.7187 4.201,0.005 4.1536,3.5268 -0.1029,7.6289 -4.6709,12.2437 -12.9241,12.2545 0,3.0779 -0.0714,5.8708 -0.0714,8.9486 -4.2056,0.0569 -3.6687,4.9832 0.0414,4.9334 4.4074,-0.0593 7.4634,-0.193 11.8711,-0.2311 0.076,-2.8879 -0.0189,-5.4623 0.0571,-8.3502 3.9519,-1.5959 10.2659,-2.6582 14.5915,-2.978 1.724,-0.1276 3.7084,-0.424 5.3256,-1.2166 1.7358,-0.8506 3.2784,-2.0905 4.82,-3.5571 4.0624,-3.8652 12.9251,-18.4686 10.1817,-31.4625 -0.2561,-1.2129 -0.734,-2.546 -1.8027,-3.6479 l -11.1712,-11.3712 c -0.3182,-0.2945 -0.4228,-0.6033 -0.0569,-0.969 l 5.0728,-5.0158 c 3.2298,0.3135 7.4697,-0.0181 10.3164,-1.4678 2.0207,-1.0292 3.2476,-1.0058 4.8235,-0.6839 2.0524,0.4192 2.0638,1.1433 2.2445,2.0378 0.7023,3.4749 0.1009,8.2111 -1.6992,9.3225 -1.1971,0.7695 -2.0133,0.7978 -3.3165,0.0821 -2.6665,-1.4641 -6.2079,-3.9161 -8.0936,-3.883 -2.1043,0.0284 -3.1395,1.6885 -2.1801,2.8854 2.5794,3.0256 5.5631,5.5809 8.7354,7.7796 0.6991,0.4847 1.3299,0.6343 2.0804,0.5131 2.8597,-0.7507 6.885,-3.6851 7.8948,-6.9543 0.71,-2.299 2.097,-3.3029 3.7618,-4.4458 0.4724,-0.3242 0.9691,0.057 1.0259,0.684 0.7032,7.6565 -4.33,15.6174 -9.176,19.8918 -0.8014,0.7068 -1.0417,1.4806 -0.4133,2.2659 2.2832,2.8528 5.7263,3.2829 7.9085,1.2967 11.574,-10.5349 13.2173,-19.9409 13.3376,-31.1209 0.3021,-28.0871 -36.5302,-79.9897 -74.6104,-74.4391 -0.6982,0.0569 -1.2112,0.5984 -1.539,1.1969 -0.704,1.3017 -0.6956,2.9453 -0.1457,3.9907 0.4133,0.703 1.1749,0.8424 1.881,0.741 23.53,-3.3771 45.0479,14.1545 58.4233,41.8364 0.7409,1.5674 -0.0143,2.8 -0.9549,3.5411 -1.52,1.0924 -4.5786,1.4059 -7.0249,1.3608 -2.4171,-0.0445 -4.2124,0.3107 -6.5333,1.8309 -3.6825,2.4121 -6.8658,6.1703 -8.8418,9.9035 -0.297,0.5653 -0.9138,0.9093 -1.7812,1.1757 -4.6383,1.4244 -9.2143,5.615 -13.2093,9.7253 -2.4545,2.5253 -7.4339,3.2116 -12.4969,-0.0644 -2.0136,-1.3031 -3.9716,-2.6024 -5.2438,-4.5596 -0.5799,-0.8924 -0.1547,-1.8696 0.9121,-2.166 3.7544,-1.043 5.9848,-5.9088 0.684,-13.9075 -2.242,-2.698 -4.1889,-5.4289 -6.7258,-8.0937 0.3084,-6.2698 -1.3497,-17.0996 -3.1786,-17.0994 m 2e-4,-35.2508 c 18.6284,-0.4754 37.5184,5.1857 54.3039,19.7009 1.0211,0.9475 1.7634,0.3907 1.3737,-1.2908 -0.5082,-1.7955 -0.3884,-3.7174 -0.1425,-5.5859 0.2504,-1.9023 0.551,-3.8378 2.6504,-4.7878 5.5974,-2.6199 11.4253,-5.1199 16.6434,-5.2438 3.6944,-0.0877 3.7446,2.0145 3.7618,3.6445 0.0205,1.9207 -1.5069,2.5967 -2.9639,3.5373 -10.9425,7.0654 -12.556,15.3823 -8.5467,23.3482 2.2692,4.5088 6.3811,7.9473 9.2307,12.2186 6.9526,10.4209 11.8629,20.8958 12.1977,34.0848 0.5457,21.4917 -15.2096,41.2285 -31.2915,50.6716 -0.6318,0.4701 -0.4373,0.9692 0.0853,1.0547 15.8835,3.0495 40.3454,16.3299 55.5451,27.7582 0.3705,0.4371 1.2619,-0.2621 0.9199,-1.079 -5.8374,-10.4734 -19.9193,-19.5828 -33.8222,-26.3799 -0.2374,-0.1614 -0.2612,-0.4798 0.0571,-0.741 l 4.9587,-3.9899 c 16.045,3.2109 30.8361,11.0956 42.3212,22.6283 0.228,0.009 0.6819,-0.002 0.6748,-0.1988 -0.6173,-9.0152 -19.0523,-20.5248 -31.083,-25.8775 -0.3057,-0.1359 -0.551,-0.0475 -0.5699,-0.2848 0.0572,-2.1091 0.2066,-4.0683 0.6912,-5.978 5.4815,-3.3534 10.1864,-11.5302 4.2112,-18.8736 -0.2234,-0.2423 -0.247,-0.5843 0.1852,-0.7693 8.3599,-4.3511 5.2374,-15.113 -1.4251,-22.7994 -0.2926,-0.3376 -0.0617,-0.8312 0.3135,-0.8836 0.9975,-0.1685 2.5464,-1.3828 2.2232,-3.1566 -0.6268,-3.4399 -2.5268,-7.2103 -5.5859,-9.9176 1.159,-10.0128 -6.5737,-17.7455 -15.6744,-22.5145 2.8308,-8.9296 5.7503,-17.5133 5.6427,-27.416 -0.1191,-10.958 -5.6956,-15.8349 -13.7365,-15.5605 -7.6064,0.2595 -18.4483,5.2246 -26.3899,10.1454 -13.9466,-7.1569 -28.8574,-12.6073 -46.7591,-12.7669 z m 23.5097,192.621 c -6.4059,4.9665 -12.9641,7.2631 -23.5121,7.2326 h -2e-4 c -9.2714,-0.243 -15.3467,-3.4137 -22.6898,-7.4606 l -7.7403,-27.4388 c -11.9545,-2.7739 -10.5515,-9.9891 -8.9256,-12.5396 4.8464,-7.6024 -2.9567,-12.2988 -4.5829,-13.9078 -1.9166,-1.8963 -12.6364,-7.8454 -13.7367,-8.0822 -0.3819,-0.0822 -1.0666,-4e-4 -1.611,0.3212 -14.8819,8.79 -31.9963,22.3139 -39.593,40.3527 -0.6828,1.6214 1.6064,1.3946 2.2673,0.5406 5.9874,-7.736 12.2725,-14.9446 24.0717,-22.5818 0.2911,-0.1884 0.4971,0.381 0.2168,0.6326 -7.1333,8.1495 -12.1825,21.7181 -11.9066,33.7766 0.0181,0.7938 1.2255,0.817 1.3681,0.1141 4.5725,-11.2176 15.4733,-30.3353 23.4285,-34.2374 0.3506,-0.172 0.7421,-0.009 0.5619,0.2459 -9.4288,13.3429 -9.963,24.9133 -9.6383,36.1538 0.0257,0.8917 0.9611,1.0332 1.3379,-0.1424 3.2849,-10.2509 7.915,-24.2454 15.3901,-32.6714 0.3524,-0.4424 0.5594,-0.0231 0.4572,0.319 -1.654,3.2306 -3.519,10.9652 -2.112,14.3214 0.1694,0.6071 0.9763,1.2374 1.3889,0.1606 0.3353,-0.8758 0.6874,-1.5869 1.4886,-1.8504 0.2799,-0.092 0.6647,0.1249 0.7818,0.6807 1.1403,5.4181 0.3798,10.7415 0.9135,11.5794 1.6576,-1.3536 2.6306,-4.3849 4.2224,-6.5231 0.2504,-0.3362 0.5406,-0.7054 1.1969,-0.3419 3.9152,2.1686 8.4372,5.8216 10.0972,7.914 l -4e-4,13.3036 c -6.4198,4.3164 -3.7387,10.1034 0.4105,13.4513 10.9674,8.8491 20.8642,12.8816 32.9381,12.8816 h 2e-4 c 12.074,0 23.9947,-4.3542 34.8535,-13.3374 6.8993,-5.7076 5.0516,-8.4512 -1.3682,-12.7676 l 0.2278,-12.9386 c 1.3632,-2.7975 5.2069,-5.9756 9.7324,-7.0249 0.6566,-0.1522 0.8857,-0.0392 1.1969,0.3419 1.5114,1.8495 3.1328,4.163 4.8095,5.5426 0.1236,-4.4174 -0.2018,-12.4969 0.1212,-13.2664 1.6434,2.9496 3.344,5.7996 5.1869,8.6353 0.2326,-4.4505 0.7717,-9.8916 -0.5631,-15.767 -0.1022,-0.3421 0.3532,-0.3494 0.4433,-0.2034 5.879,10.4779 11.473,20.7533 12.5667,31.1744 0.107,0.9216 1.4213,0.9718 1.5317,0.0855 1.3748,-11.0129 -2.0553,-24.2926 -9.433,-38.5021 -0.1442,-0.2782 0.2714,-0.5081 0.5618,-0.246 9.3693,8.4626 18.8861,19.0291 21.126,30.3842 0.1425,0.703 1.2951,0.677 1.368,-0.1141 1.1883,-12.8793 -3.736,-23.3927 -12.8528,-32.3173 -0.2802,-0.2516 0.2551,-0.6876 0.5701,-0.5415 12.529,5.8139 22.601,14.5408 27.5374,25.5459 0.1344,0.2997 0.3481,0.288 0.3634,0.0748 1.3989,-19.3518 -20.1608,-30.704 -41.7512,-39.6138 -1.0409,-0.4297 -1.9397,-0.272 -2.85,0.1139 -9.7879,4.1484 -17.5361,11.6312 -12.4257,18.4676 3.8933,5.2081 1.3872,12.5017 -9.2907,12.0838 z m -1.4487,-60.1075 c -0.3422,0.0105 -0.8479,-0.5384 -0.3419,-0.9689 6.8634,-5.8406 12.9215,-11.1873 18.9805,-17.4556 1.0097,-1.0445 2.4591,-2.5837 3.1062,-4.1751 0.5096,-1.2531 1.2352,-2.8293 2.1806,-3.8899 0.3947,-0.4427 0.8909,-0.098 1.0118,0.2423 1.6945,4.7666 -0.3109,8.0526 -2.5649,11.1146 -6.6616,9.0492 -17.4132,14.9792 -22.3723,15.1326 z m -2.4229,-19.5099 c 0.0415,-6.5382 5.0945,-12.1815 10.6728,-17.2703 0.4405,-0.4018 1.0594,-0.6279 1.6529,-0.6841 1.2497,-0.1182 2.6267,-0.3638 3.762,0.171 1.0825,0.5098 0.8962,1.3443 0.7266,2.0093 -0.2905,1.1388 -1.7711,1.469 -2.6075,2.0092 -3.6524,2.3593 -6.8639,5.3694 -9.2195,9.3618 -0.6743,1.1433 -1.4402,2.4088 -2.5935,3.1064 -0.6801,0.4116 -1.0987,1.4161 -1.6957,1.8523 -0.4849,0.3545 -0.7007,-0.1235 -0.6981,-0.5556 z m 19.6407,-9.1509 c 0.1965,-0.1379 0.5003,0.0434 0.4489,0.2778 -0.818,3.7298 -5.2877,9.0065 -8.8705,13.0599 -2.3843,2.6973 -5.2574,4.936 -8.2647,6.9538 -0.2366,0.1587 -0.6628,-0.0807 -0.6563,-0.365 0.0985,-4.2761 3.3848,-8.1079 7.0188,-11.4195 3.6336,-3.3111 7.1443,-6.2776 10.3238,-8.507 z"
         style="fill:#fdfdfd;fill-rule:evenodd"
         id="path7" />
      <path
         d="m 327.2253,410.3552 c 0.4405,-0.4017 1.0593,-0.6278 1.6529,-0.684 1.2496,-0.1183 2.6266,-0.3638 3.762,0.1709 1.0825,0.5098 0.8962,1.3443 0.7266,2.0093 -0.2906,1.1389 -1.7712,1.4691 -2.6075,2.0092 -3.6524,2.3593 -6.864,5.3694 -9.2195,9.3618 -0.6744,1.1433 -1.4403,2.4088 -2.5936,3.1065 -0.68,0.4115 -1.0986,1.4161 -1.6956,1.8523 -0.485,0.3545 -0.7008,-0.1236 -0.6982,-0.5557 0.0416,-6.5382 5.0946,-12.1815 10.6729,-17.2703 z"
         style="fill:#656565;fill-rule:evenodd"
         id="path9" />
      <path
         d="m 336.1931,418.4746 c 0.1965,-0.1378 0.5003,0.0435 0.449,0.2778 -0.8181,3.7298 -5.2877,9.0065 -8.8705,13.06 -2.3843,2.6972 -5.2574,4.9359 -8.2647,6.9537 -0.2367,0.1587 -0.6629,-0.0807 -0.6563,-0.365 0.0984,-4.2761 3.3847,-8.1079 7.0187,-11.4194 3.6336,-3.3112 7.1443,-6.2777 10.3238,-8.5071 z"
         style="fill:#656565;fill-rule:evenodd"
         id="path11" />
      <path
         d="m 342.9008,420.6459 c 0.3946,-0.4427 0.8908,-0.098 1.0118,0.2424 1.6944,4.7665 -0.3109,8.0525 -2.5649,11.1145 -6.6617,9.0492 -17.4133,14.9793 -22.3723,15.1326 -0.3423,0.0105 -0.848,-0.5384 -0.342,-0.9689 6.8635,-5.8406 12.9216,-11.1872 18.9805,-17.4556 1.0097,-1.0445 2.4591,-2.5837 3.1063,-4.1751 0.5096,-1.2531 1.2351,-2.8293 2.1806,-3.8899 z"
         style="fill:#656565;fill-rule:evenodd"
         id="path13" />
      <path
         d="m 296.9145,307.3192 c 17.9016,0.1596 32.8125,5.61 46.7591,12.767 7.9415,-4.9208 18.7834,-9.886 26.3898,-10.1455 8.0409,-0.2744 13.6175,4.6025 13.7365,15.5606 0.1076,9.9026 -2.8118,18.4863 -5.6427,27.416 9.1007,4.7689 16.8335,12.5017 15.6745,22.5144 3.059,2.7073 4.9591,6.4778 5.5859,9.9177 0.3231,1.7737 -1.2257,2.988 -2.2232,3.1565 -0.3752,0.0524 -0.6061,0.546 -0.3135,0.8836 6.6625,7.6864 9.7849,18.4483 1.4251,22.7994 -0.4323,0.1851 -0.4087,0.527 -0.1853,0.7693 5.9752,7.3434 1.2703,15.5202 -4.2111,18.8736 -0.4846,1.9097 -0.6341,3.8689 -0.6913,5.978 0.019,0.2373 0.2642,0.1489 0.5699,0.2849 12.0307,5.3527 30.4658,16.8622 31.0831,25.8775 0.007,0.1971 -0.4469,0.2082 -0.6749,0.1987 -11.4851,-11.5327 -26.2761,-19.4174 -42.3211,-22.6282 -1.653,1.3299 -3.3059,2.6599 -4.9588,3.9898 -0.3183,0.2613 -0.2945,0.5796 -0.057,0.7411 13.9028,6.797 27.9847,15.9064 33.8222,26.3798 0.3419,0.8169 -0.5494,1.5161 -0.92,1.0791 -15.1996,-11.4284 -39.6616,-24.7087 -55.5451,-27.7583 -0.5225,-0.0855 -0.7171,-0.5846 -0.0853,-1.0547 16.0819,-9.443 31.8372,-29.1799 31.2916,-50.6715 -0.3349,-13.189 -5.2452,-23.664 -12.1977,-34.0849 -2.8497,-4.2713 -6.9615,-7.7098 -9.2307,-12.2185 -4.0093,-7.9659 -2.3959,-16.2829 8.5467,-23.3483 1.4569,-0.9406 2.9844,-1.6165 2.9639,-3.5373 -0.0173,-1.63 -0.0674,-3.7322 -3.7619,-3.6444 -5.2181,0.1239 -11.0459,2.6238 -16.6433,5.2437 -2.0995,0.95 -2.4001,2.8855 -2.6505,4.7878 -0.2459,1.8685 -0.3657,3.7905 0.1426,5.5859 0.3896,1.6815 -0.3526,2.2383 -1.3738,1.2908 -16.7855,-14.5151 -35.6755,-20.1763 -54.3039,-19.7008"
         style="fill:none"
         id="path15" />
      <path
         d="m 296.9133,445.0594 c 5.6956,0.3609 8.9906,-3.2606 10.3257,-6.3481 0.4512,-1.1779 1.0046,-2.011 2.7218,-2.8783 3.4032,-1.7187 4.2009,0.005 4.1535,3.5268 -0.1028,7.629 -4.6709,12.2437 -12.9241,12.2546 0,3.0778 -0.0713,5.8707 -0.0713,8.9485 -4.2056,0.0569 -3.6688,4.9833 0.0413,4.9334 4.4075,-0.0592 7.4634,-0.193 11.8712,-0.2311 0.076,-2.8879 -0.019,-5.4623 0.057,-8.3502 3.9519,-1.5958 10.2659,-2.6581 14.5915,-2.978 1.7241,-0.1275 3.7084,-0.424 5.3256,-1.2165 1.7359,-0.8507 3.2785,-2.0905 4.82,-3.5571 4.0624,-3.8653 12.9252,-18.4687 10.1817,-31.4626 -0.2561,-1.2129 -0.734,-2.5459 -1.8027,-3.6479 l -11.1712,-11.3711 c -0.3181,-0.2946 -0.4228,-0.6034 -0.0569,-0.9691 1.691,-1.6719 3.3818,-3.3439 5.0728,-5.0158 3.2299,0.3135 7.4698,-0.0181 10.3165,-1.4678 2.0207,-1.0292 3.2476,-1.0058 4.8234,-0.6838 2.0524,0.4191 2.0638,1.1433 2.2446,2.0377 0.7023,3.4749 0.1008,8.2111 -1.6993,9.3225 -1.1971,0.7695 -2.0133,0.7978 -3.3165,0.0821 -2.6664,-1.464 -6.2079,-3.9161 -8.0936,-3.883 -2.1043,0.0284 -3.1395,1.6886 -2.1801,2.8855 2.5794,3.0256 5.5631,5.5809 8.7354,7.7796 0.6992,0.4846 1.3299,0.6342 2.0805,0.513 2.8596,-0.7507 6.885,-3.6851 7.8947,-6.9542 0.71,-2.299 2.097,-3.3029 3.7618,-4.4459 0.4724,-0.3242 0.9691,0.0571 1.026,0.684 0.7031,7.6566 -4.3301,15.6175 -9.1761,19.8918 -0.8014,0.7068 -1.0416,1.4806 -0.4133,2.266 2.2832,2.8527 5.7264,3.2829 7.9085,1.2967 11.574,-10.535 13.2173,-19.941 13.3376,-31.121 0.3021,-28.0871 -36.5302,-79.9896 -74.6104,-74.4391 -0.6981,0.0569 -1.2112,0.5984 -1.539,1.1969 -0.704,1.3017 -0.6956,2.9453 -0.1456,3.9907 0.4133,0.703 1.1748,0.8424 1.8809,0.7411 23.5301,-3.3772 45.0479,14.1544 58.4234,41.8363 0.7409,1.5675 -0.0143,2.8 -0.955,3.5411 -1.52,1.0925 -4.5785,1.4059 -7.0249,1.3608 -2.417,-0.0445 -4.2123,0.3107 -6.5332,1.8309 -3.6826,2.4121 -6.8659,6.1703 -8.8419,9.9035 -0.2969,0.5653 -0.9138,0.9093 -1.7811,1.1757 -4.6384,1.4244 -9.2144,5.615 -13.2094,9.7253 -2.4544,2.5253 -7.4338,3.2116 -12.4968,-0.0644 -2.0137,-1.3031 -3.9716,-2.6023 -5.2438,-4.5596 -0.58,-0.8924 -0.1548,-1.8695 0.912,-2.166 3.7544,-1.043 5.9848,-5.9088 0.684,-13.9074 -2.242,-2.698 -4.4838,-5.3958 -6.7257,-8.0938 0.3083,-6.2697 -1.3498,-17.0996 -3.1787,-17.0994"
         style="fill:none"
         id="path17" />
      <path
         d="m 296.9128,514.9658 c 10.548,0.0305 17.1054,-2.7564 23.5112,-7.7229 2.717,-9.3286 5.4338,-18.6573 8.1507,-27.9859 10.6778,0.4179 13.184,-6.8757 9.2907,-12.0838 -5.1104,-6.8364 2.6378,-14.3192 12.4257,-18.4676 0.9103,-0.3858 1.809,-0.5435 2.8499,-0.1139 21.5904,8.9098 43.1501,20.262 41.7513,39.6139 -0.0154,0.2132 -0.2291,0.2249 -0.3635,-0.0748 -4.9363,-11.0051 -15.0084,-19.7321 -27.5373,-25.546 -0.3151,-0.1461 -0.8504,0.2899 -0.5701,0.5415 9.1167,8.9246 14.041,19.4381 12.8527,32.3174 -0.0729,0.791 -1.2255,0.817 -1.368,0.1141 -2.2399,-11.3552 -11.7567,-21.9217 -21.1259,-30.3842 -0.2904,-0.2622 -0.7061,-0.0323 -0.5619,0.2459 7.3777,14.2096 10.8078,27.4892 9.4331,38.5021 -0.1105,0.8863 -1.4248,0.8362 -1.5318,-0.0855 -1.0937,-10.421 -6.6876,-20.6965 -12.5667,-31.1744 -0.0901,-0.146 -0.5454,-0.1387 -0.4432,0.2034 1.3347,5.8754 0.7957,11.3165 0.563,15.767 -1.8428,-2.8357 -3.5435,-5.6857 -5.1869,-8.6353 -0.323,0.7695 0.002,8.849 -0.1212,13.2664 -1.6767,-1.3796 -3.298,-3.693 -4.8094,-5.5426 -0.3113,-0.381 -0.5403,-0.4941 -1.1969,-0.3419 -4.5255,1.0494 -8.3692,4.2275 -9.7324,7.0249 -0.076,4.3128 -0.1519,8.6258 -0.2279,12.9386 6.4199,4.3164 8.2675,7.0601 1.3682,12.7676 -10.8587,8.9832 -22.7797,13.3374 -34.8536,13.3374"
         style="fill:none"
         id="path19" />
      <path
         d="m 296.9141,445.4484 -0.001,69.4161"
         style="fill:none"
         id="path21" />
      <path
         d="m 296.915,350.2617 2e-4,-35.2508"
         style="fill:none"
         id="path23" />
      <path
         d="m 274.5815,361.4271 c 0.0743,-1.0773 -0.2649,-1.215 -1.0999,-0.6954 -3.1866,1.9836 -4.1236,15.0426 0.9007,19.6812 0.3736,0.3448 0.7012,0.6828 0.7636,-0.4273 0.1236,-2.198 -0.4764,-4.0325 -0.7981,-6.2469 -0.5713,-3.9299 -0.049,-8.2117 0.2337,-12.3116 z"
         style="fill:#030303;fill-rule:evenodd"
         id="path25" />
      <path
         d="m 273.808,340.4922 c 0.9944,-0.6779 2.6265,-0.5788 3.1008,0.4561 0.5937,1.2951 0.8891,2.3483 -0.2737,4.1037 -2.3407,3.4959 -4.626,7.6946 -7.2161,10.3625 -1.0848,1.1176 -2.4168,1.8995 -4.1721,1.8692 -1.7529,-0.0304 -4.0891,0.6404 -3.1121,-3.8415 0.6569,-3.0137 6.6883,-9.5516 11.6732,-12.95 z"
         style="fill:#030303;fill-rule:evenodd"
         id="path27" />
      <path
         d="m 440.1896,227.2045 c 1.497,1.1038 3.9234,2.9679 4.5964,4.5819 0.8075,1.9369 0.5374,4.1227 -0.8867,6.054 -3.9161,5.311 -9.2166,1.1786 -11.2927,-0.3524 l -4.7798,-3.5243 7.5833,-10.2835 z m -16.35,12.1666 6.4695,4.7704 c 2.414,1.7802 5.3312,3.4844 7.8194,4.0519 5.8657,1.3441 10.1622,-1.4503 13.117,-5.4576 1.353,-1.8346 4.8827,-7.4302 1.0418,-13.5417 -1.1302,-1.8025 -3.9101,-4.2995 -6.4205,-6.1509 l -8.4489,-6.2299 c -1.5449,-1.1393 -3.0416,-2.2428 -4.6225,-1.9182 -1.9168,0.3755 -2.5223,1.1962 -4.6936,4.1411 l -17.3021,23.4641 c -1.6733,2.2691 -2.2431,3.0415 -2.592,4.4243 -0.2418,1.2379 0.4439,2.9355 1.7475,3.897 1.5452,1.1393 2.6357,0.9743 3.5099,0.7994 1.8198,-0.4467 3.3965,-2.787 4.2868,-3.9943 z"
         style="fill:#ffde17;fill-rule:evenodd"
         id="path29" />
      <path
         d="m 400.5086,202.7143 c 7.5871,3.7381 7.8749,11.5701 4.1635,19.1032 -6.1773,12.538 -15.2625,9.5329 -17.7378,8.3133 -3.713,-1.8292 -6.2291,-5.4093 -6.4413,-9.5929 -0.1804,-3.2989 0.8737,-6.5246 2.3318,-9.4839 6.1241,-12.4303 14.7241,-9.7978 17.6838,-8.3397 z m 2.8874,-6.2679 c -12.8607,-6.3362 -23.0996,-0.2129 -28.5607,10.8719 -4.2156,8.556 -5.6398,21.7631 9.1578,29.0537 14.7979,7.2906 24.3471,-2.0478 28.6153,-10.7111 3.8441,-7.8025 6.4463,-21.4998 -9.2124,-29.2145 z"
         style="fill:#ffde17;fill-rule:evenodd"
         id="path31" />
      <path
         d="m 366.9027,214.2319 c 0.4923,-2.1025 0.7933,-6.283 -1.8311,-9.5467 -1.8092,-2.2716 -3.9887,-4.0143 -10.5564,-7.2768 -4.1345,-2.0767 -8.561,-4.222 -7.6858,-7.9602 0.7794,-3.3291 4.8868,-4.0309 8.4493,-3.197 5.3735,1.2581 6.0915,4.5065 6.4645,6.0725 0.5762,2.5377 0.98,4.2338 3.2582,4.7673 2.5113,0.5878 4.4015,-1.4341 4.7707,-3.0108 0.5197,-2.2197 -0.06,-10.7959 -12.5592,-13.722 -9.8709,-2.3109 -16.8056,0.9946 -18.4464,8.0031 -0.9572,4.0887 0.3999,7.2403 2.106,9.4265 1.5273,1.8975 3.3387,3.3694 9.1297,6.2652 4.9247,2.3852 9.4543,4.6162 8.3878,9.1719 -0.9983,4.2637 -5.9332,5.0799 -9.9631,4.1364 -5.8407,-1.3674 -6.7589,-5.3404 -7.063,-7.1985 -0.588,-3.2795 -0.8612,-5.0068 -3.1972,-5.5538 -2.5117,-0.5881 -4.3198,1.0834 -4.7166,2.777 -0.5605,2.3948 -0.6657,12.8436 13.8196,16.2347 10.8636,2.5432 17.9237,-2.088 19.633,-9.3888 z"
         style="fill:#ffde17;fill-rule:evenodd"
         id="path33" />
      <path
         d="m 300.9394,193.7335 0.6311,-13.1219 c 0.1412,-2.9359 0.2277,-4.7333 -0.9131,-5.9895 -0.7414,-0.8163 -1.9168,-1.3535 -3.0552,-1.4082 -1.3781,-0.0661 -2.4883,0.5411 -3.1763,1.1086 -1.2531,1.0808 -1.3452,2.9981 -1.4835,5.8744 l -1.4409,29.9583 c -0.0978,2.0371 -0.1187,3.7179 0.357,5.0618 0.4218,1.2216 2.0532,2.2608 3.6713,2.3387 1.438,0.0692 2.6081,-0.5351 3.2419,-1.2255 0.9506,-1.0351 1.2168,-2.8241 1.2656,-3.8426 l 0.4267,-8.8679 7.5185,-6.4846 9.485,16.3109 c 1.3856,2.4088 2.5086,5.2855 6.0436,5.4553 2.6963,0.1299 4.2719,-1.4158 4.3697,-3.453 0.0836,-1.7375 -1.1847,-4.0807 -2.2426,-5.8131 l -11.3845,-18.0238 11.0266,-9.4991 c 1.7553,-1.5369 2.1755,-2.7779 2.2245,-3.7967 0.0721,-1.4976 -1.2023,-3.7213 -4.0183,-3.8568 -2.0371,-0.0978 -3.2334,1.0458 -4.5549,2.3033 z"
         style="fill:#ffde17;fill-rule:evenodd"
         id="path35" />
      <path
         d="m 262.5434,183.6886 c 3.6146,-0.5701 5.3518,-0.7227 6.6395,-0.2578 1.5436,0.546 3.1587,1.931 3.5418,4.3604 0.9344,5.9256 -5.4557,6.994 -8.6553,7.4988 l -7.7032,1.2147 -1.8221,-11.5546 z m -5.2148,18.9193 3.0223,-0.4765 c 3.733,-0.5888 5.9096,-0.2644 11.2785,6.0549 l 4.4025,5.1962 c 2.6063,3.0509 4.1188,4.9374 6.8444,4.5078 2.6663,-0.4207 3.9172,-2.5003 3.665,-4.1 -0.271,-1.7184 -3.2174,-5.3835 -4.7888,-7.2611 -2.547,-3.0595 -5.5497,-5.9263 -9.3541,-7.3304 2.6914,-1.0317 10.4102,-4.0709 8.9618,-13.2553 -0.7195,-4.5624 -3.5722,-7.6347 -7.1302,-9.017 -3.2337,-1.251 -6.8671,-0.7994 -10.0667,-0.2949 l -12.0288,1.8969 c -3.3178,0.5232 -4.7309,0.8067 -5.7198,2.238 -1.0293,1.5592 -0.8985,2.3887 -0.3099,6.1217 l 4.5415,28.7976 c 0.5233,3.3184 1.1214,7.1103 5.2695,6.4562 4.6217,-0.729 3.7304,-4.839 3.2632,-7.8018 z"
         style="fill:#ffde17;fill-rule:evenodd"
         id="path37" />
      <path
         d="m 215.7225,195.0131 c 7.9719,-2.8267 13.7826,2.4322 16.5892,10.3473 4.6709,13.1735 -3.8211,17.5845 -6.4216,18.5066 -3.9013,1.3833 -8.2213,0.6877 -11.3664,-2.0795 -2.4891,-2.1728 -4.064,-5.1783 -5.1664,-8.2879 -4.631,-13.0604 3.2556,-17.3841 6.3652,-18.4865 z m -2.4749,-6.442 c -13.5128,4.7914 -16.2709,16.3984 -12.1414,28.0449 3.1876,8.9898 11.6544,19.2257 27.2021,13.7129 15.5478,-5.5129 15.522,-18.8694 12.2944,-27.9718 -2.9069,-8.198 -10.9029,-19.6194 -27.3551,-13.786 z"
         style="fill:#ffde17;fill-rule:evenodd"
         id="path39" />
      <path
         d="m 166.5904,225.1577 20.2642,17.4107 c 3.4214,2.8955 5.8706,5.0019 9.342,2.6397 3.4718,-2.3625 2.3119,-5.3463 0.6896,-9.7565 l -10.3645,-27.9199 c -0.1707,-0.4643 -0.9732,-2.6028 -1.648,-3.5946 -1.0464,-1.5375 -3.4833,-2.3463 -5.566,-0.9291 -0.7439,0.5064 -1.319,1.2604 -1.6262,2.1952 -0.4204,1.3015 0.1259,2.7441 1.198,5.2796 l 9.395,23.9356 -18.4024,-15.8475 c -2.5663,-2.1717 -3.6062,-3.0603 -5.2414,-3.5436 -1.018,-0.3235 -2.9285,-0.0391 -4.3173,0.9059 -1.6367,1.1137 -2.368,2.9176 -2.4275,3.6836 -0.1839,1.649 0.3305,3.2577 1.3732,6.176 l 7.9878,22.9346 -18.8176,-17.5238 c -2.4851,-2.3725 -4.3828,-4.2013 -7.1597,-2.3116 -1.9838,1.3499 -2.1754,3.9473 -1.1631,5.4352 0.7087,1.0417 2.4713,2.6718 2.7731,2.9021 l 22.1676,19.8878 c 3.4574,3.1617 5.8569,5.302 9.3284,2.9395 3.4714,-2.3622 2.445,-5.3637 0.9238,-9.6254 z"
         style="fill:#ffde17;fill-rule:evenodd"
         id="path41" />
      <path
         d="m 440.4718,609.7227 c -1.2682,-2.1078 -3.6959,-2.1867 -5.2382,-1.2589 -2.2102,1.3299 -1.8269,3.4796 -1.4643,5.3614 0.7036,3.497 0.329,8.343 -4.9135,11.4975 -1.7992,1.0824 -4.6885,2.331 -8.2285,1.4507 -3.0463,-0.7575 -6.1559,-3.0171 -9.3105,-8.2599 -5.7214,-9.5091 -3.5282,-16.2195 1.9715,-19.5286 3.2382,-1.9482 7.2711,-1.9944 10.5142,-0.0951 3.2736,1.9504 4.4577,2.6384 6.3596,1.494 2.3644,-1.4225 2.0836,-3.9839 1.3721,-5.1661 -2.134,-3.5469 -11.1622,-8.5456 -21.7508,-2.1747 -10.3316,6.2163 -13.2592,17.9893 -6.208,29.7083 3,4.9859 7.2744,9.0651 12.8011,10.92 4.3127,1.4658 9.508,1.4902 16.2928,-2.5922 4.9341,-2.9691 6.7723,-5.9648 7.8494,-8.3632 2.1235,-4.8483 1.6229,-10.2177 -0.0469,-12.9932 z"
         style="fill:#ffde17;fill-rule:evenodd"
         id="path43" />
      <path
         d="m 370.9244,620.8915 14.6301,-5.7432 c 2.2334,-0.8766 3.4061,-1.3371 3.9149,-2.5033 0.373,-0.8554 0.379,-1.8245 0.0503,-2.662 -0.3945,-1.0052 -1.1483,-1.6117 -1.8477,-1.9167 -1.1665,-0.5091 -2.3391,-0.0489 -4.5725,0.828 l -15.9142,6.2469 c -3.4063,1.3372 -4.4113,1.7316 -5.1018,3.4207 -0.6902,1.6887 -0.4273,2.3587 1.0195,6.0442 l 10.6528,27.1376 c 1.1179,2.8479 2.4628,6.7663 6.6505,5.1224 4.4113,-1.7316 2.311,-5.9336 1.3902,-8.2786 l -4.4059,-11.2238 12.0612,-4.7346 c 1.9544,-0.7672 3.0274,-1.3172 3.6697,-2.4717 0.2814,-0.4326 0.567,-1.511 0.1065,-2.6837 -0.3945,-1.0052 -1.2597,-1.5679 -1.8042,-1.8053 -1.1103,-0.5308 -2.2491,-0.148 -4.427,0.707 l -12.0609,4.7346 z"
         style="fill:#ffde17;fill-rule:evenodd"
         id="path45" />
      <path
         d="m 334.1211,654.4846 -19.3082,-23.3694 c -0.898,-1.049 -2.2913,-2.7685 -2.7604,-3.2002 -1.0108,-0.9764 -2.096,-1.5227 -3.8254,-1.3352 -1.7895,0.1943 -2.7787,1.0859 -3.2635,1.6211 -1.5679,1.6782 -1.4256,2.9905 -0.9405,7.4633 l 3.1296,28.8646 c 0.3106,2.8626 0.5317,4.3472 1.6684,5.3702 0.8659,0.7507 2.0444,1.0454 3.1178,0.929 1.4312,-0.1554 2.3673,-0.9808 2.846,-1.5759 0.9571,-1.1898 0.7358,-2.6741 0.4191,-5.5965 l -2.5155,-23.1987 18.8918,22.8713 c 3.2687,3.9899 4.2731,4.9065 6.957,4.6154 5.6653,-0.6142 4.482,-6.5197 4.1781,-9.3226 l -3.0976,-28.5663 c -0.317,-2.9224 -0.485,-4.4728 -1.6748,-5.4299 -0.8595,-0.6912 -2.0444,-1.0454 -3.1178,-0.929 -1.4312,0.1551 -2.3079,0.9741 -2.8396,1.6353 -0.8976,1.1835 -0.6646,3.3304 -0.613,3.8074 z"
         style="fill:#ffde17;fill-rule:evenodd"
         id="path47" />
      <path
         d="m 269.4784,635.605 3.4999,26.4861 c 0.6206,4.4398 1.0418,7.6424 5.2044,8.1956 4.1626,0.553 5.287,-2.444 7.0176,-6.8131 l 10.8847,-27.7215 c 0.1824,-0.4599 1.01,-2.589 1.1678,-3.7785 0.245,-1.8432 -1.0323,-4.0703 -3.5297,-4.4023 -0.892,-0.1185 -1.8236,0.0601 -2.6756,0.5519 -1.181,0.6904 -1.7355,2.1296 -2.626,4.7343 l -8.9522,24.1056 -3.1539,-24.0803 c -0.4654,-3.3295 -0.6482,-4.6851 -1.5449,-6.1358 -0.5432,-0.9194 -2.1573,-1.9809 -3.8224,-2.2021 -1.9622,-0.261 -3.7099,0.596 -4.2646,1.1273 -1.2364,1.1067 -1.9253,2.6491 -3.0937,5.5194 l -9.3333,22.421 -2.3461,-25.6069 c -0.2711,-3.4246 -0.4663,-6.0527 -3.7964,-6.4952 -2.3787,-0.3163 -4.2529,1.4922 -4.4899,3.2761 -0.1661,1.2488 0.0611,3.639 0.1324,4.0117 l 3.2675,29.6019 c 0.4698,4.6615 0.832,7.8563 4.9946,8.4096 4.1623,0.553 5.398,-2.3687 7.1046,-6.5598 z"
         style="fill:#ffde17;fill-rule:evenodd"
         id="path49" />
      <path
         d="m 219.1317,618.0049 c 7.7553,3.3755 8.4127,11.1852 5.061,18.8858 -5.5777,12.8155 -14.7949,10.2433 -17.3251,9.1421 -3.7953,-1.6521 -6.4774,-5.1092 -6.887,-9.2784 -0.3362,-3.2862 0.5643,-6.558 1.881,-9.5831 5.5301,-12.706 14.245,-10.4831 17.2701,-9.1664 z m 2.588,-6.3969 c -13.1456,-5.7215 -23.0839,0.8784 -28.0153,12.2094 -3.8064,8.7451 -4.6055,22.005 10.5205,28.5885 15.1257,6.5832 24.2232,-3.1958 28.0774,-12.0512 3.4711,-7.9756 5.4236,-21.7803 -10.5826,-28.7467 z"
         style="fill:#ffde17;fill-rule:evenodd"
         id="path51" />
      <path
         d="m 184.8665,601.6982 6.5337,4.3663 c 2.0449,1.3666 3.2749,2.333 4.6396,2.0185 0.8654,-0.2154 1.6812,-0.6802 2.2147,-1.4782 0.6333,-0.9479 0.6176,-1.8961 0.4686,-2.6449 -0.1814,-1.3479 -1.5447,-2.1148 -3.5896,-3.4815 l -20.2988,-13.5657 c -2.0449,-1.3667 -3.2752,-2.3331 -4.6399,-2.0183 -0.9484,0.2316 -1.7142,0.7301 -2.2141,1.4782 -0.6669,0.9977 -0.6179,1.8959 -0.4692,2.6449 0.1817,1.3477 1.545,2.1146 3.5899,3.4813 l 6.5835,4.3998 -16.5323,24.7375 c -1.6334,2.4438 -2.7166,3.9566 -2.3525,5.5708 0.2652,1.1149 0.9962,2.1808 1.9435,2.8138 1.1474,0.7669 2.445,0.7685 3.2436,0.6527 1.6805,-0.2475 2.7139,-1.7938 4.3471,-4.2374 z"
         style="fill:#ffde17;fill-rule:evenodd"
         id="path53" />
      <path
         d="m 57.8109,404.7942 c 0,-0.8643 0,-3.2692 -2.1796,-3.2692 -1.1273,0 -1.4655,0.5635 -2.3672,1.9539 -3.1941,4.9601 -8.6802,5.0352 -8.6802,7.4027 0,1.2776 0.902,2.0667 1.9916,2.0667 1.0522,0 2.9684,-1.0899 6.2376,-3.5699 v 16.1955 c 0,1.6157 0.3382,3.4571 2.5178,3.4571 2.48,0 2.48,-2.7431 2.48,-3.6825 z m 22.7713,9.2812 c 1.4652,-0.6763 3.6825,-2.5551 3.6825,-5.4859 0,-1.6534 -0.9394,-7.0645 -8.7554,-7.0645 -5.8244,0 -8.4546,3.7576 -8.4546,7.0268 0,3.7953 2.8556,5.1103 3.7576,5.5236 -1.1651,0.4887 -4.6219,1.8414 -4.6219,6.7637 0,3.2692 1.9913,8.1919 9.5442,8.1919 6.8015,0 9.4695,-4.3214 9.4695,-8.2293 0,-3.645 -2.0294,-5.6741 -4.6219,-6.7263 z m -4.9227,1.8414 c 2.4801,0 4.5468,1.7286 4.5468,4.7721 0,3.0813 -2.1419,4.885 -4.5091,4.885 -2.1795,0 -4.5093,-1.6535 -4.5093,-4.885 0,-3.4194 2.4426,-4.7721 4.4716,-4.7721 z m 0,-10.9347 c 2.4801,0 3.8705,1.8411 3.8705,3.7951 0,2.2546 -1.6909,3.6825 -3.8705,3.6825 -2.1418,0 -3.8704,-1.3527 -3.8704,-3.6825 0,-1.954 1.3527,-3.7951 3.8704,-3.7951 z"
         style="fill:#ffffff;fill-rule:evenodd"
         id="path55" />
      <path
         d="m 511.7675,413.0566 c 0.0751,-1.2398 0.2254,-3.7953 0.9394,-5.6741 1.0896,-2.8182 3.0813,-3.2315 4.2086,-3.2315 4.3214,0 2.5177,4.1709 5.8995,4.1709 1.2401,0 1.9916,-1.0896 1.9916,-1.9539 0,-1.4655 -1.6158,-5.8243 -7.8534,-5.8243 -2.8936,0 -5.6741,1.2398 -7.4778,3.6073 -2.668,3.4946 -2.7808,9.2064 -2.7808,10.935 0,8.2292 3.6825,12.9639 9.8827,12.9639 6.0123,0 9.3192,-4.4342 9.3192,-9.1689 0,-4.4717 -3.0438,-8.7177 -8.079,-8.7177 -2.5555,0 -4.4343,0.9768 -6.05,2.8933 z m 4.9601,11.386 c -2.9685,0 -4.5468,-3.0813 -4.5468,-5.7493 0,-3.9081 2.9687,-5.0729 4.5093,-5.0729 2.2544,0 4.2086,1.8037 4.2086,5.336 0,2.6677 -1.2401,5.4862 -4.1711,5.4862 z m 26.1535,-20.6297 c 0,-0.8643 0,-3.2692 -2.1795,-3.2692 -1.1274,0 -1.4655,0.5635 -2.3672,1.9539 -3.1941,4.96 -8.6806,5.0352 -8.6806,7.4027 0,1.2775 0.902,2.0667 1.9916,2.0667 1.0523,0 2.9688,-1.0899 6.238,-3.57 v 16.1958 c 0,1.6157 0.3381,3.4571 2.5174,3.4571 2.4803,0 2.4803,-2.7431 2.4803,-3.6825 z"
         style="fill:#ffffff;fill-rule:evenodd"
         id="path57" />
      <path
         d="m 297.6341,242.6692 c -49.151,0 -93.6493,19.9225 -125.8591,52.132 -32.2095,32.2098 -52.132,76.708 -52.132,125.8591 0,49.151 19.9225,93.6493 52.132,125.8591 32.2098,32.2095 76.7081,52.132 125.8591,52.132 49.1511,0 93.6493,-19.9225 125.8591,-52.132 32.2095,-32.2098 52.132,-76.7081 52.132,-125.8591 0,-49.1511 -19.9225,-93.6493 -52.132,-125.8591 -32.2098,-32.2095 -76.708,-52.132 -125.8591,-52.132 z M 167.7668,290.793 c 33.2362,-33.236 79.1515,-53.7931 129.8673,-53.7931 50.7158,0 96.6311,20.5571 129.8673,53.7931 33.236,33.2362 53.7931,79.1515 53.7931,129.8673 0,50.7158 -20.5571,96.6311 -53.7931,129.8673 -33.2362,33.2359 -79.1515,53.7931 -129.8673,53.7931 -50.7158,0 -96.6311,-20.5572 -129.8673,-53.7931 -33.2359,-33.2362 -53.7931,-79.1515 -53.7931,-129.8673 0,-50.7158 20.5572,-96.6311 53.7931,-129.8673 z"
         style="fill:#ffffff;fill-rule:evenodd"
         id="path59" />
      <path
         d="m 297.6378,146.5021 c -75.7854,0 -144.3966,30.7182 -194.0607,80.3821 -49.6638,49.6641 -80.382,118.2753 -80.382,194.0607 0,75.7854 30.7182,144.3965 80.382,194.0607 49.6641,49.6638 118.2753,80.382 194.0607,80.382 75.7854,0 144.3966,-30.7182 194.0607,-80.382 49.6638,-49.6642 80.382,-118.2753 80.382,-194.0607 0,-75.7854 -30.7182,-144.3966 -80.382,-194.0607 C 442.0344,177.2203 373.4232,146.5021 297.6378,146.5021 Z M 99.5689,222.876 c 50.6903,-50.69 120.7185,-82.0431 198.0689,-82.0431 77.3504,0 147.3786,31.3531 198.0689,82.0431 50.69,50.6903 82.0431,120.7185 82.0431,198.0689 0,77.3504 -31.3531,147.3786 -82.0431,198.0689 -50.6903,50.6899 -120.7185,82.0431 -198.0689,82.0431 -77.3504,0 -147.3786,-31.3532 -198.0689,-82.0431 -50.69,-50.6903 -82.0431,-120.7185 -82.0431,-198.0689 0,-77.3504 31.3531,-147.3786 82.0431,-198.0689 z"
         style="fill:#ffffff;fill-rule:evenodd"
         id="path61" />
      <path
         d="m 216.8546,354.2638 c -3.2414,-8.2003 -7.4352,-18.6613 -7.8315,-28.5559 -0.519,-12.964 5.472,-16.6658 13.5125,-16.3919 7.6062,0.2596 19.8581,5.6914 27.7996,10.612 13.6057,-7.9784 28.3198,-12.9206 46.58,-12.2196 0.0885,9e-4 0.1769,0.002 0.2654,0.003 v -0.3892 -64.6523 c -48.9714,0.1221 -93.295,20.0211 -125.4056,52.1314 -32.2095,32.2098 -52.132,76.708 -52.132,125.8591 0,49.151 19.9225,93.6493 52.132,125.8591 32.1106,32.1103 76.4342,52.0092 125.4056,52.1314 v -64.8156 c -0.089,6e-4 -0.1783,9e-4 -0.2676,9e-4 -12.0733,0 -21.9702,-4.0323 -32.9378,-12.8815 -4.149,-3.3477 -6.83,-9.1347 -0.4104,-13.451 l 6e-4,-13.3038 c -1.66,-2.0923 -6.1824,-5.7456 -10.0976,-7.9141 -0.6562,-0.3634 -0.9462,0.005 -1.1968,0.3422 -1.5914,2.1379 -2.5651,5.1695 -4.2225,6.5225 -0.5332,-0.8376 0.2273,-6.1608 -0.913,-11.5793 -0.1174,-0.5558 -0.5023,-0.7727 -0.7821,-0.6805 -0.8011,0.2636 -1.1534,0.9748 -1.4885,1.8507 -0.4127,1.0766 -1.2197,0.4462 -1.3892,-0.161 -1.4069,-3.356 0.4583,-11.0906 2.112,-14.3215 0.1021,-0.3421 -0.1048,-0.7614 -0.4569,-0.3186 -7.4752,8.4257 -12.1051,22.4203 -15.3904,32.6715 -0.3767,1.1753 -1.3122,1.0338 -1.3377,0.1418 -0.3246,-11.24 0.2095,-22.8107 9.6381,-36.1534 0.1806,-0.2557 -0.2112,-0.4178 -0.5616,-0.246 -7.9554,3.9019 -18.8563,23.0199 -23.4286,34.2374 -0.1426,0.7033 -1.3501,0.6797 -1.368,-0.1142 -0.2758,-12.0583 4.773,-25.6272 11.9067,-33.7765 0.2803,-0.2515 0.0739,-0.8212 -0.2172,-0.6327 -11.7989,7.6373 -18.0842,14.8459 -24.0715,22.5819 -0.6608,0.8543 -2.95,1.0808 -2.2674,-0.5403 7.5968,-18.0391 24.7113,-31.5629 39.5929,-40.3529 0.5448,-0.3217 1.2294,-0.4036 1.6112,-0.3211 1.1001,0.2366 11.8202,6.1854 13.7364,8.0818 1.6262,1.609 9.4294,6.3057 4.5831,13.9082 -1.6263,2.5503 -3.0289,9.7651 8.9257,12.5393 l 7.7403,27.4388 c 7.3428,4.0468 13.5499,7.2182 22.8211,7.4608 l 0.004,-69.4148 c -7.2913,-0.004 -10.0828,-4.1853 -11.4176,-7.2728 -0.1817,-0.5905 -0.6095,-1.8196 -1.3074,-2.0696 -4.871,-1.7436 -6.5126,1.5769 -6.2867,4.1236 0.4785,5.3949 9.6503,11.7819 12.3764,11.9537 0.5822,0.0365 1.3255,0.6499 1.3116,1.004 l -0.017,8.6457 c 0.9065,-0.0244 1.7056,0.0323 2.3666,0.0425 3.6666,0.0561 3.7599,4.9907 -0.6055,4.8342 -4.4042,-0.1576 -7.7411,-0.0842 -12.149,-0.1222 -0.0759,-2.8879 -0.5051,-6.3969 -0.5814,-9.2849 -3.8324,-1.7152 -7.5526,-2.8411 -11.855,-3.6394 -1.6997,-0.3149 -4.03,-0.9448 -5.6911,-1.6384 -1.8715,-0.7809 -4.7747,-2.4783 -6.4613,-3.7735 -2.8636,-2.1997 -8.2321,-8.5804 -10.7173,-13.6856 -0.2542,-5.0001 0.0168,-11.0827 -0.0572,-16.4892 -0.0173,-1.2798 -0.3149,-2.0103 0.9368,-3.2255 l 11.8089,-12.9441 c 0.3183,-0.2946 0.6508,-0.5352 0.2852,-0.9006 l -3.7049,-4.7427 c -1.5531,0.1511 -4.1726,1.1722 -7.0141,1.2277 -3.0688,0.0598 -6.321,-0.9073 -6.6308,-2.5361 -0.3625,-1.9049 -1.0321,-4.0315 -3.0073,-4.6772 -0.746,-0.2435 -1.5355,-0.2951 -1.7192,0.606 -0.2514,1.232 -1.0298,4.9136 -1.0533,6.0979 -0.0712,3.5085 0.3438,6.1027 2.4171,8.9924 0.2738,0.4382 1.1245,0.3526 2.2221,-0.2373 2.6793,-1.4394 7.3479,-3.4605 9.2341,-3.4271 2.6283,-0.0399 3.5722,1.9392 2.4077,3.0904 -2.5795,3.0257 -6.0193,5.5587 -9.1913,7.757 -0.6987,0.4841 -1.4023,1.1299 -3.407,0.7353 -3.247,-0.5463 -5.8325,-2.266 -7.0245,-5.4893 -0.8339,-2.2567 -2.7451,-3.805 -4.1723,-5.2322 -1.167,-1.1676 -1.1375,0.0587 -1.0712,0.809 0.2577,2.9123 1.5063,5.9437 2.4687,9.1089 0.3591,1.1792 1.277,2.7496 1.9732,3.4945 1.2948,1.3862 1.8813,2.8006 2.6597,4.2336 0.6049,1.1131 1.3153,4.0544 0.7546,4.8875 -1.8252,2.7153 -2.4542,0.9751 -4.6477,-0.436 -6.7479,-4.3407 -17.4761,-18.1846 -17.1329,-29.359 0.5585,-18.1633 5.5602,-26.9172 16.9813,-40.9666 2.7224,-3.3491 6.8113,-7.1059 9.4535,-10.4709 11.9928,-15.2745 34.6164,-24.7623 51.9936,-23.4411 0.6982,0.057 1.2116,0.5981 1.539,1.1971 0.7038,1.3016 0.6956,2.9452 0.1457,3.99 -0.4133,0.7036 -1.1699,0.7779 -1.8811,0.7416 -23.2557,-1.1869 -40.5309,11.6353 -56.0568,34.033 -4.4892,6.4758 -1.1393,9.5582 -0.1347,10.6829 1.2459,1.395 3.0782,2.1674 5.5199,2.0226 5.3349,-0.3175 6.7607,-0.15 8.3118,2.1498 2.5194,3.7335 4.3274,5.0918 7.3828,8.1711 2.9705,2.9928 9.4748,6.0936 14.1239,7.4809 1.6229,1.9483 7.3432,8.2001 9.7044,9.4983 2.5697,1.4126 3.007,0.0349 2.4018,-0.7154 -1.9318,-2.3916 -1.4147,-5.5505 0.389,-6.5996 1.199,-0.6974 3.1504,-1.1963 3.6269,-2.4982 0.3506,-0.9601 -0.3016,-1.4749 -1.1231,-2.2161 -1.9602,-1.77 -4.8387,-5.7447 0.462,-13.7435 2.2417,-2.6527 4.0275,-5.4871 6.7255,-7.9569 -0.3084,-6.2699 2.13,-17.0226 4.0522,-17.013 l -0.0499,-35.2459 c -18.2705,0.4784 -37.1498,6.1769 -54.307,19.7007 -1.0083,0.9355 -1.3842,-0.3262 -1.6334,-0.9975 -0.7591,-2.0466 -4.5076,-7.9341 -6.0783,-9.4813 -4.5533,-4.4855 -7.5268,-5.8039 -12.7451,-5.9278 -3.6938,-0.0879 -3.8129,1.5131 -3.8299,3.1428 -0.0207,1.9207 1.5066,2.5968 2.9633,3.5373 10.9432,7.0654 12.5564,15.3822 8.5473,23.3479 -2.2694,4.509 -6.3813,7.948 -9.2307,12.2187 -6.9525,10.4207 -13.862,21.056 -13.5661,34.2221 0.4661,20.7074 13.9595,35.6448 28.2178,45.8175 0.6316,0.4703 0.5511,1.1744 0.0284,1.26 -13.5128,5.8765 -35.019,19.9797 -50.5608,35.0334 -0.3707,0.4368 -1.148,0.0343 -0.8061,-0.7832 4.6978,-10.7011 16.3451,-23.1437 30.2479,-29.9407 0.2375,-0.1613 0.2616,-0.4799 -0.057,-0.7409 l -5.0499,-2.5538 c -15.7717,4.3053 -25.0804,10.3765 -36.5644,21.9096 -0.4595,0.4617 -1.406,0.3991 -1.3929,0.178 0.7914,-13.2205 20.5993,-25.4702 32.4278,-28.7615 -0.057,-2.1095 0.2267,-2.3127 0.4033,-3.6978 -10.4675,-6.0808 -6.0916,-16.6546 -5.1114,-19.5548 -1.8125,-1.9017 -7.5711,-4.8784 -2.8789,-13.4109 -5.1159,-3.2582 -2.3879,-10.7774 -0.5726,-14.1554 1.5483,-2.8812 3.9405,-7.4841 6.9996,-10.1914 -1.0678,-9.0547 5.3881,-16.1493 14.4887,-20.9183 z m 42.4988,30.6057 c -1.7519,-1.3059 -3.2284,-6.0602 -3.3061,-8.9028 -0.0176,-0.6576 0.2205,-0.9896 0.9079,-1.171 0.5502,-0.1451 1.3635,-0.3061 1.9551,-0.3795 0.409,-0.0511 0.4476,-1.8301 -0.4158,-1.8638 -8.8977,-0.3481 -16.7151,-2.0197 -12.7962,-13.3722 6.0012,-17.3846 23.3507,-27.553 38.2569,-29.1546 10.8621,-1.167 12.9589,2.3519 7.8659,8.3789 -1.3963,1.5486 -2.9891,3.987 -3.7616,5.438 -2.1019,3.9464 -3.0509,7.2819 -2.6475,10.3351 1.5261,11.5668 -1.9772,13.131 -4.8082,20.3415 -0.2888,0.737 -1.3252,5.8339 -2.8842,8.2077 -0.4748,0.7222 -1.8077,1.741 -2.679,1.7209 -2.9506,-0.0672 -4.5924,-3.8461 -6.2116,-5.9871 -0.2007,-0.265 -0.5865,-0.7835 -0.9397,-0.8107 -0.5275,-0.0414 -0.9646,-0.1431 -2.0421,-0.1068 -0.9813,0.0323 -3.0634,-0.1954 -4.1788,-0.0392 -1.2169,0.1704 -1.0434,0.5947 -0.9453,2.3389 0.1063,1.8859 0.6451,2.45 1.7376,2.4483 1.0168,-0.002 3.1915,-0.3697 4.1669,-0.9666 0.5593,-0.3416 0.8816,-0.58 1.5392,-0.171 0.957,0.595 0.9825,1.6121 1.277,2.4642 -3.0875,1.7711 -6.5755,3.8724 -10.0904,1.2518 z m 19.4388,101.7295 c -3.0075,-5.7839 -7.9438,-13.3362 -8.778,-23.141 -0.5361,-6.3076 5.0077,-6.3402 8.4812,-2.5704 0.1959,8.2766 -0.447,19.0083 1.2623,25.2663 0.1029,0.377 -0.7849,0.7923 -0.9655,0.4451 z m -6.4017,7.5557 c 5e-4,-3.2737 2.0732,-3.4302 3.3338,-2.9211 0.5757,0.2818 0.4595,0.9371 0.5845,1.4034 0.8487,3.1615 3.2927,6.5733 6.4131,8.3288 3.418,1.9233 7.1719,2.9565 11.8584,1.7036 0.2314,-0.0623 0.4111,-0.0451 0.4703,0.1242 0.392,1.1168 0.7203,2.6515 -0.0462,3.6867 -1.7634,2.6283 -9.9204,3.3225 -15.2186,-0.1134 -4.072,-2.914 -7.1462,-7.4523 -7.3953,-12.2122 z"
         style="fill:#272123;fill-rule:evenodd"
         id="path63" />
      <path
         d="m 273.2094,445.074 c -5.658,-7.2343 -9.3535,-10.7173 -15.0988,-16.4302 -1.0289,-1.023 -4.1757,-2.8675 -5.2324,-3.4053 -1.294,-0.6593 -3.0215,-0.8008 -3.1471,0.3249 -0.2945,2.6314 0.275,3.558 1.9724,6.3266 4.0116,6.5444 19.2753,15.6303 21.7806,15.7198 1.4666,0.0528 0.3775,-1.7022 -0.2747,-2.5358 z"
         style="fill:#272123;fill-rule:evenodd"
         id="path65" />
      <path
         d="m 257.377,422.4501 c 3.3696,1.9094 7.1139,6.1222 9.6353,8.5657 2.5846,2.5044 3.0211,3.5566 4.799,5.2214 0.8193,0.7662 3.0065,-0.2477 2.295,-1.9009 -1.3865,-3.221 -2.1955,-4.3673 -5.2376,-7.9004 -2.1336,-2.4778 -6.0602,-6.4211 -8.1505,-7.5824 -2.0338,-1.1305 -4.2627,-1.0576 -4.8262,-0.5321 -1.48,1.3808 -0.4,3.0612 1.485,4.1287 z"
         style="fill:#272123;fill-rule:evenodd"
         id="path67" />
      <path
         d="m 264.3953,415.2512 c 2.7499,2.9665 4.1463,4.093 6.014,6.1129 0.9,0.9734 2.797,3.1011 3.5019,4.248 0.3708,0.6044 1.1566,1.4568 1.9919,1.408 0.9905,-0.0587 1.7969,-0.868 1.5251,-1.5242 -2.732,-6.5922 -4.7325,-9.0612 -9.968,-14.0805 -0.4295,-0.4119 -1.6915,-1.0372 -2.2842,-1.0931 -1.2495,-0.1173 -1.4664,0.0754 -2.1322,0.3374 -1.4494,0.57 -0.7778,1.4592 -0.5213,2.1055 0.4039,1.0145 1.4176,1.9951 1.8728,2.486 z"
         style="fill:#272123;fill-rule:evenodd"
         id="path69" />
      <path
         d="m 273.4815,360.7316 c -3.1864,1.9834 -4.1235,15.0426 0.9006,19.6813 0.3739,0.3449 0.7013,0.6831 0.7639,-0.4272 0.1236,-2.1983 -0.4765,-4.0326 -0.7982,-6.2467 -0.5715,-3.93 -0.0491,-8.212 0.2336,-12.312 0.0742,-1.0772 -0.2648,-1.215 -1.0999,-0.6954 z"
         style="fill:#272123;fill-rule:evenodd"
         id="path71" />
      <path
         d="m 265.2469,357.2833 c 1.7552,0.0306 3.0875,-0.7515 4.1723,-1.8686 2.59,-2.668 4.8753,-6.8667 7.2159,-10.3626 1.1627,-1.7555 0.8676,-2.8086 0.2735,-4.1038 -0.4742,-1.0349 -2.1064,-1.1341 -3.1003,-0.4563 -4.985,3.3987 -11.0165,9.9365 -11.6733,12.9503 -0.9771,4.4819 1.3589,3.8112 3.1119,3.841 z"
         style="fill:#272123;fill-rule:evenodd"
         id="path73" />
      <path
         d="m 337.6142,428.711 c -6.0593,6.2682 -12.1175,11.6149 -18.9808,17.4554 -0.2332,0.1985 -0.2514,0.4221 -0.17,0.6044 0.0952,0.2134 0.3274,0.3702 0.5119,0.3645 4.9592,-0.1531 15.711,-6.0834 22.3724,-15.1325 1.6337,-2.2189 3.1366,-4.5558 3.1953,-7.4888 0.0221,-1.114 -0.1639,-2.3137 -0.6302,-3.6255 -0.1213,-0.3408 -0.6174,-0.6852 -1.0122,-0.2424 -0.9454,1.0605 -1.6708,2.6368 -2.1804,3.8897 -0.6469,1.5914 -2.0965,3.1306 -3.106,4.1752 z"
         style="fill:#5b5758;fill-rule:evenodd"
         id="path75" />
      <path
         d="m 319.5071,438.766 c 3.007,-2.0174 5.8802,-4.2565 8.2641,-6.9537 3.5232,-3.9857 7.9036,-9.1542 8.8268,-12.8715 9e-4,-0.004 0.002,-0.007 0.003,-0.0111 0.0147,-0.0595 0.0286,-0.1187 0.0414,-0.1774 0.0515,-0.2342 -0.2523,-0.4153 -0.4491,-0.2778 -3.1796,2.2297 -6.6903,5.1962 -10.3235,8.507 -3.634,3.3115 -6.9205,7.1436 -7.0188,11.4194 v 0.0145 c 8e-4,0.0266 0.005,0.053 0.013,0.0785 0.0729,0.2398 0.4329,0.413 0.6435,0.2721 z"
         style="fill:#5b5758;fill-rule:evenodd"
         id="path77" />
      <path
         d="m 318.9461,426.329 c 1.1537,-0.6976 1.9193,-1.9633 2.5937,-3.1065 2.3559,-3.9926 5.567,-7.0024 9.2194,-9.362 0.8362,-0.54 2.3171,-0.8702 2.6073,-2.0089 0.0482,-0.1893 0.0981,-0.3926 0.1194,-0.5978 0.0538,-0.5162 -0.0715,-1.0468 -0.8456,-1.4114 -1.1353,-0.5352 -2.5124,-0.2897 -3.7622,-0.1709 -0.5935,0.0556 -1.2123,0.2823 -1.6528,0.6837 -5.5781,5.0885 -10.6314,10.7317 -10.6728,17.2707 -2e-4,0.0411 10e-4,0.0827 0.005,0.1238 0.0357,0.3915 0.2543,0.7523 0.6928,0.4317 0.5967,-0.4365 1.0154,-1.4408 1.6954,-1.8524 z"
         style="fill:#5b5758;fill-rule:evenodd"
         id="path79" />
      <path
         d="m 327.9464,357.2833 c -1.7552,0.0306 -3.0875,-0.7515 -4.1723,-1.8686 -2.59,-2.668 -4.8753,-6.8667 -7.2159,-10.3626 -1.1628,-1.7555 -0.8677,-2.8086 -0.2735,-4.1038 0.4742,-1.0349 2.1064,-1.1341 3.1002,-0.4563 4.985,3.3987 11.0166,9.9365 11.6734,12.9503 0.9771,4.4819 -1.359,3.8112 -3.1119,3.841 z"
         style="fill:#272123;fill-rule:evenodd"
         id="path81" />
      <path
         d="m 319.8728,360.7316 c 3.1864,1.9834 4.1235,15.0426 -0.9006,19.6813 -0.3739,0.3449 -0.7013,0.6831 -0.7639,-0.4272 -0.1236,-2.1983 0.4765,-4.0326 0.7982,-6.2467 0.5715,-3.93 0.049,-8.212 -0.2336,-12.312 -0.0743,-1.0772 0.2648,-1.215 1.0999,-0.6954 z"
         style="fill:#272123;fill-rule:evenodd"
         id="path83" />
      <path
         d="m 323.7741,355.4147 c 1.0848,1.1171 2.4171,1.8992 4.1723,1.8686 1.7529,-0.0298 4.089,0.6409 3.1119,-3.841 -0.6568,-3.0138 -6.6884,-9.5516 -11.6734,-12.9503 -0.9938,-0.6778 -2.626,-0.5786 -3.1002,0.4563 -0.5942,1.2952 -0.8893,2.3483 0.2735,4.1038 2.3406,3.4959 4.6259,7.6946 7.2159,10.3626 z"
         style="fill:#5b5758;fill-rule:evenodd"
         id="path85" />
      <path
         d="m 318.9722,380.4129 c 5.0241,-4.6387 4.087,-17.6979 0.9006,-19.6813 -0.8351,-0.5196 -1.1742,-0.3818 -1.0999,0.6954 0.2826,4.1 0.8051,8.382 0.2336,12.312 -0.3217,2.2141 -0.9218,4.0484 -0.7982,6.2467 0.0626,1.1103 0.39,0.7721 0.7639,0.4272 z"
         style="fill:#5b5758;fill-rule:evenodd"
         id="path87" />
      <path
         d="m 113.9737,420.6603 c 0,-50.7158 20.5572,-96.6311 53.7931,-129.8673 33.2362,-33.236 79.1515,-53.7931 129.8673,-53.7931 50.7158,0 96.6311,20.5571 129.8673,53.7931 33.236,33.2362 53.7931,79.1515 53.7931,129.8673 0,50.7158 -20.5571,96.6311 -53.7931,129.8673 -33.2362,33.2359 -79.1515,53.7931 -129.8673,53.7931 -50.7158,0 -96.6311,-20.5572 -129.8673,-53.7931 -33.2359,-33.2362 -53.7931,-79.1515 -53.7931,-129.8673 z m 51.0735,-163.5432 -22.1675,-19.8879 c -0.3018,-0.2301 -2.0644,-1.8603 -2.7731,-2.9021 -1.0122,-1.4879 -0.8209,-4.0853 1.1631,-5.4351 2.7768,-1.8896 4.6746,-0.061 7.1594,2.3116 l 18.8178,17.5238 -7.9877,-22.9345 c -1.0429,-2.9183 -1.5571,-4.5273 -1.3734,-6.1762 0.0595,-0.7659 0.7909,-2.5699 2.4276,-3.6836 1.3887,-0.9451 3.2992,-1.2294 4.3174,-0.906 1.6351,0.4836 2.6751,1.372 5.2413,3.5436 l 18.4025,15.8477 -9.3951,-23.9355 c -1.0721,-2.5356 -1.6183,-3.9781 -1.198,-5.2798 0.3073,-0.9346 0.8825,-1.6889 1.6263,-2.1951 2.0826,-1.4174 4.5195,-0.6083 5.5658,0.9292 0.6749,0.9915 1.4774,3.1303 1.6481,3.5946 l 10.3646,27.9198 c 1.6222,4.4102 2.7822,7.3939 -0.6897,9.7566 -3.4713,2.3621 -5.9204,0.2557 -9.3421,-2.6399 l -20.2641,-17.4107 8.7089,25.2737 c 1.5214,4.2616 2.5478,7.2632 -0.9238,9.6253 -3.4713,2.3624 -5.8708,0.2223 -9.3283,-2.9395 z m -61.4701,-30.2329 c -49.6638,49.6641 -80.382,118.2753 -80.382,194.0607 0,75.7854 30.7182,144.3965 80.382,194.0607 49.6641,49.6638 118.2753,80.382 194.0607,80.382 75.7854,0 144.3966,-30.7182 194.0607,-80.382 49.6638,-49.6642 80.382,-118.2753 80.382,-194.0607 0,-75.7854 -30.7182,-144.3966 -80.382,-194.0607 -49.6641,-49.6639 -118.2753,-80.3821 -194.0607,-80.3821 -75.7854,0 -144.3966,30.7182 -194.0607,80.3821 z m 307.2226,15.6161 17.3021,-23.4641 c 2.1713,-2.9449 2.7768,-3.7656 4.6936,-4.1411 1.5809,-0.3246 3.0776,0.7789 4.6225,1.9182 l 8.4489,6.2299 c 2.5104,1.8514 5.2903,4.3484 6.4205,6.1509 3.8409,6.1115 0.3112,11.7071 -1.0418,13.5417 -2.9548,4.0073 -7.2513,6.8017 -13.117,5.4576 -2.4882,-0.5675 -5.4054,-2.2717 -7.8194,-4.0519 l -6.4695,-4.7704 -6.0877,8.2556 c -0.8903,1.2073 -2.467,3.5476 -4.2868,3.9943 -0.8742,0.1749 -1.9647,0.3399 -3.5099,-0.7994 -1.3036,-0.9615 -1.9893,-2.6591 -1.7475,-3.897 0.3489,-1.3828 0.9187,-2.1552 2.592,-4.4243 z m -1.0162,350.5427 c 10.5885,-6.3708 19.6168,-1.3722 21.7508,2.1748 0.7115,1.182 0.9921,3.7434 -1.3723,5.1658 -1.9017,1.1447 -3.0858,0.4567 -6.3595,-1.4938 -3.2431,-1.8992 -7.276,-1.853 -10.5143,0.0949 -5.4995,3.3092 -7.6926,10.0196 -1.9715,19.5287 3.1547,5.2427 6.2643,7.5025 9.3107,8.2599 3.5399,0.8805 6.4293,-0.3682 8.2284,-1.4505 5.2424,-3.1546 5.6171,-8.0005 4.9136,-11.4976 -0.3626,-1.8819 -0.7461,-4.0314 1.4641,-5.3614 1.5423,-0.9278 3.9702,-0.849 5.2384,1.2588 1.6696,2.7754 2.1702,8.1448 0.0468,12.9932 -1.0772,2.3984 -2.9152,5.3943 -7.8494,8.3633 -6.7848,4.0825 -11.9801,4.0581 -16.2927,2.5923 -5.5267,-1.855 -9.8011,-5.9343 -12.8013,-10.9202 -7.0512,-11.7189 -4.1236,-23.4918 6.2082,-29.7082 z m -234.9491,-6.1302 20.2992,13.5655 c 2.0446,1.3671 3.4078,2.1336 3.5892,3.4815 0.1497,0.7489 0.165,1.6971 -0.468,2.6456 -0.5337,0.7974 -1.3495,1.2623 -2.2152,1.4774 -1.3644,0.3146 -2.5943,-0.6517 -4.6392,-2.0183 l -6.5339,-4.3662 -16.5322,24.7377 c -1.6333,2.4437 -2.6663,3.9903 -4.3469,4.2375 -0.7988,0.1157 -2.0963,0.1142 -3.244,-0.6525 -0.9473,-0.6336 -1.6781,-1.6988 -1.9434,-2.8143 -0.3637,-1.6137 0.7188,-3.1266 2.3524,-5.5709 l 16.5325,-24.7374 -6.5837,-4.3996 c -2.0446,-1.3666 -3.4081,-2.1337 -3.5898,-3.4813 -0.1483,-0.7489 -0.1976,-1.6472 0.4691,-2.645 0.5001,-0.7483 1.2657,-1.2466 2.2142,-1.4782 1.3649,-0.3147 2.5951,0.6517 4.6397,2.0185 z m 237.7738,-361.252 c -4.2679,8.6632 -13.8172,18.0019 -28.6149,10.7115 -14.798,-7.2907 -13.3736,-20.4982 -9.1579,-29.054 5.4609,-11.0849 15.7,-17.2083 28.5608,-10.872 15.6585,7.7148 13.0561,21.4121 9.212,29.2145 z m -29.5087,383.2336 c 2.2334,-0.8771 3.4061,-1.3371 4.5726,-0.828 0.6993,0.305 1.453,0.9113 1.8476,1.9167 0.3286,0.8374 0.3226,1.8066 -0.0502,2.6618 -0.5091,1.1662 -1.6815,1.6268 -3.9149,2.5035 l -14.6302,5.743 4.0113,10.2186 12.0612,-4.7347 c 2.1778,-0.8549 3.3165,-1.2376 4.4268,-0.7069 0.5446,0.2375 1.4097,0.8002 1.8043,1.8054 0.4603,1.1727 0.1749,2.251 -0.1066,2.6835 -0.6423,1.1546 -1.7152,1.7045 -3.6697,2.4718 l -12.0611,4.7347 4.4058,11.2235 c 0.9207,2.3451 3.0212,6.5472 -1.3901,8.2789 -4.1879,1.6438 -5.5326,-2.2745 -6.6503,-5.1225 L 363.1031,624.606 c -1.4468,-3.6854 -1.7099,-4.3555 -1.0196,-6.0441 0.6905,-1.6891 1.6954,-2.0834 5.1018,-3.4205 z M 228.3083,230.3289 c -15.5477,5.5128 -24.0145,-4.7231 -27.2021,-13.7129 -4.1295,-11.6465 -1.3714,-23.2535 12.1414,-28.0449 16.4522,-5.8334 24.4482,5.588 27.3551,13.786 3.2276,9.1024 3.2534,22.4589 -12.2944,27.9718 z m 22.3382,-14.6433 -4.5417,-28.7974 c -0.5885,-3.733 -0.7194,-4.5627 0.3101,-6.1217 0.9887,-1.4312 2.4018,-1.715 5.7197,-2.238 l 12.0286,-1.8969 c 3.1997,-0.5046 6.8332,-0.9561 10.0669,0.2951 3.5578,1.3822 6.4106,4.4543 7.1303,9.017 1.4482,9.1842 -6.2705,12.2235 -8.962,13.2554 3.8044,1.404 6.8071,4.2703 9.354,7.3301 1.5716,1.8776 4.5179,5.5428 4.7889,7.2609 0.252,1.5999 -0.9987,3.6794 -3.6652,4.1 -2.7255,0.4298 -4.2378,-1.4567 -6.844,-4.5076 l -4.4027,-5.1965 c -5.3689,-6.319 -7.5456,-6.6435 -11.2785,-6.0545 l -3.0223,0.4765 1.8504,11.7323 c 0.4672,2.9628 1.3587,7.0727 -3.2632,7.8018 -4.1482,0.6542 -4.7464,-3.1379 -5.2693,-6.4565 z m 40.8551,-5.5301 1.4409,-29.9588 c 0.1383,-2.8763 0.2307,-4.7934 1.4836,-5.8745 0.6877,-0.5672 1.7978,-1.1744 3.176,-1.1083 1.1387,0.055 2.3139,0.5921 3.0554,1.4082 1.141,1.2563 1.0542,3.0538 0.9131,5.9893 l -0.6313,13.1222 17.9924,-16.9716 c 1.3217,-1.2577 2.5177,-2.401 4.5547,-2.3034 2.8162,0.1354 4.0906,2.3592 4.0186,3.8571 -0.049,1.019 -0.4694,2.26 -2.2246,3.7964 l -11.0268,9.4995 11.3848,18.0235 c 1.0576,1.7322 2.3259,4.0759 2.2422,5.813 -0.0978,2.0373 -1.6733,3.5833 -4.3696,3.4532 -3.5348,-0.1698 -4.6576,-3.0464 -6.0432,-5.4553 l -9.4852,-16.3111 -7.5187,6.4848 -0.4266,8.8676 c -0.0487,1.0188 -0.3152,2.8077 -1.2656,3.8432 -0.6339,0.69 -1.8037,1.2946 -3.2417,1.2252 -1.6183,-0.0777 -3.2497,-1.1172 -3.6718,-2.3389 -0.4756,-1.3439 -0.4546,-3.0243 -0.3566,-5.0613 z M 55.6313,401.525 c 2.1796,0 2.1796,2.4049 2.1796,3.2692 v 20.5543 c 0,0.9394 0,3.6825 -2.48,3.6825 -2.1796,0 -2.5178,-1.8414 -2.5178,-3.4571 v -16.1955 c -3.2692,2.48 -5.1854,3.5699 -6.2376,3.5699 -1.0896,0 -1.9916,-0.7891 -1.9916,-2.0667 0,-2.3675 5.4861,-2.4426 8.6802,-7.4027 0.9017,-1.3904 1.2399,-1.9539 2.3672,-1.9539 z m 19.878,0 c 7.816,0 8.7554,5.4111 8.7554,7.0645 0,2.9308 -2.2173,4.8096 -3.6825,5.4859 2.5925,1.0522 4.6219,3.0813 4.6219,6.7263 0,3.9079 -2.668,8.2293 -9.4695,8.2293 -7.5529,0 -9.5442,-4.9227 -9.5442,-8.1919 0,-4.9223 3.4568,-6.275 4.6219,-6.7637 -0.902,-0.4133 -3.7576,-1.7283 -3.7576,-5.5236 0,-3.2692 2.6302,-7.0268 8.4546,-7.0268 z m 118.1951,222.2924 c 4.9314,-11.331 14.8697,-17.9309 28.0153,-12.2094 16.0062,6.9664 14.0537,20.7711 10.5826,28.7467 -3.8542,8.8554 -12.9517,18.6344 -28.0774,12.0512 -15.126,-6.5835 -14.3269,-19.8434 -10.5205,-28.5885 z m 60.5523,29.7952 9.333,-22.4209 c 1.1685,-2.8704 1.8573,-4.4127 3.0938,-5.5196 0.5547,-0.5312 2.3023,-1.3882 4.2647,-1.1271 1.6651,0.2211 3.2791,1.2827 3.8222,2.202 0.8966,1.4507 1.0795,2.8063 1.5449,6.1358 l 3.1541,24.0803 8.9521,-24.1055 c 0.8904,-2.6047 1.4448,-4.0439 2.626,-4.7344 0.8521,-0.4918 1.7836,-0.6704 2.6756,-0.5519 2.4974,0.3319 3.7747,2.5591 3.5298,4.4022 -0.1579,1.1897 -0.9857,3.3188 -1.1679,3.7786 l -10.8848,27.7214 c -1.7305,4.3693 -2.855,7.3661 -7.0174,6.8133 -4.1627,-0.5533 -4.5839,-3.7559 -5.2044,-8.1958 l -3.5,-26.4861 -10.3552,24.645 c -1.7065,4.191 -2.9424,7.113 -7.1045,6.56 -4.1627,-0.5534 -4.5249,-3.7483 -4.9946,-8.4096 l -3.2675,-29.6019 c -0.0715,-0.3728 -0.2985,-2.7629 -0.1324,-4.0119 0.237,-1.7838 2.1109,-3.5923 4.4898,-3.276 3.3301,0.4425 3.5254,3.0705 3.7964,6.495 z m 60.5562,-22.4975 19.3082,23.3694 -2.7485,-25.3459 c -0.0516,-0.4771 -0.2846,-2.6241 0.6129,-3.8075 0.5318,-0.6611 1.4085,-1.4803 2.8397,-1.6354 1.0735,-0.1162 2.2584,0.2379 3.1179,0.929 1.1897,0.9572 1.3578,2.5075 1.6747,5.43 l 3.0977,28.5664 c 0.3038,2.8029 1.487,8.7083 -4.1783,9.3226 -2.6838,0.2911 -3.6882,-0.6256 -6.9568,-4.6156 l -18.8918,-22.8711 2.5155,23.1985 c 0.3166,2.9225 0.538,4.4067 -0.4192,5.5967 -0.4785,0.595 -1.4148,1.4204 -2.846,1.5758 -1.0735,0.1165 -2.2519,-0.1783 -3.1179,-0.9289 -1.1367,-1.0231 -1.3578,-2.5076 -1.6681,-5.3703 l -3.1298,-28.8646 c -0.485,-4.4728 -0.6273,-5.785 0.9406,-7.4633 0.4847,-0.5352 1.474,-1.4267 3.2635,-1.6212 1.7294,-0.1874 2.8145,0.3589 3.8253,1.3351 0.4692,0.432 1.8624,2.1515 2.7604,3.2003 z M 506.6946,415.086 c 0,-1.7286 0.1128,-7.4404 2.7808,-10.935 1.8037,-2.3675 4.5842,-3.6073 7.4778,-3.6073 6.2376,0 7.8534,4.3588 7.8534,5.8243 0,0.8643 -0.7515,1.9539 -1.9916,1.9539 -3.3818,0 -1.5781,-4.1709 -5.8995,-4.1709 -1.1273,0 -3.119,0.4133 -4.2086,3.2315 -0.714,1.8788 -0.8643,4.4343 -0.9394,5.6741 1.6157,-1.9165 3.4945,-2.8933 6.05,-2.8933 5.0352,0 8.079,4.246 8.079,8.7177 0,4.7347 -3.3069,9.1689 -9.3192,9.1689 -6.2002,0 -9.8827,-4.7347 -9.8827,-12.9639 z m 31.6398,-12.5884 c 0.9017,-1.3904 1.2398,-1.9539 2.3672,-1.9539 2.1795,0 2.1795,2.4049 2.1795,3.2692 v 20.5545 c 0,0.9394 0,3.6825 -2.4803,3.6825 -2.1793,0 -2.5174,-1.8414 -2.5174,-3.4571 V 408.397 c -3.2692,2.4801 -5.1857,3.57 -6.238,3.57 -1.0896,0 -1.9916,-0.7892 -1.9916,-2.0667 0,-2.3675 5.4865,-2.4427 8.6806,-7.4027 z M 347.2696,223.6207 c -14.4853,-3.3911 -14.3799,-13.8399 -13.8195,-16.2346 0.3969,-1.6937 2.2048,-3.3653 4.7166,-2.7771 2.336,0.5471 2.6093,2.2742 3.1972,5.5539 0.3042,1.8578 1.2223,5.8311 7.0631,7.1983 4.0297,0.9437 8.9648,0.1273 9.9629,-4.1363 1.0667,-4.5556 -3.4631,-6.7867 -8.3877,-9.1718 -5.7909,-2.8959 -7.6025,-4.3679 -9.1298,-6.2654 -1.7059,-2.1861 -3.0631,-5.3377 -2.1059,-9.4263 1.6407,-7.0087 8.5754,-10.3142 18.4465,-8.0031 12.4991,2.9259 13.0787,11.5021 12.5592,13.722 -0.3694,1.5766 -2.2595,3.5985 -4.7708,3.0106 -2.2782,-0.5335 -2.6821,-2.2294 -3.2581,-4.7673 -0.373,-1.5658 -1.091,-4.8143 -6.4647,-6.0724 -3.5623,-0.8339 -7.6697,-0.1321 -8.4492,3.197 -0.8751,3.7383 3.5512,5.8835 7.6858,7.9602 6.5676,3.2624 8.7472,5.0051 10.5563,7.2768 2.6246,3.2638 2.3235,7.4441 1.8311,9.5468 -1.7092,7.3007 -8.7692,11.9319 -19.633,9.3887 z"
         style="fill:#272123;fill-rule:evenodd"
         id="path89" />
      <path
         d="m 80.2063,420.6889 c 0,-3.0435 -2.0667,-4.7721 -4.5468,-4.7721 -2.029,0 -4.4716,1.3527 -4.4716,4.7721 0,3.2315 2.3298,4.885 4.5093,4.885 2.3672,0 4.5091,-1.8037 4.5091,-4.885 z"
         style="fill:#272123;fill-rule:evenodd"
         id="path91" />
      <path
         d="m 75.6595,412.4597 c 2.1796,0 3.8705,-1.4279 3.8705,-3.6825 0,-1.954 -1.3904,-3.7951 -3.8705,-3.7951 -2.5177,0 -3.8704,1.8411 -3.8704,3.7951 0,2.3298 1.7286,3.6825 3.8704,3.6825 z"
         style="fill:#272123;fill-rule:evenodd"
         id="path93" />
      <path
         d="m 219.1317,618.0049 c -3.0251,-1.3167 -11.74,-3.5396 -17.2701,9.1664 -1.3167,3.0251 -2.2172,6.2969 -1.881,9.5831 0.4096,4.1692 3.0917,7.6263 6.887,9.2784 2.5302,1.1012 11.7474,3.6734 17.3251,-9.1421 3.3517,-7.7006 2.6943,-15.5103 -5.061,-18.8858 z"
         style="fill:#272123;fill-rule:evenodd"
         id="path95" />
      <path
         d="m 512.1808,418.6933 c 0,2.668 1.5783,5.7493 4.5468,5.7493 2.931,0 4.1711,-2.8185 4.1711,-5.4862 0,-3.5323 -1.9542,-5.336 -4.2086,-5.336 -1.5406,0 -4.5093,1.1648 -4.5093,5.0729 z"
         style="fill:#272123;fill-rule:evenodd"
         id="path97" />
      <path
         d="m 432.6066,237.488 c 2.0761,1.531 7.3766,5.6634 11.2927,0.3524 1.4241,-1.9313 1.6942,-4.1171 0.8867,-6.054 -0.673,-1.614 -3.0994,-3.4781 -4.5964,-4.5819 l -4.7795,-3.5243 -7.5833,10.2835 z"
         style="fill:#272123;fill-rule:evenodd"
         id="path99" />
      <path
         d="m 386.9342,230.1307 c 2.4752,1.2198 11.5606,4.2248 17.7378,-8.3132 3.7114,-7.5333 3.4237,-15.3649 -4.1635,-19.1035 -2.9594,-1.4576 -11.5597,-4.0907 -17.6836,8.3401 -1.4582,2.9594 -2.5124,6.1849 -2.3318,9.4836 0.212,4.1839 2.7283,7.7638 6.4411,9.593 z"
         style="fill:#272123;fill-rule:evenodd"
         id="path101" />
      <path
         d="m 264.0694,195.2901 c 3.1997,-0.5049 9.5898,-1.5735 8.6553,-7.4988 -0.3833,-2.4293 -1.9982,-3.8146 -3.5419,-4.3605 -1.2875,-0.4649 -3.0249,-0.3121 -6.6393,0.2576 l -7.9994,1.2615 1.8221,11.5548 z"
         style="fill:#272123;fill-rule:evenodd"
         id="path103" />
      <path
         d="m 225.8901,223.867 c 2.6005,-0.9221 11.0925,-5.3331 6.4216,-18.5066 -2.8066,-7.9151 -8.6173,-13.174 -16.5892,-10.3473 -3.1096,1.1024 -10.9962,5.4261 -6.3652,18.4865 1.1024,3.1096 2.6773,6.1151 5.1664,8.2879 3.1451,2.7672 7.4651,3.4628 11.3664,2.0795 z"
         style="fill:#272123;fill-rule:evenodd"
         id="path105" />
    </g>
  </g>
</svg>
